<svg width="1038" height="624" viewBox="0 0 1038 624" fill="none" xmlns="http://www.w3.org/2000/svg">
<path d="M593.511 156.277C591.881 156.283 590.278 155.857 588.866 155.042L540.065 126.858C539.533 126.553 539.09 126.113 538.783 125.582C538.475 125.051 538.313 124.448 538.313 123.835C538.313 123.221 538.475 122.618 538.783 122.088C539.09 121.557 539.533 121.117 540.065 120.812L645.887 59.724C647.288 58.9151 648.877 58.4893 650.495 58.4893C652.112 58.4893 653.701 58.9151 655.102 59.724L703.922 87.9268C704.45 88.233 704.888 88.6726 705.193 89.2015C705.498 89.7305 705.658 90.3302 705.658 90.9406C705.658 91.5511 705.498 92.1508 705.193 92.6797C704.888 93.2086 704.45 93.6483 703.922 93.9545L598.136 155.042C596.73 155.854 595.134 156.28 593.511 156.277ZM650.476 60.2217C649.149 60.2132 647.843 60.5635 646.698 61.2356L540.931 122.286C540.667 122.447 540.448 122.671 540.293 122.938C540.139 123.206 540.054 123.508 540.046 123.816C540.046 124.124 540.128 124.426 540.284 124.692C540.439 124.958 540.663 125.177 540.931 125.328L589.751 153.623C590.897 154.284 592.197 154.633 593.52 154.633C594.843 154.633 596.143 154.284 597.289 153.623L703.019 92.4614C703.266 92.2921 703.468 92.0652 703.608 91.8002C703.748 91.5352 703.821 91.2402 703.821 90.9406C703.821 90.6411 703.748 90.3461 703.608 90.0811C703.468 89.8161 703.266 89.5892 703.019 89.4199L654.199 61.2356C653.07 60.5731 651.785 60.2231 650.476 60.2217Z" fill="#42FFFF"/>
<path d="M551.528 535.981C548.808 536.048 546.117 535.413 543.714 534.138L230.411 352.184C229.449 351.73 228.628 351.024 228.034 350.142C227.44 349.259 227.096 348.232 227.039 347.17C227.039 344.848 228.716 342.562 231.628 340.866L442.13 219.318C447.382 216.276 455.399 215.963 459.97 218.617L773.273 400.571C774.234 401.025 775.056 401.73 775.649 402.613C776.243 403.496 776.587 404.523 776.645 405.585C776.645 407.907 774.986 410.193 772.056 411.889L561.554 533.474C558.48 535.151 555.029 536.014 551.528 535.981ZM544.525 532.682C548.616 535.041 555.841 534.728 560.614 531.963L771.208 410.414C773.586 409.05 774.894 407.299 774.894 405.622C774.829 404.867 774.562 404.143 774.121 403.527C773.68 402.91 773.082 402.424 772.388 402.119L459.085 220.147C454.994 217.788 447.77 218.101 442.996 220.847L232.475 342.506C230.116 343.871 228.789 345.622 228.789 347.299C228.858 348.053 229.127 348.775 229.567 349.391C230.008 350.006 230.604 350.493 231.296 350.801L544.525 532.682Z" fill="#FF804C"/>
<path opacity="0.5" d="M538.738 512.313L265.52 353.622C261.723 351.429 262.202 347.613 266.57 345.088L450.147 239.06C454.533 236.535 461.205 236.258 464.891 238.452L738.128 397.143C741.924 399.336 741.445 403.171 737.059 405.696L553.482 511.705C549.169 514.231 542.535 514.507 538.738 512.313Z" fill="#9F1B34"/>
<path d="M543.548 485.253L238.133 307.852C233.913 305.401 234.447 301.143 239.313 298.322L443.678 204.59C448.562 201.769 455.934 177.198 460.154 179.631L765.569 357.032C769.79 359.484 769.255 363.742 764.39 366.562L560.024 484.534C555.14 487.391 547.769 487.686 543.548 485.253Z" fill="url(#paint0_linear)"/>
<path d="M775.779 343.668L703.904 338.986L459.546 196.774C455.197 194.267 447.585 194.58 442.572 197.474L284.539 288.737L227.905 285.051V300.295C227.954 301.203 228.249 302.081 228.759 302.834C229.268 303.588 229.973 304.188 230.798 304.571L544.101 486.525C548.45 489.032 556.043 488.719 561.075 485.825L771.577 364.166C772.655 363.685 773.596 362.943 774.313 362.006C775.031 361.069 775.503 359.968 775.687 358.802L775.779 343.668Z" fill="url(#paint1_linear)"/>
<path d="M544.156 470.968L230.853 289.014C226.504 286.488 227.038 282.101 232.07 279.207L442.572 157.64C447.603 154.746 455.196 154.433 459.546 156.94L772.849 338.912C777.198 341.419 776.645 345.806 771.632 348.7L561.111 470.267C556.098 473.161 548.505 473.475 544.156 470.968Z" fill="#FFE5E7"/>
<path opacity="0.5" d="M847.912 322.027L768.297 276.055C766.933 275.262 767.117 273.898 768.684 272.995L847.525 227.465C848.329 227.01 849.23 226.752 850.153 226.714C851.075 226.676 851.994 226.857 852.833 227.244L932.449 273.216C933.813 273.991 933.628 275.373 932.062 276.276L853.22 321.806C852.414 322.256 851.514 322.51 850.593 322.548C849.671 322.587 848.753 322.408 847.912 322.027Z" fill="#841C2F"/>
<path d="M850.16 342.672C848.877 342.709 847.607 342.411 846.475 341.806L734.902 277.382C734.406 277.142 733.985 276.772 733.683 276.311C733.381 275.85 733.21 275.315 733.188 274.764C733.249 274.082 733.489 273.428 733.883 272.868C734.278 272.308 734.814 271.862 735.436 271.575L846.014 207.76C847.275 207.051 848.686 206.653 850.132 206.598C851.577 206.544 853.015 206.835 854.326 207.446L965.917 271.963C966.413 272.203 966.834 272.573 967.136 273.034C967.438 273.495 967.609 274.029 967.631 274.58C967.57 275.263 967.33 275.917 966.935 276.477C966.54 277.037 966.005 277.483 965.382 277.769L854.805 341.585C853.374 342.334 851.776 342.709 850.16 342.672ZM850.603 208.331C849.278 208.316 847.971 208.64 846.806 209.271L736.229 273.087C735.363 273.585 734.847 274.211 734.847 274.764C734.881 275.006 734.977 275.235 735.125 275.429C735.274 275.622 735.47 275.775 735.694 275.87L847.285 340.387C848.334 340.838 849.471 341.045 850.611 340.991C851.752 340.937 852.864 340.623 853.865 340.073L964.442 276.258C965.308 275.76 965.824 275.133 965.824 274.58C965.79 274.338 965.694 274.11 965.546 273.916C965.397 273.722 965.201 273.57 964.977 273.474L853.386 208.958C852.527 208.514 851.569 208.298 850.603 208.331Z" fill="#FF804C"/>
<path d="M933.389 250.101V234.746H908.343L852.833 202.691C851.993 202.31 851.075 202.132 850.153 202.17C849.231 202.209 848.331 202.463 847.525 202.912L792.236 234.82H767.375V250.212C767.405 250.483 767.503 250.742 767.661 250.965C767.819 251.188 768.032 251.366 768.278 251.484L847.894 297.456C848.734 297.837 849.652 298.016 850.574 297.977C851.496 297.939 852.396 297.684 853.201 297.235L932.043 251.705C932.382 251.568 932.681 251.35 932.916 251.071C933.15 250.791 933.313 250.458 933.389 250.101Z" fill="#F25360"/>
<path d="M847.912 282.101L768.296 236.129C766.932 235.336 767.117 233.972 768.683 233.051L847.525 187.521C848.332 187.073 849.232 186.821 850.155 186.786C851.077 186.75 851.994 186.933 852.833 187.318L932.448 233.272C933.812 234.064 933.628 235.447 932.061 236.35L853.22 281.917C852.41 282.356 851.509 282.602 850.587 282.634C849.666 282.666 848.751 282.484 847.912 282.101Z" fill="#FF939C"/>
<path d="M848.188 276.756L777.622 236.019C776.424 235.318 776.571 234.175 777.953 233.309L847.838 192.94C848.556 192.545 849.356 192.322 850.175 192.29C850.994 192.258 851.81 192.418 852.556 192.756L923.123 233.493C924.321 234.194 924.173 235.337 922.791 236.221L852.888 276.572C852.173 276.967 851.376 277.189 850.56 277.221C849.744 277.253 848.932 277.094 848.188 276.756Z" fill="#9F1B34"/>
<path d="M848.373 273.327L783.538 235.908C782.432 235.262 782.561 234.064 783.851 233.401L848.059 196.332C848.712 195.96 849.443 195.749 850.193 195.717C850.943 195.685 851.69 195.833 852.372 196.147L917.207 233.585C918.313 234.23 918.184 235.336 916.894 236.073L852.685 273.161C852.03 273.526 851.298 273.731 850.549 273.759C849.8 273.788 849.054 273.64 848.373 273.327Z" fill="#5B1925"/>
<path d="M848.889 232.295L841.296 227.927L845.443 225.53L853.017 229.917L848.889 232.295Z" fill="#FF804C"/>
<path d="M862.969 231.687L855.395 236.056L851.267 233.66L858.841 229.291L862.969 231.687Z" fill="#FF804C"/>
<path d="M847.157 233.291L843.028 235.687L838.882 233.291L843.028 230.895L847.157 233.291Z" fill="#FF804C"/>
<path d="M861.477 241.548L857.33 243.945L845.406 237.051L849.535 234.654L861.477 241.548Z" fill="#FF804C"/>
<path opacity="0.5" d="M138.736 485.009L59.1199 439.036C57.7561 438.244 57.9404 436.88 59.5069 435.977L138.349 390.447C139.152 389.991 140.053 389.734 140.976 389.695C141.899 389.657 142.818 389.839 143.656 390.225L223.272 436.198C224.636 436.972 224.452 438.354 222.885 439.258L144.043 484.788C143.238 485.237 142.338 485.491 141.416 485.53C140.494 485.568 139.576 485.39 138.736 485.009Z" fill="#841C2F"/>
<path d="M224.212 413.083V397.728H199.166L143.656 365.673C142.816 365.292 141.898 365.113 140.976 365.152C140.054 365.19 139.154 365.444 138.348 365.894L83.0597 397.802H58.1982V413.193C58.2281 413.465 58.3267 413.724 58.4847 413.946C58.6427 414.169 58.855 414.348 59.1013 414.465L138.717 460.438C139.557 460.819 140.475 460.997 141.397 460.959C142.319 460.92 143.219 460.666 144.025 460.216L222.866 414.686C223.205 414.55 223.504 414.332 223.739 414.052C223.973 413.773 224.136 413.44 224.212 413.083Z" fill="#F25360"/>
<path d="M138.735 445.083L59.1189 399.11C57.7551 398.318 57.9394 396.954 59.5059 396.032L138.348 350.502C139.154 350.054 140.055 349.802 140.977 349.767C141.899 349.732 142.817 349.914 143.655 350.299L223.271 396.253C224.635 397.046 224.451 398.428 222.884 399.332L144.042 444.898C143.232 445.338 142.331 445.583 141.41 445.615C140.489 445.647 139.573 445.465 138.735 445.083Z" fill="#FF939C"/>
<path d="M139.012 439.737L68.4448 399C67.2469 398.3 67.3943 397.157 68.7765 396.29L138.661 355.922C139.379 355.526 140.18 355.304 140.999 355.272C141.818 355.24 142.633 355.399 143.379 355.737L213.946 396.475C215.144 397.175 214.997 398.318 213.614 399.203L143.711 439.553C142.996 439.948 142.199 440.171 141.383 440.203C140.567 440.235 139.755 440.075 139.012 439.737Z" fill="#9F1B34"/>
<path d="M139.196 436.308L74.3608 398.889C73.255 398.244 73.384 397.046 74.6741 396.382L138.883 359.313C139.535 358.941 140.267 358.731 141.017 358.699C141.767 358.667 142.514 358.814 143.195 359.129L208.03 396.566C209.136 397.212 209.007 398.318 207.717 399.055L143.508 436.142C142.853 436.507 142.121 436.712 141.372 436.741C140.623 436.77 139.877 436.621 139.196 436.308Z" fill="#5B1925"/>
<path d="M139.712 395.277L132.119 390.908L136.266 388.512L143.84 392.899L139.712 395.277Z" fill="#FF804C"/>
<path d="M153.793 394.668L146.218 399.036L142.09 396.64L149.664 392.271L153.793 394.668Z" fill="#FF804C"/>
<path d="M137.98 396.272L133.852 398.669L129.705 396.272L133.852 393.876L137.98 396.272Z" fill="#FF804C"/>
<path d="M152.3 404.53L148.153 406.926L136.229 400.032L140.358 397.636L152.3 404.53Z" fill="#FF804C"/>
<path d="M933.389 210.101V194.746H908.343L852.833 162.691C851.993 162.31 851.075 162.132 850.153 162.17C849.231 162.209 848.331 162.463 847.525 162.912L792.236 194.82H767.375V210.212C767.405 210.483 767.503 210.742 767.661 210.965C767.819 211.188 768.032 211.366 768.278 211.484L847.894 257.456C848.734 257.837 849.652 258.016 850.574 257.977C851.496 257.939 852.396 257.684 853.201 257.235L932.043 211.705C932.382 211.568 932.681 211.35 932.916 211.071C933.15 210.791 933.313 210.458 933.389 210.101Z" fill="#F25360"/>
<path d="M847.911 242.101L768.296 196.129C766.932 195.336 767.116 193.972 768.683 193.051L847.524 147.521C848.331 147.073 849.232 146.821 850.154 146.786C851.076 146.75 851.994 146.933 852.832 147.318L932.448 193.272C933.812 194.064 933.627 195.447 932.061 196.35L853.219 241.917C852.409 242.356 851.508 242.602 850.587 242.634C849.666 242.666 848.75 242.484 847.911 242.101Z" fill="#FF939C"/>
<path d="M848.188 236.756L777.622 196.019C776.424 195.318 776.571 194.175 777.953 193.309L847.838 152.94C848.556 152.545 849.356 152.322 850.175 152.29C850.994 152.258 851.81 152.418 852.556 152.756L923.123 193.493C924.321 194.194 924.173 195.337 922.791 196.221L852.888 236.572C852.173 236.967 851.376 237.189 850.56 237.221C849.744 237.253 848.932 237.094 848.188 236.756Z" fill="#9F1B34"/>
<path d="M848.373 233.327L783.538 195.908C782.432 195.262 782.561 194.064 783.851 193.401L848.059 156.332C848.712 155.96 849.443 155.749 850.193 155.717C850.943 155.685 851.69 155.833 852.372 156.147L917.207 193.585C918.313 194.23 918.184 195.336 916.894 196.073L852.685 233.161C852.03 233.526 851.298 233.731 850.549 233.759C849.8 233.788 849.054 233.64 848.373 233.327Z" fill="#5B1925"/>
<path d="M848.889 192.295L841.296 187.927L845.443 185.53L853.017 189.917L848.889 192.295Z" fill="#FF804C"/>
<path d="M862.969 191.687L855.395 196.056L851.267 193.66L858.841 189.291L862.969 191.687Z" fill="#FF804C"/>
<path d="M847.157 193.291L843.028 195.687L838.882 193.291L843.028 190.895L847.157 193.291Z" fill="#FF804C"/>
<path d="M861.477 201.548L857.33 203.945L845.406 197.051L849.535 194.654L861.477 201.548Z" fill="#FF804C"/>
<path d="M745.813 520.608C744.518 520.623 743.244 520.285 742.127 519.631L663.506 474.083L664.373 472.59L742.993 518.138C743.834 518.623 744.787 518.879 745.758 518.879C746.728 518.879 747.682 518.623 748.522 518.138L1003.59 371.668C1003.79 371.558 1003.95 371.397 1004.07 371.201C1004.19 371.005 1004.25 370.781 1004.25 370.553C1004.25 370.325 1004.19 370.101 1004.07 369.905C1003.95 369.709 1003.79 369.547 1003.59 369.438L904.51 312.295L905.376 310.783L1004.45 367.926C1004.92 368.19 1005.3 368.572 1005.57 369.034C1005.84 369.495 1005.98 370.019 1005.98 370.553C1005.98 371.086 1005.84 371.61 1005.57 372.072C1005.3 372.533 1004.92 372.915 1004.45 373.179L749.462 519.631C748.354 520.276 747.095 520.614 745.813 520.608Z" fill="#FF804C"/>
<path d="M141.305 591.263C139.667 591.263 138.059 590.831 136.642 590.01L2.36398 512.812C1.94686 512.57 1.60052 512.224 1.35973 511.806C1.11894 511.389 0.992187 510.916 0.992188 510.434C0.992188 509.952 1.11894 509.478 1.35973 509.061C1.60052 508.644 1.94686 508.297 2.36398 508.056L78.257 464.443L79.1047 465.954L3.23018 509.567C3.07825 509.655 2.95221 509.781 2.86482 509.934C2.77744 510.086 2.73181 510.258 2.73258 510.434C2.73366 510.609 2.78006 510.781 2.86726 510.932C2.95446 511.084 3.0795 511.211 3.23018 511.3L137.508 588.498C138.661 589.168 139.971 589.521 141.305 589.521C142.638 589.521 143.948 589.168 145.101 588.498L395.743 446.747L396.591 448.259L145.949 590.01C144.536 590.825 142.935 591.257 141.305 591.263Z" fill="#FF804C"/>
<path d="M186.678 258.285C184.972 258.279 183.297 257.835 181.812 256.995L133.25 228.94C132.719 228.63 132.278 228.186 131.971 227.652C131.665 227.118 131.503 226.514 131.503 225.898C131.503 225.283 131.665 224.678 131.971 224.144C132.278 223.611 132.719 223.167 133.25 222.857L181.812 194.82C183.293 193.969 184.97 193.521 186.678 193.521C188.385 193.521 190.063 193.969 191.543 194.82L240.105 222.857C240.641 223.163 241.087 223.605 241.397 224.14C241.707 224.674 241.87 225.28 241.87 225.898C241.87 226.516 241.707 227.122 241.397 227.657C241.087 228.191 240.641 228.633 240.105 228.94L191.562 256.995C190.071 257.837 188.389 258.281 186.678 258.285ZM186.678 195.244C185.275 195.249 183.897 195.617 182.679 196.313L134.135 224.368C133.859 224.516 133.629 224.737 133.47 225.007C133.311 225.277 133.228 225.585 133.232 225.898C133.238 226.212 133.325 226.519 133.483 226.789C133.641 227.06 133.865 227.287 134.135 227.446L182.679 255.483C183.896 256.18 185.275 256.547 186.678 256.547C188.081 256.547 189.459 256.18 190.677 255.483L239.239 227.446C239.505 227.284 239.726 227.057 239.881 226.786C240.036 226.516 240.119 226.21 240.123 225.898C240.127 225.587 240.047 225.281 239.891 225.012C239.735 224.743 239.51 224.52 239.239 224.368L190.677 196.313C189.458 195.617 188.081 195.249 186.678 195.244Z" fill="#FF804C"/>
<path d="M396.204 579.189C394.632 579.187 393.088 578.774 391.725 577.991L342.463 549.549C341.96 549.26 341.541 548.844 341.25 548.343C340.959 547.841 340.805 547.272 340.804 546.692C340.801 546.111 340.954 545.54 341.245 545.038C341.537 544.535 341.957 544.12 342.463 543.835L391.725 515.392C393.09 514.604 394.637 514.189 396.213 514.189C397.788 514.189 399.336 514.604 400.7 515.392L449.963 543.835C450.466 544.121 450.884 544.537 451.172 545.039C451.461 545.542 451.609 546.112 451.603 546.692C451.606 547.27 451.455 547.839 451.167 548.341C450.879 548.843 450.464 549.26 449.963 549.549L400.774 577.991C399.384 578.789 397.806 579.203 396.204 579.189ZM396.204 515.927C394.911 515.908 393.637 516.239 392.518 516.885L343.329 545.328C343.088 545.465 342.888 545.663 342.749 545.903C342.609 546.142 342.536 546.415 342.537 546.692C342.536 546.966 342.609 547.236 342.748 547.473C342.888 547.71 343.088 547.905 343.329 548.037L392.591 576.48C393.693 577.114 394.942 577.447 396.213 577.447C397.484 577.447 398.732 577.114 399.834 576.48L449.096 548.093C449.332 547.956 449.528 547.76 449.664 547.524C449.8 547.288 449.871 547.02 449.87 546.747C449.873 546.474 449.803 546.205 449.667 545.969C449.531 545.732 449.334 545.536 449.096 545.401L399.834 516.941C398.732 516.294 397.481 515.944 396.204 515.927Z" fill="#FF804C"/>
<g opacity="0.67">
<path opacity="0.67" d="M502.985 315.964C546.65 315.964 582.048 295.521 582.048 270.305C582.048 245.088 546.65 224.646 502.985 224.646C459.32 224.646 423.922 245.088 423.922 270.305C423.922 295.521 459.32 315.964 502.985 315.964Z" fill="#E19DBB"/>
</g>
<path d="M599.813 235.89V214.452H592.442C586.822 207.026 579.693 200.875 571.524 196.406C533.707 174.563 472.391 174.563 434.574 196.406C426.377 200.872 419.217 207.022 413.564 214.452H406.192V235.945C406.192 250.249 415.647 264.553 434.537 275.484C472.355 297.309 533.67 297.309 571.487 275.484C590.359 264.498 599.813 250.194 599.813 235.89Z" fill="url(#paint2_linear)"/>
<path d="M502.984 270.305C556.461 270.305 599.813 245.274 599.813 214.397C599.813 183.52 556.461 158.489 502.984 158.489C449.507 158.489 406.155 183.52 406.155 214.397C406.155 245.274 449.507 270.305 502.984 270.305Z" fill="#FF939C"/>
<path d="M592.442 213.567V184.24H585.568C580.367 177.407 573.778 171.753 566.235 167.65C531.311 147.484 474.695 147.484 439.771 167.65C432.235 171.762 425.648 177.414 420.439 184.24H413.583V213.567C413.583 226.783 422.319 240 439.79 250.083C474.696 270.249 531.33 270.249 566.254 250.083C583.67 240 592.442 226.783 592.442 213.567Z" fill="#A9223B"/>
<g opacity="0.51">
<path opacity="0.51" d="M592.442 206.507V177.18H585.568C580.367 170.347 573.778 164.693 566.235 160.59C531.311 140.424 474.695 140.424 439.771 160.59C432.235 164.702 425.648 170.354 420.439 177.18H413.583V206.507C413.583 219.724 422.319 232.94 439.79 243.023C474.696 263.189 531.33 263.189 566.254 243.023C583.67 232.885 592.442 219.724 592.442 206.507Z" fill="#B3253F"/>
</g>
<path d="M502.985 235.871C552.37 235.871 592.405 212.755 592.405 184.24C592.405 155.725 552.37 132.608 502.985 132.608C453.599 132.608 413.564 155.725 413.564 184.24C413.564 212.755 453.599 235.871 502.985 235.871Z" fill="#BCD5FF"/>
<g opacity="0.51">
<path opacity="0.51" d="M564.576 222.25C549.206 241.826 528.933 252.296 511.794 257.899C531.661 256.775 550.994 251.816 566.216 243.024C583.669 232.886 592.442 219.724 592.442 206.508V197.752C581.618 203.985 572.145 212.313 564.576 222.25Z" fill="#5368D8"/>
</g>
<path d="M599.813 183.779V162.286H592.441C586.817 154.865 579.689 148.715 571.524 144.24C533.706 122.397 472.391 122.397 434.573 144.24C426.406 148.719 419.272 154.867 413.637 162.286H406.266V183.779C406.266 198.083 415.72 212.406 434.61 223.318C472.428 245.143 533.743 245.143 571.56 223.318C590.359 212.406 599.813 198.083 599.813 183.779Z" fill="#FA4767"/>
<path d="M502.984 218.194C556.461 218.194 599.813 193.163 599.813 162.286C599.813 131.409 556.461 106.378 502.984 106.378C449.507 106.378 406.155 131.409 406.155 162.286C406.155 193.163 449.507 218.194 502.984 218.194Z" fill="#FF939C"/>
<path d="M592.442 160.387V131.06H585.568C580.373 124.221 573.783 118.566 566.235 114.47C531.311 94.3042 474.695 94.3042 439.771 114.47C432.231 118.576 425.643 124.23 420.439 131.06H413.583V160.387C413.583 173.604 422.319 186.82 439.79 196.903C474.696 217.069 531.33 217.069 566.254 196.903C583.67 186.802 592.442 173.604 592.442 160.387Z" fill="#A9223B"/>
<g opacity="0.51">
<path opacity="0.51" d="M592.442 153.622V124.35H585.568C580.373 117.511 573.783 111.856 566.235 107.76C531.311 87.5943 474.695 87.5943 439.771 107.76C432.231 111.866 425.643 117.52 420.439 124.35H413.583V153.622C413.583 166.839 422.319 180.055 439.79 190.138C474.696 210.304 531.33 210.304 566.254 190.138C583.67 180.11 592.442 166.894 592.442 153.622Z" fill="#B3253F"/>
</g>
<path d="M502.985 182.691C552.37 182.691 592.405 159.575 592.405 131.06C592.405 102.545 552.37 79.4287 502.985 79.4287C453.599 79.4287 413.564 102.545 413.564 131.06C413.564 159.575 453.599 182.691 502.985 182.691Z" fill="#BCD5FF"/>
<g opacity="0.51">
<path opacity="0.51" d="M564.576 166.304C545.465 190.654 518.723 200.903 499.943 205.235C523.902 205.696 547.971 200.719 566.29 190.193C583.669 180.11 592.442 166.894 592.442 153.622V141.751C581.613 148 572.139 156.348 564.576 166.304Z" fill="#5368D8"/>
</g>
<path d="M599.813 130.581V109.106H592.441C586.822 101.68 579.693 95.5296 571.524 91.0602C533.706 69.2169 472.391 69.2169 434.573 91.0602C426.403 95.5348 419.269 101.684 413.637 109.106H406.266V130.599C406.266 144.904 415.72 159.208 434.61 170.12C472.428 191.963 533.743 191.963 571.56 170.12C590.359 159.152 599.813 144.904 599.813 130.581Z" fill="#FA4767"/>
<path d="M502.984 165.014C556.461 165.014 599.813 139.983 599.813 109.106C599.813 78.229 556.461 53.1982 502.984 53.1982C449.507 53.1982 406.155 78.229 406.155 109.106C406.155 139.983 449.507 165.014 502.984 165.014Z" fill="#FF939C"/>
<path d="M592.442 107.207V77.8617H585.568C580.363 71.0327 573.775 65.3795 566.235 61.2719C531.311 41.106 474.695 41.106 439.771 61.2719C432.239 65.3895 425.653 71.041 420.439 77.8617H413.583V107.207C413.583 120.424 422.319 133.622 439.79 143.705C474.696 163.871 531.33 163.889 566.254 143.705C583.67 133.622 592.442 120.442 592.442 107.207Z" fill="#A9223B"/>
<g opacity="0.51">
<path opacity="0.51" d="M592.442 98.9868V69.6596H585.568C580.367 62.8267 573.778 57.1727 566.235 53.0697C531.311 32.9038 474.695 32.9038 439.771 53.0697C432.231 57.176 425.643 62.8294 420.439 69.6596H413.583V98.9868C413.583 112.203 422.319 125.42 439.79 135.503C474.696 155.669 531.33 155.669 566.254 135.503C583.67 125.42 592.442 112.203 592.442 98.9868Z" fill="#D02D4A"/>
</g>
<path d="M502.985 129.493C552.37 129.493 592.405 106.377 592.405 77.8618C592.405 49.3466 552.37 26.2305 502.985 26.2305C453.599 26.2305 413.564 49.3466 413.564 77.8618C413.564 106.377 453.599 129.493 502.985 129.493Z" fill="#BCD5FF"/>
<path d="M599.813 77.4011V55.9265H592.442C586.817 48.5053 579.689 42.3557 571.524 37.8804C533.707 16.0555 472.391 16.0555 434.574 37.8804C426.379 42.3506 419.22 48.4999 413.564 55.9265H406.192V77.4196C406.192 91.7237 415.647 106.046 434.537 116.959C472.355 138.802 533.67 138.802 571.487 116.959C590.359 106.028 599.813 91.7053 599.813 77.4011Z" fill="url(#paint3_linear)"/>
<path d="M502.984 111.816C556.461 111.816 599.813 86.7849 599.813 55.9078C599.813 25.0308 556.461 0 502.984 0C449.507 0 406.155 25.0308 406.155 55.9078C406.155 86.7849 449.507 111.816 502.984 111.816Z" fill="#BCD5FF"/>
<path d="M502.984 111.816C556.461 111.816 599.813 86.7849 599.813 55.9078C599.813 25.0308 556.461 0 502.984 0C449.507 0 406.155 25.0308 406.155 55.9078C406.155 86.7849 449.507 111.816 502.984 111.816Z" fill="#BCD5FF"/>
<g opacity="0.51">
<path opacity="0.51" d="M564.576 110.36C543.585 137.107 513.471 146.839 494.654 150.397C520.216 151.779 546.626 146.821 566.216 135.503C583.669 125.42 592.405 112.203 592.405 98.9867V85.8623C581.594 92.0993 572.134 100.427 564.576 110.36Z" fill="#5368D8"/>
</g>
<path d="M599.813 77.4011V55.9265H592.442C586.817 48.5053 579.689 42.3557 571.524 37.8804C533.707 16.0555 472.391 16.0555 434.574 37.8804C426.379 42.3506 419.22 48.4999 413.564 55.9265H406.192V77.4196C406.192 91.7237 415.647 106.046 434.537 116.959C472.355 138.802 533.67 138.802 571.487 116.959C590.359 106.028 599.813 91.7053 599.813 77.4011Z" fill="url(#paint4_linear)"/>
<path d="M502.984 111.816C556.461 111.816 599.813 86.7849 599.813 55.9078C599.813 25.0308 556.461 0 502.984 0C449.507 0 406.155 25.0308 406.155 55.9078C406.155 86.7849 449.507 111.816 502.984 111.816Z" fill="#BCD5FF"/>
<path d="M502.984 111.816C556.461 111.816 599.813 86.7849 599.813 55.9078C599.813 25.0308 556.461 0 502.984 0C449.507 0 406.155 25.0308 406.155 55.9078C406.155 86.7849 449.507 111.816 502.984 111.816Z" fill="url(#paint5_radial)"/>
<path d="M571.985 93.7513C534.186 115.595 472.871 115.595 435.053 93.7513C411.832 80.3872 402.949 61.9172 408.146 44.6084C401.806 62.4149 410.579 81.6407 434.482 95.4471C472.299 117.29 533.614 117.29 571.432 95.4471C586.083 86.9863 595.022 76.4794 598.321 65.5301C594.653 75.8711 585.899 85.7328 571.985 93.7513Z" fill="white"/>
<path d="M571.985 146.949C534.186 168.774 472.871 168.774 435.053 146.949C411.832 133.567 402.949 115.115 408.146 97.7881C401.806 115.595 410.579 134.839 434.482 148.645C472.299 170.47 533.614 170.47 571.432 148.645C586.083 140.184 595.022 129.677 598.321 118.71C594.653 129.051 585.899 138.876 571.985 146.949Z" fill="#FF939C"/>
<path d="M571.985 200.129C534.186 221.972 472.871 221.972 435.053 200.129C411.832 186.802 402.949 168.369 408.146 150.986C401.806 168.774 410.579 188.019 434.482 201.825C472.299 223.668 533.614 223.668 571.432 201.825C586.083 193.364 595.022 182.857 598.321 171.908C594.653 182.249 585.899 192.111 571.985 200.129Z" fill="white"/>
<path d="M571.985 253.327C534.186 275.152 472.871 275.152 435.053 253.327C411.832 239.945 402.949 221.493 408.146 204.166C401.806 221.972 410.579 241.198 434.482 255.023C472.299 276.848 533.614 276.848 571.432 255.023C586.083 246.562 595.022 236.055 598.321 225.088C594.653 235.429 585.899 245.29 571.985 253.327Z" fill="white"/>
<path d="M552.689 50.691V39.6311H548.874C545.977 35.8405 542.317 32.7006 538.13 30.4145C518.705 19.1887 487.227 19.1887 467.821 30.4145C463.631 32.6956 459.969 35.8364 457.077 39.6311H453.262V50.691C453.262 58.0642 458.109 65.4375 467.821 70.9675C487.246 82.1748 518.705 82.1748 538.13 70.9675C547.842 65.3822 552.689 58.0274 552.689 50.691Z" fill="#FF939C"/>
<path d="M538.13 59.9629C518.705 71.1703 487.246 71.1703 467.821 59.9629C448.396 48.7555 448.415 30.4698 467.821 19.4099C487.227 8.34998 518.705 8.20252 538.13 19.4099C557.555 30.6173 557.536 48.7371 538.13 59.9629Z" fill="#BCD5FF"/>
<path d="M538.13 59.9629C518.705 71.1703 487.246 71.1703 467.821 59.9629C448.396 48.7555 448.415 30.4698 467.821 19.4099C487.227 8.34998 518.705 8.20252 538.13 19.4099C557.555 30.6173 557.536 48.7371 538.13 59.9629Z" fill="url(#paint6_radial)"/>
<path d="M538.13 57.7701C518.705 68.9959 487.246 68.9959 467.821 57.7701C458.606 52.4614 453.778 45.5674 453.298 38.5996C452.782 46.3047 457.629 54.1204 467.821 60.019C487.246 71.2263 518.705 71.2263 538.13 60.019C548.321 54.1204 553.168 46.3047 552.634 38.5996C552.173 45.5121 547.344 52.4061 538.13 57.7701Z" fill="white"/>
<path d="M526.648 53.3272C513.582 60.8664 492.388 60.8664 479.303 53.3272C475.774 51.4644 472.852 48.631 470.88 45.1613C467.508 38.5807 475.948 33.8249 484.942 28.5715C498.009 21.0323 507.279 19.1521 520.345 26.7282C529.339 31.9079 538.443 38.5438 535.089 45.1613C533.113 48.6336 530.184 51.4672 526.648 53.3272Z" fill="#FF939C"/>
<path d="M479.303 37.0145C492.369 29.4753 513.563 29.4753 526.648 37.0145C530.173 38.8831 533.094 41.7151 535.071 45.1804C538.443 38.5997 535.642 31.1896 526.648 25.9914C513.563 18.4338 492.369 18.4338 479.303 25.9914C470.309 31.1896 467.508 38.5997 470.88 45.1804C472.857 41.7151 475.778 38.8831 479.303 37.0145Z" fill="#D02D4A"/>
<g opacity="0.51">
<path opacity="0.51" d="M557.426 137.512C550.902 140.093 546.036 139.355 546.552 135.963C547.068 132.572 552.763 127.669 559.287 125.106C565.811 122.544 570.676 123.263 570.16 126.655C569.644 130.046 564.005 134.95 557.426 137.512Z" fill="#677EEA"/>
</g>
<g opacity="0.51">
<path opacity="0.51" d="M557.426 191.466C550.902 194.028 546.036 193.309 546.552 189.918C547.068 186.526 552.763 181.623 559.287 179.06C565.811 176.498 570.676 177.217 570.16 180.609C569.644 184.001 564.005 188.885 557.426 191.466Z" fill="#677EEA"/>
</g>
<g opacity="0.51">
<path opacity="0.51" d="M557.831 245.788C551.325 248.35 546.441 247.632 546.957 244.24C547.473 240.848 553.168 235.945 559.692 233.383C566.216 230.82 571.082 231.539 570.584 234.931C570.086 238.323 564.355 243.189 557.831 245.788Z" fill="#677EEA"/>
</g>
<g opacity="0.51">
<path opacity="0.51" d="M576.058 123.981C575.584 124.156 575.07 124.195 574.575 124.093C574.08 123.992 573.623 123.753 573.256 123.406C572.89 123.058 572.627 122.614 572.499 122.125C572.371 121.636 572.383 121.121 572.532 120.638C572.682 120.155 572.963 119.724 573.345 119.393C573.727 119.061 574.193 118.843 574.692 118.763C575.192 118.684 575.703 118.745 576.169 118.941C576.635 119.136 577.037 119.459 577.33 119.871C577.687 120.588 577.754 121.415 577.517 122.181C577.28 122.947 576.758 123.591 576.058 123.981Z" fill="#677EEA"/>
</g>
<g opacity="0.51">
<path opacity="0.51" d="M576.058 178.175C575.797 178.496 575.465 178.753 575.089 178.925C574.713 179.097 574.302 179.18 573.888 179.167C573.474 179.155 573.069 179.047 572.704 178.852C572.339 178.657 572.023 178.381 571.782 178.044C571.541 177.708 571.381 177.32 571.315 176.912C571.248 176.503 571.276 176.085 571.397 175.689C571.519 175.293 571.729 174.931 572.014 174.63C572.298 174.329 572.647 174.098 573.036 173.954C573.297 173.633 573.628 173.376 574.005 173.204C574.381 173.032 574.792 172.949 575.206 172.961C575.619 172.974 576.024 173.082 576.39 173.277C576.755 173.471 577.07 173.748 577.311 174.084C577.552 174.421 577.712 174.808 577.779 175.217C577.846 175.625 577.817 176.044 577.696 176.44C577.575 176.835 577.364 177.198 577.08 177.499C576.796 177.8 576.446 178.031 576.058 178.175Z" fill="#677EEA"/>
</g>
<g opacity="0.51">
<path opacity="0.51" d="M576.058 232.166C575.587 232.337 575.077 232.373 574.587 232.271C574.096 232.168 573.644 231.93 573.282 231.584C572.919 231.238 572.66 230.798 572.534 230.312C572.409 229.827 572.421 229.316 572.569 228.838C572.718 228.359 572.998 227.931 573.376 227.603C573.755 227.275 574.218 227.059 574.713 226.979C575.207 226.9 575.715 226.96 576.177 227.154C576.639 227.347 577.038 227.666 577.329 228.074C577.691 228.787 577.76 229.614 577.522 230.378C577.285 231.141 576.76 231.783 576.058 232.166Z" fill="#677EEA"/>
</g>
<g opacity="0.67">
<path opacity="0.67" d="M545.391 391.355C580.343 391.355 608.678 374.998 608.678 354.821C608.678 334.643 580.343 318.286 545.391 318.286C510.438 318.286 482.104 334.643 482.104 354.821C482.104 374.998 510.438 391.355 545.391 391.355Z" fill="#E19DBB"/>
</g>
<g opacity="0.67">
<path opacity="0.67" d="M445.484 343.318C434.869 349.438 417.674 349.438 407.077 343.318C396.48 337.198 396.461 327.263 407.077 321.198C417.692 315.134 434.869 315.06 445.484 321.198C456.099 327.336 456.063 337.198 445.484 343.318Z" fill="#FA4767"/>
</g>
<path d="M614.797 145.733C614.797 145.733 720.398 140.904 817.614 209.106C817.614 209.106 798.724 177.457 752.945 130.452C707.166 83.4473 561.277 68.6455 561.277 68.6455H543.548C543.548 68.6455 600.68 90.4151 614.797 145.733Z" fill="#C13D54"/>
<path d="M521.561 323.705C521.561 323.705 519.958 325.364 518.299 327.392C515.774 329.672 512.998 331.657 510.024 333.309C508.071 334.525 499.096 341.327 497.216 348.055C495.336 354.783 501.75 355.65 508.274 354.489C514.798 353.327 520.972 347.263 522.759 345.088C527.461 340.477 532.875 336.655 538.793 333.77C546.847 329.604 541.981 324 541.981 324L521.561 323.705Z" fill="#121212"/>
<path d="M581.384 343.613C582.28 345.818 582.857 348.139 583.098 350.507C583.467 354.378 584.001 362.784 584.204 365.254C584.653 370.332 583.216 375.398 580.168 379.484C575.837 385.235 573.607 387.521 567.857 385.254C562.107 382.987 562.236 373.328 563.249 368.369C564.236 362.67 564.851 356.913 565.092 351.134C565.034 350.501 565.149 349.864 565.424 349.291L581.384 343.613Z" fill="#121212"/>
<path d="M501.731 209.843C501.731 209.843 502.948 254.083 513.25 277.585C518.072 292.241 520.887 307.482 521.617 322.894C521.152 324.15 520.982 325.497 521.12 326.829C521.257 328.162 521.698 329.445 522.409 330.581C524.842 334.028 539.973 337.18 542.479 325.88C544.986 314.581 544.009 293.382 541.263 284.553C538.517 275.723 542.24 251.373 542.24 251.373C542.24 251.373 546.368 254.009 551.712 271.594C557.057 289.18 561.13 295.742 562.991 300.571C564.853 305.401 566.567 335.023 565.387 349.493C565.387 349.493 577.643 351.336 581.2 345.382C584.757 339.428 585.918 309.198 585.033 299.539C584.149 289.88 580.094 258.894 580.647 249.309C581.2 239.723 583.19 231.945 580.997 222.378C578.804 212.811 514.135 191.539 514.135 191.539L501.731 209.843Z" fill="#2F1928"/>
<path d="M580.647 249.216C581.2 239.65 583.19 231.852 580.997 222.286C580.168 218.691 570.529 213.438 558.789 208.295C538.996 206.451 513.895 204.387 512.163 204.608C509.072 205.433 506.048 206.487 503.114 207.76L501.731 209.806C501.731 209.806 501.731 212.498 502.063 216.903C506.689 218.286 515.572 216.903 515.572 216.903C516.825 220.018 524.529 231.06 534.131 235.816C543.732 240.571 571.801 238.949 573.404 240.756C575.007 242.562 575.339 266.783 575.155 269.862C574.971 272.94 577.79 292.35 580.407 309.493C582.987 326.359 579.062 346.875 578.933 347.521C579.851 346.971 580.628 346.213 581.2 345.309C584.738 339.447 585.918 309.124 585.033 299.465C584.149 289.806 580.094 258.802 580.647 249.216Z" fill="#23121E"/>
<path d="M523.386 65.1427C523.386 65.1427 509.03 68.4238 504.201 69.5667C503.809 69.658 503.444 69.8433 503.139 70.1066C502.834 70.3699 502.598 70.7033 502.45 71.0782C501.068 74.5989 497.566 85.5667 500.202 101.585C502.126 112.447 502.867 123.485 502.413 134.507L495.779 169.051C495.779 169.051 487.43 201.954 488.149 202.857C488.868 203.76 507.371 217.843 513.139 215.852C518.908 213.862 517.028 210.599 517.028 210.599C517.028 210.599 521.709 234.451 542.424 234.23C563.139 234.009 580.094 234.064 583.614 225.677C587.134 217.29 582.656 182.083 578.988 168.129C575.321 154.175 566.64 126.341 566.64 126.341L597.012 92.7925L571.063 72.9215C571.063 72.9215 564.871 61.4008 562.309 59.9261C559.748 58.4515 558.439 59.7049 558.439 59.7049L523.386 65.1427Z" fill="#474044"/>
<path d="M527.57 65.4755C527.275 64.8672 526.132 62.1576 525.137 59.2451C523.348 60.821 521.905 62.7494 520.896 64.9095C519.888 67.0697 519.336 69.4149 519.276 71.7981C519.271 71.9632 519.317 72.1259 519.408 72.2635C519.5 72.4011 519.632 72.5067 519.786 72.5656C519.94 72.6245 520.109 72.6337 520.269 72.5919C520.429 72.5502 520.571 72.4595 520.677 72.3327C522.707 69.8725 525 67.6412 527.514 65.6783L527.57 65.4755Z" fill="url(#paint7_linear)"/>
<path d="M583.448 222.857C579.762 231.687 561.867 231.632 540.01 231.871C535.179 231.999 530.428 230.628 526.409 227.945C528.526 230.003 531.034 231.616 533.784 232.69C536.535 233.763 539.473 234.274 542.424 234.194C563.157 233.954 580.094 234.028 583.614 225.641C584.757 222.894 585.052 217.235 584.794 210.415C585.067 214.609 584.612 218.819 583.448 222.857Z" fill="#FF939C"/>
<path d="M561.756 59.6131C561.756 59.6131 567.064 66.0278 559.434 74.673C552.084 83.6893 545.506 93.3085 539.77 103.429C535.476 110.894 531.513 114.857 529.246 121.272C529.246 121.272 528.933 113.659 528.638 101.917C528.362 90.8573 528.196 79.2997 528.638 76.4057C529.781 70.4518 555.896 56.7375 561.756 59.6131Z" fill="#F0FFFF"/>
<path d="M541.926 78.9309C541.926 78.9309 539.217 80.6267 538.24 80.4793C537.264 80.3318 534.296 77.4193 534.296 77.4193C534.296 77.4193 526.777 77.2903 525.966 74.0645C525.421 71.3074 524.707 68.5864 523.828 65.917C523.073 64.2396 519.829 56.2027 519.792 53.0138C519.755 49.8249 519.903 43.9078 518.484 40.8295C517.065 37.7511 515.185 6.85713 545.004 7.64975C574.823 8.44238 565.553 39.4839 565.553 39.4839C565.553 39.4839 567.728 40.424 566.419 44.4055C565.111 48.3871 564.797 48.811 564.134 50.7834C563.718 52.674 562.696 54.3766 561.222 55.6313L560.743 59.318C561.104 61.2224 561.087 63.1795 560.692 65.0773C560.297 66.9751 559.531 68.7763 558.439 70.3779C554.772 75.8157 541.926 78.9309 541.926 78.9309Z" fill="#FCE8EE"/>
<path d="M503.39 69.8809C503.39 69.8809 500.202 70.3601 489.881 96.314C484.131 110.784 475.248 125.807 473.295 136.554C471.341 147.3 472.465 158.821 474.585 159.632C476.704 160.443 513.692 174.379 525.303 178.673C525.454 178.73 525.615 178.752 525.776 178.739C525.937 178.725 526.092 178.676 526.232 178.595C526.371 178.514 526.491 178.403 526.582 178.27C526.673 178.137 526.733 177.985 526.759 177.826L529.947 159.927L506.947 151.042C504.563 148.111 501.688 145.617 498.451 143.669C498.451 143.669 503.058 135.171 502.763 132.849C502.469 130.526 503.187 106.526 500.497 96.7564C497.806 86.9868 503.39 69.8809 503.39 69.8809Z" fill="#423B3F"/>
<path d="M516.88 138.47C516.88 138.47 513.71 136.351 512.918 136.037C512.126 135.724 507.905 134.194 507.094 133.936C505.664 133.735 504.212 133.735 502.782 133.936C502.564 133.962 502.356 134.039 502.173 134.161C501.991 134.283 501.839 134.445 501.731 134.636C500.754 136.48 498.045 141.733 498.34 143.853C498.34 143.853 505.988 148.682 506.855 150.839L508.071 151.116C508.071 151.116 513.194 140.074 516.88 138.47Z" fill="#FCE8EE"/>
<path d="M578.988 168.093C578.122 164.738 576.943 160.572 575.671 156.203L529.081 176.166C533.918 181.486 539.862 185.68 546.495 188.454C553.127 191.228 560.287 192.514 567.47 192.222C572.835 191.918 578.039 190.27 582.601 187.429C581.75 180.922 580.544 174.467 578.988 168.093Z" fill="#423B3F"/>
<path d="M597.012 92.793C597.012 92.793 584.72 94.4888 574.805 110.212C568.185 121.052 562.448 132.407 557.647 144.166L557.297 146.212C557.086 147.46 556.592 148.643 555.854 149.671C555.115 150.699 554.152 151.544 553.036 152.142C551.921 152.739 550.684 153.074 549.419 153.12C548.155 153.166 546.897 152.921 545.741 152.406C535.273 147.724 519.755 140.664 516.862 138.526C513.833 140.46 511.225 142.985 509.192 145.949C507.159 148.913 505.744 152.256 505.03 155.779C503.021 165.457 503.537 165.493 503.537 165.493C503.537 165.493 544.893 184.793 560.872 184.609C576.85 184.424 597.123 131.89 599.353 121.033C601.583 110.175 604.034 95.7976 597.012 92.793Z" fill="#242993"/>
<path d="M597.012 92.793C597.012 92.793 584.72 94.4888 574.805 110.212C568.185 121.052 562.448 132.407 557.647 144.166L557.297 146.212C557.086 147.46 556.592 148.643 555.854 149.671C555.115 150.699 554.152 151.544 553.036 152.142C551.921 152.739 550.684 153.074 549.419 153.12C548.155 153.166 546.897 152.921 545.741 152.406C535.273 147.724 519.755 140.664 516.862 138.526C513.833 140.46 511.225 142.985 509.192 145.949C507.159 148.913 505.744 152.256 505.03 155.779C503.021 165.457 503.537 165.493 503.537 165.493C503.537 165.493 544.893 184.793 560.872 184.609C576.85 184.424 597.123 131.89 599.353 121.033C601.583 110.175 604.034 95.7976 597.012 92.793Z" fill="#423B3F"/>
<path d="M551.694 154.803C551.694 154.803 556.909 159.687 559.176 157.015C561.443 154.342 560.78 154.047 560.78 154.047C560.78 154.047 565.479 154.047 566.05 151.061C566.622 148.075 568.926 149.678 569.073 146.397C569.22 143.116 565.258 143.78 565.258 143.78L551.694 154.803Z" fill="#332D30"/>
<path d="M545.391 152.203C545.391 152.203 546.81 150.857 548.672 149.291C550.533 147.724 553.519 141.254 554.016 140.682C554.514 140.111 560.761 135.318 563.784 135.152C566.806 134.986 564.558 138.452 563.784 138.839C563.01 139.226 560.098 140.774 560.098 140.774C560.098 140.774 557.075 143.318 556.725 143.687C556.375 144.055 565.129 143.097 566.53 143.945C566.806 144.166 567.03 144.446 567.183 144.765C567.337 145.085 567.416 145.434 567.416 145.788C567.416 146.142 567.337 146.492 567.183 146.811C567.03 147.13 566.806 147.411 566.53 147.632C566.016 147.981 565.417 148.185 564.797 148.221C565.074 148.951 565.058 149.76 564.752 150.478C564.446 151.196 563.875 151.768 563.157 152.074C560.54 153.309 559.932 152.627 559.932 152.627C559.932 152.627 559.711 157.162 555.38 156.314L545.391 152.203Z" fill="#FCE8EE"/>
<path d="M517.857 24.9582C517.857 24.9582 513.969 37.3453 524.216 33.8246C534.462 30.3039 543.714 24.4052 546.939 26.6541C549.39 28.3499 549.28 33.6034 549.077 35.9997C549.011 36.823 549.233 37.6437 549.704 38.3223L552.726 42.7278C553.076 43.2277 553.28 43.8147 553.316 44.4237L553.537 47.4836C553.567 47.858 553.731 48.2091 553.998 48.473C554.265 48.7369 554.618 48.896 554.993 48.9214H555.693C556.07 48.9449 556.443 48.8279 556.739 48.5931C557.035 48.3582 557.234 48.0221 557.297 47.6495L558.089 43.1333C558.089 43.1333 560.503 37.0688 565.59 39.4467C565.59 39.4467 568.999 34.8753 567.875 25.0688C566.751 15.2624 562.346 5.1057 543.124 3.46514C523.902 1.82459 517.857 24.9582 517.857 24.9582Z" fill="#121212"/>
<path d="M547.216 89.8432L544.341 87.6128C542.834 88.8824 541.583 90.4276 540.655 92.1658C539.623 94.5068 540.655 101.954 540.655 101.954L539.77 103.465L538.701 101.493L537.78 92.682C537.78 92.682 538.775 86.1751 538.867 86.0092C538.959 85.8433 544.396 86.599 544.396 86.599C545.535 87.4896 546.492 88.591 547.216 89.8432Z" fill="#C4E3FF"/>
<path d="M533.467 81.0879C531.894 81.1744 530.365 81.6358 529.007 82.4335C529.007 82.4335 532.232 82.5994 532.693 82.6547C533.154 82.71 533.467 81.0879 533.467 81.0879Z" fill="#C4E3FF"/>
<path d="M539.254 81.7325L544.414 86.5619C541.789 87.8136 539.721 89.994 538.609 92.6818C538.609 92.6818 533.08 93.7325 532.49 91.7048C531.901 89.6772 532.49 84.5527 531.845 82.2855C531.2 80.0182 539.254 81.7325 539.254 81.7325Z" fill="#FA4767"/>
<path d="M532.693 91.6317C532.247 93.6826 531.58 95.6789 530.703 97.5856C529.652 99.4289 528.583 101.272 528.583 101.272L528.713 126.01C528.713 126.01 537.798 107.245 539.77 103.447C539.77 103.447 539.475 94.4151 538.609 92.7008C537.743 90.9865 532.693 91.6317 532.693 91.6317Z" fill="#FA4767"/>
<path d="M557.13 55.0605C551.159 72.314 534.333 77.42 534.333 77.42C534.333 77.42 537.337 80.3509 538.277 80.4799C539.217 80.6089 541.963 78.9315 541.963 78.9315C541.963 78.9315 554.864 75.8163 558.55 70.3601C559.641 68.7585 560.407 66.9573 560.802 65.0595C561.198 63.1618 561.215 61.2047 560.853 59.3002L561.332 55.6135C560.649 55.918 559.895 56.0275 559.153 55.9299C558.412 55.8323 557.712 55.5314 557.13 55.0605Z" fill="#E2C8CF"/>
<path d="M542.148 251.319L542.35 251.466L534.978 243.669C538.369 248.443 534.462 270.305 534.057 275.3C533.651 280.296 537.982 290.655 539.586 302.766C541.189 314.876 537.89 332.13 537.89 332.167C539.052 331.495 540.052 330.578 540.823 329.48C541.593 328.381 542.114 327.128 542.35 325.807C544.838 314.489 543.88 293.309 541.134 284.48C538.388 275.65 542.148 251.319 542.148 251.319Z" fill="#23121E"/>
<path d="M560.872 184.553C576.85 184.369 597.123 131.834 599.353 120.977C599.721 119.134 600.09 117.291 600.44 115.318C600.44 115.466 596.238 126.821 592.239 136.867C588.24 146.913 566.88 177.696 555.969 179.687C546.128 181.53 510.743 164.94 503.887 161.715C503.261 165.401 503.537 165.401 503.537 165.401C503.537 165.401 544.893 184.738 560.872 184.553Z" fill="#332D30"/>
<path d="M555.693 48.9582C556.07 48.9817 556.443 48.8648 556.739 48.63C557.035 48.3951 557.234 48.059 557.297 47.6863L558.089 43.1702C558.089 43.1702 560.503 37.1057 565.59 39.4836C565.59 39.4836 568.815 35.1333 567.931 25.8799C562.273 34.396 549.704 38.3223 549.704 38.3223L552.726 42.7278C553.076 43.2277 553.28 43.8147 553.316 44.4237L553.537 47.4836C553.567 47.858 553.731 48.2091 553.998 48.473C554.265 48.737 554.618 48.8961 554.993 48.9214L555.693 48.9582Z" fill="#484445"/>
<path d="M583.227 46.0831C583.227 46.0831 575.763 45.8066 565.793 46.5071C565.055 48.6085 564.742 49.2352 564.226 50.7836C563.81 52.6741 562.788 54.3768 561.314 55.6315L560.909 58.6545C562.604 59.0511 564.178 59.8532 565.496 60.992C566.813 62.1308 567.834 63.5723 568.472 65.1928C569.11 66.8133 569.346 68.5645 569.158 70.2959C568.971 72.0274 568.366 73.6875 567.396 75.1338C566.656 76.1831 565.823 77.1639 564.908 78.0647C559.379 83.5946 561.222 84.0002 564.115 83.3734C569.427 82.2595 574.877 81.9611 580.278 82.4887C616.234 85.5301 731.567 103.447 817.633 209.106C817.614 209.106 753.94 56.0186 583.227 46.0831Z" fill="url(#paint8_linear)"/>
<path d="M492.056 236L435.219 174.931L378.364 170.341C378.364 170.341 369.149 247.41 435.219 329.18C501.197 323.631 492.056 236 492.056 236Z" fill="#9F1B34"/>
<path d="M378.363 170.341L365.573 177.714L422.428 182.322L435.218 174.931L378.363 170.341Z" fill="#FF939C"/>
<path d="M479.266 243.374L422.429 182.323L399.042 179.964L365.574 177.715C365.574 177.715 356.359 254.802 422.429 336.554C488.407 331.005 479.266 243.374 479.266 243.374Z" fill="#9F1B34"/>
<path d="M472.373 244.333L421.249 189.438L400.24 187.3L370.144 185.291C370.144 185.291 361.925 254.6 421.249 328.111C480.593 323.208 472.373 244.333 472.373 244.333Z" fill="#675256"/>
<path d="M479.266 243.374L422.429 182.323L365.574 177.715L367.177 176.793L424.733 181.457L481.588 242.507C481.588 242.507 489.236 315.834 440.121 332.553C486.656 314.268 479.266 243.374 479.266 243.374Z" fill="white"/>
<path d="M147.939 278.654C145.998 278.656 144.092 278.148 142.41 277.179L95.267 249.935C94.6541 249.586 94.1445 249.08 93.7901 248.47C93.4357 247.859 93.249 247.166 93.249 246.461C93.249 245.755 93.4357 245.062 93.7901 244.451C94.1445 243.841 94.6541 243.336 95.267 242.986L109.679 234.728C111.36 233.757 113.267 233.246 115.208 233.246C117.149 233.246 119.056 233.757 120.737 234.728L167.898 261.954C168.511 262.303 169.02 262.809 169.375 263.419C169.729 264.029 169.916 264.723 169.916 265.428C169.916 266.134 169.729 266.827 169.375 267.438C169.02 268.048 168.511 268.553 167.898 268.903L153.449 277.124C151.778 278.109 149.878 278.636 147.939 278.654ZM115.116 235.004C113.486 234.998 111.883 235.424 110.471 236.239L96.1332 244.497C95.7844 244.695 95.4943 244.982 95.2925 245.328C95.0907 245.675 94.9844 246.069 94.9844 246.47C94.9844 246.871 95.0907 247.265 95.2925 247.611C95.4943 247.958 95.7844 248.244 96.1332 248.442L143.294 275.668C144.695 276.477 146.284 276.903 147.902 276.903C149.519 276.903 151.108 276.477 152.509 275.668L166.921 267.428C167.27 267.228 167.559 266.939 167.76 266.591C167.961 266.244 168.067 265.849 168.067 265.447C168.067 265.045 167.961 264.65 167.76 264.302C167.559 263.954 167.27 263.666 166.921 263.465L119.834 236.239C118.4 235.411 116.771 234.985 115.116 235.004Z" fill="#FF804C"/>
<path d="M112.886 300.479C110.946 300.482 109.039 299.973 107.357 299.005L60.2146 271.779C59.6021 271.427 59.0932 270.919 58.7394 270.308C58.3855 269.696 58.1992 269.002 58.1992 268.295C58.1992 267.588 58.3855 266.894 58.7394 266.283C59.0932 265.671 59.6021 265.163 60.2146 264.811L74.5713 256.572C76.2523 255.601 78.1591 255.09 80.1002 255.09C82.0412 255.09 83.948 255.601 85.629 256.572L132.809 283.797C133.422 284.147 133.931 284.653 134.286 285.263C134.64 285.873 134.827 286.566 134.827 287.272C134.827 287.978 134.64 288.671 134.286 289.281C133.931 289.891 133.422 290.397 132.809 290.747L118.397 299.005C116.721 299.97 114.821 300.478 112.886 300.479ZM80.1002 256.848C78.4639 256.838 76.8545 257.265 75.4375 258.083L61.044 266.341C60.6952 266.539 60.4051 266.826 60.2033 267.172C60.0015 267.519 59.8951 267.913 59.8951 268.314C59.8951 268.715 60.0015 269.108 60.2033 269.455C60.4051 269.801 60.6952 270.088 61.044 270.286L108.205 297.512C109.606 298.321 111.195 298.746 112.813 298.746C114.43 298.746 116.019 298.321 117.42 297.512L131.832 289.272C132.181 289.074 132.471 288.788 132.673 288.441C132.874 288.095 132.981 287.701 132.981 287.3C132.981 286.899 132.874 286.505 132.673 286.158C132.471 285.812 132.181 285.525 131.832 285.327L84.7813 258.065C83.357 257.249 81.741 256.829 80.1002 256.848Z" fill="#FF804C"/>
<path d="M435.496 602.176C433.555 602.178 431.648 601.669 429.967 600.701L415.518 592.461C414.905 592.109 414.396 591.602 414.043 590.99C413.689 590.378 413.502 589.684 413.502 588.978C413.502 588.271 413.689 587.577 414.043 586.965C414.396 586.353 414.905 585.846 415.518 585.494L462.661 558.268C464.342 557.297 466.249 556.786 468.19 556.786C470.131 556.786 472.037 557.297 473.718 558.268L488.112 566.507C488.725 566.857 489.234 567.363 489.589 567.973C489.943 568.583 490.13 569.276 490.13 569.982C490.13 570.688 489.943 571.381 489.589 571.991C489.234 572.602 488.725 573.107 488.112 573.457L440.969 600.701C439.304 601.66 437.417 602.168 435.496 602.176ZM463.601 559.779L416.458 587.024C416.109 587.221 415.819 587.508 415.617 587.855C415.415 588.201 415.309 588.595 415.309 588.996C415.309 589.397 415.415 589.791 415.617 590.137C415.819 590.484 416.109 590.771 416.458 590.968L430.851 599.208C432.267 600.023 433.871 600.452 435.505 600.452C437.138 600.452 438.743 600.023 440.158 599.208L487.393 572.056C487.742 571.858 488.032 571.571 488.234 571.225C488.436 570.878 488.542 570.485 488.542 570.084C488.542 569.683 488.436 569.289 488.234 568.942C488.032 568.596 487.742 568.309 487.393 568.111L473 559.853C471.584 559.038 469.98 558.609 468.346 558.609C466.713 558.609 465.108 559.038 463.693 559.853L463.601 559.779Z" fill="#FF804C"/>
<path d="M470.567 624C468.627 624.002 466.72 623.493 465.038 622.525L450.645 614.286C450.032 613.933 449.523 613.426 449.17 612.814C448.816 612.203 448.629 611.508 448.629 610.802C448.629 610.095 448.816 609.401 449.17 608.789C449.523 608.178 450.032 607.67 450.645 607.318L497.806 580.092C499.487 579.121 501.394 578.61 503.335 578.61C505.276 578.61 507.183 579.121 508.864 580.092L523.276 588.332C523.888 588.684 524.397 589.191 524.751 589.803C525.105 590.415 525.291 591.109 525.291 591.816C525.291 592.522 525.105 593.216 524.751 593.828C524.397 594.44 523.888 594.947 523.276 595.299L476.114 622.525C474.427 623.497 472.514 624.005 470.567 624ZM503.317 580.35C501.688 580.353 500.087 580.779 498.672 581.585L451.511 608.922C451.162 609.119 450.872 609.406 450.67 609.753C450.469 610.099 450.362 610.493 450.362 610.894C450.362 611.295 450.469 611.689 450.67 612.035C450.872 612.382 451.162 612.669 451.511 612.866L465.904 621.106C467.32 621.921 468.925 622.35 470.558 622.35C472.191 622.35 473.796 621.921 475.211 621.106L522.41 593.788C522.754 593.586 523.039 593.298 523.237 592.952C523.436 592.606 523.54 592.214 523.54 591.816C523.54 591.417 523.436 591.025 523.237 590.679C523.039 590.333 522.754 590.045 522.41 589.843L507.998 581.585C506.571 580.775 504.958 580.349 503.317 580.35Z" fill="#FF804C"/>
<path d="M981.582 505.53C980.01 505.528 978.466 505.115 977.104 504.332L927.86 475.889C927.357 475.601 926.939 475.185 926.647 474.683C926.356 474.182 926.202 473.612 926.201 473.032C926.198 472.451 926.351 471.88 926.642 471.378C926.934 470.876 927.354 470.46 927.86 470.175L977.122 441.714C978.49 440.935 980.036 440.525 981.61 440.525C983.183 440.525 984.73 440.935 986.097 441.714L1035.36 470.175C1035.86 470.462 1036.28 470.877 1036.57 471.377C1036.86 471.877 1037.01 472.445 1037.01 473.023C1037.01 473.601 1036.86 474.169 1036.57 474.669C1036.28 475.169 1035.86 475.584 1035.36 475.871L986.097 504.332C984.723 505.12 983.166 505.533 981.582 505.53ZM981.582 442.249C980.289 442.245 979.018 442.582 977.896 443.226L928.634 471.668C928.395 471.806 928.198 472.005 928.061 472.245C927.925 472.484 927.856 472.756 927.86 473.032C927.855 473.305 927.925 473.575 928.061 473.812C928.197 474.049 928.395 474.244 928.634 474.378L977.896 502.82C978.998 503.454 980.247 503.788 981.518 503.788C982.789 503.788 984.037 503.454 985.139 502.82L1034.47 474.359C1034.71 474.226 1034.91 474.03 1035.05 473.793C1035.18 473.556 1035.25 473.287 1035.25 473.014C1035.25 472.738 1035.18 472.466 1035.05 472.226C1034.91 471.986 1034.71 471.787 1034.47 471.65L985.213 443.207C984.111 442.583 982.867 442.252 981.601 442.249H981.582Z" fill="#FF804C"/>
<path d="M942.29 528.515C940.35 528.518 938.443 528.009 936.761 527.041L889.619 499.797C889.006 499.447 888.496 498.941 888.142 498.331C887.787 497.721 887.601 497.028 887.601 496.322C887.601 495.616 887.787 494.923 888.142 494.313C888.496 493.702 889.006 493.197 889.619 492.847L904.031 484.589C905.712 483.618 907.618 483.107 909.559 483.107C911.5 483.107 913.407 483.618 915.088 484.589L962.231 511.833C962.844 512.183 963.354 512.689 963.708 513.299C964.062 513.909 964.249 514.602 964.249 515.308C964.249 516.014 964.062 516.707 963.708 517.317C963.354 517.927 962.844 518.433 962.231 518.783L947.838 527.041C946.151 528.012 944.237 528.521 942.29 528.515ZM909.541 484.866C907.911 484.859 906.308 485.285 904.897 486.101L890.485 494.359C890.139 494.558 889.853 494.846 889.656 495.193C889.458 495.539 889.356 495.932 889.361 496.331C889.362 496.729 889.466 497.12 889.663 497.465C889.86 497.811 890.143 498.1 890.485 498.303L937.646 525.529C939.061 526.344 940.666 526.774 942.3 526.774C943.933 526.774 945.538 526.344 946.953 525.529L961.346 517.29C961.695 517.089 961.984 516.801 962.185 516.453C962.387 516.105 962.493 515.71 962.493 515.308C962.493 514.906 962.387 514.511 962.185 514.163C961.984 513.815 961.695 513.527 961.346 513.327L914.185 486.101C912.774 485.285 911.171 484.859 909.541 484.866Z" fill="#FF804C"/>
<path d="M907.237 550.341C905.297 550.343 903.39 549.834 901.709 548.866L854.547 521.64C853.935 521.288 853.426 520.781 853.072 520.169C852.718 519.557 852.532 518.863 852.532 518.156C852.532 517.45 852.718 516.756 853.072 516.144C853.426 515.532 853.935 515.025 854.547 514.673L868.959 506.433C870.64 505.462 872.547 504.951 874.488 504.951C876.429 504.951 878.336 505.462 880.017 506.433L927.178 533.659C927.791 534.008 928.301 534.514 928.655 535.124C929.01 535.734 929.196 536.428 929.196 537.133C929.196 537.839 929.01 538.532 928.655 539.143C928.301 539.753 927.791 540.258 927.178 540.608L912.766 548.866C911.085 549.834 909.178 550.343 907.237 550.341ZM874.414 506.691C872.784 506.685 871.182 507.111 869.77 507.926L855.358 516.184C855.009 516.382 854.719 516.669 854.517 517.015C854.316 517.362 854.209 517.755 854.209 518.156C854.209 518.557 854.316 518.951 854.517 519.298C854.719 519.644 855.009 519.931 855.358 520.129L902.519 547.355C903.92 548.164 905.509 548.589 907.127 548.589C908.744 548.589 910.333 548.164 911.734 547.355L926.146 539.115C926.494 538.916 926.783 538.629 926.983 538.283C927.184 537.936 927.289 537.543 927.289 537.143C927.293 536.741 927.19 536.347 926.989 535.999C926.787 535.652 926.496 535.366 926.146 535.17L878.985 507.926C877.595 507.123 876.019 506.697 874.414 506.691Z" fill="#FF804C"/>
<defs>
<linearGradient id="paint0_linear" x1="309.286" y1="239.576" x2="469.774" y2="518.77" gradientUnits="userSpaceOnUse">
<stop stop-color="#C0D6FF"/>
<stop offset="0.3" stop-color="#C5DBFF"/>
<stop offset="0.65" stop-color="#D3E9FF"/>
<stop offset="1" stop-color="#E9FFFF"/>
</linearGradient>
<linearGradient id="paint1_linear" x1="283.71" y1="341.659" x2="566.917" y2="341.659" gradientUnits="userSpaceOnUse">
<stop offset="0.35" stop-color="#FF939C"/>
<stop offset="0.44" stop-color="#FFB1BF"/>
<stop offset="0.57" stop-color="#F88DA0"/>
<stop offset="0.72" stop-color="#FF6581"/>
<stop offset="0.833333" stop-color="#FA4767"/>
<stop offset="0.953125" stop-color="#FA4767"/>
</linearGradient>
<linearGradient id="paint2_linear" x1="406.156" y1="235.89" x2="599.795" y2="235.89" gradientUnits="userSpaceOnUse">
<stop stop-color="#F94666"/>
<stop offset="0.18" stop-color="#FB5261"/>
<stop offset="0.39" stop-color="#FC5B5D"/>
<stop offset="0.61" stop-color="#FE7054"/>
<stop offset="0.85" stop-color="#FF7E4D"/>
<stop offset="1" stop-color="#FF804C"/>
</linearGradient>
<linearGradient id="paint3_linear" x1="47827.9" y1="15414.8" x2="68171.6" y2="15414.8" gradientUnits="userSpaceOnUse">
<stop stop-color="#5778FF"/>
<stop offset="0.18" stop-color="#5C7DFF"/>
<stop offset="0.39" stop-color="#6A8AFF"/>
<stop offset="0.61" stop-color="#82A0FF"/>
<stop offset="0.85" stop-color="#A3BEFF"/>
<stop offset="1" stop-color="#BCD5FF"/>
</linearGradient>
<linearGradient id="paint4_linear" x1="47827.9" y1="15414.8" x2="68171.6" y2="15414.8" gradientUnits="userSpaceOnUse">
<stop stop-color="#FA4767"/>
<stop offset="0.18" stop-color="#5C7DFF"/>
<stop offset="0.39" stop-color="#6A8AFF"/>
<stop offset="0.61" stop-color="#82A0FF"/>
<stop offset="0.85" stop-color="#A3BEFF"/>
<stop offset="1" stop-color="#BCD5FF"/>
</linearGradient>
<radialGradient id="paint5_radial" cx="0" cy="0" r="1" gradientUnits="userSpaceOnUse" gradientTransform="translate(44779 1322.78) scale(21831.1 12605)">
<stop stop-color="#FF804C"/>
<stop offset="0.15" stop-color="#FE6F54"/>
<stop offset="0.39" stop-color="#FD6857"/>
<stop offset="0.61" stop-color="#FC5C5D"/>
<stop offset="0.82" stop-color="#FA4F63"/>
<stop offset="1" stop-color="#F94666"/>
</radialGradient>
<radialGradient id="paint6_radial" cx="0" cy="0" r="1" gradientUnits="userSpaceOnUse" gradientTransform="translate(27229.3 6029.06) scale(8464.66 4878.7)">
<stop stop-color="#FF804C"/>
<stop offset="0.15" stop-color="#FF804C"/>
<stop offset="0.39" stop-color="#FD6658"/>
<stop offset="0.61" stop-color="#FC5E5C"/>
<stop offset="0.82" stop-color="#FA4B64"/>
<stop offset="1" stop-color="#F94666"/>
</radialGradient>
<linearGradient id="paint7_linear" x1="3059.67" y1="1816.8" x2="3250.76" y2="1816.8" gradientUnits="userSpaceOnUse">
<stop stop-color="#E9FFFF"/>
<stop offset="0.35" stop-color="#D3E9FF"/>
<stop offset="0.7" stop-color="#C5DBFF"/>
<stop offset="1" stop-color="#C0D6FF"/>
</linearGradient>
<linearGradient id="paint8_linear" x1="84987.1" y1="26930.9" x2="120754" y2="26930.9" gradientUnits="userSpaceOnUse">
<stop stop-color="#E9FFFF"/>
<stop offset="0.35" stop-color="#D3E9FF"/>
<stop offset="0.7" stop-color="#C5DBFF"/>
<stop offset="1" stop-color="#C0D6FF"/>
</linearGradient>
</defs>
</svg>
