<svg width="658" height="820" viewBox="0 0 658 820" fill="none" xmlns="http://www.w3.org/2000/svg">
<path style="mix-blend-mode:multiply" d="M172.582 530.523L44.3025 602.106C26.0641 611.374 25.0094 636.28 42.4311 646.937L317.769 815.535C321.769 817.97 326.324 819.344 331.003 819.527C335.683 819.711 340.332 818.697 344.51 816.583L472.79 744.994C491.034 735.732 492.083 710.819 474.661 700.163L199.316 531.571C195.318 529.136 190.764 527.762 186.085 527.579C181.407 527.395 176.759 528.409 172.582 530.523Z" fill="url(#paint0_linear)"/>
<path d="M465.548 720.679V716.572L521.807 520.837L527.389 520.182L494.314 635.271L489.909 650.601L483.4 673.232L477.304 694.462L471.471 714.74L470.866 716.855L470.59 717.806L465.548 720.679Z" fill="#FF8499"/>
<path d="M104.684 577.437V580.175L82.8052 592.625V589.893L104.684 577.437Z" fill="#5EA6D3"/>
<path d="M521.807 520.836L212.525 339.942L198.75 387.872L156.267 535.703L465.548 716.571L521.807 520.836ZM219.117 355.895L510.79 526.524L460.821 700.406L460.5 701.524L167.29 529.995L217.58 355.028L219.117 355.895Z" fill="#FFDCE2"/>
<path d="M467.059 714.207C466.995 714.417 466.948 714.632 466.918 714.849C466.874 715.137 466.848 715.426 466.84 715.717L302.097 803.966L4.48755 629.416L1.1691 626.549L156.273 535.685L467.059 714.207Z" fill="#FE5773"/>
<path d="M464.866 721.065L307.421 810.695L302.097 803.953L468.017 712.908L465.522 720.679L464.866 721.065Z" fill="#FF8499"/>
<path d="M302.097 803.953L307.421 810.689L1.45193 631.737L0.969604 626.44L302.097 803.953Z" fill="#FFDCE2"/>
<path d="M128.491 621.935L126.118 623.285V620.547L128.491 621.935Z" fill="#5EA6D3"/>
<path d="M148.838 623.734V626.472L140.086 631.454V628.716L148.838 623.734Z" fill="#F72F51"/>
<path d="M358.715 719.843L349.963 724.824V722.093L358.715 717.111V719.843Z" fill="#F72F51"/>
<path d="M365.989 739.711L357.237 744.692V741.954L365.989 736.973V739.711Z" fill="#F72F51"/>
<path d="M379.513 732.011L370.761 736.992V734.254L379.513 729.272V732.011Z" fill="#F72F51"/>
<path d="M370.76 736.992L363.082 732.499V729.761L370.76 734.254V736.992Z" fill="#FF8499"/>
<path d="M220.616 603.725L211.87 608.707V605.969L220.616 600.987V603.725Z" fill="#F72F51"/>
<path d="M376.588 745.907L367.835 750.888V748.15L376.588 743.169V745.907Z" fill="#F72F51"/>
<path d="M354.06 746.497L345.307 751.485V748.747L354.06 743.766V746.497Z" fill="#F72F51"/>
<path d="M343.854 740.534L335.107 745.515V742.784L343.854 737.796V740.534Z" fill="#F72F51"/>
<path d="M364.651 752.7L355.898 757.681V754.943L364.651 749.962V752.7Z" fill="#F72F51"/>
<path d="M178.44 629.095L169.688 634.077V631.339L178.44 626.357V629.095Z" fill="#F72F51"/>
<path d="M126.645 598.795L117.892 603.776V601.045L126.645 596.063V598.795Z" fill="#F72F51"/>
<path d="M355.79 733.739L347.037 738.721V735.989L355.79 731.008V733.739Z" fill="#F72F51"/>
<path d="M168.82 573.426L160.067 578.407V575.676L168.82 570.694V573.426Z" fill="#F72F51"/>
<path d="M345.191 727.545L336.445 732.526V729.788L345.191 724.807V727.545Z" fill="#F72F51"/>
<path d="M182.345 565.726L173.592 570.714V567.975L182.345 562.994V565.726Z" fill="#F72F51"/>
<path d="M390.105 738.207L381.359 743.188V740.45L390.105 735.469V738.207Z" fill="#F72F51"/>
<path d="M369.308 726.046L360.561 731.021V728.289L369.308 723.308V726.046Z" fill="#F72F51"/>
<path d="M429.489 715.787L420.736 720.768V718.037L429.489 713.056V715.787Z" fill="#F72F51"/>
<path d="M408.691 703.628L399.938 708.609V705.871L408.691 700.89V703.628Z" fill="#F72F51"/>
<path d="M200.396 576.288L191.643 581.269V578.531L200.396 573.55V576.288Z" fill="#F72F51"/>
<path d="M404.472 685.771L405.147 685.938L405.72 686.195L406.163 686.529L406.433 686.921L406.523 687.339L406.427 687.757L406.144 688.142L405.694 688.47L405.115 688.727L404.433 688.888L403.713 688.939L402.993 688.882L402.318 688.714L401.745 688.457L401.301 688.123L401.031 687.731L400.941 687.313L401.038 686.896L401.321 686.51L401.771 686.176L402.35 685.925L403.025 685.764L403.752 685.713L404.472 685.771Z" fill="#FFDCE2"/>
<path d="M412.44 690.2L412.71 690.593L412.807 691.01L412.704 691.428L412.421 691.814L411.971 692.148L411.392 692.399L410.717 692.559L409.99 692.611L409.27 692.553L408.594 692.392L408.022 692.135L407.585 691.794L407.308 691.402L407.218 690.991L407.315 690.573L407.604 690.181L408.048 689.853L408.633 689.596L409.308 689.436L410.028 689.391L410.755 689.442L411.424 689.609L412.003 689.866L412.44 690.2Z" fill="#FFDCE2"/>
<path d="M406.427 687.757L406.144 688.143L405.694 688.47L405.115 688.727L404.433 688.888L403.713 688.94L402.993 688.882L402.318 688.715L401.745 688.458L401.301 688.123L401.031 687.731L400.941 687.313V690.052L401.031 690.469L401.301 690.861L401.745 691.196L402.318 691.453L402.993 691.613L403.713 691.671L404.433 691.62L405.115 691.466L405.694 691.208L406.144 690.874L406.427 690.489L406.523 690.071V687.339L406.427 687.757Z" fill="#FF8499"/>
<path d="M412.704 691.426L412.421 691.812L411.971 692.146L411.392 692.397L410.717 692.558L409.99 692.609L409.27 692.551L408.594 692.391L408.022 692.133L407.585 691.793L407.308 691.401L407.218 690.989V693.721L407.308 694.139L407.585 694.531L408.022 694.865L408.594 695.122L409.27 695.289L409.99 695.347L410.717 695.296L411.392 695.135L411.971 694.878L412.421 694.55L412.704 694.165L412.807 693.747V691.009L412.704 691.426Z" fill="#FF8499"/>
<path d="M418.588 694.866L418.306 695.258L417.862 695.586L417.277 695.843L416.601 695.997L415.881 696.055L415.154 695.997L414.485 695.83L413.907 695.573L413.469 695.239L413.193 694.847L413.103 694.429V697.167L413.193 697.585L413.469 697.97L413.907 698.311L414.485 698.568L415.154 698.729L415.881 698.787L416.601 698.735L417.277 698.581L417.862 698.324L418.306 697.99L418.588 697.604L418.691 697.186V694.454L418.588 694.866Z" fill="#FF8499"/>
<path d="M416.601 695.998L415.881 696.056L415.154 695.998L414.485 695.831L413.907 695.574L413.469 695.239L413.193 694.847L413.103 694.43L413.206 694.012L413.489 693.626L413.932 693.292L414.518 693.041L415.193 692.881L415.913 692.829L416.64 692.887L417.309 693.054L417.888 693.311L418.325 693.645L418.601 694.037L418.691 694.455L418.588 694.867L418.306 695.259L417.862 695.587L417.277 695.844L416.601 695.998Z" fill="#FFDCE2"/>
<path d="M82.8052 589.896V592.627L75.7439 588.501V587.967V585.763L82.8052 589.896Z" fill="#FF8499"/>
<path d="M349.963 724.824L342.284 720.331V717.6L349.963 722.092V724.824Z" fill="#FF8499"/>
<path d="M357.236 744.693L349.558 740.2V737.462L357.236 741.955V744.693Z" fill="#FF8499"/>
<path d="M211.87 608.706L197.901 600.537V597.799L211.87 605.968V608.706Z" fill="#FF8499"/>
<path d="M367.835 750.888L360.15 746.395V743.657L367.835 748.15V750.888Z" fill="#FF8499"/>
<path d="M345.307 751.486L337.622 746.987V744.255L345.307 748.748V751.486Z" fill="#FF8499"/>
<path d="M335.107 745.514L327.422 741.021V738.283L335.107 742.782V745.514Z" fill="#FF8499"/>
<path d="M355.899 757.681L348.221 753.188V750.45L355.899 754.943V757.681Z" fill="#FF8499"/>
<path d="M169.688 634.075L155.72 625.906V623.168L169.688 631.337V634.075Z" fill="#FF8499"/>
<path d="M117.893 603.777L96.9403 591.526V588.788L117.893 601.045V603.777Z" fill="#FF8499"/>
<path d="M347.037 738.721L339.352 734.228V731.496L347.037 735.989V738.721Z" fill="#FF8499"/>
<path d="M160.067 578.409L149.591 572.284V569.546L160.067 575.678V578.409Z" fill="#FF8499"/>
<path d="M336.445 732.526L328.76 728.033V725.295L336.445 729.788V732.526Z" fill="#FF8499"/>
<path d="M173.592 570.715L163.116 564.584V561.846L173.592 567.977V570.715Z" fill="#FF8499"/>
<path d="M381.359 743.188L373.674 738.695V735.957L381.359 740.45V743.188Z" fill="#FF8499"/>
<path d="M360.562 731.021L352.876 726.528V723.796L360.562 728.289V731.021Z" fill="#FF8499"/>
<path d="M420.736 720.77L413.051 716.277V713.545L420.736 718.038V720.77Z" fill="#FF8499"/>
<path d="M399.938 708.609L392.253 704.116V701.378L399.938 705.871V708.609Z" fill="#FF8499"/>
<path d="M133.72 563.644L126.652 559.511V556.779L133.72 560.906V563.644Z" fill="#FF8499"/>
<path d="M369.616 761.712L363.34 758.042V755.304L369.616 758.98V761.712Z" fill="#FF8499"/>
<path d="M363.088 717.356L355.41 712.863V710.125L363.088 714.618V717.356Z" fill="#FF8499"/>
<path d="M394.485 735.72L386.8 731.221V728.489L394.485 732.982V735.72Z" fill="#FF8499"/>
<path d="M407.212 728.469L399.527 723.976V721.238L407.212 725.737V728.469Z" fill="#FF8499"/>
<path d="M375.822 710.112L368.137 705.613V702.881L375.822 707.374V710.112Z" fill="#FF8499"/>
<path d="M389.34 702.413L381.662 697.92V695.182L389.34 699.674V702.413Z" fill="#FF8499"/>
<path d="M373.687 723.553L366.002 719.06V716.322L373.687 720.815V723.553Z" fill="#FF8499"/>
<path d="M418.145 734.087L411.868 730.417V727.679L418.145 731.355V734.087Z" fill="#FF8499"/>
<path d="M386.414 716.309L378.735 711.816V709.078L386.414 713.571V716.309Z" fill="#FF8499"/>
<path d="M396.62 722.273L388.935 717.78V715.042L396.62 719.541V722.273Z" fill="#FF8499"/>
<path d="M394.279 747.676L388.003 744.006V741.268L394.279 744.944V747.676Z" fill="#FF8499"/>
<path d="M383.887 729.517L376.208 725.025V722.293L383.887 726.786V729.517Z" fill="#FF8499"/>
<path d="M410.138 714.574L402.459 710.081V707.35L410.138 711.842V714.574Z" fill="#FF8499"/>
<path d="M329.975 712.221L309.724 700.368V697.637L329.975 709.482V712.221Z" fill="#FF8499"/>
<path d="M123.217 621.581L109.249 613.412V610.674L123.217 618.849V621.581Z" fill="#FF8499"/>
<path d="M105.166 611.027L91.1977 602.851V600.119L105.166 608.288V611.027Z" fill="#FF8499"/>
<path d="M311.956 731.978L305.679 728.301V725.589L311.956 729.24V731.978Z" fill="#FF8499"/>
<path d="M303.326 726.926L297.049 723.256V720.537L303.326 724.188V726.926Z" fill="#FF8499"/>
<path d="M288.411 718.204V715.473L294.688 719.143V721.881L288.411 718.204Z" fill="#FF8499"/>
<path d="M191.644 581.269L177.675 573.099V570.361L191.644 578.531V581.269Z" fill="#FF8499"/>
<path d="M309.293 723.534L303.01 719.858V717.126L309.293 720.796V723.534Z" fill="#FF8499"/>
<path d="M225.394 601.008L211.425 592.839V590.101L225.394 598.27V601.008Z" fill="#FF8499"/>
<path d="M134.948 598.146L113.995 585.889V583.157L134.948 595.408V598.146Z" fill="#FF8499"/>
<path d="M312.92 717.851L292.669 706.006V703.268L312.92 715.113V717.851Z" fill="#FF8499"/>
<path d="M324.509 739.319L316.824 734.826V732.088L324.509 736.581V739.319Z" fill="#FF8499"/>
<path d="M208.519 591.141L194.551 582.971V580.233L208.519 588.403V591.141Z" fill="#FF8499"/>
<path d="M135.945 614.337L121.977 606.168V603.43L135.945 611.599V614.337Z" fill="#FF8499"/>
<path d="M251.851 649.078V646.34L265.819 654.515V657.247L251.851 649.078Z" fill="#FF8499"/>
<path d="M197.148 617.082L183.18 608.912V606.181L197.148 614.35V617.082Z" fill="#FF8499"/>
<path d="M314.625 650.467L328.593 658.636V661.368L314.625 653.198V650.467Z" fill="#FF8499"/>
<path d="M348.374 670.205L363.564 679.088V681.826L348.374 672.937V670.205Z" fill="#FF8499"/>
<path d="M280.096 630.264L294.058 638.433V641.171L280.096 633.002V630.264Z" fill="#FF8499"/>
<path d="M228.294 599.973L242.262 608.142V610.874L228.294 602.704V599.973Z" fill="#FF8499"/>
<path d="M263.221 620.397L277.189 628.567V631.305L263.221 623.136V620.397Z" fill="#FF8499"/>
<path d="M331.5 660.333L345.468 668.502V671.24L331.5 663.071V660.333Z" fill="#FF8499"/>
<path d="M246.346 610.526L260.314 618.702V621.434L246.346 613.264V610.526Z" fill="#FF8499"/>
<path d="M296.572 639.905L310.541 648.074V650.813L296.572 642.643V639.905Z" fill="#FF8499"/>
<path d="M108.259 575.4V578.139L101.197 574.006V571.268L108.259 575.4Z" fill="#FF8499"/>
<path d="M214.024 624.216V626.954L200.056 618.785V616.047L214.024 624.216Z" fill="#FF8499"/>
<path d="M203.618 635.574V638.312L189.65 630.142V627.404L203.618 635.574Z" fill="#FF8499"/>
<path d="M186.743 625.707V628.439L172.775 620.27V617.538L186.743 625.707Z" fill="#FF8499"/>
<path d="M221.67 646.132V648.87L207.702 640.695V637.963L221.67 646.132Z" fill="#FF8499"/>
<path d="M340.387 698.125V700.857L320.129 689.011V686.279L340.387 698.125Z" fill="#FF8499"/>
<path d="M246.79 626.395V629.133L232.821 620.964V618.226L246.79 626.395Z" fill="#FF8499"/>
<path d="M297.017 655.775V658.513L283.048 650.337V647.605L297.017 655.775Z" fill="#FF8499"/>
<path d="M331.943 676.201V678.94L317.975 670.77V668.032L331.943 676.201Z" fill="#FF8499"/>
<path d="M292.849 687.771L306.817 695.941V698.672L292.849 690.503V687.771Z" fill="#FF8499"/>
<path d="M303.261 676.407L317.223 684.583V687.315L303.261 679.145V676.407Z" fill="#FF8499"/>
<path d="M280.54 646.132V648.87L266.571 640.701V637.963L280.54 646.132Z" fill="#FF8499"/>
<path d="M257.928 670.076V667.338L271.896 675.514V678.245L257.928 670.076Z" fill="#FF8499"/>
<path d="M228.738 615.842V618.573L214.77 610.404V607.666L228.738 615.842Z" fill="#FF8499"/>
<path d="M190.647 646.334V643.596L204.615 651.765V654.503L190.647 646.334Z" fill="#FF8499"/>
<path d="M268.334 655.98L282.302 664.156V666.888L268.334 658.719V655.98Z" fill="#FF8499"/>
<path d="M224.57 647.831L238.539 656V658.738L224.57 650.569V647.831Z" fill="#FF8499"/>
<path d="M232.076 634.777V637.508L218.108 629.339V626.607L232.076 634.777Z" fill="#FF8499"/>
<path d="M221.484 664.368L207.522 656.198V653.467L221.484 661.636V664.368Z" fill="#FF8499"/>
<path d="M272.893 694.436L258.919 686.266V683.528L272.893 691.704V694.436Z" fill="#FF8499"/>
<path d="M153 608.706L139.031 600.53V597.799L153 605.968V608.706Z" fill="#FF8499"/>
<path d="M169.869 618.573L155.907 610.404V607.666L169.869 615.835V618.573Z" fill="#FF8499"/>
<path d="M315.068 669.068L301.1 660.899V658.167L315.068 666.33V669.068Z" fill="#FF8499"/>
<path d="M300.354 677.448L286.385 669.279V666.541L300.354 674.71V677.448Z" fill="#FF8499"/>
<path d="M289.762 704.307L275.794 696.138V693.399L289.762 701.569V704.307Z" fill="#FF8499"/>
<path d="M289.949 688.806L275.974 680.637V677.898L289.949 686.068V688.806Z" fill="#FF8499"/>
<path d="M280.958 713.846L266.99 705.677V703.684V702.938L280.958 711.108V713.846Z" fill="#FF8499"/>
<path d="M251.292 696.492V693.761L265.266 701.93V704.668L251.292 696.492Z" fill="#FF8499"/>
<path d="M248.784 695.028L234.816 686.858V684.12L248.784 692.289V695.028Z" fill="#FF8499"/>
<path d="M254.841 683.882L240.873 675.713V672.975L254.841 681.144V683.882Z" fill="#FF8499"/>
<path d="M229.001 683.459L166.144 646.694V643.956L229.001 680.721V683.459Z" fill="#FF8499"/>
<path d="M152.819 624.204L138.845 616.034V613.303L152.819 621.472V624.204Z" fill="#FF8499"/>
<path d="M238.359 674.241L224.391 666.072V663.334L238.359 671.503V674.241Z" fill="#FF8499"/>
<path d="M194.994 598.836L181.026 590.666V587.935L194.994 596.104V598.836Z" fill="#FF8499"/>
<path d="M248.944 647.38L234.976 639.211V636.473L248.944 644.642V647.38Z" fill="#FF8499"/>
<path d="M255.414 668.609L241.446 660.434V657.702L255.414 665.871V668.609Z" fill="#FF8499"/>
<path d="M350.04 689.519L334.85 680.637V677.898L350.04 686.788V689.519Z" fill="#FF8499"/>
<path d="M263.665 639L249.697 630.83V628.099L263.665 636.268V639Z" fill="#FF8499"/>
<path d="M124.401 574.532V571.794L145.353 584.051V586.789L124.401 574.532Z" fill="#FF8499"/>
<path d="M180.28 604.479V607.217L166.306 599.048V596.31L180.28 604.479Z" fill="#FF8499"/>
<path d="M142.993 633.149V630.411L156.961 638.587V641.319L142.993 633.149Z" fill="#FF8499"/>
<path d="M126.194 623.237V620.499L140.162 628.675V631.406L126.194 623.237Z" fill="#FF8499"/>
<path d="M164.151 580.799V578.061L178.119 586.23V588.968L164.151 580.799Z" fill="#FF8499"/>
<path d="M149.437 589.173V586.441L163.405 594.611V597.342L149.437 589.173Z" fill="#FF8499"/>
<path d="M155.598 551.196L133.719 563.646V560.908L155.598 548.458V551.196Z" fill="#F72F51"/>
<path d="M389.507 750.393L369.616 761.712V758.98L389.507 747.655V750.393Z" fill="#F72F51"/>
<path d="M371.841 712.375L363.088 717.356V714.618L371.841 709.637V712.375Z" fill="#F72F51"/>
<path d="M403.231 730.739L394.485 735.72V732.982L403.231 728.001V730.739Z" fill="#F72F51"/>
<path d="M415.964 723.488L407.212 728.47V725.738L415.964 720.757V723.488Z" fill="#F72F51"/>
<path d="M384.568 705.133L375.822 710.114V707.376L384.568 702.395V705.133Z" fill="#F72F51"/>
<path d="M398.093 697.432L389.34 702.414V699.676L398.093 694.694V697.432Z" fill="#F72F51"/>
<path d="M382.439 718.571L373.687 723.552V720.814L382.439 715.833V718.571Z" fill="#F72F51"/>
<path d="M438.03 722.768L418.145 734.087V731.355L438.03 720.03V722.768Z" fill="#F72F51"/>
<path d="M395.167 711.328L386.414 716.309V713.571L395.167 708.59V711.328Z" fill="#F72F51"/>
<path d="M405.366 717.291L396.62 722.272V719.541L405.366 714.56V717.291Z" fill="#F72F51"/>
<path d="M414.164 736.356L394.279 747.675V744.943L414.164 733.618V736.356Z" fill="#F72F51"/>
<path d="M392.639 724.536L383.886 729.518V726.786L392.639 721.805V724.536Z" fill="#F72F51"/>
<path d="M418.891 709.592L410.138 714.573V711.842L418.891 706.86V709.592Z" fill="#F72F51"/>
<path d="M338.728 707.239L329.975 712.22V709.482L338.728 704.501V707.239Z" fill="#F72F51"/>
<path d="M131.964 616.601L123.218 621.582V618.85L131.964 613.869V616.601Z" fill="#F72F51"/>
<path d="M113.912 606.046L105.166 611.027V608.289L113.912 603.308V606.046Z" fill="#F72F51"/>
<path d="M315.537 729.942L311.955 731.98V729.242L315.537 727.204V729.942Z" fill="#F72F51"/>
<path d="M305.679 725.591L303.325 726.928V724.197L306.901 722.159V724.872L305.679 725.572V725.591Z" fill="#F72F51"/>
<path d="M294.688 721.881V719.143L298.27 717.105V719.824L297.048 720.518L294.688 721.881Z" fill="#F72F51"/>
<path d="M312.869 721.495L309.293 723.532V720.794L312.869 718.757V721.495Z" fill="#F72F51"/>
<path d="M234.14 596.027L225.394 601.008V598.27L234.14 593.289V596.027Z" fill="#F72F51"/>
<path d="M143.7 593.164L134.948 598.145V595.407L143.7 590.426V593.164Z" fill="#F72F51"/>
<path d="M321.672 712.872L312.92 717.853V715.115L321.672 710.134V712.872Z" fill="#F72F51"/>
<path d="M333.261 734.337L324.509 739.318V736.58L333.261 731.599V734.337Z" fill="#F72F51"/>
<path d="M208.518 588.403L217.265 583.422V586.16L208.518 591.141V588.403Z" fill="#F72F51"/>
<path d="M144.691 609.357L135.945 614.339V611.6L144.691 606.619V609.357Z" fill="#F72F51"/>
<path d="M274.572 649.534V652.266L265.819 657.247V654.515L274.572 649.534Z" fill="#F72F51"/>
<path d="M205.901 612.102L197.148 617.083V614.351L205.901 609.37V612.102Z" fill="#F72F51"/>
<path d="M328.592 658.636L337.345 653.654V656.392L328.592 661.367V658.636Z" fill="#F72F51"/>
<path d="M363.564 679.089L372.311 674.107V676.846L363.564 681.827V679.089Z" fill="#F72F51"/>
<path d="M294.057 638.435L302.81 633.46V636.192L294.057 641.173V638.435Z" fill="#F72F51"/>
<path d="M242.262 608.141L251.015 603.16V605.892L242.262 610.873V608.141Z" fill="#F72F51"/>
<path d="M277.189 628.567L285.936 623.586V626.324L277.189 631.305V628.567Z" fill="#F72F51"/>
<path d="M345.467 668.502L354.213 663.521V666.259L345.467 671.24V668.502Z" fill="#F72F51"/>
<path d="M260.314 618.702L269.067 613.721V616.452L260.314 621.434V618.702Z" fill="#F72F51"/>
<path d="M310.54 648.075L319.293 643.094V645.832L310.54 650.813V648.075Z" fill="#F72F51"/>
<path d="M108.259 575.399L130.137 562.949V565.681L108.259 578.137V575.399Z" fill="#F72F51"/>
<path d="M222.776 619.234V621.972L214.024 626.954V624.216L222.776 619.234Z" fill="#F72F51"/>
<path d="M203.618 638.313V635.575L212.364 630.594V633.332L203.618 638.313Z" fill="#F72F51"/>
<path d="M195.496 620.726V623.457L186.743 628.439V625.707L195.496 620.726Z" fill="#F72F51"/>
<path d="M221.67 646.135L230.416 641.153V643.891L221.67 648.873V646.135Z" fill="#F72F51"/>
<path d="M340.387 700.858V698.127L349.133 693.146V695.877L340.387 700.858Z" fill="#F72F51"/>
<path d="M246.79 626.395L255.542 621.414V624.152L246.79 629.134V626.395Z" fill="#F72F51"/>
<path d="M297.016 658.514V655.776L305.769 650.795V653.533L297.016 658.514Z" fill="#F72F51"/>
<path d="M331.943 678.939V676.201L340.689 671.22V673.958L331.943 678.939Z" fill="#F72F51"/>
<path d="M306.817 698.672V695.94L315.57 690.959V693.691L306.817 698.672Z" fill="#F72F51"/>
<path d="M317.222 687.314V684.582L325.975 679.595V682.333L317.222 687.314Z" fill="#F72F51"/>
<path d="M289.286 641.153V643.891L280.54 648.873V646.135L289.286 641.153Z" fill="#F72F51"/>
<path d="M271.896 678.245V675.513L280.649 670.532V673.264L271.896 678.245Z" fill="#F72F51"/>
<path d="M228.738 615.842L237.49 610.86V613.592L228.738 618.573V615.842Z" fill="#F72F51"/>
<path d="M213.361 646.783V649.521L204.615 654.503V651.765L213.361 646.783Z" fill="#F72F51"/>
<path d="M282.302 666.889V664.158L291.055 659.17V661.908L282.302 666.889Z" fill="#F72F51"/>
<path d="M238.539 658.738V656L247.292 651.019V653.757L238.539 658.738Z" fill="#F72F51"/>
<path d="M232.076 634.776L240.822 629.795V632.527L232.076 637.508V634.776Z" fill="#F72F51"/>
<path d="M230.236 659.387L221.484 664.368V661.637L230.236 656.655V659.387Z" fill="#F72F51"/>
<path d="M281.639 689.455L272.893 694.436V691.704L281.639 686.717V689.455Z" fill="#F72F51"/>
<path d="M161.746 603.725L152.999 608.707V605.969L161.746 600.987V603.725Z" fill="#F72F51"/>
<path d="M178.621 613.593L169.868 618.574V615.836L178.621 610.854V613.593Z" fill="#F72F51"/>
<path d="M323.82 664.086L315.068 669.067V666.329L323.82 661.348V664.086Z" fill="#F72F51"/>
<path d="M309.1 672.467L300.354 677.448V674.71L309.1 669.729V672.467Z" fill="#F72F51"/>
<path d="M298.514 699.328L289.762 704.309V701.571L298.514 696.59V699.328Z" fill="#F72F51"/>
<path d="M298.694 683.824L289.948 688.805V686.067L298.694 681.086V683.824Z" fill="#F72F51"/>
<path d="M289.71 708.866L280.958 713.847V711.109L289.71 706.128V708.866Z" fill="#F72F51"/>
<path d="M266.99 703.686L265.267 704.669V701.931L274.013 696.95V698.943L266.99 702.94V703.686Z" fill="#F72F51"/>
<path d="M257.536 690.047L248.783 695.028V692.29L257.536 687.309V690.047Z" fill="#F72F51"/>
<path d="M263.588 678.9L254.842 683.882V681.143L263.588 676.162V678.9Z" fill="#F72F51"/>
<path d="M237.754 678.476L229.001 683.458V680.72L237.754 675.738V678.476Z" fill="#F72F51"/>
<path d="M161.565 619.222L152.819 624.203V621.472L161.565 616.49V619.222Z" fill="#F72F51"/>
<path d="M247.111 669.261L238.359 674.242V671.504L247.111 666.522V669.261Z" fill="#F72F51"/>
<path d="M203.747 593.855L194.994 598.836V596.104L203.747 591.123V593.855Z" fill="#F72F51"/>
<path d="M257.696 642.401L248.944 647.382V644.644L257.696 639.663V642.401Z" fill="#F72F51"/>
<path d="M264.166 663.623L255.413 668.611V665.873L264.166 660.892V663.623Z" fill="#F72F51"/>
<path d="M358.786 684.538L350.04 689.52V686.788L358.786 681.807V684.538Z" fill="#F72F51"/>
<path d="M272.417 634.019L263.665 639V636.268L272.417 631.287V634.019Z" fill="#F72F51"/>
<path d="M154.105 579.071V581.809L145.353 586.791V584.053L154.105 579.071Z" fill="#F72F51"/>
<path d="M189.026 599.497V602.235L180.28 607.216V604.478L189.026 599.497Z" fill="#F72F51"/>
<path d="M156.961 641.319V638.588L165.713 633.606V636.338L156.961 641.319Z" fill="#F72F51"/>
<path d="M178.119 588.967V586.229L186.872 581.248V583.986L178.119 588.967Z" fill="#F72F51"/>
<path d="M163.405 594.613L172.158 589.632V592.363L163.405 597.345V594.613Z" fill="#F72F51"/>
<path d="M195.315 636.229V638.961L186.563 643.942V641.211L195.315 636.229Z" fill="#F72F51"/>
<path d="M97.6544 573.286L104.729 577.425L82.818 589.901L75.7439 585.762L97.0884 573.608L97.6544 573.286Z" fill="#FFDCE2"/>
<path d="M135.257 615.721L149.315 623.948L140.511 628.961L128.832 622.135L126.446 620.741L135.257 615.721Z" fill="#FFDCE2"/>
<path d="M342.284 717.599L351.031 712.618L358.716 717.111L349.963 722.092L342.284 717.599Z" fill="#FFDCE2"/>
<path d="M358.311 732.48L365.989 736.973L357.237 741.955L349.558 737.462L358.311 732.48Z" fill="#FFDCE2"/>
<path d="M379.514 729.274L370.762 734.255L363.083 729.763L371.829 724.781L379.514 729.274Z" fill="#FFDCE2"/>
<path d="M211.869 605.969L197.901 597.8L206.647 592.818L220.615 600.988L211.869 605.969Z" fill="#FFDCE2"/>
<path d="M360.15 743.657L368.902 738.676L376.587 743.169L367.835 748.15L360.15 743.657Z" fill="#FFDCE2"/>
<path d="M337.622 744.256L346.374 739.274L354.06 743.767L345.307 748.748L337.622 744.256Z" fill="#FFDCE2"/>
<path d="M343.854 737.796L335.107 742.784L327.422 738.285L336.175 733.304L343.854 737.796Z" fill="#FFDCE2"/>
<path d="M364.652 749.963L355.899 754.945L348.221 750.452L356.967 745.471L364.652 749.963Z" fill="#FFDCE2"/>
<path d="M165.051 618.36L179.109 626.588L170.305 631.601L156.241 623.374L165.051 618.36Z" fill="#FFDCE2"/>
<path d="M126.974 596.09L118.17 601.11L97.0758 588.769L105.886 583.756L126.974 596.09Z" fill="#FFDCE2"/>
<path d="M355.79 731.009L347.037 735.991L339.352 731.498L348.104 726.517L355.79 731.009Z" fill="#FFDCE2"/>
<path d="M150.074 569.403L158.884 564.39L169.431 570.554L160.621 575.573L150.074 569.403Z" fill="#FFDCE2"/>
<path d="M336.445 729.787L328.76 725.295L337.513 720.313L345.191 724.806L336.445 729.787Z" fill="#FFDCE2"/>
<path d="M182.345 562.995L173.592 567.977L163.116 561.845L171.869 556.87L182.345 562.995Z" fill="#FFDCE2"/>
<path d="M381.359 740.451L373.674 735.958L382.427 730.977L390.105 735.469L381.359 740.451Z" fill="#FFDCE2"/>
<path d="M360.561 728.289L352.876 723.797L361.629 718.815L369.308 723.308L360.561 728.289Z" fill="#FFDCE2"/>
<path d="M429.49 713.055L420.737 718.037L413.052 713.544L421.805 708.562L429.49 713.055Z" fill="#FFDCE2"/>
<path d="M392.254 701.379L401.006 696.397L408.691 700.89L399.939 705.872L392.254 701.379Z" fill="#FFDCE2"/>
<path d="M155.618 548.443L133.701 560.919L126.626 556.78L148.544 544.311L155.618 548.443Z" fill="#FFDCE2"/>
<path d="M363.34 755.304L383.231 743.985L389.508 747.655L369.617 758.98L363.34 755.304Z" fill="#FFDCE2"/>
<path d="M364.163 705.145L371.841 709.637L363.089 714.619L355.41 710.126L364.163 705.145Z" fill="#FFDCE2"/>
<path d="M386.8 728.489L395.553 723.508L403.231 728.001L394.485 732.982L386.8 728.489Z" fill="#FFDCE2"/>
<path d="M415.965 720.756L407.212 725.737L399.527 721.238L408.28 716.257L415.965 720.756Z" fill="#FFDCE2"/>
<path d="M376.89 697.9L384.568 702.393L375.822 707.374L368.137 702.882L376.89 697.9Z" fill="#FFDCE2"/>
<path d="M398.093 694.695L389.34 699.676L381.661 695.183L390.414 690.202L398.093 694.695Z" fill="#FFDCE2"/>
<path d="M373.687 720.814L366.002 716.321L374.755 711.34L382.44 715.833L373.687 720.814Z" fill="#FFDCE2"/>
<path d="M418.145 731.357L411.868 727.68L431.753 716.361L438.03 720.031L418.145 731.357Z" fill="#FFDCE2"/>
<path d="M387.482 704.097L395.167 708.589L386.414 713.571L378.736 709.078L387.482 704.097Z" fill="#FFDCE2"/>
<path d="M388.935 715.043L397.688 710.068L405.366 714.561L396.62 719.542L388.935 715.043Z" fill="#FFDCE2"/>
<path d="M414.164 733.617L394.279 744.942L388.003 741.266L407.887 729.947L414.164 733.617Z" fill="#FFDCE2"/>
<path d="M384.955 717.312L392.64 721.804L383.887 726.786L376.208 722.293L384.955 717.312Z" fill="#FFDCE2"/>
<path d="M410.138 711.841L402.459 707.348L411.212 702.367L418.891 706.86L410.138 711.841Z" fill="#FFDCE2"/>
<path d="M329.976 709.483L309.725 697.638L318.477 692.656L338.729 704.502L329.976 709.483Z" fill="#FFDCE2"/>
<path d="M123.526 619.023L109.462 610.802L118.272 605.789L132.331 614.01L123.526 619.023Z" fill="#FFDCE2"/>
<path d="M91.2943 600.177L100.105 595.164L114.163 603.385L105.353 608.398L91.2943 600.177Z" fill="#FFDCE2"/>
<path d="M306.901 722.158L303.325 724.195L297.048 720.519L298.27 719.825L300.624 718.481L306.901 722.158Z" fill="#FFDCE2"/>
<path d="M294.688 719.143L288.412 715.473L291.994 713.436L298.271 717.106L294.688 719.143Z" fill="#FFDCE2"/>
<path d="M309.261 723.533L315.538 727.203L311.956 729.241L305.679 725.571L306.901 724.87L309.261 723.533Z" fill="#FFDCE2"/>
<path d="M200.396 573.549L191.644 578.53L177.676 570.361L186.428 565.38L200.396 573.549Z" fill="#FFDCE2"/>
<path d="M312.869 718.756L309.293 720.794L303.01 717.123L306.592 715.086L312.869 718.756Z" fill="#FFDCE2"/>
<path d="M211.426 590.099L220.172 585.118L234.141 593.287L225.394 598.269L211.426 590.099Z" fill="#FFDCE2"/>
<path d="M114.253 582.914L123.018 577.92L144.003 590.196L135.244 595.19L114.253 582.914Z" fill="#FFDCE2"/>
<path d="M301.422 698.287L321.673 710.133L312.92 715.114L292.669 703.268L301.422 698.287Z" fill="#FFDCE2"/>
<path d="M324.509 736.581L316.824 732.088L325.577 727.106L333.262 731.599L324.509 736.581Z" fill="#FFDCE2"/>
<path d="M208.519 588.403L194.551 580.234L203.297 575.253L217.265 583.422L208.519 588.403Z" fill="#FFDCE2"/>
<path d="M136.337 611.735L122.279 603.508L131.083 598.494L145.141 606.721L136.337 611.735Z" fill="#FFDCE2"/>
<path d="M251.851 646.342L260.604 641.36L274.572 649.536L265.819 654.517L251.851 646.342Z" fill="#FFDCE2"/>
<path d="M197.149 614.351L183.181 606.182L191.934 601.194L205.902 609.37L197.149 614.351Z" fill="#FFDCE2"/>
<path d="M337.346 653.655L328.593 658.636L314.625 650.467L323.377 645.485L337.346 653.655Z" fill="#FFDCE2"/>
<path d="M372.311 674.106L363.565 679.088L348.375 670.205L357.121 665.224L372.311 674.106Z" fill="#FFDCE2"/>
<path d="M302.811 633.46L294.058 638.435L280.096 630.265L288.842 625.284L302.811 633.46Z" fill="#FFDCE2"/>
<path d="M242.262 608.142L228.294 599.972L237.047 594.991L251.015 603.16L242.262 608.142Z" fill="#FFDCE2"/>
<path d="M263.221 620.399L271.967 615.418L285.936 623.587L277.189 628.568L263.221 620.399Z" fill="#FFDCE2"/>
<path d="M345.468 668.502L331.499 660.333L340.246 655.352L354.214 663.521L345.468 668.502Z" fill="#FFDCE2"/>
<path d="M246.346 610.526L255.099 605.545L269.067 613.721L260.314 618.702L246.346 610.526Z" fill="#FFDCE2"/>
<path d="M310.541 648.077L296.573 639.908L305.326 634.927L319.294 643.096L310.541 648.077Z" fill="#FFDCE2"/>
<path d="M130.157 562.924L108.24 575.4L101.166 571.261L123.083 558.785L130.157 562.924Z" fill="#FFDCE2"/>
<path d="M222.776 619.235L214.024 624.216L200.056 616.047L208.808 611.065L222.776 619.235Z" fill="#FFDCE2"/>
<path d="M212.365 630.592L203.619 635.573L189.65 627.404L198.403 622.423L212.365 630.592Z" fill="#FFDCE2"/>
<path d="M181.528 612.557L195.496 620.726L186.743 625.707L172.775 617.538L181.528 612.557Z" fill="#FFDCE2"/>
<path d="M230.417 641.154L221.67 646.135L207.702 637.966L216.448 632.984L230.417 641.154Z" fill="#FFDCE2"/>
<path d="M340.387 698.125L320.129 686.279L328.882 681.298L349.133 693.144L340.387 698.125Z" fill="#FFDCE2"/>
<path d="M255.542 621.414L246.79 626.396L232.822 618.226L241.574 613.245L255.542 621.414Z" fill="#FFDCE2"/>
<path d="M297.016 655.775L283.048 647.605L291.801 642.624L305.769 650.793L297.016 655.775Z" fill="#FFDCE2"/>
<path d="M326.728 663.052L340.689 671.221L331.943 676.202L317.975 668.033L326.728 663.052Z" fill="#FFDCE2"/>
<path d="M306.817 695.94L292.849 687.77L301.602 682.789L315.57 690.958L306.817 695.94Z" fill="#FFDCE2"/>
<path d="M317.223 684.583L303.261 676.407L312.007 671.426L325.976 679.595L317.223 684.583Z" fill="#FFDCE2"/>
<path d="M275.318 632.984L289.286 641.154L280.54 646.135L266.572 637.966L275.318 632.984Z" fill="#FFDCE2"/>
<path d="M257.929 667.338L266.682 662.363L280.65 670.533L271.897 675.514L257.929 667.338Z" fill="#FFDCE2"/>
<path d="M237.491 610.861L228.739 615.842L214.77 607.666L223.523 602.691L237.491 610.861Z" fill="#FFDCE2"/>
<path d="M199.394 638.614L213.362 646.784L204.616 651.765L190.647 643.596L199.394 638.614Z" fill="#FFDCE2"/>
<path d="M282.302 664.156L268.334 655.98L277.086 650.999L291.055 659.168L282.302 664.156Z" fill="#FFDCE2"/>
<path d="M238.539 656L224.571 647.831L233.324 642.85L247.292 651.019L238.539 656Z" fill="#FFDCE2"/>
<path d="M240.822 629.795L232.076 634.777L218.107 626.607L226.854 621.626L240.822 629.795Z" fill="#FFDCE2"/>
<path d="M207.522 653.468L216.268 648.48L230.236 656.656L221.484 661.638L207.522 653.468Z" fill="#FFDCE2"/>
<path d="M281.64 686.718L272.894 691.706L258.919 683.53L267.672 678.549L281.64 686.718Z" fill="#FFDCE2"/>
<path d="M148.254 592.825L162.312 601.052L153.502 606.066L139.444 597.839L148.254 592.825Z" fill="#FFDCE2"/>
<path d="M165.238 602.762L179.296 610.982L170.485 615.996L156.427 607.775L165.238 602.762Z" fill="#FFDCE2"/>
<path d="M301.1 658.167L309.853 653.186L323.821 661.348L315.068 666.33L301.1 658.167Z" fill="#FFDCE2"/>
<path d="M295.132 661.561L309.101 669.73L300.354 674.711L286.386 666.542L295.132 661.561Z" fill="#FFDCE2"/>
<path d="M284.547 688.421L298.515 696.59L289.762 701.571L275.794 693.402L284.547 688.421Z" fill="#FFDCE2"/>
<path d="M284.727 672.917L298.695 681.086L289.949 686.068L275.974 677.898L284.727 672.917Z" fill="#FFDCE2"/>
<path d="M265.267 701.93L251.292 693.761L260.045 688.779L274.013 696.949L265.267 701.93Z" fill="#FFDCE2"/>
<path d="M280.958 711.111L266.99 702.941L274.013 698.943L275.743 697.96L289.711 706.129L280.958 711.111Z" fill="#FFDCE2"/>
<path d="M243.568 679.139L257.537 687.308L248.784 692.289L234.816 684.12L243.568 679.139Z" fill="#FFDCE2"/>
<path d="M263.588 676.163L254.842 681.144L240.873 672.974L249.626 667.993L263.588 676.163Z" fill="#FFDCE2"/>
<path d="M229.001 680.72L166.144 643.955L174.897 638.974L237.754 675.738L229.001 680.72Z" fill="#FFDCE2"/>
<path d="M161.69 616.338L152.886 621.351L138.828 613.131L147.632 608.117L161.69 616.338Z" fill="#FFDCE2"/>
<path d="M238.359 671.503L224.39 663.334L233.143 658.353L247.111 666.522L238.359 671.503Z" fill="#FFDCE2"/>
<path d="M181.026 587.933L189.779 582.952L203.747 591.121L194.994 596.103L181.026 587.933Z" fill="#FFDCE2"/>
<path d="M248.945 644.644L234.976 636.474L243.729 631.493L257.697 639.662L248.945 644.644Z" fill="#FFDCE2"/>
<path d="M264.167 660.892L255.414 665.873L241.446 657.704L250.199 652.723L264.167 660.892Z" fill="#FFDCE2"/>
<path d="M343.597 672.917L358.787 681.806L350.041 686.788L334.851 677.898L343.597 672.917Z" fill="#FFDCE2"/>
<path d="M272.417 631.286L263.665 636.268L249.697 628.098L258.449 623.117L272.417 631.286Z" fill="#FFDCE2"/>
<path d="M124.678 571.538L133.443 566.544L154.428 578.82L145.662 583.815L124.678 571.538Z" fill="#FFDCE2"/>
<path d="M175.708 591.326L189.766 599.547L180.962 604.56L166.904 596.34L175.708 591.326Z" fill="#FFDCE2"/>
<path d="M142.845 630.264L151.656 625.251L165.714 633.472L156.91 638.492L142.845 630.264Z" fill="#FFDCE2"/>
<path d="M164.73 577.978L173.541 572.958L187.599 581.185L178.789 586.199L164.73 577.978Z" fill="#FFDCE2"/>
<path d="M149.919 586.404L158.723 581.391L172.788 589.618L163.978 594.631L149.919 586.404Z" fill="#FFDCE2"/>
<path d="M172.595 633.041L181.342 628.054L195.316 636.229L186.564 641.211L172.595 633.041Z" fill="#FFDCE2"/>
<path d="M172.595 635.773V633.041L186.563 641.21V643.942L172.595 635.773Z" fill="#FF8499"/>
<path d="M167.29 529.997L217.58 355.029L219.117 355.923L169.148 529.778L167.29 529.997Z" fill="#FF8499"/>
<path d="M460.499 701.494L167.289 529.997L169.148 529.778L460.821 700.375L460.499 701.494Z" fill="#F72F51"/>
<path d="M169.148 529.778L219.117 355.922L510.79 526.525L460.821 700.375L169.148 529.778Z" fill="url(#paint1_radial)"/>
<path d="M116.002 679.101L152.607 658.257V659.787L117.32 679.872L116.002 679.101Z" fill="#F72F51"/>
<path d="M152.607 658.257L245.188 712.414L243.87 713.166L152.607 659.787V658.257Z" fill="#F72F51"/>
<path d="M152.607 659.785L243.87 713.165L208.583 733.251L117.32 679.871L152.607 659.785Z" fill="#FF8499"/>
<path d="M362.388 439.723L178.307 497.91L169.149 529.778L247.279 575.477L472.681 504.235L362.388 439.723Z" fill="#7D2F45"/>
<path d="M202.14 415.01L185.844 471.694L335.938 424.253L278.733 390.798L202.14 415.01Z" fill="#7D2F45"/>
<path d="M472.533 659.625L503.948 550.326L309.41 611.817L419.695 676.323L472.533 659.625Z" fill="url(#paint2_radial)"/>
<path d="M275.977 316.217L277.091 354.387L130.641 358.654L129.528 320.485L275.977 316.217Z" fill="#FE5773"/>
<path d="M157.218 365.768C152.795 371.035 146.909 374.872 140.304 376.795C133.699 378.718 126.671 378.64 120.11 376.572C113.549 374.504 107.749 370.537 103.444 365.174C99.1382 359.811 96.5206 353.293 95.9216 346.443C95.3227 339.593 96.7694 332.72 100.079 326.692C103.388 320.664 108.412 315.752 114.515 312.578C120.617 309.403 127.525 308.108 134.363 308.857C141.202 309.606 147.665 312.365 152.935 316.785C156.435 319.72 159.322 323.315 161.431 327.365C163.54 331.415 164.831 335.841 165.228 340.39C165.626 344.938 165.123 349.521 163.749 353.875C162.375 358.23 160.155 362.271 157.218 365.768Z" fill="#FE5773"/>
<g opacity="0.7">
<path opacity="0.7" d="M436.106 204.622V186.779C431.752 184.382 424.144 180.924 421.591 179.741C403.179 171.945 388.844 166.546 356.541 160.202C315.981 153.376 282.378 152.553 238.615 158.723C198.865 165.427 165.7 175.608 131.686 198.027L130.4 198.953C115.956 209.346 98.6566 221.821 98.6566 221.821C87.6017 235.531 83.9167 253.605 82.579 270.419C79.7687 277.721 79.1192 286.147 82.4247 297.029C97.0296 281.642 113.371 271.191 130.439 261.781C156.575 248.56 171.552 243.906 191.386 238.276C262.925 220.131 329.241 221.564 395.095 238.276C407.488 241.792 418.543 244.935 436.145 252.416V204.647L436.106 204.622Z" fill="#CA4560"/>
<path opacity="0.7" d="M453.47 172.541V242.632L436.106 252.466V234.514V186.778L453.47 172.541Z" fill="#CA4560"/>
<path opacity="0.7" d="M220.827 143.701C220.827 143.701 211.374 145.244 191.347 150.321L181.907 153.002C142.099 165.586 108.265 181.809 79.5439 212.063L74.9007 217.514C61.2219 235.472 57.9356 244.76 54.3728 258.142L53.2217 264.203C52.4114 271.221 51.6975 275.129 53.2217 288.37L54.3728 294.431C63.5113 328.779 85.6726 350.478 115.635 370.23C115.635 370.23 126.072 377.081 142.896 384.865L164.813 372.833L164.221 372.563C134.767 358.93 120.053 347.168 106.156 332.533L102.085 327.757C88.0715 309.349 84.3093 297.413 82.4829 281.544C81.1259 269.788 84.9588 251.701 92.0201 239.766C98.136 229.398 103.789 222.566 106.168 220.072C142.825 181.507 198.872 163.06 251.336 157.083C265.237 155.461 279.22 154.639 293.215 154.621C293.215 154.621 297.8 154.563 311.524 155.09L314.161 155.258C344.67 157.186 372.838 161.865 404.517 172.972C415.357 176.858 425.916 181.486 436.119 186.823L453.483 172.586C383.102 137.004 297.826 130.711 220.827 143.701Z" fill="#FE5773"/>
<path opacity="0.7" d="M142.897 384.864V454.955L164.28 442.615L164.813 372.832L142.897 384.864Z" fill="#CA4560"/>
<path opacity="0.7" d="M84.5468 345.793C67.3309 327.668 57.8966 313.013 53.202 288.371L52.501 282.316L52.2695 276.287L52.501 352.401L53.202 358.462V353.108C53.4206 362.582 54.1088 363.585 55.9545 370.545C59.4594 380.752 60.7327 383.612 66.7972 393.89C76.0129 407.542 80.8811 412.407 89.9489 421.033C107.756 436.382 122.895 445.721 142.857 454.957V384.898C118.078 373.386 101.48 361.856 84.5468 345.793Z" fill="#F74169"/>
<g opacity="0.7">
<path opacity="0.7" d="M83.4544 352.998C71.8206 339.141 64.1033 327.456 59.9424 310.963C56.8734 303.704 54.6195 296.126 53.222 288.37L52.521 282.316L52.3924 279.411L52.283 279.372L52.4631 337.611C57.2478 346.61 63.3509 354.888 70.7338 363.681C72.1469 365.365 74.1715 366.419 76.3623 366.611C78.5531 366.804 80.7306 366.118 82.4158 364.706C84.1009 363.294 85.1557 361.27 85.3481 359.081C85.5404 356.891 84.8546 354.715 83.4415 353.031L83.4544 352.998Z" fill="#E2F1F7"/>
<path opacity="0.7" d="M132.433 409.142C131.233 409.07 130.063 408.737 129.005 408.165C125.507 406.275 122.118 404.366 118.941 402.496C114.799 400.047 110.812 397.534 107.082 395.021C105.259 393.792 103.999 391.889 103.579 389.732C103.159 387.574 103.614 385.338 104.844 383.516C106.074 381.694 107.978 380.434 110.136 380.015C112.295 379.595 114.532 380.05 116.356 381.279C119.809 383.606 123.52 385.945 127.378 388.227C130.369 389.995 133.565 391.794 136.877 393.581C138.539 394.478 139.846 395.914 140.579 397.654C141.313 399.393 141.431 401.331 140.912 403.146C140.394 404.962 139.271 406.546 137.729 407.636C136.187 408.726 134.318 409.258 132.433 409.142Z" fill="#E2F1F7"/>
</g>
<g opacity="0.7">
<path opacity="0.7" d="M52.4758 338.047L52.5208 352.399L53.2218 358.46V353.106C53.4405 362.58 54.1285 363.583 55.9742 370.544C58.2766 377.248 59.6271 380.789 61.9938 385.327C63.5605 385.383 65.111 384.994 66.4654 384.205C67.8197 383.416 68.9225 382.259 69.6456 380.869C70.3687 379.479 70.6826 377.912 70.5507 376.351C70.4189 374.789 69.8467 373.298 68.9007 372.048C60.4246 360.858 55.4662 350.754 52.4758 338.047Z" fill="#E2F1F7"/>
<path opacity="0.7" d="M128.24 437.949C127.039 437.905 125.862 437.598 124.793 437.05C111.069 430.076 99.8852 423.211 89.6084 415.434C84.2164 411.352 79.0369 406.997 74.0903 402.386C72.4794 400.891 71.5289 398.816 71.4481 396.62C71.3673 394.424 72.1628 392.286 73.6594 390.676C75.1561 389.066 77.2315 388.116 79.4289 388.035C81.6264 387.954 83.7659 388.749 85.3769 390.245C89.9146 394.478 94.6669 398.474 99.6152 402.219C109.088 409.386 119.481 415.762 132.304 422.279C133.985 423.138 135.323 424.543 136.097 426.264C136.871 427.984 137.034 429.917 136.561 431.744C136.087 433.57 135.004 435.18 133.492 436.308C131.979 437.437 130.126 438.015 128.24 437.949Z" fill="#E2F1F7"/>
</g>
</g>
<path d="M158.936 189.379L195.11 201.636L147.971 340.282C147.971 340.282 140.119 341.259 129.88 338.168C117.018 334.311 111.796 327.993 111.796 327.993L158.936 189.379Z" fill="#FE5773"/>
<g style="mix-blend-mode:screen">
<g style="mix-blend-mode:screen" opacity="0.7">
<path d="M372.562 516.504C395.797 529.911 395.797 551.656 372.562 565.063C349.326 578.471 311.647 578.471 288.412 565.063C265.176 551.656 265.17 529.911 288.412 516.504C311.653 503.096 349.326 503.083 372.562 516.504Z" fill="#FE5773"/>
</g>
</g>
<path d="M307.178 345.913C307.178 352.789 305.138 359.511 301.315 365.228C297.493 370.946 292.06 375.402 285.704 378.033C279.348 380.664 272.354 381.353 265.606 380.011C258.858 378.67 252.66 375.359 247.795 370.497C242.93 365.635 239.617 359.44 238.275 352.696C236.933 345.952 237.622 338.962 240.255 332.609C242.888 326.256 247.346 320.827 253.066 317.007C258.787 313.186 265.512 311.147 272.392 311.147C281.618 311.147 290.466 314.81 296.989 321.33C303.513 327.85 307.178 336.693 307.178 345.913Z" fill="#FE5773"/>
<path d="M400.158 368.929V370.427C396.586 367.141 392.653 364.271 388.434 361.872C356.452 343.419 304.592 343.419 272.611 361.872C268.361 364.285 264.401 367.177 260.81 370.491V368.37H248.591V386.431C248.861 398.374 272.952 535.252 272.952 535.252C273.145 543.646 278.74 552.015 289.846 558.391C312.316 571.362 348.754 571.362 371.224 558.391C382.157 552.086 387.746 543.878 388.048 535.619C388.061 535.45 388.061 535.28 388.048 535.111V522.899C388.048 522.899 411.946 398.688 412.383 386.933C412.396 386.693 412.396 386.453 412.383 386.213V368.859L400.158 368.929Z" fill="#FFB9C5"/>
<path d="M400.157 370.427C396.586 367.141 392.653 364.271 388.433 361.872C356.452 343.419 304.592 343.419 272.61 361.872C268.36 364.285 264.401 367.177 260.81 370.491V368.37H248.591V386.431C248.861 398.373 256.835 410.284 272.636 419.404C304.618 437.857 356.478 437.857 388.459 419.404C404.009 410.406 411.971 398.746 412.408 386.991C412.421 386.751 412.421 386.51 412.408 386.271V368.917H400.189L400.157 370.427Z" fill="#FFDCE2"/>
<path d="M388.401 336.4C420.383 354.853 420.383 384.779 388.401 403.245C356.42 421.711 304.553 421.705 272.572 403.245C240.59 384.785 240.59 354.866 272.572 336.4C304.553 317.933 356.413 317.972 388.401 336.4Z" fill="#FFF1F4"/>
<path d="M308.309 272.536V362.578C312.213 379.681 348.761 379.681 352.684 362.578V272.536H308.309Z" fill="#FE5773"/>
<path d="M320.657 197.62L314.779 154.447L312.779 139.824L313.338 143.989L312.772 139.85L310.412 139.882C310.412 139.85 309.73 144.863 309.73 144.863L310.412 139.824L307.84 158.464L302.483 197.671V197.896V198.083C302.478 198.172 302.478 198.263 302.483 198.352L302.528 198.584L302.592 198.809L302.663 199.034L302.759 199.252L302.868 199.471L302.997 199.689L303.145 199.901L303.306 200.12L303.479 200.326L303.666 200.519L303.872 200.718L304.09 200.904L304.328 201.091L304.579 201.271L304.843 201.444L305.113 201.611L305.396 201.765L305.692 201.92L306.007 202.061L306.335 202.196L306.663 202.325L306.997 202.447L307.338 202.55L307.698 202.652C308.697 202.926 309.724 203.085 310.759 203.128H311.158H311.936H312.335C313.115 203.089 313.891 202.99 314.657 202.832C315.197 202.71 315.396 202.652 315.396 202.652L315.756 202.55L316.097 202.447L316.432 202.325L316.76 202.196L317.088 202.061L317.396 201.92L317.698 201.765L317.981 201.611L318.252 201.444L318.515 201.271L318.766 201.091L319.004 200.904L319.223 200.718L319.428 200.519L319.615 200.326L319.789 200.12L319.956 199.901L320.097 199.689L320.226 199.471L320.335 199.252L320.425 199.034L320.509 198.809L320.567 198.584L320.612 198.352V198.121V197.671L320.657 197.62Z" fill="#FE5773"/>
<path d="M312.386 139.355C312.486 139.388 312.573 139.452 312.635 139.537C312.696 139.623 312.729 139.725 312.729 139.83C312.729 139.936 312.696 140.038 312.635 140.124C312.573 140.209 312.486 140.273 312.386 140.306C312.132 140.436 311.849 140.503 311.563 140.503C311.277 140.503 310.995 140.436 310.74 140.306C310.64 140.273 310.553 140.209 310.492 140.124C310.43 140.038 310.397 139.936 310.397 139.83C310.397 139.725 310.43 139.623 310.492 139.537C310.553 139.452 310.64 139.388 310.74 139.355C310.995 139.225 311.277 139.157 311.563 139.157C311.849 139.157 312.132 139.225 312.386 139.355Z" fill="#BDDFF4"/>
<path d="M416.479 270.655C416.481 286.506 411.779 302.002 402.968 315.183C394.157 328.363 381.633 338.636 366.981 344.703C352.328 350.77 336.204 352.358 320.648 349.265C305.093 346.173 290.804 338.54 279.589 327.331C268.374 316.123 260.737 301.842 257.643 286.295C254.549 270.748 256.137 254.633 262.207 239.989C268.278 225.344 278.557 212.827 291.744 204.022C304.932 195.216 320.437 190.516 336.297 190.518C357.562 190.519 377.956 198.963 392.993 213.991C408.029 229.019 416.478 249.402 416.479 270.655Z" fill="#FFA3B2"/>
<path d="M336.297 190.517C333.66 190.517 331.056 190.652 328.49 190.896C310.078 199.174 289.486 211.354 294.405 222.917C301.28 239.024 361.976 217.133 385.951 207.768C371.824 196.579 354.323 190.499 336.297 190.517Z" fill="#FFB9C5"/>
<path d="M420.248 269.607C420.248 290.001 405.926 314.798 388.254 324.992C370.581 335.186 356.259 326.92 356.259 306.532C356.259 286.145 370.575 261.341 388.247 251.128C405.92 240.915 420.248 249.2 420.248 269.607Z" fill="#FF758C"/>
<path d="M407.547 276.934C407.547 289.236 398.904 304.193 388.254 310.357C377.604 316.521 368.961 311.52 368.961 299.218C368.961 286.916 377.598 271.959 388.254 265.795C398.91 259.632 407.547 264.626 407.547 276.934Z" fill="#FE5773"/>
<path d="M401.875 264.44C402.863 266.829 403.345 269.396 403.29 271.98C403.29 284.275 394.653 299.232 383.996 305.402C378.672 308.475 373.855 308.77 370.363 306.765C373.231 313.27 380.151 315.031 388.247 310.364C398.904 304.213 407.541 289.257 407.541 276.942C407.547 270.778 405.38 266.452 401.875 264.44Z" fill="#EF3F5D"/>
<path d="M398.646 233.069L392.743 189.902L390.743 175.286L391.302 179.458L390.736 175.318H388.376L387.694 180.3L388.376 175.286L385.804 193.926L380.447 233.101V233.332V233.519C380.442 233.606 380.442 233.694 380.447 233.782L380.492 234.014L380.556 234.245L380.633 234.47L380.723 234.688L380.833 234.907L380.961 235.119L381.109 235.338L381.27 235.55L381.443 235.755L381.63 235.955L381.836 236.148L382.054 236.334L382.292 236.527L382.55 236.707L382.807 236.88L383.077 237.041L383.36 237.202L383.662 237.349L383.977 237.497L384.299 237.632L384.627 237.761L384.961 237.876L385.309 237.986L385.662 238.089C386.661 238.361 387.688 238.519 388.723 238.558H389.122H389.907H390.299C391.08 238.522 391.856 238.423 392.621 238.262L393.36 238.089L393.72 237.986L394.061 237.876L394.396 237.761L394.724 237.632L395.052 237.497L395.367 237.349L395.663 237.202L395.945 237.041L396.216 236.88L396.479 236.707L396.73 236.527L396.968 236.334L397.187 236.148L397.392 235.955L397.579 235.755L397.759 235.55L397.92 235.338L398.061 235.119L398.19 234.907L398.299 234.688L398.396 234.47L398.473 234.245L398.531 234.014L398.576 233.782V233.557V233.101L398.646 233.069Z" fill="#FE5773"/>
<path d="M390.383 174.809C390.482 174.842 390.569 174.906 390.631 174.991C390.692 175.077 390.726 175.179 390.726 175.284C390.726 175.39 390.692 175.492 390.631 175.578C390.569 175.663 390.482 175.727 390.383 175.76C390.126 175.89 389.843 175.958 389.556 175.958C389.269 175.958 388.986 175.89 388.73 175.76C388.63 175.727 388.543 175.663 388.481 175.578C388.42 175.492 388.387 175.39 388.387 175.284C388.387 175.179 388.42 175.077 388.481 174.991C388.543 174.906 388.63 174.842 388.73 174.809C388.986 174.679 389.269 174.611 389.556 174.611C389.843 174.611 390.126 174.679 390.383 174.809Z" fill="#BDDFF4"/>
<path d="M346.632 272.577C314.548 259.369 270.862 242.278 268.733 227.515C260.471 240.387 256.088 255.363 256.109 270.656C256.108 276.166 256.673 281.663 257.794 287.058C268.804 301.449 298.798 315.821 310.734 318.212C357.616 327.616 365.584 280.374 346.632 272.577Z" fill="#FE5773"/>
<path d="M318.741 298.693C317.96 298.183 317.311 297.497 316.845 296.689C316.379 295.882 316.11 294.977 316.059 294.046C316.059 289.303 312.708 283.505 308.599 281.133C304.49 278.762 301.139 280.69 301.139 285.44C301.139 287.149 299.936 287.843 298.451 286.989C297.668 286.48 297.016 285.793 296.549 284.984C296.082 284.175 295.812 283.268 295.763 282.335C295.763 274.172 301.551 270.849 308.625 274.931C315.699 279.012 321.487 288.981 321.487 297.144C321.429 298.873 320.226 299.567 318.741 298.693Z" fill="#E2F1F7"/>
<path d="M280.695 276.749C279.914 276.238 279.264 275.551 278.798 274.742C278.332 273.934 278.063 273.027 278.013 272.095C278.013 267.352 274.663 261.561 270.553 259.183C266.444 256.805 263.093 258.739 263.093 263.489C263.093 265.199 261.891 265.893 260.405 265.038C259.623 264.53 258.971 263.844 258.504 263.036C258.037 262.229 257.767 261.322 257.717 260.391C257.717 252.222 263.505 248.905 270.579 252.987C277.653 257.068 283.409 267.031 283.409 275.2C283.37 276.91 282.168 277.604 280.695 276.749Z" fill="#E2F1F7"/>
<path d="M396.707 434.472C377.605 432.428 363.777 415.294 365.821 396.203C367.866 377.111 385.009 363.291 404.112 365.335C423.214 367.378 437.042 384.512 434.997 403.604C432.952 422.695 415.809 436.515 396.707 434.472Z" fill="#FE5773"/>
<path d="M360.085 529.984C345.036 520.234 333.544 555.604 271.009 524.296C272.198 531.148 272.938 535.223 272.938 535.223C273.131 543.617 278.726 551.985 289.832 558.361C312.302 571.332 348.741 571.332 371.211 558.361C382.144 552.056 387.732 543.848 388.034 535.589C388.047 535.42 388.047 535.25 388.034 535.081V529.772C377.803 534.914 371.494 537.382 360.085 529.984Z" fill="#FE5773"/>
<path d="M277.961 493.886C274.041 493.161 270.437 491.254 267.634 488.421C264.83 485.588 262.962 481.966 262.279 478.04C261.596 474.115 262.132 470.074 263.815 466.462C265.497 462.85 268.246 459.839 271.691 457.834L384.086 392.384C386.304 391.04 388.767 390.151 391.332 389.769C393.897 389.387 396.513 389.519 399.026 390.158C401.539 390.797 403.9 391.929 405.971 393.49C408.042 395.05 409.781 397.007 411.086 399.247C412.392 401.486 413.239 403.963 413.577 406.533C413.915 409.103 413.737 411.714 413.054 414.214C412.372 416.715 411.197 419.054 409.6 421.097C408.003 423.139 406.015 424.843 403.752 426.109L291.37 491.566C287.325 493.925 282.565 494.749 277.961 493.886Z" fill="#FE5773"/>
<path d="M297.993 484.131C296.975 489.596 294.358 494.636 290.474 498.614C286.59 502.593 281.613 505.331 276.172 506.483C270.731 507.634 265.07 507.147 259.906 505.084C254.741 503.02 250.305 499.472 247.158 494.889C244.011 490.306 242.294 484.893 242.225 479.335C242.156 473.777 243.737 468.323 246.769 463.663C249.801 459.003 254.147 455.346 259.259 453.154C264.37 450.963 270.017 450.335 275.485 451.351C279.117 452.026 282.58 453.409 285.677 455.422C288.774 457.434 291.443 460.037 293.534 463.081C295.624 466.125 297.093 469.551 297.859 473.163C298.624 476.774 298.67 480.502 297.993 484.131Z" fill="#FE5773"/>
<path d="M276.559 457.063L246.79 405.521L229.426 375.479C228.166 373.218 226.468 371.23 224.431 369.63C222.395 368.031 220.061 366.852 217.564 366.163C215.068 365.474 212.459 365.287 209.89 365.615C207.321 365.943 204.843 366.778 202.6 368.072C200.357 369.366 198.394 371.093 196.825 373.152C195.256 375.212 194.112 377.562 193.46 380.068C192.809 382.573 192.662 385.182 193.029 387.745C193.397 390.307 194.27 392.771 195.599 394.993L229.555 453.804L242.751 476.576C245.382 480.976 249.639 484.164 254.602 485.454C259.566 486.743 264.838 486.03 269.279 483.468C273.721 480.905 276.976 476.7 278.342 471.76C279.707 466.819 279.074 461.54 276.578 457.063H276.559Z" fill="#FE5773"/>
<path d="M230.089 375.178C229.071 380.643 226.454 385.683 222.57 389.661C218.686 393.64 213.708 396.378 208.267 397.529C202.826 398.681 197.166 398.194 192.001 396.131C186.837 394.067 182.401 390.519 179.254 385.936C176.107 381.353 174.39 375.94 174.321 370.382C174.251 364.824 175.833 359.37 178.865 354.71C181.897 350.05 186.243 346.393 191.354 344.201C196.466 342.01 202.112 341.382 207.58 342.398C211.212 343.073 214.676 344.456 217.772 346.468C220.869 348.481 223.539 351.084 225.629 354.128C227.719 357.172 229.189 360.598 229.954 364.209C230.72 367.821 230.765 371.548 230.089 375.178Z" fill="#FE5773"/>
<path d="M186.03 335.327C186.03 336.893 185.565 338.424 184.695 339.726C183.824 341.028 182.586 342.043 181.139 342.643C179.691 343.242 178.098 343.399 176.561 343.093C175.024 342.788 173.612 342.034 172.504 340.926C171.396 339.819 170.642 338.408 170.336 336.872C170.03 335.336 170.187 333.743 170.787 332.297C171.386 330.85 172.402 329.613 173.705 328.743C175.008 327.873 176.54 327.408 178.107 327.408C180.208 327.408 182.223 328.242 183.709 329.728C185.195 331.213 186.03 333.227 186.03 335.327Z" fill="#FE5773"/>
<path d="M195.869 336.768C195.869 338.332 195.404 339.862 194.534 341.163C193.665 342.464 192.428 343.479 190.982 344.077C189.535 344.676 187.943 344.833 186.408 344.528C184.872 344.222 183.461 343.469 182.354 342.362C181.247 341.256 180.493 339.846 180.187 338.311C179.882 336.776 180.039 335.186 180.638 333.74C181.237 332.294 182.252 331.058 183.554 330.189C184.856 329.32 186.386 328.855 187.952 328.855C190.051 328.857 192.064 329.691 193.548 331.175C195.032 332.658 195.867 334.67 195.869 336.768Z" fill="#FE5773"/>
<path d="M168.646 372.12C168.242 372.151 167.837 372.133 167.437 372.068C166.793 371.956 166.178 371.719 165.626 371.369C165.075 371.02 164.597 370.565 164.221 370.031L154.819 356.719C154.055 355.653 153.743 354.328 153.951 353.033C154.16 351.737 154.871 350.577 155.932 349.804L178.293 333.863C179.367 333.096 180.703 332.787 182.005 333.004C183.308 333.221 184.471 333.946 185.238 335.02C186.006 336.094 186.315 337.429 186.098 338.731C185.881 340.033 185.155 341.195 184.081 341.962L165.752 355.023L169.398 360.165L179.688 352.747C180.219 352.365 180.821 352.091 181.458 351.941C182.095 351.791 182.756 351.768 183.402 351.873C184.048 351.978 184.667 352.209 185.224 352.553C185.781 352.897 186.264 353.348 186.647 353.879C187.029 354.409 187.303 355.01 187.453 355.647C187.604 356.284 187.627 356.944 187.522 357.59C187.417 358.236 187.185 358.855 186.841 359.411C186.497 359.967 186.046 360.451 185.515 360.833L171.173 371.194C170.431 371.727 169.557 372.047 168.646 372.12Z" fill="#FFE9EC"/>
<path d="M198.184 349.339C193.812 349.339 190.267 345.797 190.267 341.427C190.267 337.057 193.812 333.515 198.184 333.515C202.556 333.515 206.101 337.057 206.101 341.427C206.101 345.797 202.556 349.339 198.184 349.339Z" fill="#FE5773"/>
<path d="M178.878 376.779C178.472 376.81 178.064 376.793 177.663 376.728C177.019 376.616 176.404 376.378 175.852 376.029C175.3 375.679 174.823 375.224 174.447 374.69L165.039 361.379C164.281 360.305 163.979 358.974 164.2 357.678C164.42 356.382 165.145 355.226 166.216 354.463L188.55 338.542C189.083 338.162 189.684 337.891 190.321 337.744C190.958 337.596 191.618 337.576 192.263 337.683C192.908 337.79 193.525 338.024 194.08 338.37C194.635 338.716 195.116 339.167 195.496 339.699C195.876 340.231 196.148 340.832 196.295 341.469C196.443 342.105 196.463 342.765 196.356 343.409C196.248 344.054 196.015 344.671 195.669 345.226C195.322 345.78 194.87 346.261 194.338 346.641L176.01 359.701L179.656 364.843L189.946 357.426C191.017 356.708 192.326 356.434 193.596 356.661C194.865 356.889 195.997 357.6 196.752 358.645C197.508 359.69 197.828 360.987 197.645 362.263C197.462 363.539 196.791 364.695 195.773 365.486L181.431 375.847C180.684 376.389 179.8 376.712 178.878 376.779Z" fill="#FFE9EC"/>
<path d="M198.926 346.833C197.916 342.582 200.546 338.317 204.801 337.308C209.055 336.299 213.322 338.928 214.331 343.18C215.341 347.431 212.711 351.696 208.456 352.705C204.202 353.714 199.935 351.085 198.926 346.833Z" fill="#FE5773"/>
<path d="M187.29 380.404C186.886 380.435 186.48 380.417 186.081 380.352C184.781 380.125 183.625 379.392 182.865 378.315L173.463 365.004C172.697 363.937 172.385 362.611 172.595 361.315C172.805 360.019 173.519 358.859 174.582 358.088L196.943 342.148C197.475 341.768 198.076 341.496 198.713 341.349C199.35 341.202 200.01 341.181 200.655 341.288C201.3 341.396 201.917 341.629 202.472 341.975C203.027 342.321 203.508 342.773 203.888 343.305C204.268 343.836 204.54 344.438 204.687 345.074C204.835 345.711 204.855 346.37 204.748 347.015C204.64 347.66 204.407 348.277 204.061 348.831C203.715 349.385 203.263 349.866 202.73 350.246L184.402 363.307L188.048 368.449L198.338 361.031C198.869 360.649 199.471 360.375 200.108 360.225C200.745 360.075 201.406 360.052 202.052 360.157C202.698 360.262 203.317 360.493 203.874 360.837C204.43 361.181 204.914 361.632 205.296 362.163C205.679 362.694 205.953 363.295 206.103 363.931C206.254 364.568 206.277 365.228 206.172 365.874C206.067 366.52 205.835 367.139 205.491 367.695C205.146 368.252 204.696 368.735 204.165 369.117L189.817 379.478C189.077 380.015 188.202 380.336 187.29 380.404Z" fill="#FFE9EC"/>
<path d="M176.216 326.026L166.679 321.411C166.385 321.267 166.077 321.155 165.759 321.077L151.354 317.458C150.699 317.297 150.018 317.273 149.354 317.388L127.269 321.302C126.65 321.412 126.059 321.642 125.529 321.98C124.999 322.319 124.541 322.758 124.181 323.273C123.821 323.788 123.566 324.369 123.43 324.982C123.295 325.596 123.282 326.23 123.391 326.849C123.501 327.468 123.732 328.059 124.07 328.588C124.409 329.118 124.848 329.576 125.363 329.936C125.879 330.295 126.46 330.55 127.074 330.686C127.688 330.821 128.322 330.834 128.941 330.725L150.016 326.971L162.949 330.217L172.01 334.639C172.659 334.956 173.371 335.121 174.094 335.121C175.177 335.12 176.228 334.752 177.075 334.077C177.922 333.402 178.516 332.46 178.758 331.404C179.001 330.349 178.878 329.243 178.411 328.266C177.943 327.289 177.158 326.5 176.184 326.026H176.216Z" fill="#FFE9EC"/>
<g opacity="0.7">
<path opacity="0.7" d="M627.025 343.683C627.327 314.374 613.854 293.549 592.226 273.778C579.506 263.186 573.454 259.529 563.377 253.641L562.856 253.339L556.167 249.766L549.132 246.333L542.399 243.319L541.8 243.049L542.341 313.474V313.616C563.743 323.18 577.808 331.124 598.387 345.438C611.159 355.15 616.285 359.186 628.317 371.379C628.407 360.562 626.169 342.848 627.025 343.683Z" fill="#F74169"/>
<path opacity="0.7" d="M656.654 332.525C655.587 325.095 656.088 327.852 654.455 320.422L652.686 314.412C649.104 304.816 648.686 304.251 644.737 296.891L641.181 291.177C634.448 281.658 632.821 279.499 622.814 269.356L617.238 264.253C601.502 251.16 587.276 241.525 563.378 230.83L541.802 243.042L542.445 243.28H542.394C566.735 254.232 587.019 266.387 604.82 286.479C607.815 289.957 610.606 293.606 613.18 297.405C619.56 307.657 622.775 313.795 625.959 328.309C625.895 328 627.11 335.379 627.078 338.862C626.924 353.234 624.872 361.828 618.377 375.499C615.103 382.376 607.444 392.409 604.801 395.327C560.182 444.182 485.563 461.048 419.606 462.52H410.493C361.727 461.08 319.707 453.123 276.194 431.861L275.847 431.681L258.888 446.078C349.81 490.505 483.524 493.082 581.881 441.734C581.681 441.843 592.003 436.077 596.402 433.076C614.209 420.941 623.412 413.054 636.126 397.526L640.191 391.889C646.281 382.415 649.361 377.646 654.037 362.728L655.471 356.686C656.648 349.397 656.937 348.471 657.04 338.528L656.654 332.525Z" fill="#FE5773"/>
<path opacity="0.7" d="M654.054 362.747C648.537 380.359 642.819 389.331 631.629 403.015C609.629 427.125 587.557 440.23 557.525 453.387C457.387 493.475 339.512 485.479 258.88 446.079V516.138C327.306 549.561 407.952 555.789 482.339 544.56C526.9 536.59 560.534 525.503 596.394 503.142C612.471 492.215 622.324 484.464 636.118 467.592C648.762 450.238 655.032 437.293 656.993 414.636C657.077 406.602 657.058 417.753 657.058 338.522C656.91 349.314 656.505 352.412 654.054 362.747Z" fill="#F74169"/>
<g opacity="0.7">
<path opacity="0.7" d="M400.517 505.053C400.279 505.053 400.041 505.053 399.803 505.053C353.854 504.127 309.769 495.514 272.372 480.14C270.339 479.304 268.72 477.694 267.874 475.666C267.027 473.637 267.021 471.355 267.858 469.323C268.694 467.29 270.305 465.672 272.335 464.826C274.364 463.98 276.647 463.974 278.681 464.811C314.219 479.414 356.22 487.602 400.138 488.483C402.264 488.542 404.287 489.416 405.787 490.923C407.288 492.43 408.152 494.456 408.2 496.581C408.249 498.707 407.479 500.77 406.049 502.344C404.619 503.918 402.639 504.883 400.517 505.04V505.053Z" fill="#E2F1F7"/>
<path opacity="0.7" d="M466.603 500.97C464.468 501.102 462.365 500.405 460.733 499.023C459.101 497.642 458.066 495.683 457.845 493.557C457.624 491.43 458.234 489.301 459.548 487.614C460.861 485.927 462.776 484.812 464.892 484.503C502.546 479.065 538.058 468.473 570.445 453.009C571.427 452.539 572.492 452.268 573.579 452.21C574.666 452.152 575.754 452.309 576.781 452.671C577.807 453.033 578.752 453.594 579.562 454.321C580.372 455.049 581.03 455.928 581.5 456.91C581.969 457.892 582.241 458.956 582.299 460.043C582.357 461.129 582.2 462.216 581.838 463.242C581.475 464.268 580.914 465.213 580.186 466.022C579.458 466.831 578.578 467.49 577.596 467.959C543.692 484.143 506.572 495.23 467.259 500.906C467.04 500.938 466.822 500.957 466.603 500.97Z" fill="#E2F1F7"/>
<path opacity="0.7" d="M657.058 357.824C656.865 359.11 656.633 360.53 656.363 362.15C652.273 378.81 647.598 387.159 638.099 400.464C629.245 411.653 619.006 421.674 607.629 430.287C606.761 430.944 606.031 431.766 605.481 432.705C604.931 433.644 604.571 434.682 604.423 435.76C604.274 436.838 604.339 437.934 604.615 438.987C604.89 440.04 605.37 441.028 606.027 441.895C606.685 442.762 607.507 443.492 608.446 444.042C609.386 444.591 610.425 444.951 611.503 445.099C612.582 445.248 613.679 445.183 614.732 444.908C615.785 444.632 616.774 444.153 617.642 443.496C630.172 434.012 641.444 422.973 651.186 410.645C651.276 410.523 651.373 410.407 651.456 410.285C653.495 407.438 655.315 404.751 657.058 402.135C657.064 395.155 657.058 382.493 657.058 357.824Z" fill="#E2F1F7"/>
</g>
<g opacity="0.7">
<path opacity="0.7" d="M326.998 528.35C326.245 528.393 325.49 528.335 324.753 528.176C305.775 524.134 287.205 518.373 269.273 510.963C267.244 510.111 265.637 508.488 264.806 506.452C263.974 504.415 263.986 502.132 264.839 500.104C265.691 498.076 267.315 496.47 269.353 495.639C271.391 494.808 273.675 494.82 275.704 495.672C292.698 502.693 310.298 508.151 328.284 511.979C330.245 512.402 331.987 513.521 333.185 515.13C334.383 516.738 334.957 518.727 334.8 520.726C334.643 522.725 333.765 524.6 332.331 526.002C330.896 527.403 329.001 528.238 326.998 528.35Z" fill="#E2F1F7"/>
<path opacity="0.7" d="M431.412 536.102C403.827 537.755 376.145 536.562 348.805 532.541C347.72 532.392 346.674 532.029 345.73 531.473C344.786 530.917 343.961 530.18 343.304 529.304C342.647 528.428 342.17 527.43 341.901 526.368C341.632 525.307 341.576 524.202 341.736 523.119C341.897 522.036 342.271 520.995 342.837 520.057C343.402 519.119 344.148 518.302 345.032 517.654C345.915 517.007 346.918 516.54 347.983 516.282C349.048 516.024 350.154 515.98 351.236 516.151C402.323 523.552 454.368 520.833 504.404 508.149C505.46 507.88 506.558 507.821 507.636 507.976C508.715 508.131 509.752 508.497 510.689 509.053C511.626 509.608 512.444 510.343 513.097 511.215C513.75 512.086 514.225 513.078 514.494 514.133C514.764 515.188 514.823 516.286 514.667 517.364C514.512 518.442 514.146 519.478 513.59 520.415C513.034 521.351 512.299 522.169 511.427 522.821C510.555 523.474 509.563 523.948 508.507 524.218C490.757 528.731 472.722 532.038 454.525 534.116C446.812 534.99 439.108 535.652 431.412 536.102Z" fill="#E2F1F7"/>
<path opacity="0.7" d="M539.588 514.525C537.6 514.634 535.64 514.025 534.064 512.809C532.489 511.592 531.404 509.849 531.009 507.899C530.613 505.949 530.933 503.922 531.909 502.188C532.886 500.455 534.454 499.13 536.328 498.457C546.958 494.684 557.409 490.39 567.402 485.705C594.529 471.847 615.41 458.24 635.629 433.295C637.045 431.695 639.026 430.703 641.156 430.527C643.286 430.351 645.402 431.005 647.062 432.351C648.722 433.697 649.798 435.632 650.064 437.752C650.33 439.872 649.767 442.012 648.491 443.727C626.394 470.986 603.911 485.666 574.792 500.513L574.554 500.629C564.039 505.572 553.036 510.09 541.852 514.062C541.123 514.322 540.361 514.478 539.588 514.525Z" fill="#E2F1F7"/>
</g>
</g>
<path d="M122.009 196.779L95.3267 188.848L83.1077 174.27C82.3769 173.396 82.0235 172.267 82.1254 171.132C82.2273 169.997 82.7762 168.949 83.6511 168.219C84.5261 167.488 85.6556 167.135 86.7911 167.237C87.9266 167.339 88.9751 167.887 89.706 168.762L100.24 181.353L123.032 188.141L146.794 186.855C147.933 186.793 149.049 187.185 149.898 187.946C150.747 188.706 151.259 189.773 151.322 190.911C151.384 192.049 150.991 193.165 150.23 194.013C149.469 194.862 148.402 195.373 147.264 195.436L122.009 196.779Z" fill="#FFE9EC"/>
<path d="M148.814 181.602H148.73L124.62 181.139L102.947 167.995L91.4938 149.998C91.1778 149.523 90.9599 148.989 90.8529 148.428C90.7458 147.868 90.7518 147.291 90.8703 146.733C90.9888 146.174 91.2176 145.645 91.5432 145.176C91.8689 144.707 92.2848 144.307 92.7667 144.001C93.2486 143.695 93.7869 143.487 94.35 143.391C94.913 143.295 95.4896 143.312 96.0459 143.442C96.6022 143.571 97.1272 143.81 97.5901 144.144C98.0529 144.479 98.4443 144.902 98.7415 145.39L109.121 161.69L127.128 172.617L148.923 173.041C150.035 173.093 151.083 173.574 151.848 174.383C152.612 175.192 153.033 176.265 153.022 177.378C153.011 178.49 152.57 179.555 151.79 180.349C151.009 181.143 149.952 181.603 148.839 181.634L148.814 181.602Z" fill="#FFE9EC"/>
<path d="M158.396 172.027C157.946 172.028 157.499 171.958 157.071 171.822L135.424 164.842L120.787 150.945L109.758 128.661C109.252 127.639 109.174 126.457 109.54 125.376C109.906 124.296 110.686 123.405 111.71 122.899C112.733 122.394 113.915 122.315 114.996 122.681C116.078 123.047 116.969 123.827 117.475 124.85L127.829 145.771L139.926 157.289L159.714 163.665C160.684 163.981 161.51 164.631 162.044 165.499C162.579 166.368 162.787 167.397 162.633 168.405C162.478 169.412 161.971 170.332 161.201 171.001C160.43 171.669 159.448 172.042 158.428 172.053L158.396 172.027Z" fill="#FFE9EC"/>
<path d="M171.309 166.685C170.579 166.685 169.862 166.497 169.226 166.139L146.074 153.284L134.923 132.716L131.006 112.926C130.897 112.373 130.897 111.803 131.008 111.25C131.119 110.697 131.338 110.171 131.652 109.703C131.966 109.234 132.369 108.832 132.839 108.52C133.309 108.207 133.835 107.99 134.389 107.88C135.507 107.66 136.667 107.892 137.614 108.526C138.56 109.16 139.216 110.144 139.437 111.261L143.071 129.74L152.441 147.004L173.406 158.644C174.237 159.108 174.89 159.835 175.264 160.71C175.638 161.585 175.71 162.56 175.471 163.481C175.231 164.401 174.692 165.217 173.939 165.799C173.186 166.381 172.261 166.697 171.309 166.698V166.685Z" fill="#FFE9EC"/>
<path d="M206.422 196.765C205.404 202.23 202.787 207.27 198.903 211.248C195.019 215.227 190.041 217.965 184.6 219.116C179.159 220.268 173.499 219.781 168.334 217.718C163.17 215.654 158.734 212.106 155.587 207.523C152.44 202.94 150.723 197.527 150.654 191.969C150.584 186.411 152.166 180.957 155.198 176.297C158.23 171.637 162.576 167.98 167.687 165.788C172.799 163.597 178.445 162.969 183.913 163.985C191.247 165.349 197.739 169.569 201.96 175.716C206.181 181.864 207.786 189.435 206.422 196.765Z" fill="#FE5773"/>
<path d="M212.757 185.023C212.757 186.588 212.293 188.118 211.423 189.42C210.554 190.721 209.318 191.736 207.872 192.337C206.425 192.937 204.834 193.095 203.298 192.791C201.761 192.488 200.349 191.736 199.24 190.632C198.131 189.527 197.375 188.118 197.066 186.584C196.757 185.049 196.911 183.458 197.506 182.011C198.102 180.563 199.114 179.325 200.413 178.452C201.713 177.578 203.242 177.11 204.808 177.105C205.851 177.101 206.884 177.303 207.848 177.7C208.812 178.096 209.689 178.679 210.427 179.415C211.166 180.15 211.752 181.024 212.151 181.987C212.551 182.949 212.757 183.981 212.757 185.023Z" fill="#FE5773"/>
<path d="M154.614 185.696C155.772 186.749 156.592 188.121 156.97 189.639C157.349 191.157 157.268 192.753 156.739 194.225C156.21 195.697 155.256 196.98 153.998 197.911C152.74 198.841 151.234 199.378 149.67 199.454C148.107 199.529 146.556 199.14 145.214 198.335C143.872 197.529 142.799 196.345 142.13 194.93C141.462 193.515 141.228 191.934 141.458 190.387C141.688 188.84 142.372 187.395 143.424 186.236C144.123 185.466 144.967 184.841 145.907 184.397C146.848 183.952 147.867 183.698 148.907 183.648C149.946 183.598 150.985 183.753 151.964 184.104C152.943 184.456 153.844 184.997 154.614 185.696Z" fill="#FE5773"/>
<path d="M157.83 174.038C158.989 175.09 159.81 176.462 160.189 177.98C160.568 179.498 160.488 181.095 159.96 182.567C159.431 184.04 158.477 185.324 157.219 186.255C155.96 187.186 154.454 187.723 152.89 187.799C151.326 187.874 149.775 187.484 148.433 186.679C147.091 185.873 146.017 184.688 145.349 183.273C144.681 181.858 144.447 180.276 144.678 178.729C144.909 177.181 145.594 175.736 146.646 174.578C147.345 173.808 148.189 173.184 149.129 172.74C150.069 172.297 151.088 172.043 152.126 171.993C153.165 171.942 154.203 172.097 155.182 172.448C156.16 172.799 157.06 173.339 157.83 174.038Z" fill="#FE5773"/>
<path d="M164.377 164.068C165.536 165.12 166.358 166.491 166.738 168.009C167.118 169.527 167.039 171.124 166.511 172.597C165.983 174.07 165.03 175.354 163.772 176.285C162.514 177.217 161.008 177.755 159.444 177.832C157.881 177.908 156.329 177.519 154.987 176.715C153.644 175.91 152.57 174.725 151.901 173.311C151.232 171.896 150.997 170.315 151.227 168.767C151.457 167.219 152.141 165.774 153.193 164.615C154.604 163.061 156.575 162.131 158.672 162.029C160.769 161.927 162.82 162.66 164.377 164.068Z" fill="#FE5773"/>
<path d="M176.158 158.572C177.317 159.624 178.138 160.996 178.517 162.514C178.896 164.032 178.817 165.629 178.288 167.102C177.759 168.575 176.805 169.858 175.547 170.789C174.289 171.72 172.782 172.257 171.218 172.333C169.654 172.408 168.103 172.019 166.761 171.213C165.419 170.407 164.346 169.222 163.677 167.807C163.009 166.392 162.775 164.811 163.006 163.263C163.237 161.715 163.922 160.271 164.975 159.112C165.673 158.342 166.517 157.718 167.457 157.275C168.397 156.831 169.416 156.577 170.454 156.527C171.493 156.477 172.531 156.631 173.51 156.982C174.488 157.333 175.388 157.873 176.158 158.572Z" fill="#FE5773"/>
<path d="M205.606 188.948C204.736 188.505 204.042 187.78 203.639 186.892C203.236 186.003 203.147 185.004 203.387 184.058C203.627 183.112 204.182 182.276 204.96 181.687C205.738 181.098 206.694 180.791 207.67 180.817L235.497 181.595L268.7 165.076C269.207 164.823 269.759 164.672 270.324 164.632C270.889 164.592 271.457 164.663 271.994 164.842C272.531 165.021 273.028 165.304 273.456 165.675C273.884 166.046 274.235 166.498 274.488 167.005C274.742 167.511 274.893 168.062 274.933 168.627C274.973 169.192 274.902 169.759 274.722 170.296C274.543 170.833 274.26 171.33 273.889 171.758C273.518 172.186 273.066 172.536 272.559 172.789L238.391 189.79C237.761 190.104 237.063 190.259 236.359 190.24L207.426 189.423C206.791 189.404 206.169 189.242 205.606 188.948Z" fill="#FFE9ED"/>
<path d="M229.092 40.9511L170.57 7.2006C158.126 0.0211559 146.775 -0.94939 138.26 3.26058L138.093 3.16417L103.487 23.1342L103.571 23.1792C95.4487 28.3533 90.4454 38.7722 90.4454 53.3882C90.4454 83.5971 111.841 120.619 137.996 135.711L196.519 169.461C210.429 177.489 222.989 177.753 231.703 171.704L260.405 155.141C270.347 150.802 276.649 139.676 276.649 123.299C276.649 93.1097 255.247 56.0684 229.092 40.9511Z" fill="#422F40"/>
<path d="M196.519 169.461L137.996 135.71C111.841 120.619 90.4453 83.5711 90.4453 53.3879C90.4453 23.2047 111.841 10.8511 138.003 25.9427L196.525 59.6997C222.68 74.7913 244.076 111.833 244.076 142.022C244.076 172.212 222.68 184.559 196.519 169.461Z" fill="#724A6D"/>
<path d="M188.827 101.294L144.357 75.6616C139.36 72.7757 135.27 65.6991 135.27 59.9273C135.27 54.1554 139.36 51.803 144.357 54.6825L188.834 80.3472C193.831 83.2332 197.921 90.3098 197.921 96.0816C197.921 101.853 193.824 104.18 188.827 101.294Z" fill="#FF9CAD"/>
<path d="M122.562 42.091L122.087 41.8082L121.971 41.7439L121.861 41.6861C116.916 38.8966 112.858 41.2619 112.858 46.9887C112.858 52.7155 116.89 59.7343 121.861 62.6524L121.971 62.7166L122.087 62.7873L122.562 63.0637C127.566 65.9432 131.649 63.5843 131.649 57.8189C131.649 52.0535 127.566 44.9705 122.562 42.091Z" fill="#FF9CAD"/>
<path d="M212.577 120.853L212.102 120.576L211.979 120.506L211.876 120.448C206.925 117.658 202.873 120.024 202.873 125.75C202.873 131.477 206.905 138.496 211.876 141.42L211.979 141.485L212.102 141.549L212.577 141.825C217.574 144.711 221.665 142.352 221.665 136.581C221.665 130.809 217.574 123.732 212.577 120.853Z" fill="#FE5773"/>
<path d="M188.828 128.121L144.357 102.457C139.36 99.5772 135.27 92.4941 135.27 86.7287C135.27 80.9633 139.36 78.598 144.357 81.4839L188.828 107.155C193.825 110.035 197.915 117.118 197.915 122.883C197.915 128.648 193.825 131.007 188.828 128.121Z" fill="#FE5773"/>
<path d="M188.827 153.672L144.357 128.007C139.36 125.121 135.27 118.044 135.27 112.273C135.27 106.501 139.36 104.148 144.357 107.034L188.834 132.693C193.831 135.579 197.921 142.655 197.921 148.427C197.921 154.199 193.824 156.551 188.827 153.672Z" fill="#FE5773"/>
<defs>
<linearGradient id="paint0_linear" x1="-1.56405e+06" y1="302160" x2="-1.41833e+06" y2="421258" gradientUnits="userSpaceOnUse">
<stop stop-color="white"/>
<stop offset="1" stop-color="#2030A5"/>
</linearGradient>
<radialGradient id="paint1_radial" cx="0" cy="0" r="1" gradientUnits="userSpaceOnUse" gradientTransform="translate(168.903 341.197) scale(349.642 349.447)">
<stop stop-color="#92364C"/>
<stop offset="0.99" stop-color="#782D43"/>
</radialGradient>
<radialGradient id="paint2_radial" cx="0" cy="0" r="1" gradientUnits="userSpaceOnUse" gradientTransform="translate(-579288 116265) rotate(180) scale(113159 73290)">
<stop stop-color="#91364C"/>
<stop offset="0.99" stop-color="#782E43"/>
</radialGradient>
</defs>
</svg>
