<svg width="592" height="488" viewBox="0 0 592 488" fill="none" xmlns="http://www.w3.org/2000/svg">
<path d="M461.847 297.162L587.448 224.874C588.535 224.391 589.477 223.632 590.178 222.673C590.88 221.713 591.318 220.587 591.449 219.405V196.688L587.167 200.545L583.588 198.371C584.009 197.915 584.29 197.495 584.184 197.389L582.359 194.199L493.747 141.929L465.672 125.522L454.582 122.367L325.577 196.408L325.963 199.388L322.454 201.351L316.944 198.897V221.404C316.984 222.321 317.278 223.209 317.792 223.97C318.306 224.731 319.02 225.335 319.857 225.716L444.967 297.828C447.635 299.048 450.554 299.623 453.486 299.507C456.419 299.391 459.283 298.588 461.847 297.162ZM512.838 241.316L455.951 272.341L451.073 271.991L356.039 219.02L329.718 205.382L453.705 134.111C454.283 133.782 454.932 133.595 455.597 133.564C456.261 133.534 456.924 133.661 457.53 133.936L578.183 203.524L512.838 241.316Z" fill="url(#paint0_linear)"/>
<path d="M461.847 297.162L587.448 224.874C588.535 224.391 589.477 223.632 590.178 222.673C590.88 221.713 591.318 220.587 591.449 219.405V196.688L587.167 200.545L583.588 198.371C584.009 197.915 584.29 197.495 584.184 197.389L582.359 194.199L493.747 141.929L465.672 125.522L454.582 122.367L325.577 196.408L325.963 199.388L322.454 201.351L316.944 198.897V221.404C316.984 222.321 317.278 223.209 317.792 223.97C318.306 224.731 319.02 225.335 319.857 225.716L444.967 297.828C447.635 299.048 450.554 299.623 453.486 299.507C456.419 299.391 459.283 298.588 461.847 297.162ZM512.838 241.316L455.951 272.341L451.073 271.991L356.039 219.02L329.718 205.382L453.705 134.111C454.283 133.782 454.932 133.595 455.597 133.564C456.261 133.534 456.924 133.661 457.53 133.936L578.183 203.524L512.838 241.316Z" fill="url(#paint1_linear)"/>
<path opacity="0.6" d="M452.758 299.511V272.202H455.916L512.839 241.317L578.184 203.525L576.008 202.263C578.043 201.106 589.484 197.916 591.589 196.689V219.406C591.458 220.615 591.004 221.766 590.276 222.74C589.548 223.714 588.571 224.476 587.448 224.945L461.847 297.163C459.057 298.68 455.935 299.486 452.758 299.511Z" fill="#44353B"/>
<path d="M461.847 274.235L587.483 201.877C592.466 199.002 593.028 194.655 588.711 192.131L463.601 120.124C460.937 118.91 458.025 118.338 455.099 118.454C452.174 118.569 449.316 119.369 446.756 120.79L321.225 193.078C316.242 195.952 315.68 200.299 319.997 202.788L445.107 274.936C447.76 276.124 450.654 276.68 453.56 276.558C456.465 276.436 459.302 275.641 461.847 274.235ZM454.828 270.028C454.226 270.319 453.566 270.471 452.898 270.471C452.229 270.471 451.569 270.319 450.967 270.028L328.244 199.318C327.261 198.757 327.402 197.775 328.525 197.109L453.81 125.032C454.409 124.732 455.07 124.577 455.74 124.577C456.41 124.577 457.071 124.732 457.67 125.032L580.499 195.882C581.482 196.478 581.377 197.46 580.219 198.126L454.828 270.028Z" fill="url(#paint2_linear)"/>
<path d="M461.847 274.235L587.483 201.877C592.466 199.002 593.028 194.655 588.711 192.131L463.601 120.124C460.937 118.91 458.025 118.338 455.099 118.454C452.174 118.569 449.316 119.369 446.756 120.79L321.225 193.078C316.242 195.952 315.68 200.299 319.997 202.788L445.107 274.936C447.76 276.124 450.654 276.68 453.56 276.558C456.465 276.436 459.302 275.641 461.847 274.235ZM454.828 270.028C454.226 270.319 453.566 270.471 452.898 270.471C452.229 270.471 451.569 270.319 450.967 270.028L328.244 199.318C327.261 198.757 327.402 197.775 328.525 197.109L453.81 125.032C454.409 124.732 455.07 124.577 455.74 124.577C456.41 124.577 457.071 124.732 457.67 125.032L580.499 195.882C581.482 196.478 581.377 197.46 580.219 198.126L454.828 270.028Z" fill="#44353B"/>
<path d="M580.429 194.479L457.6 123.629C457.001 123.33 456.34 123.174 455.67 123.174C455 123.174 454.339 123.33 453.74 123.629L328.42 195.882C327.507 196.408 327.262 197.144 327.718 197.705C327.911 197.463 328.15 197.261 328.42 197.109L453.705 125.031C454.304 124.732 454.965 124.576 455.635 124.576C456.305 124.576 456.966 124.732 457.565 125.031L580.394 195.882C580.567 195.983 580.722 196.114 580.85 196.267C580.989 196.141 581.091 195.98 581.146 195.801C581.202 195.622 581.208 195.432 581.165 195.25C581.122 195.068 581.032 194.9 580.902 194.765C580.773 194.629 580.61 194.531 580.429 194.479Z" fill="#FD6B59"/>
<path d="M587.483 200.72L461.847 273.008C459.289 274.431 456.433 275.236 453.508 275.357C450.583 275.479 447.669 274.915 445.002 273.709L319.892 201.561C319.187 201.224 318.567 200.735 318.075 200.128C317.584 199.522 317.233 198.814 317.049 198.056C316.95 199.059 317.172 200.067 317.683 200.936C318.194 201.806 318.967 202.491 319.892 202.893L445.002 275.041C447.669 276.247 450.583 276.811 453.508 276.69C456.433 276.568 459.289 275.763 461.847 274.34L587.483 201.877C590.501 200.124 591.87 197.845 591.554 195.777C591.285 196.851 590.78 197.851 590.076 198.706C589.372 199.561 588.486 200.249 587.483 200.72Z" fill="#FD6B59"/>
<path d="M457.53 133.937C456.924 133.662 456.261 133.535 455.596 133.565C454.931 133.595 454.283 133.783 453.705 134.112L334.385 202.824L328.244 199.318C327.261 198.757 327.402 197.776 328.525 197.11L453.81 125.032C454.409 124.733 455.07 124.577 455.74 124.577C456.41 124.577 457.071 124.733 457.671 125.032L580.499 195.883C581.482 196.479 581.377 197.46 580.219 198.126L574.428 201.632L457.53 133.937Z" fill="#44353B"/>
<path opacity="0.7" d="M580.149 197.951C581.307 197.285 581.412 196.303 580.429 195.707L457.566 124.751C456.966 124.452 456.305 124.296 455.635 124.296C454.965 124.296 454.305 124.452 453.705 124.751L328.42 197.109C327.297 197.775 327.156 198.757 328.139 199.318L450.968 270.168C451.569 270.46 452.229 270.611 452.898 270.611C453.567 270.611 454.227 270.46 454.828 270.168L580.149 197.951Z" fill="#FD6B59"/>
<path d="M461.847 257.162L587.448 184.874C588.535 184.391 589.477 183.632 590.178 182.673C590.88 181.713 591.318 180.587 591.449 179.405V156.688L587.167 160.545L583.588 158.371C584.009 157.915 584.29 157.495 584.184 157.389L582.359 154.199L493.747 101.929L465.672 85.5223L454.582 82.3672L325.577 156.408L325.963 159.388L322.454 161.351L316.944 158.897V181.404C316.984 182.321 317.278 183.209 317.792 183.97C318.306 184.731 319.02 185.335 319.857 185.716L444.967 257.828C447.635 259.048 450.554 259.623 453.486 259.507C456.419 259.391 459.283 258.588 461.847 257.162ZM512.838 201.316L455.951 232.341L451.073 231.991L356.039 179.02L329.718 165.382L453.705 94.1113C454.283 93.7822 454.932 93.5947 455.597 93.5642C456.261 93.5338 456.924 93.6612 457.53 93.936L578.183 163.524L512.838 201.316Z" fill="url(#paint3_linear)"/>
<path d="M461.847 257.162L587.448 184.874C588.535 184.391 589.477 183.632 590.178 182.673C590.88 181.713 591.318 180.587 591.449 179.405V156.688L587.167 160.545L583.588 158.371C584.009 157.915 584.29 157.495 584.184 157.389L582.359 154.199L493.747 101.929L465.672 85.5223L454.582 82.3672L325.577 156.408L325.963 159.388L322.454 161.351L316.944 158.897V181.404C316.984 182.321 317.278 183.209 317.792 183.97C318.306 184.731 319.02 185.335 319.857 185.716L444.967 257.828C447.635 259.048 450.554 259.623 453.486 259.507C456.419 259.391 459.283 258.588 461.847 257.162ZM512.838 201.316L455.951 232.341L451.073 231.991L356.039 179.02L329.718 165.382L453.705 94.1113C454.283 93.7822 454.932 93.5947 455.597 93.5642C456.261 93.5338 456.924 93.6612 457.53 93.936L578.183 163.524L512.838 201.316Z" fill="url(#paint4_linear)"/>
<path opacity="0.6" d="M452.758 259.511V232.202H455.916L512.839 201.317L578.184 163.525L576.008 162.263C578.043 161.106 589.484 157.916 591.589 156.689V179.406C591.458 180.615 591.004 181.766 590.276 182.74C589.548 183.714 588.571 184.476 587.448 184.945L461.847 257.163C459.057 258.68 455.935 259.486 452.758 259.511Z" fill="#44353B"/>
<path d="M461.847 234.235L587.483 161.877C592.466 159.002 593.028 154.655 588.711 152.131L463.601 80.1238C460.937 78.91 458.025 78.3379 455.099 78.4536C452.174 78.5693 449.316 79.3695 446.756 80.7898L321.225 153.078C316.242 155.952 315.68 160.299 319.997 162.788L445.107 234.936C447.76 236.124 450.654 236.68 453.56 236.558C456.465 236.436 459.302 235.641 461.847 234.235ZM454.828 230.028C454.226 230.319 453.566 230.471 452.898 230.471C452.229 230.471 451.569 230.319 450.967 230.028L328.244 159.318C327.261 158.757 327.402 157.775 328.525 157.109L453.81 85.0318C454.409 84.7325 455.07 84.5766 455.74 84.5766C456.41 84.5766 457.071 84.7325 457.67 85.0318L580.499 155.882C581.482 156.478 581.377 157.46 580.219 158.126L454.828 230.028Z" fill="url(#paint5_linear)"/>
<path d="M461.847 234.235L587.483 161.877C592.466 159.002 593.028 154.655 588.711 152.131L463.601 80.1238C460.937 78.91 458.025 78.3379 455.099 78.4536C452.174 78.5693 449.316 79.3695 446.756 80.7898L321.225 153.078C316.242 155.952 315.68 160.299 319.997 162.788L445.107 234.936C447.76 236.124 450.654 236.68 453.56 236.558C456.465 236.436 459.302 235.641 461.847 234.235ZM454.828 230.028C454.226 230.319 453.566 230.471 452.898 230.471C452.229 230.471 451.569 230.319 450.967 230.028L328.244 159.318C327.261 158.757 327.402 157.775 328.525 157.109L453.81 85.0318C454.409 84.7325 455.07 84.5766 455.74 84.5766C456.41 84.5766 457.071 84.7325 457.67 85.0318L580.499 155.882C581.482 156.478 581.377 157.46 580.219 158.126L454.828 230.028Z" fill="#44353B"/>
<path d="M580.429 154.479L457.6 83.6289C457.001 83.3296 456.34 83.1738 455.67 83.1738C455 83.1738 454.339 83.3296 453.74 83.6289L328.42 155.882C327.507 156.408 327.262 157.144 327.718 157.705C327.911 157.463 328.15 157.261 328.42 157.109L453.705 85.0312C454.304 84.7319 454.965 84.5761 455.635 84.5761C456.305 84.5761 456.966 84.7319 457.565 85.0312L580.394 155.882C580.567 155.983 580.722 156.114 580.85 156.267C580.989 156.141 581.091 155.98 581.146 155.801C581.202 155.622 581.208 155.432 581.165 155.25C581.122 155.068 581.032 154.9 580.902 154.765C580.773 154.629 580.61 154.531 580.429 154.479Z" fill="#FD6B59"/>
<path d="M587.483 160.72L461.847 233.008C459.289 234.431 456.433 235.236 453.508 235.357C450.583 235.479 447.669 234.915 445.002 233.709L319.892 161.561C319.187 161.224 318.567 160.735 318.075 160.128C317.584 159.522 317.233 158.814 317.049 158.056C316.95 159.059 317.172 160.067 317.683 160.936C318.194 161.806 318.967 162.491 319.892 162.893L445.002 235.041C447.669 236.247 450.583 236.811 453.508 236.69C456.433 236.568 459.289 235.763 461.847 234.34L587.483 161.877C590.501 160.124 591.87 157.845 591.554 155.777C591.285 156.851 590.78 157.851 590.076 158.706C589.372 159.561 588.486 160.249 587.483 160.72Z" fill="#FD6B59"/>
<path d="M457.53 93.9368C456.924 93.6619 456.261 93.5345 455.596 93.565C454.931 93.5954 454.283 93.7829 453.705 94.112L334.385 162.824L328.244 159.318C327.261 158.757 327.402 157.776 328.525 157.11L453.81 85.0323C454.409 84.733 455.07 84.5771 455.74 84.5771C456.41 84.5771 457.071 84.733 457.671 85.0323L580.499 155.883C581.482 156.479 581.377 157.46 580.219 158.126L574.428 161.632L457.53 93.9368Z" fill="#44353B"/>
<path opacity="0.7" d="M580.149 157.951C581.307 157.285 581.412 156.303 580.429 155.707L457.566 84.7515C456.966 84.4522 456.305 84.2964 455.635 84.2964C454.965 84.2964 454.305 84.4522 453.705 84.7515L328.42 157.109C327.297 157.775 327.156 158.757 328.139 159.318L450.968 230.168C451.569 230.46 452.229 230.611 452.898 230.611C453.567 230.611 454.227 230.46 454.828 230.168L580.149 157.951Z" fill="#FD6B59"/>
<path d="M461.847 217.162L587.448 144.874C588.535 144.391 589.477 143.632 590.178 142.673C590.88 141.713 591.318 140.587 591.449 139.405V116.688L587.167 120.545L583.588 118.371C584.009 117.915 584.29 117.495 584.184 117.389L582.359 114.199L493.747 61.9291L465.672 45.5223L454.582 42.3672L325.577 116.408L325.963 119.388L322.454 121.351L316.944 118.897V141.404C316.984 142.321 317.278 143.209 317.792 143.97C318.306 144.731 319.02 145.335 319.857 145.716L444.967 217.828C447.635 219.048 450.554 219.623 453.486 219.507C456.419 219.391 459.283 218.588 461.847 217.162ZM512.838 161.316L455.951 192.341L451.073 191.991L356.039 139.02L329.718 125.382L453.705 54.1113C454.283 53.7822 454.932 53.5947 455.597 53.5642C456.261 53.5338 456.924 53.6612 457.53 53.936L578.183 123.524L512.838 161.316Z" fill="url(#paint6_linear)"/>
<path d="M461.847 217.162L587.448 144.874C588.535 144.391 589.477 143.632 590.178 142.673C590.88 141.713 591.318 140.587 591.449 139.405V116.688L587.167 120.545L583.588 118.371C584.009 117.915 584.29 117.495 584.184 117.389L582.359 114.199L493.747 61.9291L465.672 45.5223L454.582 42.3672L325.577 116.408L325.963 119.388L322.454 121.351L316.944 118.897V141.404C316.984 142.321 317.278 143.209 317.792 143.97C318.306 144.731 319.02 145.335 319.857 145.716L444.967 217.828C447.635 219.048 450.554 219.623 453.486 219.507C456.419 219.391 459.283 218.588 461.847 217.162ZM512.838 161.316L455.951 192.341L451.073 191.991L356.039 139.02L329.718 125.382L453.705 54.1113C454.283 53.7822 454.932 53.5947 455.597 53.5642C456.261 53.5338 456.924 53.6612 457.53 53.936L578.183 123.524L512.838 161.316Z" fill="url(#paint7_linear)"/>
<path opacity="0.6" d="M452.758 219.511V192.202H455.916L512.839 161.317L578.184 123.525L576.008 122.263C578.043 121.106 589.484 117.916 591.589 116.689V139.406C591.458 140.615 591.004 141.766 590.276 142.74C589.548 143.714 588.571 144.476 587.448 144.945L461.847 217.163C459.057 218.68 455.935 219.486 452.758 219.511Z" fill="#44353B"/>
<path d="M461.847 194.235L587.483 121.877C592.466 119.002 593.028 114.655 588.711 112.131L463.601 40.1238C460.937 38.91 458.025 38.3379 455.099 38.4536C452.174 38.5693 449.316 39.3695 446.756 40.7898L321.225 113.078C316.242 115.952 315.68 120.299 319.997 122.788L445.107 194.936C447.76 196.124 450.654 196.68 453.56 196.558C456.465 196.436 459.302 195.641 461.847 194.235ZM454.828 190.028C454.226 190.319 453.566 190.471 452.898 190.471C452.229 190.471 451.569 190.319 450.967 190.028L328.244 119.318C327.261 118.757 327.402 117.775 328.525 117.109L453.81 45.0318C454.409 44.7325 455.07 44.5766 455.74 44.5766C456.41 44.5766 457.071 44.7325 457.67 45.0318L580.499 115.882C581.482 116.478 581.377 117.46 580.219 118.126L454.828 190.028Z" fill="url(#paint8_linear)"/>
<path d="M461.847 194.235L587.483 121.877C592.466 119.002 593.028 114.655 588.711 112.131L463.601 40.1238C460.937 38.91 458.025 38.3379 455.099 38.4536C452.174 38.5693 449.316 39.3695 446.756 40.7898L321.225 113.078C316.242 115.952 315.68 120.299 319.997 122.788L445.107 194.936C447.76 196.124 450.654 196.68 453.56 196.558C456.465 196.436 459.302 195.641 461.847 194.235ZM454.828 190.028C454.226 190.319 453.566 190.471 452.898 190.471C452.229 190.471 451.569 190.319 450.967 190.028L328.244 119.318C327.261 118.757 327.402 117.775 328.525 117.109L453.81 45.0318C454.409 44.7325 455.07 44.5766 455.74 44.5766C456.41 44.5766 457.071 44.7325 457.67 45.0318L580.499 115.882C581.482 116.478 581.377 117.46 580.219 118.126L454.828 190.028Z" fill="#44353B"/>
<path d="M580.429 114.479L457.6 43.6289C457.001 43.3296 456.34 43.1738 455.67 43.1738C455 43.1738 454.339 43.3296 453.74 43.6289L328.42 115.882C327.507 116.408 327.262 117.144 327.718 117.705C327.911 117.463 328.15 117.261 328.42 117.109L453.705 45.0312C454.304 44.7319 454.965 44.5761 455.635 44.5761C456.305 44.5761 456.966 44.7319 457.565 45.0312L580.394 115.882C580.567 115.983 580.722 116.114 580.85 116.267C580.989 116.141 581.091 115.98 581.146 115.801C581.202 115.622 581.208 115.432 581.165 115.25C581.122 115.068 581.032 114.9 580.902 114.765C580.773 114.629 580.61 114.531 580.429 114.479Z" fill="#FD6B59"/>
<path d="M587.483 120.72L461.847 193.008C459.289 194.431 456.433 195.236 453.508 195.357C450.583 195.479 447.669 194.915 445.002 193.709L319.892 121.561C319.187 121.224 318.567 120.735 318.075 120.128C317.584 119.522 317.233 118.814 317.049 118.056C316.95 119.059 317.172 120.067 317.683 120.936C318.194 121.806 318.967 122.491 319.892 122.893L445.002 195.041C447.669 196.247 450.583 196.811 453.508 196.69C456.433 196.568 459.289 195.763 461.847 194.34L587.483 121.877C590.501 120.124 591.87 117.845 591.554 115.777C591.285 116.851 590.78 117.851 590.076 118.706C589.372 119.561 588.486 120.249 587.483 120.72Z" fill="#FD6B59"/>
<path d="M457.53 53.9368C456.924 53.6619 456.261 53.5345 455.596 53.565C454.931 53.5954 454.283 53.7829 453.705 54.112L334.385 122.824L328.244 119.318C327.261 118.757 327.402 117.776 328.525 117.11L453.81 45.0323C454.409 44.733 455.07 44.5771 455.74 44.5771C456.41 44.5771 457.071 44.733 457.671 45.0323L580.499 115.883C581.482 116.479 581.377 117.46 580.219 118.126L574.428 121.632L457.53 53.9368Z" fill="#44353B"/>
<path opacity="0.7" d="M580.149 117.951C581.307 117.285 581.412 116.303 580.429 115.707L457.566 44.7515C456.966 44.4522 456.305 44.2964 455.635 44.2964C454.965 44.2964 454.305 44.4522 453.705 44.7515L328.42 117.109C327.297 117.775 327.156 118.757 328.139 119.318L450.968 190.168C451.569 190.46 452.229 190.611 452.898 190.611C453.567 190.611 454.227 190.46 454.828 190.168L580.149 117.951Z" fill="#FD6B59"/>
<path d="M461.847 177.162L587.448 104.874C588.535 104.391 589.477 103.632 590.178 102.673C590.88 101.713 591.318 100.587 591.449 99.4053V76.6882L587.167 80.5445L583.588 78.371C584.009 77.9152 584.29 77.4946 584.184 77.3894L582.359 74.1992L493.747 21.9291L465.672 5.52233L454.582 2.36719L325.577 76.4078L325.963 79.3876L322.454 81.3508L316.944 78.8969V101.404C316.984 102.321 317.278 103.209 317.792 103.97C318.306 104.731 319.02 105.335 319.857 105.716L444.967 177.828C447.635 179.048 450.554 179.623 453.486 179.507C456.419 179.391 459.283 178.588 461.847 177.162ZM512.838 121.316L455.951 152.341L451.073 151.991L356.039 99.0196L329.718 85.3824L453.705 14.1113C454.283 13.7822 454.932 13.5947 455.597 13.5642C456.261 13.5338 456.924 13.6612 457.53 13.936L578.183 83.5244L512.838 121.316Z" fill="url(#paint9_linear)"/>
<path d="M461.847 177.162L587.448 104.874C588.535 104.391 589.477 103.632 590.178 102.673C590.88 101.713 591.318 100.587 591.449 99.4053V76.6882L587.167 80.5445L583.588 78.371C584.009 77.9152 584.29 77.4946 584.184 77.3894L582.359 74.1992L493.747 21.9291L465.672 5.52233L454.582 2.36719L325.577 76.4078L325.963 79.3876L322.454 81.3508L316.944 78.8969V101.404C316.984 102.321 317.278 103.209 317.792 103.97C318.306 104.731 319.02 105.335 319.857 105.716L444.967 177.828C447.635 179.048 450.554 179.623 453.486 179.507C456.419 179.391 459.283 178.588 461.847 177.162ZM512.838 121.316L455.951 152.341L451.073 151.991L356.039 99.0196L329.718 85.3824L453.705 14.1113C454.283 13.7822 454.932 13.5947 455.597 13.5642C456.261 13.5338 456.924 13.6612 457.53 13.936L578.183 83.5244L512.838 121.316Z" fill="url(#paint10_linear)"/>
<path opacity="0.6" d="M452.758 179.511V152.202H455.916L512.839 121.317L578.184 83.5251L576.008 82.2631C578.043 81.1062 589.484 77.916 591.589 76.689V99.406C591.458 100.615 591.004 101.766 590.276 102.74C589.548 103.714 588.571 104.476 587.448 104.945L461.847 177.163C459.057 178.68 455.935 179.486 452.758 179.511Z" fill="#44353B"/>
<path d="M461.847 154.235L587.483 81.8769C592.466 79.0022 593.028 74.6552 588.711 72.131L463.601 0.123756C460.937 -1.09003 458.025 -1.6621 455.099 -1.54641C452.174 -1.43072 449.316 -0.63051 446.756 0.789836L321.225 73.0776C316.242 75.9523 315.68 80.2993 319.997 82.7884L445.107 154.936C447.76 156.124 450.654 156.68 453.56 156.558C456.465 156.436 459.302 155.641 461.847 154.235ZM454.828 150.028C454.226 150.319 453.566 150.471 452.898 150.471C452.229 150.471 451.569 150.319 450.967 150.028L328.244 79.3177C327.261 78.7568 327.402 77.7752 328.525 77.1091L453.81 5.03176C454.409 4.73246 455.07 4.57664 455.74 4.57664C456.41 4.57664 457.071 4.73246 457.67 5.03176L580.499 75.8821C581.482 76.4781 581.377 77.4597 580.219 78.1258L454.828 150.028Z" fill="url(#paint11_linear)"/>
<path d="M461.847 154.235L587.483 81.8769C592.466 79.0022 593.028 74.6552 588.711 72.131L463.601 0.123756C460.937 -1.09003 458.025 -1.6621 455.099 -1.54641C452.174 -1.43072 449.316 -0.63051 446.756 0.789836L321.225 73.0776C316.242 75.9523 315.68 80.2993 319.997 82.7884L445.107 154.936C447.76 156.124 450.654 156.68 453.56 156.558C456.465 156.436 459.302 155.641 461.847 154.235ZM454.828 150.028C454.226 150.319 453.566 150.471 452.898 150.471C452.229 150.471 451.569 150.319 450.967 150.028L328.244 79.3177C327.261 78.7568 327.402 77.7752 328.525 77.1091L453.81 5.03176C454.409 4.73246 455.07 4.57664 455.74 4.57664C456.41 4.57664 457.071 4.73246 457.67 5.03176L580.499 75.8821C581.482 76.4781 581.377 77.4597 580.219 78.1258L454.828 150.028Z" fill="#44353B"/>
<path d="M580.429 74.4794L457.6 3.62893C457.001 3.32964 456.34 3.17383 455.67 3.17383C455 3.17383 454.339 3.32964 453.74 3.62893L328.42 75.8817C327.507 76.4075 327.262 77.1437 327.718 77.7046C327.911 77.4629 328.15 77.2606 328.42 77.1087L453.705 5.03122C454.304 4.73193 454.965 4.5761 455.635 4.5761C456.305 4.5761 456.966 4.73193 457.565 5.03122L580.394 75.8817C580.567 75.9832 580.722 76.1136 580.85 76.2673C580.989 76.141 581.091 75.9802 581.146 75.8013C581.202 75.6225 581.208 75.4321 581.165 75.2498C581.122 75.0676 581.032 74.9001 580.902 74.7647C580.773 74.6292 580.61 74.5307 580.429 74.4794Z" fill="#FD6B59"/>
<path d="M587.483 80.7199L461.847 153.008C459.289 154.431 456.433 155.236 453.508 155.357C450.583 155.479 447.669 154.915 445.002 153.709L319.892 81.5613C319.187 81.2242 318.567 80.7348 318.075 80.1284C317.584 79.522 317.233 78.814 317.049 78.0556C316.95 79.0586 317.172 80.0671 317.683 80.9363C318.194 81.8055 318.967 82.4907 319.892 82.8934L445.002 155.041C447.669 156.247 450.583 156.811 453.508 156.69C456.433 156.568 459.289 155.763 461.847 154.34L587.483 81.8768C590.501 80.1239 591.87 77.8452 591.554 75.7769C591.285 76.8507 590.78 77.8513 590.076 78.7062C589.372 79.5611 588.486 80.2489 587.483 80.7199Z" fill="#FD6B59"/>
<path d="M457.53 13.9368C456.924 13.6619 456.261 13.5345 455.596 13.565C454.931 13.5954 454.283 13.7829 453.705 14.112L334.385 82.824L328.244 79.3183C327.261 78.7574 327.402 77.7758 328.525 77.1097L453.81 5.03227C454.409 4.73297 455.07 4.57715 455.74 4.57715C456.41 4.57715 457.071 4.73297 457.671 5.03227L580.499 75.8827C581.482 76.4787 581.377 77.4603 580.219 78.1264L574.428 81.6321L457.53 13.9368Z" fill="#44353B"/>
<path opacity="0.7" d="M580.149 77.9507C581.307 77.2846 581.412 76.303 580.429 75.7071L457.566 4.75149C456.966 4.4522 456.305 4.29639 455.635 4.29639C454.965 4.29639 454.305 4.4522 453.705 4.75149L328.42 77.1094C327.297 77.7754 327.156 78.757 328.139 79.3179L450.968 150.168C451.569 150.46 452.229 150.611 452.898 150.611C453.567 150.611 454.227 150.46 454.828 150.168L580.149 77.9507Z" fill="#FD6B59"/>
<path d="M301.871 390.921L427.472 318.633C428.559 318.15 429.5 317.391 430.202 316.431C430.904 315.472 431.342 314.345 431.473 313.164V290.447L427.191 294.303L423.612 292.13C424.033 291.674 424.314 291.253 424.208 291.148L422.383 287.958L333.771 235.688L305.696 219.281L294.606 216.126L165.601 290.167L165.987 293.146L162.478 295.11L156.968 292.656V315.162C157.008 316.079 157.301 316.968 157.815 317.729C158.33 318.49 159.044 319.094 159.881 319.474L284.991 391.587C287.659 392.806 290.578 393.382 293.51 393.266C296.443 393.15 299.307 392.347 301.871 390.921ZM352.862 335.075L295.975 366.1L291.097 365.75L196.062 312.778L169.742 299.141L293.729 227.87C294.307 227.541 294.956 227.353 295.62 227.323C296.285 227.293 296.948 227.42 297.554 227.695L418.207 297.283L352.862 335.075Z" fill="url(#paint12_linear)"/>
<path d="M301.871 390.921L427.472 318.633C428.559 318.15 429.5 317.391 430.202 316.431C430.904 315.472 431.342 314.345 431.473 313.164V290.447L427.191 294.303L423.612 292.13C424.033 291.674 424.314 291.253 424.208 291.148L422.383 287.958L333.771 235.688L305.696 219.281L294.606 216.126L165.601 290.167L165.987 293.146L162.478 295.11L156.968 292.656V315.162C157.008 316.079 157.301 316.968 157.815 317.729C158.33 318.49 159.044 319.094 159.881 319.474L284.991 391.587C287.659 392.806 290.578 393.382 293.51 393.266C296.443 393.15 299.307 392.347 301.871 390.921ZM352.862 335.075L295.975 366.1L291.097 365.75L196.062 312.778L169.742 299.141L293.729 227.87C294.307 227.541 294.956 227.353 295.62 227.323C296.285 227.293 296.948 227.42 297.554 227.695L418.207 297.283L352.862 335.075Z" fill="url(#paint13_linear)"/>
<path opacity="0.6" d="M292.782 393.27V365.961H295.94L352.863 335.075L418.208 297.284L416.032 296.022C418.067 294.865 429.508 291.675 431.613 290.448V313.165C431.482 314.374 431.028 315.525 430.3 316.499C429.572 317.473 428.595 318.235 427.472 318.704L301.871 390.921C299.08 392.438 295.959 393.245 292.782 393.27Z" fill="#44353B"/>
<path d="M301.871 367.994L427.507 295.636C432.49 292.761 433.052 288.414 428.735 285.89L303.625 213.883C300.961 212.669 298.049 212.097 295.123 212.212C292.198 212.328 289.34 213.128 286.78 214.549L161.249 286.836C156.266 289.711 155.704 294.058 160.021 296.547L285.131 368.695C287.784 369.883 290.678 370.439 293.583 370.317C296.489 370.195 299.326 369.4 301.871 367.994ZM294.852 363.787C294.25 364.078 293.59 364.23 292.922 364.23C292.253 364.23 291.593 364.078 290.991 363.787L168.268 293.077C167.285 292.516 167.426 291.534 168.549 290.868L293.834 218.791C294.433 218.491 295.094 218.335 295.764 218.335C296.434 218.335 297.095 218.491 297.694 218.791L420.523 289.641C421.506 290.237 421.401 291.219 420.242 291.885L294.852 363.787Z" fill="url(#paint14_linear)"/>
<path d="M301.871 367.994L427.507 295.636C432.49 292.761 433.052 288.414 428.735 285.89L303.625 213.883C300.961 212.669 298.049 212.097 295.123 212.212C292.198 212.328 289.34 213.128 286.78 214.549L161.249 286.836C156.266 289.711 155.704 294.058 160.021 296.547L285.131 368.695C287.784 369.883 290.678 370.439 293.583 370.317C296.489 370.195 299.326 369.4 301.871 367.994ZM294.852 363.787C294.25 364.078 293.59 364.23 292.922 364.23C292.253 364.23 291.593 364.078 290.991 363.787L168.268 293.077C167.285 292.516 167.426 291.534 168.549 290.868L293.834 218.791C294.433 218.491 295.094 218.335 295.764 218.335C296.434 218.335 297.095 218.491 297.694 218.791L420.523 289.641C421.506 290.237 421.401 291.219 420.242 291.885L294.852 363.787Z" fill="#44353B"/>
<path d="M420.453 288.238L297.624 217.388C297.025 217.088 296.364 216.933 295.694 216.933C295.024 216.933 294.363 217.088 293.764 217.388L168.444 289.64C167.531 290.166 167.285 290.902 167.742 291.463C167.935 291.222 168.174 291.019 168.444 290.867L293.729 218.79C294.328 218.491 294.989 218.335 295.659 218.335C296.329 218.335 296.99 218.491 297.589 218.79L420.418 289.64C420.591 289.742 420.746 289.872 420.874 290.026C421.013 289.9 421.115 289.739 421.17 289.56C421.226 289.381 421.232 289.191 421.189 289.009C421.146 288.826 421.055 288.659 420.926 288.523C420.797 288.388 420.633 288.29 420.453 288.238Z" fill="#FD6B59"/>
<path d="M427.507 294.479L301.871 366.766C299.313 368.19 296.457 368.994 293.532 369.116C290.606 369.238 287.693 368.673 285.026 367.468L159.916 295.32C159.211 294.983 158.591 294.494 158.099 293.887C157.607 293.281 157.257 292.573 157.073 291.814C156.974 292.817 157.196 293.826 157.707 294.695C158.218 295.564 158.991 296.249 159.916 296.652L285.026 368.8C287.693 370.006 290.606 370.57 293.532 370.448C296.457 370.327 299.313 369.522 301.871 368.099L427.507 295.636C430.525 293.883 431.894 291.604 431.578 289.536C431.309 290.609 430.804 291.61 430.1 292.465C429.396 293.32 428.51 294.008 427.507 294.479Z" fill="#FD6B59"/>
<path d="M297.554 227.696C296.948 227.421 296.285 227.293 295.62 227.324C294.955 227.354 294.307 227.542 293.729 227.871L174.409 296.583L168.268 293.077C167.285 292.516 167.426 291.535 168.549 290.868L293.834 218.791C294.433 218.492 295.094 218.336 295.764 218.336C296.434 218.336 297.095 218.492 297.694 218.791L420.523 289.641C421.506 290.237 421.401 291.219 420.243 291.885L414.452 295.391L297.554 227.696Z" fill="#44353B"/>
<path opacity="0.7" d="M420.173 291.71C421.331 291.043 421.436 290.062 420.453 289.466L297.589 218.51C296.99 218.211 296.329 218.055 295.659 218.055C294.989 218.055 294.328 218.211 293.729 218.51L168.444 290.868C167.321 291.534 167.18 292.516 168.163 293.077L290.992 363.927C291.593 364.219 292.253 364.37 292.922 364.37C293.591 364.37 294.251 364.219 294.852 363.927L420.173 291.71Z" fill="#FD6B59"/>
<path d="M301.871 350.921L427.472 278.633C428.559 278.15 429.5 277.391 430.202 276.431C430.904 275.472 431.342 274.345 431.473 273.164V250.447L427.191 254.303L423.612 252.13C424.033 251.674 424.314 251.253 424.208 251.148L422.383 247.958L333.771 195.688L305.696 179.281L294.606 176.126L165.601 250.167L165.987 253.146L162.478 255.11L156.968 252.656V275.162C157.008 276.079 157.301 276.968 157.815 277.729C158.33 278.49 159.044 279.094 159.881 279.474L284.991 351.587C287.659 352.806 290.578 353.382 293.51 353.266C296.443 353.15 299.307 352.347 301.871 350.921ZM352.862 295.075L295.975 326.1L291.097 325.75L196.062 272.778L169.742 259.141L293.729 187.87C294.307 187.541 294.956 187.353 295.62 187.323C296.285 187.293 296.948 187.42 297.554 187.695L418.207 257.283L352.862 295.075Z" fill="url(#paint15_linear)"/>
<path d="M301.871 350.921L427.472 278.633C428.559 278.15 429.5 277.391 430.202 276.431C430.904 275.472 431.342 274.345 431.473 273.164V250.447L427.191 254.303L423.612 252.13C424.033 251.674 424.314 251.253 424.208 251.148L422.383 247.958L333.771 195.688L305.696 179.281L294.606 176.126L165.601 250.167L165.987 253.146L162.478 255.11L156.968 252.656V275.162C157.008 276.079 157.301 276.968 157.815 277.729C158.33 278.49 159.044 279.094 159.881 279.474L284.991 351.587C287.659 352.806 290.578 353.382 293.51 353.266C296.443 353.15 299.307 352.347 301.871 350.921ZM352.862 295.075L295.975 326.1L291.097 325.75L196.062 272.778L169.742 259.141L293.729 187.87C294.307 187.541 294.956 187.353 295.62 187.323C296.285 187.293 296.948 187.42 297.554 187.695L418.207 257.283L352.862 295.075Z" fill="url(#paint16_linear)"/>
<path opacity="0.6" d="M292.782 353.27V325.961H295.94L352.863 295.075L418.208 257.284L416.032 256.022C418.067 254.865 429.508 251.675 431.613 250.448V273.165C431.482 274.374 431.028 275.525 430.3 276.499C429.572 277.473 428.595 278.235 427.472 278.704L301.871 350.921C299.08 352.438 295.959 353.245 292.782 353.27Z" fill="#44353B"/>
<path d="M301.871 327.994L427.507 255.636C432.49 252.761 433.052 248.414 428.735 245.89L303.625 173.883C300.961 172.669 298.049 172.097 295.123 172.212C292.198 172.328 289.34 173.128 286.78 174.549L161.249 246.836C156.266 249.711 155.704 254.058 160.021 256.547L285.131 328.695C287.784 329.883 290.678 330.439 293.583 330.317C296.489 330.195 299.326 329.4 301.871 327.994ZM294.852 323.787C294.25 324.078 293.59 324.23 292.922 324.23C292.253 324.23 291.593 324.078 290.991 323.787L168.268 253.077C167.285 252.516 167.426 251.534 168.549 250.868L293.834 178.791C294.433 178.491 295.094 178.335 295.764 178.335C296.434 178.335 297.095 178.491 297.694 178.791L420.523 249.641C421.506 250.237 421.401 251.219 420.242 251.885L294.852 323.787Z" fill="url(#paint17_linear)"/>
<path d="M301.871 327.994L427.507 255.636C432.49 252.761 433.052 248.414 428.735 245.89L303.625 173.883C300.961 172.669 298.049 172.097 295.123 172.212C292.198 172.328 289.34 173.128 286.78 174.549L161.249 246.836C156.266 249.711 155.704 254.058 160.021 256.547L285.131 328.695C287.784 329.883 290.678 330.439 293.583 330.317C296.489 330.195 299.326 329.4 301.871 327.994ZM294.852 323.787C294.25 324.078 293.59 324.23 292.922 324.23C292.253 324.23 291.593 324.078 290.991 323.787L168.268 253.077C167.285 252.516 167.426 251.534 168.549 250.868L293.834 178.791C294.433 178.491 295.094 178.335 295.764 178.335C296.434 178.335 297.095 178.491 297.694 178.791L420.523 249.641C421.506 250.237 421.401 251.219 420.242 251.885L294.852 323.787Z" fill="#44353B"/>
<path d="M420.453 248.238L297.624 177.388C297.025 177.088 296.364 176.933 295.694 176.933C295.024 176.933 294.363 177.088 293.764 177.388L168.444 249.64C167.531 250.166 167.285 250.902 167.742 251.463C167.935 251.222 168.174 251.019 168.444 250.867L293.729 178.79C294.328 178.491 294.989 178.335 295.659 178.335C296.329 178.335 296.99 178.491 297.589 178.79L420.418 249.64C420.591 249.742 420.746 249.872 420.874 250.026C421.013 249.9 421.115 249.739 421.17 249.56C421.226 249.381 421.232 249.191 421.189 249.009C421.146 248.826 421.055 248.659 420.926 248.523C420.797 248.388 420.633 248.29 420.453 248.238Z" fill="#FD6B59"/>
<path d="M427.507 254.479L301.871 326.766C299.313 328.19 296.457 328.994 293.532 329.116C290.606 329.238 287.693 328.673 285.026 327.468L159.916 255.32C159.211 254.983 158.591 254.494 158.099 253.887C157.607 253.281 157.257 252.573 157.073 251.814C156.974 252.817 157.196 253.826 157.707 254.695C158.218 255.564 158.991 256.249 159.916 256.652L285.026 328.8C287.693 330.006 290.606 330.57 293.532 330.448C296.457 330.327 299.313 329.522 301.871 328.099L427.507 255.636C430.525 253.883 431.894 251.604 431.578 249.536C431.309 250.609 430.804 251.61 430.1 252.465C429.396 253.32 428.51 254.008 427.507 254.479Z" fill="#FD6B59"/>
<path d="M297.554 187.696C296.948 187.421 296.285 187.293 295.62 187.324C294.955 187.354 294.307 187.542 293.729 187.871L174.409 256.583L168.268 253.077C167.285 252.516 167.426 251.535 168.549 250.868L293.834 178.791C294.433 178.492 295.094 178.336 295.764 178.336C296.434 178.336 297.095 178.492 297.694 178.791L420.523 249.641C421.506 250.237 421.401 251.219 420.243 251.885L414.452 255.391L297.554 187.696Z" fill="#44353B"/>
<path opacity="0.7" d="M420.173 251.71C421.331 251.043 421.436 250.062 420.453 249.466L297.589 178.51C296.99 178.211 296.329 178.055 295.659 178.055C294.989 178.055 294.328 178.211 293.729 178.51L168.444 250.868C167.321 251.534 167.18 252.516 168.163 253.077L290.992 323.927C291.593 324.219 292.253 324.37 292.922 324.37C293.591 324.37 294.251 324.219 294.852 323.927L420.173 251.71Z" fill="#FD6B59"/>
<path d="M301.871 310.921L427.472 238.633C428.559 238.15 429.5 237.391 430.202 236.431C430.904 235.472 431.342 234.345 431.473 233.164V210.447L427.191 214.303L423.612 212.13C424.033 211.674 424.314 211.253 424.208 211.148L422.383 207.958L333.771 155.688L305.696 139.281L294.606 136.126L165.601 210.167L165.987 213.146L162.478 215.11L156.968 212.656V235.162C157.008 236.079 157.301 236.968 157.815 237.729C158.33 238.49 159.044 239.094 159.881 239.474L284.991 311.587C287.659 312.806 290.578 313.382 293.51 313.266C296.443 313.15 299.307 312.347 301.871 310.921ZM352.862 255.075L295.975 286.1L291.097 285.75L196.062 232.778L169.742 219.141L293.729 147.87C294.307 147.541 294.956 147.353 295.62 147.323C296.285 147.293 296.948 147.42 297.554 147.695L418.207 217.283L352.862 255.075Z" fill="url(#paint18_linear)"/>
<path d="M301.871 310.921L427.472 238.633C428.559 238.15 429.5 237.391 430.202 236.431C430.904 235.472 431.342 234.345 431.473 233.164V210.447L427.191 214.303L423.612 212.13C424.033 211.674 424.314 211.253 424.208 211.148L422.383 207.958L333.771 155.688L305.696 139.281L294.606 136.126L165.601 210.167L165.987 213.146L162.478 215.11L156.968 212.656V235.162C157.008 236.079 157.301 236.968 157.815 237.729C158.33 238.49 159.044 239.094 159.881 239.474L284.991 311.587C287.659 312.806 290.578 313.382 293.51 313.266C296.443 313.15 299.307 312.347 301.871 310.921ZM352.862 255.075L295.975 286.1L291.097 285.75L196.062 232.778L169.742 219.141L293.729 147.87C294.307 147.541 294.956 147.353 295.62 147.323C296.285 147.293 296.948 147.42 297.554 147.695L418.207 217.283L352.862 255.075Z" fill="url(#paint19_linear)"/>
<path opacity="0.6" d="M292.782 313.27V285.961H295.94L352.863 255.075L418.208 217.284L416.032 216.022C418.067 214.865 429.508 211.675 431.613 210.448V233.165C431.482 234.374 431.028 235.525 430.3 236.499C429.572 237.473 428.595 238.235 427.472 238.704L301.871 310.921C299.08 312.438 295.959 313.245 292.782 313.27Z" fill="#44353B"/>
<path d="M301.871 287.994L427.507 215.636C432.49 212.761 433.052 208.414 428.735 205.89L303.625 133.883C300.961 132.669 298.049 132.097 295.123 132.212C292.198 132.328 289.34 133.128 286.78 134.549L161.249 206.836C156.266 209.711 155.704 214.058 160.021 216.547L285.131 288.695C287.784 289.883 290.678 290.439 293.583 290.317C296.489 290.195 299.326 289.4 301.871 287.994ZM294.852 283.787C294.25 284.078 293.59 284.23 292.922 284.23C292.253 284.23 291.593 284.078 290.991 283.787L168.268 213.077C167.285 212.516 167.426 211.534 168.549 210.868L293.834 138.791C294.433 138.491 295.094 138.335 295.764 138.335C296.434 138.335 297.095 138.491 297.694 138.791L420.523 209.641C421.506 210.237 421.401 211.219 420.242 211.885L294.852 283.787Z" fill="url(#paint20_linear)"/>
<path d="M301.871 287.994L427.507 215.636C432.49 212.761 433.052 208.414 428.735 205.89L303.625 133.883C300.961 132.669 298.049 132.097 295.123 132.212C292.198 132.328 289.34 133.128 286.78 134.549L161.249 206.836C156.266 209.711 155.704 214.058 160.021 216.547L285.131 288.695C287.784 289.883 290.678 290.439 293.583 290.317C296.489 290.195 299.326 289.4 301.871 287.994ZM294.852 283.787C294.25 284.078 293.59 284.23 292.922 284.23C292.253 284.23 291.593 284.078 290.991 283.787L168.268 213.077C167.285 212.516 167.426 211.534 168.549 210.868L293.834 138.791C294.433 138.491 295.094 138.335 295.764 138.335C296.434 138.335 297.095 138.491 297.694 138.791L420.523 209.641C421.506 210.237 421.401 211.219 420.242 211.885L294.852 283.787Z" fill="#44353B"/>
<path d="M420.453 208.238L297.624 137.388C297.025 137.088 296.364 136.933 295.694 136.933C295.024 136.933 294.363 137.088 293.764 137.388L168.444 209.64C167.531 210.166 167.285 210.902 167.742 211.463C167.935 211.222 168.174 211.019 168.444 210.867L293.729 138.79C294.328 138.491 294.989 138.335 295.659 138.335C296.329 138.335 296.99 138.491 297.589 138.79L420.418 209.64C420.591 209.742 420.746 209.872 420.874 210.026C421.013 209.9 421.115 209.739 421.17 209.56C421.226 209.381 421.232 209.191 421.189 209.009C421.146 208.826 421.055 208.659 420.926 208.523C420.797 208.388 420.633 208.29 420.453 208.238Z" fill="#FD6B59"/>
<path d="M427.507 214.479L301.871 286.766C299.313 288.19 296.457 288.994 293.532 289.116C290.606 289.238 287.693 288.673 285.026 287.468L159.916 215.32C159.211 214.983 158.591 214.494 158.099 213.887C157.607 213.281 157.257 212.573 157.073 211.814C156.974 212.817 157.196 213.826 157.707 214.695C158.218 215.564 158.991 216.249 159.916 216.652L285.026 288.8C287.693 290.006 290.606 290.57 293.532 290.448C296.457 290.327 299.313 289.522 301.871 288.099L427.507 215.636C430.525 213.883 431.894 211.604 431.578 209.536C431.309 210.609 430.804 211.61 430.1 212.465C429.396 213.32 428.51 214.008 427.507 214.479Z" fill="#FD6B59"/>
<path d="M297.554 147.696C296.948 147.421 296.285 147.293 295.62 147.324C294.955 147.354 294.307 147.542 293.729 147.871L174.409 216.583L168.268 213.077C167.285 212.516 167.426 211.535 168.549 210.868L293.834 138.791C294.433 138.492 295.094 138.336 295.764 138.336C296.434 138.336 297.095 138.492 297.694 138.791L420.523 209.641C421.506 210.237 421.401 211.219 420.243 211.885L414.452 215.391L297.554 147.696Z" fill="#44353B"/>
<path opacity="0.7" d="M420.173 211.71C421.331 211.043 421.436 210.062 420.453 209.466L297.589 138.51C296.99 138.211 296.329 138.055 295.659 138.055C294.989 138.055 294.328 138.211 293.729 138.51L168.444 210.868C167.321 211.534 167.18 212.516 168.163 213.077L290.992 283.927C291.593 284.219 292.253 284.37 292.922 284.37C293.591 284.37 294.251 284.219 294.852 283.927L420.173 211.71Z" fill="#FD6B59"/>
<path d="M301.871 270.921L427.472 198.633C428.559 198.15 429.5 197.391 430.202 196.431C430.904 195.472 431.342 194.345 431.473 193.164V170.447L427.191 174.303L423.612 172.13C424.033 171.674 424.314 171.253 424.208 171.148L422.383 167.958L333.771 115.688L305.696 99.2811L294.606 96.126L165.601 170.167L165.987 173.146L162.478 175.11L156.968 172.656V195.162C157.008 196.079 157.301 196.968 157.815 197.729C158.33 198.49 159.044 199.094 159.881 199.474L284.991 271.587C287.659 272.806 290.578 273.382 293.51 273.266C296.443 273.15 299.307 272.347 301.871 270.921ZM352.862 215.075L295.975 246.1L291.097 245.75L196.062 192.778L169.742 179.141L293.729 107.87C294.307 107.541 294.956 107.353 295.62 107.323C296.285 107.293 296.948 107.42 297.554 107.695L418.207 177.283L352.862 215.075Z" fill="url(#paint21_linear)"/>
<path d="M301.871 270.921L427.472 198.633C428.559 198.15 429.5 197.391 430.202 196.431C430.904 195.472 431.342 194.345 431.473 193.164V170.447L427.191 174.303L423.612 172.13C424.033 171.674 424.314 171.253 424.208 171.148L422.383 167.958L333.771 115.688L305.696 99.2811L294.606 96.126L165.601 170.167L165.987 173.146L162.478 175.11L156.968 172.656V195.162C157.008 196.079 157.301 196.968 157.815 197.729C158.33 198.49 159.044 199.094 159.881 199.474L284.991 271.587C287.659 272.806 290.578 273.382 293.51 273.266C296.443 273.15 299.307 272.347 301.871 270.921ZM352.862 215.075L295.975 246.1L291.097 245.75L196.062 192.778L169.742 179.141L293.729 107.87C294.307 107.541 294.956 107.353 295.62 107.323C296.285 107.293 296.948 107.42 297.554 107.695L418.207 177.283L352.862 215.075Z" fill="url(#paint22_linear)"/>
<path opacity="0.6" d="M292.782 273.27V245.961H295.94L352.863 215.075L418.208 177.284L416.032 176.022C418.067 174.865 429.508 171.675 431.613 170.448V193.165C431.482 194.374 431.028 195.525 430.3 196.499C429.572 197.473 428.595 198.235 427.472 198.704L301.871 270.921C299.08 272.438 295.959 273.245 292.782 273.27Z" fill="#44353B"/>
<path d="M301.871 247.994L427.507 175.636C432.49 172.761 433.052 168.414 428.735 165.89L303.625 93.8825C300.961 92.6688 298.049 92.0967 295.123 92.2124C292.198 92.3281 289.34 93.1283 286.78 94.5486L161.249 166.836C156.266 169.711 155.704 174.058 160.021 176.547L285.131 248.695C287.784 249.883 290.678 250.439 293.583 250.317C296.489 250.195 299.326 249.4 301.871 247.994ZM294.852 243.787C294.25 244.078 293.59 244.23 292.922 244.23C292.253 244.23 291.593 244.078 290.991 243.787L168.268 173.077C167.285 172.516 167.426 171.534 168.549 170.868L293.834 98.7905C294.433 98.4913 295.094 98.3354 295.764 98.3354C296.434 98.3354 297.095 98.4913 297.694 98.7905L420.523 169.641C421.506 170.237 421.401 171.219 420.242 171.885L294.852 243.787Z" fill="url(#paint23_linear)"/>
<path d="M301.871 247.994L427.507 175.636C432.49 172.761 433.052 168.414 428.735 165.89L303.625 93.8825C300.961 92.6688 298.049 92.0967 295.123 92.2124C292.198 92.3281 289.34 93.1283 286.78 94.5486L161.249 166.836C156.266 169.711 155.704 174.058 160.021 176.547L285.131 248.695C287.784 249.883 290.678 250.439 293.583 250.317C296.489 250.195 299.326 249.4 301.871 247.994ZM294.852 243.787C294.25 244.078 293.59 244.23 292.922 244.23C292.253 244.23 291.593 244.078 290.991 243.787L168.268 173.077C167.285 172.516 167.426 171.534 168.549 170.868L293.834 98.7905C294.433 98.4913 295.094 98.3354 295.764 98.3354C296.434 98.3354 297.095 98.4913 297.694 98.7905L420.523 169.641C421.506 170.237 421.401 171.219 420.242 171.885L294.852 243.787Z" fill="#44353B"/>
<path d="M420.453 168.238L297.624 97.3877C297.025 97.0884 296.364 96.9326 295.694 96.9326C295.024 96.9326 294.363 97.0884 293.764 97.3877L168.444 169.64C167.531 170.166 167.285 170.902 167.742 171.463C167.935 171.222 168.174 171.019 168.444 170.867L293.729 98.79C294.328 98.4907 294.989 98.3349 295.659 98.3349C296.329 98.3349 296.99 98.4907 297.589 98.79L420.418 169.64C420.591 169.742 420.746 169.872 420.874 170.026C421.013 169.9 421.115 169.739 421.17 169.56C421.226 169.381 421.232 169.191 421.189 169.009C421.146 168.826 421.055 168.659 420.926 168.523C420.797 168.388 420.633 168.29 420.453 168.238Z" fill="#FD6B59"/>
<path d="M427.507 174.479L301.871 246.766C299.313 248.19 296.457 248.994 293.532 249.116C290.606 249.238 287.693 248.673 285.026 247.468L159.916 175.32C159.211 174.983 158.591 174.494 158.099 173.887C157.607 173.281 157.257 172.573 157.073 171.814C156.974 172.817 157.196 173.826 157.707 174.695C158.218 175.564 158.991 176.249 159.916 176.652L285.026 248.8C287.693 250.006 290.606 250.57 293.532 250.448C296.457 250.327 299.313 249.522 301.871 248.099L427.507 175.636C430.525 173.883 431.894 171.604 431.578 169.536C431.309 170.609 430.804 171.61 430.1 172.465C429.396 173.32 428.51 174.008 427.507 174.479Z" fill="#FD6B59"/>
<path d="M297.554 107.696C296.948 107.421 296.285 107.293 295.62 107.324C294.955 107.354 294.307 107.542 293.729 107.871L174.409 176.583L168.268 173.077C167.285 172.516 167.426 171.535 168.549 170.868L293.834 98.7911C294.433 98.4918 295.094 98.3359 295.764 98.3359C296.434 98.3359 297.095 98.4918 297.694 98.7911L420.523 169.641C421.506 170.237 421.401 171.219 420.243 171.885L414.452 175.391L297.554 107.696Z" fill="#44353B"/>
<path opacity="0.7" d="M420.173 171.71C421.331 171.043 421.436 170.062 420.453 169.466L297.589 98.5103C296.99 98.211 296.329 98.0552 295.659 98.0552C294.989 98.0552 294.328 98.211 293.729 98.5103L168.444 170.868C167.321 171.534 167.18 172.516 168.163 173.077L290.992 243.927C291.593 244.219 292.253 244.37 292.922 244.37C293.591 244.37 294.251 244.219 294.852 243.927L420.173 171.71Z" fill="#FD6B59"/>
<path d="M144.871 484.921L270.472 412.633C271.559 412.15 272.5 411.391 273.202 410.431C273.904 409.472 274.342 408.345 274.473 407.164V384.447L270.191 388.303L266.612 386.13C267.033 385.674 267.314 385.253 267.208 385.148L265.383 381.958L176.771 329.688L148.696 313.281L137.606 310.126L8.60089 384.167L8.98692 387.146L5.47752 389.11L-0.0322266 386.656V409.162C0.00806052 410.079 0.301447 410.968 0.815499 411.729C1.32955 412.49 2.04425 413.094 2.88057 413.474L127.991 485.587C130.659 486.806 133.578 487.382 136.51 487.266C139.443 487.15 142.307 486.347 144.871 484.921ZM195.862 429.075L138.975 460.1L134.097 459.75L39.0624 406.778L12.742 393.141L136.729 321.87C137.307 321.541 137.956 321.353 138.62 321.323C139.285 321.293 139.948 321.42 140.554 321.695L261.207 391.283L195.862 429.075Z" fill="url(#paint24_linear)"/>
<path d="M144.871 484.921L270.472 412.633C271.559 412.15 272.5 411.391 273.202 410.431C273.904 409.472 274.342 408.345 274.473 407.164V384.447L270.191 388.303L266.612 386.13C267.033 385.674 267.314 385.253 267.208 385.148L265.383 381.958L176.771 329.688L148.696 313.281L137.606 310.126L8.60089 384.167L8.98692 387.146L5.47752 389.11L-0.0322266 386.656V409.162C0.00806052 410.079 0.301447 410.968 0.815499 411.729C1.32955 412.49 2.04425 413.094 2.88057 413.474L127.991 485.587C130.659 486.806 133.578 487.382 136.51 487.266C139.443 487.15 142.307 486.347 144.871 484.921ZM195.862 429.075L138.975 460.1L134.097 459.75L39.0624 406.778L12.742 393.141L136.729 321.87C137.307 321.541 137.956 321.353 138.62 321.323C139.285 321.293 139.948 321.42 140.554 321.695L261.207 391.283L195.862 429.075Z" fill="url(#paint25_linear)"/>
<path opacity="0.6" d="M135.782 487.27V459.961H138.94L195.863 429.075L261.208 391.284L259.032 390.022C261.067 388.865 272.508 385.675 274.613 384.448V407.165C274.482 408.374 274.028 409.525 273.3 410.499C272.572 411.473 271.595 412.235 270.472 412.704L144.871 484.921C142.08 486.438 138.959 487.245 135.782 487.27Z" fill="#44353B"/>
<path d="M144.871 461.994L270.507 389.636C275.49 386.761 276.052 382.414 271.735 379.89L146.625 307.883C143.961 306.669 141.049 306.097 138.123 306.212C135.198 306.328 132.34 307.128 129.78 308.549L4.24908 380.836C-0.734259 383.711 -1.29576 388.058 3.02079 390.547L128.131 462.695C130.784 463.883 133.678 464.439 136.583 464.317C139.489 464.195 142.326 463.4 144.871 461.994ZM137.852 457.787C137.25 458.078 136.59 458.23 135.922 458.23C135.253 458.23 134.593 458.078 133.991 457.787L11.2679 387.077C10.2852 386.516 10.4256 385.534 11.5486 384.868L136.834 312.791C137.433 312.491 138.094 312.335 138.764 312.335C139.434 312.335 140.095 312.491 140.694 312.791L263.523 383.641C264.506 384.237 264.401 385.219 263.242 385.885L137.852 457.787Z" fill="url(#paint26_linear)"/>
<path d="M144.871 461.994L270.507 389.636C275.49 386.761 276.052 382.414 271.735 379.89L146.625 307.883C143.961 306.669 141.049 306.097 138.123 306.212C135.198 306.328 132.34 307.128 129.78 308.549L4.24908 380.836C-0.734259 383.711 -1.29576 388.058 3.02079 390.547L128.131 462.695C130.784 463.883 133.678 464.439 136.583 464.317C139.489 464.195 142.326 463.4 144.871 461.994ZM137.852 457.787C137.25 458.078 136.59 458.23 135.922 458.23C135.253 458.23 134.593 458.078 133.991 457.787L11.2679 387.077C10.2852 386.516 10.4256 385.534 11.5486 384.868L136.834 312.791C137.433 312.491 138.094 312.335 138.764 312.335C139.434 312.335 140.095 312.491 140.694 312.791L263.523 383.641C264.506 384.237 264.401 385.219 263.242 385.885L137.852 457.787Z" fill="#44353B"/>
<path d="M263.453 382.238L140.624 311.388C140.025 311.088 139.364 310.933 138.694 310.933C138.024 310.933 137.363 311.088 136.764 311.388L11.4431 383.64C10.5306 384.166 10.285 384.902 10.7412 385.463C10.9348 385.222 11.1731 385.019 11.4431 384.867L136.729 312.79C137.328 312.491 137.989 312.335 138.659 312.335C139.329 312.335 139.99 312.491 140.589 312.79L263.418 383.64C263.591 383.742 263.745 383.872 263.874 384.026C264.012 383.9 264.114 383.739 264.17 383.56C264.225 383.381 264.232 383.191 264.189 383.009C264.146 382.826 264.055 382.659 263.926 382.523C263.796 382.388 263.633 382.29 263.453 382.238Z" fill="#FD6B59"/>
<path d="M270.508 388.479L144.871 460.766C142.314 462.19 139.458 462.994 136.532 463.116C133.607 463.238 130.694 462.673 128.026 461.468L2.91638 389.32C2.21186 388.983 1.59127 388.494 1.0996 387.887C0.607936 387.281 0.25752 386.573 0.0737671 385.814C-0.0251235 386.817 0.196721 387.826 0.707445 388.695C1.21817 389.564 1.9915 390.249 2.91638 390.652L128.026 462.8C130.694 464.006 133.607 464.57 136.532 464.448C139.458 464.327 142.314 463.522 144.871 462.099L270.508 389.636C273.526 387.883 274.894 385.604 274.579 383.536C274.309 384.609 273.804 385.61 273.1 386.465C272.396 387.32 271.511 388.008 270.508 388.479Z" fill="#FD6B59"/>
<path d="M140.555 321.696C139.948 321.421 139.286 321.293 138.621 321.324C137.956 321.354 137.308 321.542 136.729 321.871L17.4099 390.583L11.2684 387.077C10.2858 386.516 10.4262 385.535 11.5492 384.868L136.835 312.791C137.434 312.492 138.095 312.336 138.765 312.336C139.435 312.336 140.096 312.492 140.695 312.791L263.524 383.641C264.506 384.237 264.401 385.219 263.243 385.885L257.453 389.391L140.555 321.696Z" fill="#44353B"/>
<path opacity="0.7" d="M263.173 385.71C264.331 385.043 264.436 384.062 263.453 383.466L140.589 312.51C139.99 312.211 139.329 312.055 138.659 312.055C137.989 312.055 137.328 312.211 136.729 312.51L11.4437 384.868C10.3207 385.534 10.1803 386.516 11.163 387.077L133.992 457.927C134.593 458.219 135.253 458.37 135.922 458.37C136.591 458.37 137.251 458.219 137.852 457.927L263.173 385.71Z" fill="#FD6B59"/>
<path d="M144.871 444.921L270.472 372.633C271.559 372.15 272.5 371.391 273.202 370.431C273.904 369.472 274.342 368.345 274.473 367.164V344.447L270.191 348.303L266.612 346.13C267.033 345.674 267.314 345.253 267.208 345.148L265.383 341.958L176.771 289.688L148.696 273.281L137.606 270.126L8.60089 344.167L8.98692 347.146L5.47752 349.11L-0.0322266 346.656V369.162C0.00806052 370.079 0.301447 370.968 0.815499 371.729C1.32955 372.49 2.04425 373.094 2.88057 373.474L127.991 445.587C130.659 446.806 133.578 447.382 136.51 447.266C139.443 447.15 142.307 446.347 144.871 444.921ZM195.862 389.075L138.975 420.1L134.097 419.75L39.0624 366.778L12.742 353.141L136.729 281.87C137.307 281.541 137.956 281.353 138.62 281.323C139.285 281.293 139.948 281.42 140.554 281.695L261.207 351.283L195.862 389.075Z" fill="url(#paint27_linear)"/>
<path d="M144.871 444.921L270.472 372.633C271.559 372.15 272.5 371.391 273.202 370.431C273.904 369.472 274.342 368.345 274.473 367.164V344.447L270.191 348.303L266.612 346.13C267.033 345.674 267.314 345.253 267.208 345.148L265.383 341.958L176.771 289.688L148.696 273.281L137.606 270.126L8.60089 344.167L8.98692 347.146L5.47752 349.11L-0.0322266 346.656V369.162C0.00806052 370.079 0.301447 370.968 0.815499 371.729C1.32955 372.49 2.04425 373.094 2.88057 373.474L127.991 445.587C130.659 446.806 133.578 447.382 136.51 447.266C139.443 447.15 142.307 446.347 144.871 444.921ZM195.862 389.075L138.975 420.1L134.097 419.75L39.0624 366.778L12.742 353.141L136.729 281.87C137.307 281.541 137.956 281.353 138.62 281.323C139.285 281.293 139.948 281.42 140.554 281.695L261.207 351.283L195.862 389.075Z" fill="url(#paint28_linear)"/>
<path opacity="0.6" d="M135.782 447.27V419.961H138.94L195.863 389.075L261.208 351.284L259.032 350.022C261.067 348.865 272.508 345.675 274.613 344.448V367.165C274.482 368.374 274.028 369.525 273.3 370.499C272.572 371.473 271.595 372.235 270.472 372.704L144.871 444.921C142.08 446.438 138.959 447.245 135.782 447.27Z" fill="#44353B"/>
<path d="M144.871 421.994L270.507 349.636C275.49 346.761 276.052 342.414 271.735 339.89L146.625 267.883C143.961 266.669 141.049 266.097 138.123 266.212C135.198 266.328 132.34 267.128 129.78 268.549L4.24908 340.836C-0.734259 343.711 -1.29576 348.058 3.02079 350.547L128.131 422.695C130.784 423.883 133.678 424.439 136.583 424.317C139.489 424.195 142.326 423.4 144.871 421.994ZM137.852 417.787C137.25 418.078 136.59 418.23 135.922 418.23C135.253 418.23 134.593 418.078 133.991 417.787L11.2679 347.077C10.2852 346.516 10.4256 345.534 11.5486 344.868L136.834 272.791C137.433 272.491 138.094 272.335 138.764 272.335C139.434 272.335 140.095 272.491 140.694 272.791L263.523 343.641C264.506 344.237 264.401 345.219 263.242 345.885L137.852 417.787Z" fill="url(#paint29_linear)"/>
<path d="M144.871 421.994L270.507 349.636C275.49 346.761 276.052 342.414 271.735 339.89L146.625 267.883C143.961 266.669 141.049 266.097 138.123 266.212C135.198 266.328 132.34 267.128 129.78 268.549L4.24908 340.836C-0.734259 343.711 -1.29576 348.058 3.02079 350.547L128.131 422.695C130.784 423.883 133.678 424.439 136.583 424.317C139.489 424.195 142.326 423.4 144.871 421.994ZM137.852 417.787C137.25 418.078 136.59 418.23 135.922 418.23C135.253 418.23 134.593 418.078 133.991 417.787L11.2679 347.077C10.2852 346.516 10.4256 345.534 11.5486 344.868L136.834 272.791C137.433 272.491 138.094 272.335 138.764 272.335C139.434 272.335 140.095 272.491 140.694 272.791L263.523 343.641C264.506 344.237 264.401 345.219 263.242 345.885L137.852 417.787Z" fill="#44353B"/>
<path d="M263.453 342.238L140.624 271.388C140.025 271.088 139.364 270.933 138.694 270.933C138.024 270.933 137.363 271.088 136.764 271.388L11.4431 343.64C10.5306 344.166 10.285 344.902 10.7412 345.463C10.9348 345.222 11.1731 345.019 11.4431 344.867L136.729 272.79C137.328 272.491 137.989 272.335 138.659 272.335C139.329 272.335 139.99 272.491 140.589 272.79L263.418 343.64C263.591 343.742 263.745 343.872 263.874 344.026C264.012 343.9 264.114 343.739 264.17 343.56C264.225 343.381 264.232 343.191 264.189 343.009C264.146 342.826 264.055 342.659 263.926 342.523C263.796 342.388 263.633 342.29 263.453 342.238Z" fill="#FD6B59"/>
<path d="M270.508 348.479L144.871 420.766C142.314 422.19 139.458 422.994 136.532 423.116C133.607 423.238 130.694 422.673 128.026 421.468L2.91638 349.32C2.21186 348.983 1.59127 348.494 1.0996 347.887C0.607936 347.281 0.25752 346.573 0.0737671 345.814C-0.0251235 346.817 0.196721 347.826 0.707445 348.695C1.21817 349.564 1.9915 350.249 2.91638 350.652L128.026 422.8C130.694 424.006 133.607 424.57 136.532 424.448C139.458 424.327 142.314 423.522 144.871 422.099L270.508 349.636C273.526 347.883 274.894 345.604 274.579 343.536C274.309 344.609 273.804 345.61 273.1 346.465C272.396 347.32 271.511 348.008 270.508 348.479Z" fill="#FD6B59"/>
<path d="M140.555 281.696C139.948 281.421 139.286 281.293 138.621 281.324C137.956 281.354 137.308 281.542 136.729 281.871L17.4099 350.583L11.2684 347.077C10.2858 346.516 10.4262 345.535 11.5492 344.868L136.835 272.791C137.434 272.492 138.095 272.336 138.765 272.336C139.435 272.336 140.096 272.492 140.695 272.791L263.524 343.641C264.506 344.237 264.401 345.219 263.243 345.885L257.453 349.391L140.555 281.696Z" fill="#44353B"/>
<path opacity="0.7" d="M263.173 345.71C264.331 345.043 264.436 344.062 263.453 343.466L140.589 272.51C139.99 272.211 139.329 272.055 138.659 272.055C137.989 272.055 137.328 272.211 136.729 272.51L11.4437 344.868C10.3207 345.534 10.1803 346.516 11.163 347.077L133.992 417.927C134.593 418.219 135.253 418.37 135.922 418.37C136.591 418.37 137.251 418.219 137.852 417.927L263.173 345.71Z" fill="#FD6B59"/>
<path d="M144.871 404.921L270.472 332.633C271.559 332.15 272.5 331.391 273.202 330.431C273.904 329.472 274.342 328.345 274.473 327.164V304.447L270.191 308.303L266.612 306.13C267.033 305.674 267.314 305.253 267.208 305.148L265.383 301.958L176.771 249.688L148.696 233.281L137.606 230.126L8.60089 304.167L8.98692 307.146L5.47752 309.11L-0.0322266 306.656V329.162C0.00806052 330.079 0.301447 330.968 0.815499 331.729C1.32955 332.49 2.04425 333.094 2.88057 333.474L127.991 405.587C130.659 406.806 133.578 407.382 136.51 407.266C139.443 407.15 142.307 406.347 144.871 404.921ZM195.862 349.075L138.975 380.1L134.097 379.75L39.0624 326.778L12.742 313.141L136.729 241.87C137.307 241.541 137.956 241.353 138.62 241.323C139.285 241.293 139.948 241.42 140.554 241.695L261.207 311.283L195.862 349.075Z" fill="url(#paint30_linear)"/>
<path d="M144.871 404.921L270.472 332.633C271.559 332.15 272.5 331.391 273.202 330.431C273.904 329.472 274.342 328.345 274.473 327.164V304.447L270.191 308.303L266.612 306.13C267.033 305.674 267.314 305.253 267.208 305.148L265.383 301.958L176.771 249.688L148.696 233.281L137.606 230.126L8.60089 304.167L8.98692 307.146L5.47752 309.11L-0.0322266 306.656V329.162C0.00806052 330.079 0.301447 330.968 0.815499 331.729C1.32955 332.49 2.04425 333.094 2.88057 333.474L127.991 405.587C130.659 406.806 133.578 407.382 136.51 407.266C139.443 407.15 142.307 406.347 144.871 404.921ZM195.862 349.075L138.975 380.1L134.097 379.75L39.0624 326.778L12.742 313.141L136.729 241.87C137.307 241.541 137.956 241.353 138.62 241.323C139.285 241.293 139.948 241.42 140.554 241.695L261.207 311.283L195.862 349.075Z" fill="url(#paint31_linear)"/>
<path opacity="0.6" d="M135.782 407.27V379.961H138.94L195.863 349.075L261.208 311.284L259.032 310.022C261.067 308.865 272.508 305.675 274.613 304.448V327.165C274.482 328.374 274.028 329.525 273.3 330.499C272.572 331.473 271.595 332.235 270.472 332.704L144.871 404.921C142.08 406.438 138.959 407.245 135.782 407.27Z" fill="#44353B"/>
<path d="M144.871 381.994L270.507 309.636C275.49 306.761 276.052 302.414 271.735 299.89L146.625 227.883C143.961 226.669 141.049 226.097 138.123 226.212C135.198 226.328 132.34 227.128 129.78 228.549L4.24908 300.836C-0.734259 303.711 -1.29576 308.058 3.02079 310.547L128.131 382.695C130.784 383.883 133.678 384.439 136.583 384.317C139.489 384.195 142.326 383.4 144.871 381.994ZM137.852 377.787C137.25 378.078 136.59 378.23 135.922 378.23C135.253 378.23 134.593 378.078 133.991 377.787L11.2679 307.077C10.2852 306.516 10.4256 305.534 11.5486 304.868L136.834 232.791C137.433 232.491 138.094 232.335 138.764 232.335C139.434 232.335 140.095 232.491 140.694 232.791L263.523 303.641C264.506 304.237 264.401 305.219 263.242 305.885L137.852 377.787Z" fill="url(#paint32_linear)"/>
<path d="M144.871 381.994L270.507 309.636C275.49 306.761 276.052 302.414 271.735 299.89L146.625 227.883C143.961 226.669 141.049 226.097 138.123 226.212C135.198 226.328 132.34 227.128 129.78 228.549L4.24908 300.836C-0.734259 303.711 -1.29576 308.058 3.02079 310.547L128.131 382.695C130.784 383.883 133.678 384.439 136.583 384.317C139.489 384.195 142.326 383.4 144.871 381.994ZM137.852 377.787C137.25 378.078 136.59 378.23 135.922 378.23C135.253 378.23 134.593 378.078 133.991 377.787L11.2679 307.077C10.2852 306.516 10.4256 305.534 11.5486 304.868L136.834 232.791C137.433 232.491 138.094 232.335 138.764 232.335C139.434 232.335 140.095 232.491 140.694 232.791L263.523 303.641C264.506 304.237 264.401 305.219 263.242 305.885L137.852 377.787Z" fill="#44353B"/>
<path d="M263.453 302.238L140.624 231.388C140.025 231.088 139.364 230.933 138.694 230.933C138.024 230.933 137.363 231.088 136.764 231.388L11.4431 303.64C10.5306 304.166 10.285 304.902 10.7412 305.463C10.9348 305.222 11.1731 305.019 11.4431 304.867L136.729 232.79C137.328 232.491 137.989 232.335 138.659 232.335C139.329 232.335 139.99 232.491 140.589 232.79L263.418 303.64C263.591 303.742 263.745 303.872 263.874 304.026C264.012 303.9 264.114 303.739 264.17 303.56C264.225 303.381 264.232 303.191 264.189 303.009C264.146 302.826 264.055 302.659 263.926 302.523C263.796 302.388 263.633 302.29 263.453 302.238Z" fill="#FD6B59"/>
<path d="M270.508 308.479L144.871 380.766C142.314 382.19 139.458 382.994 136.532 383.116C133.607 383.238 130.694 382.673 128.026 381.468L2.91638 309.32C2.21186 308.983 1.59127 308.494 1.0996 307.887C0.607936 307.281 0.25752 306.573 0.0737671 305.814C-0.0251235 306.817 0.196721 307.826 0.707445 308.695C1.21817 309.564 1.9915 310.249 2.91638 310.652L128.026 382.8C130.694 384.006 133.607 384.57 136.532 384.448C139.458 384.327 142.314 383.522 144.871 382.099L270.508 309.636C273.526 307.883 274.894 305.604 274.579 303.536C274.309 304.609 273.804 305.61 273.1 306.465C272.396 307.32 271.511 308.008 270.508 308.479Z" fill="#FD6B59"/>
<path d="M140.555 241.696C139.948 241.421 139.286 241.293 138.621 241.324C137.956 241.354 137.308 241.542 136.729 241.871L17.4099 310.583L11.2684 307.077C10.2858 306.516 10.4262 305.535 11.5492 304.868L136.835 232.791C137.434 232.492 138.095 232.336 138.765 232.336C139.435 232.336 140.096 232.492 140.695 232.791L263.524 303.641C264.506 304.237 264.401 305.219 263.243 305.885L257.453 309.391L140.555 241.696Z" fill="#44353B"/>
<path opacity="0.7" d="M263.173 305.71C264.331 305.043 264.436 304.062 263.453 303.466L140.589 232.51C139.99 232.211 139.329 232.055 138.659 232.055C137.989 232.055 137.328 232.211 136.729 232.51L11.4437 304.868C10.3207 305.534 10.1803 306.516 11.163 307.077L133.992 377.927C134.593 378.219 135.253 378.37 135.922 378.37C136.591 378.37 137.251 378.219 137.852 377.927L263.173 305.71Z" fill="#FD6B59"/>
<path d="M144.871 364.921L270.472 292.633C271.559 292.15 272.5 291.391 273.202 290.431C273.904 289.472 274.342 288.345 274.473 287.164V264.447L270.191 268.303L266.612 266.13C267.033 265.674 267.314 265.253 267.208 265.148L265.383 261.958L176.771 209.688L148.696 193.281L137.606 190.126L8.60089 264.167L8.98692 267.146L5.47752 269.11L-0.0322266 266.656V289.162C0.00806052 290.079 0.301447 290.968 0.815499 291.729C1.32955 292.49 2.04425 293.094 2.88057 293.474L127.991 365.587C130.659 366.806 133.578 367.382 136.51 367.266C139.443 367.15 142.307 366.347 144.871 364.921ZM195.862 309.075L138.975 340.1L134.097 339.75L39.0624 286.778L12.742 273.141L136.729 201.87C137.307 201.541 137.956 201.353 138.62 201.323C139.285 201.293 139.948 201.42 140.554 201.695L261.207 271.283L195.862 309.075Z" fill="url(#paint33_linear)"/>
<path d="M144.871 364.921L270.472 292.633C271.559 292.15 272.5 291.391 273.202 290.431C273.904 289.472 274.342 288.345 274.473 287.164V264.447L270.191 268.303L266.612 266.13C267.033 265.674 267.314 265.253 267.208 265.148L265.383 261.958L176.771 209.688L148.696 193.281L137.606 190.126L8.60089 264.167L8.98692 267.146L5.47752 269.11L-0.0322266 266.656V289.162C0.00806052 290.079 0.301447 290.968 0.815499 291.729C1.32955 292.49 2.04425 293.094 2.88057 293.474L127.991 365.587C130.659 366.806 133.578 367.382 136.51 367.266C139.443 367.15 142.307 366.347 144.871 364.921ZM195.862 309.075L138.975 340.1L134.097 339.75L39.0624 286.778L12.742 273.141L136.729 201.87C137.307 201.541 137.956 201.353 138.62 201.323C139.285 201.293 139.948 201.42 140.554 201.695L261.207 271.283L195.862 309.075Z" fill="url(#paint34_linear)"/>
<path opacity="0.6" d="M135.782 367.27V339.961H138.94L195.863 309.075L261.208 271.284L259.032 270.022C261.067 268.865 272.508 265.675 274.613 264.448V287.165C274.482 288.374 274.028 289.525 273.3 290.499C272.572 291.473 271.595 292.235 270.472 292.704L144.871 364.921C142.08 366.438 138.959 367.245 135.782 367.27Z" fill="#44353B"/>
<path d="M144.871 341.994L270.507 269.636C275.49 266.761 276.052 262.414 271.735 259.89L146.625 187.883C143.961 186.669 141.049 186.097 138.123 186.212C135.198 186.328 132.34 187.128 129.78 188.549L4.24908 260.836C-0.734259 263.711 -1.29576 268.058 3.02079 270.547L128.131 342.695C130.784 343.883 133.678 344.439 136.583 344.317C139.489 344.195 142.326 343.4 144.871 341.994ZM137.852 337.787C137.25 338.078 136.59 338.23 135.922 338.23C135.253 338.23 134.593 338.078 133.991 337.787L11.2679 267.077C10.2852 266.516 10.4256 265.534 11.5486 264.868L136.834 192.791C137.433 192.491 138.094 192.335 138.764 192.335C139.434 192.335 140.095 192.491 140.694 192.791L263.523 263.641C264.506 264.237 264.401 265.219 263.242 265.885L137.852 337.787Z" fill="url(#paint35_linear)"/>
<path d="M144.871 341.994L270.507 269.636C275.49 266.761 276.052 262.414 271.735 259.89L146.625 187.883C143.961 186.669 141.049 186.097 138.123 186.212C135.198 186.328 132.34 187.128 129.78 188.549L4.24908 260.836C-0.734259 263.711 -1.29576 268.058 3.02079 270.547L128.131 342.695C130.784 343.883 133.678 344.439 136.583 344.317C139.489 344.195 142.326 343.4 144.871 341.994ZM137.852 337.787C137.25 338.078 136.59 338.23 135.922 338.23C135.253 338.23 134.593 338.078 133.991 337.787L11.2679 267.077C10.2852 266.516 10.4256 265.534 11.5486 264.868L136.834 192.791C137.433 192.491 138.094 192.335 138.764 192.335C139.434 192.335 140.095 192.491 140.694 192.791L263.523 263.641C264.506 264.237 264.401 265.219 263.242 265.885L137.852 337.787Z" fill="#44353B"/>
<path d="M263.453 262.238L140.624 191.388C140.025 191.088 139.364 190.933 138.694 190.933C138.024 190.933 137.363 191.088 136.764 191.388L11.4431 263.64C10.5306 264.166 10.285 264.902 10.7412 265.463C10.9348 265.222 11.1731 265.019 11.4431 264.867L136.729 192.79C137.328 192.491 137.989 192.335 138.659 192.335C139.329 192.335 139.99 192.491 140.589 192.79L263.418 263.64C263.591 263.742 263.745 263.872 263.874 264.026C264.012 263.9 264.114 263.739 264.17 263.56C264.225 263.381 264.232 263.191 264.189 263.009C264.146 262.826 264.055 262.659 263.926 262.523C263.796 262.388 263.633 262.29 263.453 262.238Z" fill="#FD6B59"/>
<path d="M270.508 268.479L144.871 340.766C142.314 342.19 139.458 342.994 136.532 343.116C133.607 343.238 130.694 342.673 128.026 341.468L2.91638 269.32C2.21186 268.983 1.59127 268.494 1.0996 267.887C0.607936 267.281 0.25752 266.573 0.0737671 265.814C-0.0251235 266.817 0.196721 267.826 0.707445 268.695C1.21817 269.564 1.9915 270.249 2.91638 270.652L128.026 342.8C130.694 344.006 133.607 344.57 136.532 344.448C139.458 344.327 142.314 343.522 144.871 342.099L270.508 269.636C273.526 267.883 274.894 265.604 274.579 263.536C274.309 264.609 273.804 265.61 273.1 266.465C272.396 267.32 271.511 268.008 270.508 268.479Z" fill="#FD6B59"/>
<path d="M140.555 201.696C139.948 201.421 139.286 201.293 138.621 201.324C137.956 201.354 137.308 201.542 136.729 201.871L17.4099 270.583L11.2684 267.077C10.2858 266.516 10.4262 265.535 11.5492 264.868L136.835 192.791C137.434 192.492 138.095 192.336 138.765 192.336C139.435 192.336 140.096 192.492 140.695 192.791L263.524 263.641C264.506 264.237 264.401 265.219 263.243 265.885L257.453 269.391L140.555 201.696Z" fill="#44353B"/>
<path opacity="0.7" d="M263.173 265.71C264.331 265.043 264.436 264.062 263.453 263.466L140.589 192.51C139.99 192.211 139.329 192.055 138.659 192.055C137.989 192.055 137.328 192.211 136.729 192.51L11.4437 264.868C10.3207 265.534 10.1803 266.516 11.163 267.077L133.992 337.927C134.593 338.219 135.253 338.37 135.922 338.37C136.591 338.37 137.251 338.219 137.852 337.927L263.173 265.71Z" fill="#FD6B59"/>
<defs>
<linearGradient id="paint0_linear" x1="-289.712" y1="15107.9" x2="21190.3" y2="15107.9" gradientUnits="userSpaceOnUse">
<stop offset="0.99" stop-color="#473C53"/>
<stop offset="1" stop-color="#5761D7"/>
</linearGradient>
<linearGradient id="paint1_linear" x1="-247558" y1="381408" x2="-237566" y2="381408" gradientUnits="userSpaceOnUse">
<stop stop-color="#523E45"/>
<stop offset="0.22" stop-color="#37292E"/>
<stop offset="0.46" stop-color="#3A292F"/>
<stop offset="0.72" stop-color="#2B1E23"/>
<stop offset="1" stop-color="#2F2227"/>
</linearGradient>
<linearGradient id="paint2_linear" x1="-250237" y1="340743" x2="-239234" y2="340743" gradientUnits="userSpaceOnUse">
<stop stop-color="#BCBEFF"/>
<stop offset="0.17" stop-color="#B6B8FC"/>
<stop offset="0.4" stop-color="#A4A8F5"/>
<stop offset="0.66" stop-color="#868DEA"/>
<stop offset="0.96" stop-color="#5E67DA"/>
<stop offset="1" stop-color="#5761D7"/>
</linearGradient>
<linearGradient id="paint3_linear" x1="-289.712" y1="15067.9" x2="21190.3" y2="15067.9" gradientUnits="userSpaceOnUse">
<stop offset="0.99" stop-color="#473C53"/>
<stop offset="1" stop-color="#5761D7"/>
</linearGradient>
<linearGradient id="paint4_linear" x1="-247558" y1="381368" x2="-237566" y2="381368" gradientUnits="userSpaceOnUse">
<stop stop-color="#523E45"/>
<stop offset="0.22" stop-color="#37292E"/>
<stop offset="0.46" stop-color="#3A292F"/>
<stop offset="0.72" stop-color="#2B1E23"/>
<stop offset="1" stop-color="#2F2227"/>
</linearGradient>
<linearGradient id="paint5_linear" x1="-250237" y1="340703" x2="-239234" y2="340703" gradientUnits="userSpaceOnUse">
<stop stop-color="#BCBEFF"/>
<stop offset="0.17" stop-color="#B6B8FC"/>
<stop offset="0.4" stop-color="#A4A8F5"/>
<stop offset="0.66" stop-color="#868DEA"/>
<stop offset="0.96" stop-color="#5E67DA"/>
<stop offset="1" stop-color="#5761D7"/>
</linearGradient>
<linearGradient id="paint6_linear" x1="-289.712" y1="15027.9" x2="21190.3" y2="15027.9" gradientUnits="userSpaceOnUse">
<stop offset="0.99" stop-color="#473C53"/>
<stop offset="1" stop-color="#5761D7"/>
</linearGradient>
<linearGradient id="paint7_linear" x1="-247558" y1="381328" x2="-237566" y2="381328" gradientUnits="userSpaceOnUse">
<stop stop-color="#523E45"/>
<stop offset="0.22" stop-color="#37292E"/>
<stop offset="0.46" stop-color="#3A292F"/>
<stop offset="0.72" stop-color="#2B1E23"/>
<stop offset="1" stop-color="#2F2227"/>
</linearGradient>
<linearGradient id="paint8_linear" x1="-250237" y1="340663" x2="-239234" y2="340663" gradientUnits="userSpaceOnUse">
<stop stop-color="#BCBEFF"/>
<stop offset="0.17" stop-color="#B6B8FC"/>
<stop offset="0.4" stop-color="#A4A8F5"/>
<stop offset="0.66" stop-color="#868DEA"/>
<stop offset="0.96" stop-color="#5E67DA"/>
<stop offset="1" stop-color="#5761D7"/>
</linearGradient>
<linearGradient id="paint9_linear" x1="-289.712" y1="14987.9" x2="21190.3" y2="14987.9" gradientUnits="userSpaceOnUse">
<stop offset="0.99" stop-color="#473C53"/>
<stop offset="1" stop-color="#5761D7"/>
</linearGradient>
<linearGradient id="paint10_linear" x1="-247558" y1="381288" x2="-237566" y2="381288" gradientUnits="userSpaceOnUse">
<stop stop-color="#523E45"/>
<stop offset="0.22" stop-color="#37292E"/>
<stop offset="0.46" stop-color="#3A292F"/>
<stop offset="0.72" stop-color="#2B1E23"/>
<stop offset="1" stop-color="#2F2227"/>
</linearGradient>
<linearGradient id="paint11_linear" x1="-250237" y1="340623" x2="-239234" y2="340623" gradientUnits="userSpaceOnUse">
<stop stop-color="#BCBEFF"/>
<stop offset="0.17" stop-color="#B6B8FC"/>
<stop offset="0.4" stop-color="#A4A8F5"/>
<stop offset="0.66" stop-color="#868DEA"/>
<stop offset="0.96" stop-color="#5E67DA"/>
<stop offset="1" stop-color="#5761D7"/>
</linearGradient>
<linearGradient id="paint12_linear" x1="-449.688" y1="15201.6" x2="21030.3" y2="15201.6" gradientUnits="userSpaceOnUse">
<stop offset="0.99" stop-color="#473C53"/>
<stop offset="1" stop-color="#5761D7"/>
</linearGradient>
<linearGradient id="paint13_linear" x1="-247718" y1="381502" x2="-237726" y2="381502" gradientUnits="userSpaceOnUse">
<stop stop-color="#523E45"/>
<stop offset="0.22" stop-color="#37292E"/>
<stop offset="0.46" stop-color="#3A292F"/>
<stop offset="0.72" stop-color="#2B1E23"/>
<stop offset="1" stop-color="#2F2227"/>
</linearGradient>
<linearGradient id="paint14_linear" x1="-250397" y1="340836" x2="-239394" y2="340836" gradientUnits="userSpaceOnUse">
<stop stop-color="#BCBEFF"/>
<stop offset="0.17" stop-color="#B6B8FC"/>
<stop offset="0.4" stop-color="#A4A8F5"/>
<stop offset="0.66" stop-color="#868DEA"/>
<stop offset="0.96" stop-color="#5E67DA"/>
<stop offset="1" stop-color="#5761D7"/>
</linearGradient>
<linearGradient id="paint15_linear" x1="-449.688" y1="15161.6" x2="21030.3" y2="15161.6" gradientUnits="userSpaceOnUse">
<stop offset="0.99" stop-color="#473C53"/>
<stop offset="1" stop-color="#5761D7"/>
</linearGradient>
<linearGradient id="paint16_linear" x1="-247718" y1="381462" x2="-237726" y2="381462" gradientUnits="userSpaceOnUse">
<stop stop-color="#523E45"/>
<stop offset="0.22" stop-color="#37292E"/>
<stop offset="0.46" stop-color="#3A292F"/>
<stop offset="0.72" stop-color="#2B1E23"/>
<stop offset="1" stop-color="#2F2227"/>
</linearGradient>
<linearGradient id="paint17_linear" x1="-250397" y1="340796" x2="-239394" y2="340796" gradientUnits="userSpaceOnUse">
<stop stop-color="#BCBEFF"/>
<stop offset="0.17" stop-color="#B6B8FC"/>
<stop offset="0.4" stop-color="#A4A8F5"/>
<stop offset="0.66" stop-color="#868DEA"/>
<stop offset="0.96" stop-color="#5E67DA"/>
<stop offset="1" stop-color="#5761D7"/>
</linearGradient>
<linearGradient id="paint18_linear" x1="-449.688" y1="15121.6" x2="21030.3" y2="15121.6" gradientUnits="userSpaceOnUse">
<stop offset="0.99" stop-color="#473C53"/>
<stop offset="1" stop-color="#5761D7"/>
</linearGradient>
<linearGradient id="paint19_linear" x1="-247718" y1="381422" x2="-237726" y2="381422" gradientUnits="userSpaceOnUse">
<stop stop-color="#523E45"/>
<stop offset="0.22" stop-color="#37292E"/>
<stop offset="0.46" stop-color="#3A292F"/>
<stop offset="0.72" stop-color="#2B1E23"/>
<stop offset="1" stop-color="#2F2227"/>
</linearGradient>
<linearGradient id="paint20_linear" x1="-250397" y1="340756" x2="-239394" y2="340756" gradientUnits="userSpaceOnUse">
<stop stop-color="#BCBEFF"/>
<stop offset="0.17" stop-color="#B6B8FC"/>
<stop offset="0.4" stop-color="#A4A8F5"/>
<stop offset="0.66" stop-color="#868DEA"/>
<stop offset="0.96" stop-color="#5E67DA"/>
<stop offset="1" stop-color="#5761D7"/>
</linearGradient>
<linearGradient id="paint21_linear" x1="-449.688" y1="15081.6" x2="21030.3" y2="15081.6" gradientUnits="userSpaceOnUse">
<stop offset="0.99" stop-color="#473C53"/>
<stop offset="1" stop-color="#5761D7"/>
</linearGradient>
<linearGradient id="paint22_linear" x1="-247718" y1="381382" x2="-237726" y2="381382" gradientUnits="userSpaceOnUse">
<stop stop-color="#523E45"/>
<stop offset="0.22" stop-color="#37292E"/>
<stop offset="0.46" stop-color="#3A292F"/>
<stop offset="0.72" stop-color="#2B1E23"/>
<stop offset="1" stop-color="#2F2227"/>
</linearGradient>
<linearGradient id="paint23_linear" x1="-250397" y1="340716" x2="-239394" y2="340716" gradientUnits="userSpaceOnUse">
<stop stop-color="#BCBEFF"/>
<stop offset="0.17" stop-color="#B6B8FC"/>
<stop offset="0.4" stop-color="#A4A8F5"/>
<stop offset="0.66" stop-color="#868DEA"/>
<stop offset="0.96" stop-color="#5E67DA"/>
<stop offset="1" stop-color="#5761D7"/>
</linearGradient>
<linearGradient id="paint24_linear" x1="-606.688" y1="15295.6" x2="20873.3" y2="15295.6" gradientUnits="userSpaceOnUse">
<stop offset="0.99" stop-color="#473C53"/>
<stop offset="1" stop-color="#5761D7"/>
</linearGradient>
<linearGradient id="paint25_linear" x1="-247875" y1="381596" x2="-237883" y2="381596" gradientUnits="userSpaceOnUse">
<stop stop-color="#523E45"/>
<stop offset="0.22" stop-color="#37292E"/>
<stop offset="0.46" stop-color="#3A292F"/>
<stop offset="0.72" stop-color="#2B1E23"/>
<stop offset="1" stop-color="#2F2227"/>
</linearGradient>
<linearGradient id="paint26_linear" x1="-250554" y1="340930" x2="-239551" y2="340930" gradientUnits="userSpaceOnUse">
<stop stop-color="#BCBEFF"/>
<stop offset="0.17" stop-color="#B6B8FC"/>
<stop offset="0.4" stop-color="#A4A8F5"/>
<stop offset="0.66" stop-color="#868DEA"/>
<stop offset="0.96" stop-color="#5E67DA"/>
<stop offset="1" stop-color="#5761D7"/>
</linearGradient>
<linearGradient id="paint27_linear" x1="-606.688" y1="15255.6" x2="20873.3" y2="15255.6" gradientUnits="userSpaceOnUse">
<stop offset="0.99" stop-color="#473C53"/>
<stop offset="1" stop-color="#5761D7"/>
</linearGradient>
<linearGradient id="paint28_linear" x1="-247875" y1="381556" x2="-237883" y2="381556" gradientUnits="userSpaceOnUse">
<stop stop-color="#523E45"/>
<stop offset="0.22" stop-color="#37292E"/>
<stop offset="0.46" stop-color="#3A292F"/>
<stop offset="0.72" stop-color="#2B1E23"/>
<stop offset="1" stop-color="#2F2227"/>
</linearGradient>
<linearGradient id="paint29_linear" x1="-250554" y1="340890" x2="-239551" y2="340890" gradientUnits="userSpaceOnUse">
<stop stop-color="#BCBEFF"/>
<stop offset="0.17" stop-color="#B6B8FC"/>
<stop offset="0.4" stop-color="#A4A8F5"/>
<stop offset="0.66" stop-color="#868DEA"/>
<stop offset="0.96" stop-color="#5E67DA"/>
<stop offset="1" stop-color="#5761D7"/>
</linearGradient>
<linearGradient id="paint30_linear" x1="-606.688" y1="15215.6" x2="20873.3" y2="15215.6" gradientUnits="userSpaceOnUse">
<stop offset="0.99" stop-color="#473C53"/>
<stop offset="1" stop-color="#5761D7"/>
</linearGradient>
<linearGradient id="paint31_linear" x1="-247875" y1="381516" x2="-237883" y2="381516" gradientUnits="userSpaceOnUse">
<stop stop-color="#523E45"/>
<stop offset="0.22" stop-color="#37292E"/>
<stop offset="0.46" stop-color="#3A292F"/>
<stop offset="0.72" stop-color="#2B1E23"/>
<stop offset="1" stop-color="#2F2227"/>
</linearGradient>
<linearGradient id="paint32_linear" x1="-250554" y1="340850" x2="-239551" y2="340850" gradientUnits="userSpaceOnUse">
<stop stop-color="#BCBEFF"/>
<stop offset="0.17" stop-color="#B6B8FC"/>
<stop offset="0.4" stop-color="#A4A8F5"/>
<stop offset="0.66" stop-color="#868DEA"/>
<stop offset="0.96" stop-color="#5E67DA"/>
<stop offset="1" stop-color="#5761D7"/>
</linearGradient>
<linearGradient id="paint33_linear" x1="-606.688" y1="15175.6" x2="20873.3" y2="15175.6" gradientUnits="userSpaceOnUse">
<stop offset="0.99" stop-color="#473C53"/>
<stop offset="1" stop-color="#5761D7"/>
</linearGradient>
<linearGradient id="paint34_linear" x1="-247875" y1="381476" x2="-237883" y2="381476" gradientUnits="userSpaceOnUse">
<stop stop-color="#523E45"/>
<stop offset="0.22" stop-color="#37292E"/>
<stop offset="0.46" stop-color="#3A292F"/>
<stop offset="0.72" stop-color="#2B1E23"/>
<stop offset="1" stop-color="#2F2227"/>
</linearGradient>
<linearGradient id="paint35_linear" x1="-250554" y1="340810" x2="-239551" y2="340810" gradientUnits="userSpaceOnUse">
<stop stop-color="#BCBEFF"/>
<stop offset="0.17" stop-color="#B6B8FC"/>
<stop offset="0.4" stop-color="#A4A8F5"/>
<stop offset="0.66" stop-color="#868DEA"/>
<stop offset="0.96" stop-color="#5E67DA"/>
<stop offset="1" stop-color="#5761D7"/>
</linearGradient>
</defs>
</svg>
