<svg width="858" height="678" viewBox="0 0 858 678" fill="none" xmlns="http://www.w3.org/2000/svg">
<path d="M858 479.743L766.931 426.931L641.793 499.58L732.862 552.392L858 479.743Z" fill="#261D20"/>
<path d="M542.928 6.71192L534.273 1.7482L533.945 1.56571L533.726 1.43797C532.289 0.684052 530.685 0.30698 529.062 0.342089C527.44 0.377199 525.853 0.823335 524.451 1.6387L376.801 86.8249C375.332 87.6708 374.111 88.8886 373.262 90.3558C372.412 91.823 371.964 93.4878 371.963 95.1829V358.059C371.955 359.713 372.376 361.341 373.186 362.784C373.996 364.226 375.166 365.434 376.582 366.289H376.746H376.856L385.2 371.089L384.634 367.549L384.232 367.184C385.015 366.957 385.769 366.638 386.478 366.235L534.127 280.465C535.589 279.617 536.802 278.4 537.644 276.937C538.487 275.473 538.93 273.814 538.929 272.125V9.92373C538.929 9.79599 538.929 9.66825 538.929 9.52225L539.532 9.35801L542.928 6.71192Z" fill="#FFB5AC"/>
<path d="M548.167 15.307V277.727C548.166 279.415 547.723 281.074 546.88 282.538C546.038 284.001 544.826 285.218 543.366 286.067L395.716 371.837C394.246 372.685 392.579 373.132 390.882 373.133C389.185 373.134 387.518 372.688 386.047 371.841C384.577 370.995 383.355 369.776 382.504 368.309C381.654 366.841 381.204 365.175 381.201 363.479V100.493C381.201 98.7977 381.648 97.1321 382.497 95.6646C383.347 94.1971 384.569 92.9796 386.039 92.1351L533.689 6.94895C535.156 6.09813 536.821 5.64919 538.517 5.64747C540.213 5.64574 541.88 6.09128 543.349 6.9391C544.817 7.78693 546.036 9.00703 546.882 10.4762C547.728 11.9455 548.172 13.6118 548.167 15.307Z" fill="#FFF9F9"/>
<path opacity="0.3" d="M390.86 373.352C389.129 373.342 387.43 372.883 385.93 372.019C384.416 371.158 383.158 369.91 382.285 368.403C381.412 366.896 380.956 365.184 380.964 363.442V100.493C380.967 98.7585 381.426 97.055 382.294 95.5531C383.162 94.0511 384.41 92.8033 385.912 91.9344L533.58 6.74823C535.083 5.88495 536.787 5.4316 538.521 5.4336C540.254 5.4356 541.957 5.89286 543.458 6.75961C544.96 7.62635 546.207 8.87214 547.075 10.3722C547.943 11.8723 548.402 13.574 548.405 15.307V277.727C548.4 279.457 547.943 281.155 547.078 282.654C546.213 284.152 544.971 285.398 543.475 286.268L395.826 372.038C394.315 372.904 392.602 373.357 390.86 373.352ZM538.491 5.87227C536.835 5.8745 535.21 6.31528 533.78 7.1497L386.131 92.3359C384.701 93.1653 383.513 94.3551 382.687 95.7864C381.86 97.2177 381.424 98.8405 381.42 100.493V363.442C381.416 365.101 381.85 366.731 382.679 368.168C383.508 369.605 384.701 370.798 386.139 371.626C387.577 372.453 389.208 372.887 390.867 372.882C392.526 372.878 394.155 372.435 395.588 371.6L543.238 285.83C544.661 284.998 545.842 283.81 546.665 282.382C547.488 280.955 547.924 279.338 547.93 277.691V15.307C547.921 12.8077 546.923 10.4135 545.155 8.64626C543.387 6.87899 540.991 5.88189 538.491 5.87227Z" fill="#7594C4"/>
<path d="M534.602 44.6152V255.646L394.767 336.836V125.294L534.602 44.6152Z" fill="#3C2E33"/>
<path d="M453.21 118.159C460.367 118.159 465.406 124.564 465.716 135.824C466.154 152.138 456.46 172.522 444.063 181.336C440.987 183.757 437.237 185.166 433.327 185.369C426.17 185.369 421.131 178.982 420.821 167.723C420.382 151.39 430.077 131.006 442.474 122.21C445.549 119.785 449.299 118.37 453.21 118.159ZM453.21 117.246C449.108 117.459 445.17 118.924 441.926 121.443C429.329 130.404 419.451 151.171 419.908 167.759C420.218 179.201 425.385 186.3 433.327 186.3C437.428 186.08 441.364 184.616 444.61 182.103C457.19 173.143 467.086 152.375 466.629 135.787C466.319 124.345 461.152 117.246 453.21 117.246Z" fill="#FD6B59"/>
<path d="M440.63 157.119L446.144 153.196L445.888 144.181L440.393 148.104L440.63 157.119Z" fill="#F7B6C7"/>
<path d="M447.751 135.531C447.751 135.531 449.284 146.645 443.716 150.24C443.716 150.24 439.297 154.2 438.403 149.929C437.508 145.659 437.015 140.422 437.015 140.422C436.916 139.139 437.322 137.869 438.147 136.881C440.557 134.728 445.268 130.421 446.509 131.68C447.315 132.803 447.749 134.15 447.751 135.531Z" fill="#F7B6C7"/>
<path d="M442.986 138.889C442.986 138.889 440.74 141.808 439.59 142.082C438.44 142.356 438.914 140.476 437.764 142.703C437.559 143.288 437.478 143.909 437.527 144.528C437.527 145.257 435.555 140.549 437.381 136.443C438.412 133.945 439.884 131.652 441.726 129.673C442.584 128.724 444.099 127.848 444.793 129.509C444.793 129.509 447.404 127.228 448.445 128.523C449.485 129.819 449.723 130.731 449.467 133.998C449.132 135.925 448.606 137.814 447.897 139.637C447.696 139.345 448.08 137.812 447.313 137.721C446.546 137.629 446.363 137.064 446.875 135.567C447.386 134.071 445.962 133.998 445.688 133.888C445.414 133.779 445.104 133.888 444.775 134.783C444.529 136.279 443.914 137.69 442.986 138.889Z" fill="#231F20"/>
<path d="M438.786 155.752L447.787 149.328C452.717 145.824 456.916 148.251 457.044 154.803L457.336 165.971C454.054 171.992 449.529 177.249 444.063 181.392C439.024 185.041 434.313 186.1 430.479 185.041L430.169 173.891C430.004 167.358 433.857 159.256 438.786 155.752Z" fill="#1E4482"/>
<path d="M446.071 150.569L443.369 154.948L440.557 154.474L441.342 153.452L445.742 150.532L446.071 150.569Z" fill="#FAC5A6"/>
<path d="M443.935 152.084L444.117 153.908L446.381 149.967L446.034 149.146L443.935 152.084Z" fill="#BCBEC0"/>
<path d="M443.935 152.084L446.034 149.146L446.6 150.186L445.413 153.361L443.935 152.084Z" fill="#F1F2F2"/>
<path d="M442.693 152.959L442.62 154.966L440.228 154.346L440.52 153.05L442.693 152.959Z" fill="#BCBEC0"/>
<path d="M442.693 152.959L440.521 153.05L440.028 154.857L441.361 156.244L442.693 152.959Z" fill="#F1F2F2"/>
<path d="M444.921 152.959L443.369 156.243L441.78 155.222L442.383 153.652L444.19 152.356L444.921 152.959Z" fill="#3382BB"/>
<path d="M444.337 154.255L445.505 180.241C445.031 180.625 444.556 180.99 444.063 181.336C443.57 181.683 443.187 181.939 442.748 182.212L442.438 155.605L444.337 154.255Z" fill="#3382BB"/>
<path opacity="0.5" d="M488.173 207.943L488.009 207.633L502.688 199.11L502.871 199.402L488.173 207.943Z" fill="white"/>
<path opacity="0.5" d="M488.173 206.739L488.009 206.447L505.755 196.137L505.938 196.429L488.173 206.739Z" fill="white"/>
<path opacity="0.5" d="M488.173 209.038L488.009 208.746L499.31 202.177L499.493 202.469L488.173 209.038Z" fill="white"/>
<path opacity="0.5" d="M488.173 217.633L488.009 217.341L502.688 208.818L502.871 209.11L488.173 217.633Z" fill="white"/>
<path opacity="0.5" d="M488.173 216.447L488.009 216.155L505.755 205.845L505.938 206.137L488.173 216.447Z" fill="white"/>
<path opacity="0.5" d="M488.173 218.746L488.009 218.454L499.31 211.885L499.493 212.177L488.173 218.746Z" fill="white"/>
<path opacity="0.5" d="M488.173 227.342L488.009 227.05L502.688 218.527L502.871 218.819L488.173 227.342Z" fill="white"/>
<path opacity="0.5" d="M488.173 226.155L488.009 225.845L505.755 215.553L505.938 215.845L488.173 226.155Z" fill="white"/>
<path opacity="0.5" d="M488.173 228.454L488.009 228.162L499.31 221.593L499.493 221.885L488.173 228.454Z" fill="white"/>
<path opacity="0.5" d="M488.173 237.051L488.009 236.759L502.688 228.236L502.871 228.528L488.173 237.051Z" fill="white"/>
<path opacity="0.5" d="M488.173 235.864L488.009 235.572L505.755 225.262L505.938 225.554L488.173 235.864Z" fill="white"/>
<path opacity="0.5" d="M488.173 238.163L488.009 237.871L499.31 231.302L499.493 231.594L488.173 238.163Z" fill="white"/>
<path opacity="0.8" d="M475.813 259.752V197.706H475.941L514.848 175.113V237.16H514.72L475.813 259.752ZM476.306 197.997V258.876L514.337 236.795V176.062L476.306 197.997Z" fill="#FD6B59"/>
<path d="M480.487 211.994C480.487 213.819 481.692 214.476 483.061 213.49C483.803 212.876 484.401 212.107 484.815 211.237C485.228 210.367 485.446 209.417 485.453 208.454C485.453 206.629 484.266 205.972 482.879 206.939C482.137 207.558 481.539 208.331 481.126 209.203C480.713 210.076 480.495 211.028 480.487 211.994Z" fill="#FD6B59"/>
<path d="M480.487 222.56C480.487 224.385 481.692 225.042 483.061 224.075C483.803 223.456 484.4 222.683 484.813 221.81C485.226 220.938 485.445 219.985 485.453 219.02C485.453 217.195 484.266 216.538 482.879 217.524C482.137 218.138 481.538 218.907 481.125 219.777C480.712 220.647 480.494 221.597 480.487 222.56Z" fill="#FD6B59"/>
<path d="M480.487 232.689C480.487 234.514 481.692 235.171 483.061 234.186C483.803 233.571 484.401 232.802 484.815 231.932C485.228 231.062 485.446 230.112 485.453 229.149C485.453 227.324 484.266 226.667 482.879 227.652C482.137 228.267 481.538 229.036 481.125 229.906C480.712 230.776 480.494 231.726 480.487 232.689Z" fill="#FD6B59"/>
<path d="M480.487 242.835C480.487 244.66 481.692 245.317 483.061 244.331C483.803 243.717 484.401 242.947 484.815 242.077C485.228 241.207 485.446 240.257 485.453 239.294C485.453 237.47 484.266 236.813 482.879 237.798C482.137 238.413 481.538 239.182 481.125 240.052C480.712 240.922 480.494 241.872 480.487 242.835Z" fill="#FD6B59"/>
<path opacity="0.5" d="M460.567 217.469V215.462L420.802 238.547V240.554L460.567 217.469Z" fill="white"/>
<path opacity="0.5" d="M420.802 249.203L460.567 226.118V224.093L420.802 247.178V249.203Z" fill="white"/>
<path opacity="0.5" d="M420.802 257.836L460.567 234.769V232.743L420.802 255.828V257.836Z" fill="white"/>
<path opacity="0.5" d="M420.802 266.487L460.567 243.402V241.376L420.802 264.461V266.487Z" fill="white"/>
<path opacity="0.5" d="M420.802 275.118L460.567 252.051V250.025L420.802 273.11V275.118Z" fill="white"/>
<path opacity="0.5" d="M420.802 281.742V283.768L460.567 260.683V258.657L420.802 281.742Z" fill="white"/>
<path opacity="0.5" d="M448.791 276.158L447.915 274.661L420.802 290.392V292.399L448.791 276.158Z" fill="white"/>
<path opacity="0.5" d="M460.568 206.812L428.379 225.498V227.524L460.568 208.837V206.812Z" fill="white"/>
<path opacity="0.5" d="M508.238 104.308L484.978 117.739V121.772L508.238 108.341V104.308Z" fill="white"/>
<path opacity="0.5" d="M508.238 111.278L478.022 128.816V132.849L508.238 115.311V111.278Z" fill="white"/>
<path opacity="0.5" d="M478.022 139.82L504.642 124.399V120.366L478.022 135.787V139.82Z" fill="white"/>
<path d="M420.802 202.724V221.265L514.099 167.431V148.89L420.802 202.724Z" fill="#FD6B59"/>
<path d="M482.952 149.035L483.645 150.112L485.197 149.491L484.084 151.225L484.358 152.685H482.952L481.564 154.2L481.838 152.466L480.706 151.955L482.258 150.86L482.952 149.035Z" fill="#FAA619"/>
<path d="M489.324 145.403L490.018 146.462L491.569 145.86L490.456 147.593L490.711 149.035L489.324 149.053L487.936 150.568L488.21 148.816L487.078 148.305L488.63 147.228L489.324 145.403Z" fill="#FAA619"/>
<path d="M495.695 141.827L496.389 142.904L497.941 142.283L496.827 144.017L497.083 145.477H495.695L494.308 146.992L494.582 145.258L493.45 144.729L495.002 143.652L495.695 141.827Z" fill="#FAA619"/>
<path d="M502.067 137.885L502.761 138.961L504.331 138.341L503.199 140.075L503.455 141.535H502.086L500.698 143.049L500.954 141.316L499.822 140.786L501.374 139.71L502.067 137.885Z" fill="#FAA619"/>
<path d="M508.44 134.126L509.152 135.203L510.685 134.582L509.572 136.334L509.845 137.776L508.458 137.794L507.07 139.29L507.326 137.557L506.194 137.046L507.746 135.969L508.44 134.126Z" fill="white"/>
<path opacity="0.5" d="M430.589 202.541V205.424L504.313 162.996V160.112L430.589 202.541Z" fill="white"/>
<path opacity="0.5" d="M430.589 207.761V210.644L489.232 176.902V174.019L430.589 207.761Z" fill="white"/>
<path d="M231.799 226.484V423.281L355.166 351.654V155.295L231.799 226.484Z" fill="#99DCD8"/>
<path d="M234.848 228.236V425.033L358.233 353.406V157.047L234.848 228.236Z" fill="#3C2E33"/>
<path d="M234.848 228.236L231.799 226.484L355.166 155.295L358.233 157.047L234.848 228.236Z" fill="#5B4C52"/>
<path d="M234.848 228.236L231.799 226.484V423.281L234.848 425.033V228.236Z" fill="#241B1E"/>
<path d="M283.541 216.228C290.698 216.228 295.737 222.615 296.03 233.875C296.486 250.299 286.791 270.592 274.394 279.497C271.318 281.918 267.568 283.326 263.659 283.53C256.502 283.53 251.463 277.143 251.152 265.884C250.714 249.551 260.409 229.167 272.788 220.352C275.87 217.932 279.626 216.523 283.541 216.319V216.228ZM283.541 215.389C279.437 215.607 275.499 217.078 272.258 219.604C259.66 228.564 249.783 249.332 250.221 265.902C250.531 277.344 255.698 284.461 263.659 284.461C267.756 284.239 271.688 282.768 274.924 280.245C287.521 271.285 297.417 250.518 296.961 233.948C296.65 222.506 291.483 215.389 283.541 215.389Z" fill="#FD6B59"/>
<path d="M270.962 255.171L276.457 251.266L276.22 242.251L270.706 246.174L270.962 255.171Z" fill="#F7B6C7"/>
<path d="M278.082 233.51C278.082 233.51 279.616 244.642 274.047 248.219C274.047 248.219 269.629 252.179 268.734 247.909C268.111 244.765 267.648 241.591 267.346 238.401C267.293 237.768 267.365 237.131 267.559 236.526C267.754 235.922 268.066 235.362 268.478 234.879C270.888 232.725 275.599 228.4 276.822 229.678C277.637 230.79 278.078 232.132 278.082 233.51Z" fill="#F7B6C7"/>
<path d="M273.299 236.959C273.299 236.959 271.071 239.861 269.921 240.135C268.479 240.482 269.227 238.529 268.095 240.755C267.891 241.341 267.81 241.962 267.858 242.58C267.858 243.328 265.886 238.62 267.712 234.496C268.761 231.969 270.265 229.656 272.148 227.671C272.988 226.704 274.522 225.846 275.197 227.507C275.197 227.507 277.827 225.225 278.849 226.503C279.871 227.78 280.127 228.729 279.89 231.978C279.545 233.904 279.013 235.793 278.301 237.616C278.1 237.343 278.502 235.792 277.735 235.7C276.968 235.609 276.786 235.062 277.297 233.565C277.808 232.069 276.384 231.978 276.092 231.868C275.8 231.759 275.526 231.868 275.197 232.762C274.939 234.302 274.285 235.748 273.299 236.959Z" fill="#231F20"/>
<path d="M269.118 253.803L278.119 247.397C283.049 243.894 287.248 246.321 287.376 252.872L287.668 264.022C284.38 270.045 279.857 275.306 274.394 279.461C269.355 283.111 264.645 284.151 260.793 283.111L260.5 271.942C260.318 265.409 264.17 257.234 269.118 253.803Z" fill="#FAA619"/>
<path d="M276.384 248.621L273.7 253.001L270.889 252.544L271.674 251.522L276.074 248.603L276.384 248.621Z" fill="#FAC5A6"/>
<path d="M274.267 250.134L274.431 251.978L276.713 248.036L276.348 247.196L274.267 250.134Z" fill="#BCBEC0"/>
<path d="M274.267 250.134L276.348 247.196L276.932 248.236L275.727 251.412L274.267 250.134Z" fill="#F1F2F2"/>
<path d="M273.024 251.029L272.951 253.037L270.56 252.398L270.852 251.102L273.024 251.029Z" fill="#BCBEC0"/>
<path d="M273.025 251.029L270.852 251.102L270.359 252.927L271.674 254.296L273.025 251.029Z" fill="#F1F2F2"/>
<path d="M275.253 251.029L273.701 254.314L272.112 253.292L272.715 251.704L274.522 250.427L275.253 251.029Z" fill="#1E4482"/>
<path d="M274.668 252.325L275.837 278.312C275.362 278.695 274.869 279.06 274.394 279.407L273.08 280.283L272.77 253.676L274.668 252.325Z" fill="#1E4482"/>
<path opacity="0.8" d="M306.126 357.804V295.758H306.254L345.161 273.312V335.157H345.033L306.126 357.804ZM306.637 296.05V356.947L344.668 334.865V274.114L306.637 296.05Z" fill="#FD6B59"/>
<path d="M310.818 310.047C310.818 311.872 312.023 312.529 313.393 311.562C314.129 310.941 314.722 310.167 315.128 309.294C315.535 308.421 315.747 307.47 315.748 306.507C315.748 304.682 314.543 304.007 313.174 304.992C312.436 305.612 311.843 306.386 311.436 307.259C311.029 308.132 310.818 309.084 310.818 310.047Z" fill="#FD6B59"/>
<path d="M310.818 320.685C310.818 322.51 312.023 323.167 313.393 322.182C314.135 321.567 314.733 320.798 315.146 319.928C315.559 319.058 315.777 318.108 315.784 317.145C315.784 315.32 314.579 314.663 313.21 315.63C312.468 316.249 311.869 317.021 311.456 317.894C311.043 318.767 310.825 319.72 310.818 320.685Z" fill="#FD6B59"/>
<path d="M310.818 330.741C310.818 332.566 312.023 333.223 313.393 332.256C314.135 331.641 314.733 330.872 315.146 330.002C315.559 329.132 315.777 328.182 315.784 327.219C315.784 325.394 314.579 324.737 313.21 325.705C312.469 326.32 311.871 327.089 311.458 327.959C311.045 328.829 310.827 329.778 310.818 330.741Z" fill="#FD6B59"/>
<path d="M310.818 340.887C310.818 342.712 312.023 343.369 313.393 342.401C314.134 341.786 314.731 341.017 315.145 340.147C315.558 339.277 315.776 338.328 315.784 337.365C315.784 335.54 314.579 334.883 313.21 335.85C312.469 336.465 311.871 337.235 311.458 338.105C311.045 338.975 310.827 339.924 310.818 340.887Z" fill="#FD6B59"/>
<path opacity="0.5" d="M290.881 315.539V313.514L251.134 336.599V338.624L290.881 315.539Z" fill="white"/>
<path opacity="0.5" d="M251.134 347.256L290.881 324.171V322.164L251.134 345.249V347.256Z" fill="white"/>
<path opacity="0.5" d="M251.134 355.906L290.881 332.822V330.796L251.134 353.881V355.906Z" fill="white"/>
<path opacity="0.5" d="M251.134 364.538L290.881 341.471V339.445L251.134 362.53V364.538Z" fill="white"/>
<path opacity="0.5" d="M251.134 373.188L290.881 350.103V348.077L251.134 371.162V373.188Z" fill="white"/>
<path opacity="0.5" d="M251.134 379.812V381.82L290.881 358.753V356.728L251.134 379.812Z" fill="white"/>
<path opacity="0.5" d="M279.105 374.228L278.228 372.713L251.134 388.443V390.469L279.105 374.228Z" fill="white"/>
<path opacity="0.5" d="M290.881 304.882L258.711 323.569V325.576L290.881 306.889V304.882Z" fill="white"/>
<path opacity="0.5" d="M338.552 202.359L315.292 215.809V219.842L338.552 206.392V202.359Z" fill="white"/>
<path opacity="0.5" d="M338.552 209.349L308.354 226.868V230.901L338.552 213.382V209.349Z" fill="white"/>
<path opacity="0.5" d="M308.354 237.89L334.973 222.451V218.418L308.354 233.857V237.89Z" fill="white"/>
<path d="M251.134 300.776V319.317L344.43 265.482V246.941L251.134 300.776Z" fill="#FD6B59"/>
<path d="M313.283 247.087L313.977 248.164L315.529 247.543L314.415 249.295L314.67 250.737L313.283 250.755L311.895 252.27L312.169 250.518L311.037 250.007L312.589 248.93L313.283 247.087Z" fill="#FAA619"/>
<path d="M319.655 243.456L320.349 244.533L321.901 243.912L320.787 245.664L321.042 247.106H319.655L318.267 248.621L318.541 246.887L317.409 246.376L318.961 245.281L319.655 243.456Z" fill="#FAA619"/>
<path d="M326.026 239.879L326.72 240.956L328.272 240.335L327.158 242.087L327.414 243.529L326.026 243.547L324.639 245.043L324.913 243.31L323.781 242.799L325.333 241.722L326.026 239.879Z" fill="#FAA619"/>
<path d="M332.399 235.937L333.092 237.013L334.644 236.393L333.531 238.145L333.786 239.586L332.399 239.605L331.011 241.101L331.285 239.367L330.153 238.856L331.705 237.78L332.399 235.937Z" fill="#FAA619"/>
<path d="M338.771 232.196L339.464 233.255L341.016 232.653L339.903 234.386L340.158 235.846H338.771L337.383 237.361L337.657 235.627L336.525 235.098L338.077 234.021L338.771 232.196Z" fill="white"/>
<path opacity="0.5" d="M260.92 300.594V303.495L334.644 261.067V258.165L260.92 300.594Z" fill="white"/>
<path opacity="0.5" d="M260.92 305.831V308.714L319.564 274.972V272.07L260.92 305.831Z" fill="white"/>
<path d="M91.5254 305.593V502.39L214.911 430.763V234.404L91.5254 305.593Z" fill="#99DCD8"/>
<path d="M94.5928 307.345V504.142L217.96 432.515V236.156L94.5928 307.345Z" fill="#3C2E33"/>
<path d="M94.5927 307.345L91.5254 305.593L214.911 234.404L217.96 236.156L94.5927 307.345Z" fill="#5B4C52"/>
<path d="M94.5927 307.345L91.5254 305.593V502.39L94.5927 504.142V307.345Z" fill="#241B1E"/>
<path d="M178.249 385.104L178.066 384.812L192.764 376.271L192.928 376.582L178.249 385.104Z" fill="#7AA09E"/>
<path d="M178.249 383.9L178.066 383.608L195.813 373.297L195.995 373.607L178.249 383.9Z" fill="#7AA09E"/>
<path d="M178.249 386.217L178.066 385.907L189.368 379.337L189.55 379.647L178.249 386.217Z" fill="#7AA09E"/>
<path d="M178.249 394.812L178.066 394.52L192.764 385.979L192.928 386.29L178.249 394.812Z" fill="#7AA09E"/>
<path d="M178.249 393.608L178.066 393.316L195.813 383.005L195.995 383.315L178.249 393.608Z" fill="#7AA09E"/>
<path d="M178.249 395.907L178.066 395.615L189.368 389.045L189.55 389.355L178.249 395.907Z" fill="#7AA09E"/>
<path d="M178.249 404.521L178.066 404.229L192.764 395.688L192.928 395.98L178.249 404.521Z" fill="#7AA09E"/>
<path d="M178.249 403.316L178.066 403.025L195.813 392.714L195.995 393.024L178.249 403.316Z" fill="#7AA09E"/>
<path d="M178.249 405.616L178.066 405.324L189.368 398.754L189.55 399.064L178.249 405.616Z" fill="#7AA09E"/>
<path d="M178.249 414.23L178.066 413.938L192.764 405.397L192.928 405.689L178.249 414.23Z" fill="#7AA09E"/>
<path d="M178.249 413.025L178.066 412.734L195.813 402.423L195.995 402.733L178.249 413.025Z" fill="#7AA09E"/>
<path d="M178.249 415.325L178.066 415.033L189.368 408.463L189.55 408.755L178.249 415.325Z" fill="#7AA09E"/>
<path opacity="0.8" d="M165.871 436.913V374.866H165.998L204.905 352.42V414.32H204.778L165.871 436.913ZM166.382 375.158V436.073L204.376 413.974V353.223L166.382 375.158Z" fill="#FD6B59"/>
<path d="M170.544 389.155C170.544 390.98 171.749 391.637 173.119 390.67C173.864 390.052 174.465 389.281 174.881 388.408C175.297 387.535 175.518 386.582 175.529 385.615C175.529 383.79 174.324 383.133 172.954 384.118C172.213 384.734 171.614 385.504 171.198 386.373C170.782 387.242 170.559 388.191 170.544 389.155Z" fill="#FD6B59"/>
<path d="M170.544 399.776C170.544 401.601 171.749 402.277 173.119 401.291C173.863 400.678 174.464 399.909 174.881 399.039C175.297 398.169 175.518 397.219 175.529 396.254C175.529 394.43 174.324 393.773 172.954 394.74C172.215 395.357 171.617 396.127 171.201 396.996C170.785 397.865 170.561 398.813 170.544 399.776Z" fill="#FD6B59"/>
<path d="M170.544 409.85C170.544 411.675 171.749 412.332 173.119 411.364C173.862 410.75 174.463 409.981 174.879 409.111C175.295 408.242 175.517 407.292 175.529 406.328C175.529 404.503 174.324 403.846 172.954 404.813C172.215 405.431 171.617 406.2 171.201 407.069C170.785 407.938 170.561 408.887 170.544 409.85Z" fill="#FD6B59"/>
<path d="M170.544 419.996C170.544 421.821 171.749 422.478 173.119 421.511C173.862 420.896 174.463 420.128 174.879 419.258C175.295 418.388 175.517 417.438 175.529 416.474C175.529 414.649 174.324 413.992 172.954 414.959C172.215 415.577 171.617 416.347 171.201 417.216C170.785 418.085 170.561 419.033 170.544 419.996Z" fill="#FD6B59"/>
<path opacity="0.5" d="M150.625 394.649V392.623L110.878 415.708V417.734L150.625 394.649Z" fill="white"/>
<path opacity="0.5" d="M110.878 426.366L150.625 403.281V401.273L110.878 424.358V426.366Z" fill="white"/>
<path opacity="0.5" d="M110.878 435.015L150.625 411.93V409.904L110.878 432.989V435.015Z" fill="white"/>
<path opacity="0.5" d="M110.878 443.647L150.625 420.562V418.555L110.878 441.64V443.647Z" fill="white"/>
<path opacity="0.5" d="M110.878 452.296L150.625 429.211V427.186L110.878 450.27V452.296Z" fill="white"/>
<path opacity="0.5" d="M110.878 458.921V460.928L150.625 437.843V435.836L110.878 458.921Z" fill="white"/>
<path opacity="0.5" d="M150.625 383.99L118.437 402.677V404.685L150.625 385.998V383.99Z" fill="white"/>
<g opacity="0.5">
<path opacity="0.5" d="M198.296 281.469L175.036 294.918V298.951L198.296 285.502V281.469Z" fill="white"/>
<path opacity="0.5" d="M198.296 288.458L168.098 305.977V310.01L198.296 292.491V288.458Z" fill="white"/>
<path opacity="0.5" d="M168.098 316.999L194.7 301.56V297.527L168.098 312.966V316.999Z" fill="white"/>
</g>
<path d="M110.878 379.884V398.425L204.175 344.591V326.05L110.878 379.884Z" fill="#FD6B59"/>
<path d="M173.027 326.196L173.721 327.273L175.273 326.653L174.141 328.404L174.415 329.846L173.027 329.864L171.64 331.379L171.895 329.627L170.782 329.116L172.334 328.039L173.027 326.196Z" fill="#FAA619"/>
<path d="M179.4 322.564L180.093 323.641L181.645 323.021L180.513 324.754L180.787 326.214H179.4L178.012 327.729L178.268 325.995L177.154 325.484L178.706 324.389L179.4 322.564Z" fill="#FAA619"/>
<path d="M185.771 318.988L186.465 320.065L188.017 319.445L186.885 321.196L187.159 322.638L185.771 322.656L184.384 324.153L184.639 322.419L183.525 321.908L185.077 320.831L185.771 318.988Z" fill="#FAA619"/>
<path d="M192.143 315.046L192.837 316.123L194.389 315.502L193.257 317.254L193.531 318.696L192.143 318.714L190.756 320.21L191.011 318.477L189.897 317.966L191.449 316.889L192.143 315.046Z" fill="#FAA619"/>
<path d="M198.515 311.305L199.209 312.381L200.761 311.761L199.629 313.495L199.903 314.954H198.515L197.128 316.469L197.383 314.736L196.27 314.206L197.821 313.13L198.515 311.305Z" fill="white"/>
<path opacity="0.5" d="M120.665 379.721V382.604L194.389 340.175V337.273L120.665 379.721Z" fill="white"/>
<path opacity="0.5" d="M120.665 384.94V387.824L179.308 354.081V351.18L120.665 384.94Z" fill="white"/>
<path d="M853.235 206.373V403.188L729.85 331.561V135.202L853.235 206.373Z" fill="#99DCD8"/>
<path d="M850.168 208.125V404.922L726.801 333.295V136.954L850.168 208.125Z" fill="#3C2E33"/>
<path d="M850.168 208.125L853.235 206.373L729.85 135.202L726.801 136.954L850.168 208.125Z" fill="#53444A"/>
<path d="M850.168 208.125L853.235 206.373V403.188L850.168 404.922V208.125Z" fill="#241B1E"/>
<path d="M756.67 169.784C760.581 169.98 764.334 171.389 767.406 173.817C779.803 182.631 789.498 203.016 789.059 219.33C788.749 230.59 783.71 236.995 776.553 236.995C772.642 236.784 768.892 235.369 765.817 232.944C753.421 224.148 743.726 203.746 744.164 187.431C744.474 176.171 749.513 169.784 756.67 169.784ZM756.67 168.854C748.692 168.854 743.543 175.952 743.251 187.394C742.795 203.983 752.672 224.75 765.27 233.71C768.513 236.23 772.451 237.695 776.553 237.908C784.532 237.908 789.662 230.809 789.972 219.367C790.429 202.778 780.533 182.011 767.935 173.051C764.697 170.535 760.766 169.07 756.67 168.854Z" fill="#8DD7F7"/>
<path d="M769.232 208.728L763.736 204.804L763.974 195.789L769.487 199.713L769.232 208.728Z" fill="#FAC5A6"/>
<path d="M762.129 187.14C762.129 187.14 760.596 198.253 766.164 201.849C766.164 201.849 770.583 205.809 771.477 201.538C772.372 197.268 772.865 192.031 772.865 192.031C772.965 190.748 772.558 189.477 771.733 188.49C769.305 186.337 764.613 182.03 763.371 183.308C762.565 184.423 762.13 185.764 762.129 187.14Z" fill="#FAC5A6"/>
<path d="M766.895 190.516C766.895 190.516 769.141 193.418 770.273 193.691C771.715 194.038 770.966 192.085 772.098 194.312C772.318 194.894 772.405 195.517 772.354 196.137C772.354 196.867 774.326 192.158 772.5 188.052C771.441 185.525 769.939 183.207 768.063 181.209C767.205 180.26 765.69 179.384 764.996 181.045C764.996 181.045 762.385 178.764 761.345 180.059C760.304 181.355 760.066 182.267 760.322 185.534C760.655 187.461 761.181 189.351 761.892 191.173C762.093 190.899 761.71 189.348 762.458 189.257C763.207 189.166 763.426 188.6 762.896 187.103C762.367 185.607 763.809 185.534 764.101 185.424C764.394 185.315 764.686 185.424 765.014 186.319C765.266 187.857 765.914 189.304 766.895 190.516Z" fill="#231F20"/>
<path d="M771.094 207.359L762.075 200.954C757.145 197.432 752.946 199.859 752.836 206.429L752.544 217.597C755.826 223.618 760.351 228.874 765.817 233.017C770.856 236.667 775.567 237.726 779.401 236.667L779.711 225.499C779.876 218.911 776.023 210.863 771.094 207.359Z" fill="#40C7F4"/>
<path d="M763.809 202.177L766.493 206.557L769.305 206.082L768.52 205.06L764.138 202.141L763.809 202.177Z" fill="#FAC5A6"/>
<path d="M765.927 203.692L765.763 205.517L763.48 201.575L763.846 200.754L765.927 203.692Z" fill="#BCBEC0"/>
<path d="M765.927 203.692L763.846 200.754L763.261 201.794L764.466 204.969L765.927 203.692Z" fill="#F1F2F2"/>
<path d="M767.168 204.567L767.242 206.575L769.633 205.954L769.341 204.659L767.168 204.567Z" fill="#BCBEC0"/>
<path d="M767.168 204.567L769.341 204.659L769.834 206.465L768.519 207.852L767.168 204.567Z" fill="#F1F2F2"/>
<path d="M764.941 204.567L766.493 207.852L768.081 206.83L767.479 205.261L765.671 203.965L764.941 204.567Z" fill="#FAA619"/>
<path d="M765.544 205.863L764.375 231.868C764.85 232.233 765.324 232.616 765.817 232.945C766.31 233.273 766.694 233.547 767.132 233.839L767.442 207.214L765.544 205.863Z" fill="#FAA619"/>
<g opacity="0.5">
<path opacity="0.5" d="M815.223 223.948L838.41 237.325V241.358L815.223 227.981V223.948Z" fill="white"/>
<path opacity="0.5" d="M808.212 226.831L838.41 244.368V248.401L808.212 230.864V226.831Z" fill="white"/>
<path opacity="0.5" d="M838.41 255.373L808.212 237.927V233.894L838.41 251.34V255.373Z" fill="white"/>
</g>
<path d="M833.9 280.684V299.207L740.585 245.391V226.85L833.9 280.684Z" fill="#FD6B59"/>
<path d="M833.809 264.041L833.115 265.118L831.563 264.497L832.677 266.249L832.421 267.691L833.809 267.709L835.196 269.224L834.941 267.472L836.054 266.961L834.503 265.884L833.809 264.041Z" fill="white"/>
<path d="M827.437 260.409L826.743 261.486L825.191 260.865L826.305 262.599L826.049 264.059H827.437L828.824 265.574L828.55 263.84L829.682 263.329L828.13 262.234L827.437 260.409Z" fill="#FAA619"/>
<path d="M821.065 256.832L820.371 257.909L818.819 257.288L819.933 259.04L819.677 260.482H821.065L822.453 261.997L822.179 260.263L823.311 259.752L821.759 258.675L821.065 256.832Z" fill="#FAA619"/>
<path d="M814.693 252.891L813.999 253.967L812.447 253.347L813.561 255.099L813.305 256.54L814.693 256.559L816.081 258.055L815.807 256.321L816.939 255.81L815.387 254.734L814.693 252.891Z" fill="#FAA619"/>
<path d="M808.321 249.149L807.627 250.226L806.075 249.606L807.189 251.339L806.933 252.799H808.321L809.708 254.314L809.435 252.58L810.567 252.051L809.015 250.974L808.321 249.149Z" fill="#FAA619"/>
<path opacity="0.5" d="M824.096 280.501V283.384L750.372 240.956V238.072L824.096 280.501Z" fill="white"/>
<path opacity="0.5" d="M809.033 277.398V280.282L750.372 246.539V243.638L809.033 277.398Z" fill="white"/>
<path opacity="0.5" d="M743.616 273.383V271.376L783.363 294.461V296.468L743.616 273.383Z" fill="white"/>
<path opacity="0.5" d="M783.363 305.119L743.616 282.034V280.009L783.363 303.094V305.119Z" fill="white"/>
<path opacity="0.5" d="M783.363 313.751L743.616 290.666V288.658L783.363 311.743V313.751Z" fill="white"/>
<path opacity="0.5" d="M783.363 322.401L743.616 299.316V297.29L783.363 320.375V322.401Z" fill="white"/>
<path opacity="0.5" d="M783.363 331.033L743.616 307.948V305.94L783.363 329.025V331.033Z" fill="white"/>
<path opacity="0.5" d="M783.363 337.656V339.682L743.616 316.597V314.571L783.363 337.656Z" fill="white"/>
<path opacity="0.5" d="M758.861 271.613L783.363 285.92V287.928L758.861 273.621V271.613Z" fill="white"/>
<path opacity="0.5" d="M768.885 337.912L743.616 323.222V325.229L768.885 339.938V337.912Z" fill="white"/>
<path opacity="0.8" d="M831.964 374.136L831.581 373.917L792.93 351.489V289.589L831.964 312.108V374.136ZM793.441 351.197L831.471 373.279V312.4L793.441 290.501V351.197Z" fill="#FD6B59"/>
<path d="M805.053 313.02C805.053 314.845 803.866 315.502 802.479 314.517C801.737 313.902 801.138 313.133 800.725 312.263C800.312 311.393 800.094 310.443 800.087 309.48C800.087 307.655 801.292 306.998 802.661 307.984C803.403 308.598 804.002 309.367 804.415 310.237C804.828 311.107 805.046 312.057 805.053 313.02Z" fill="#FD6B59"/>
<path d="M805.053 324.044C805.053 325.869 803.866 326.526 802.479 325.54C801.737 324.926 801.138 324.156 800.725 323.286C800.312 322.416 800.094 321.467 800.087 320.503C800.087 318.679 801.292 318.022 802.661 318.989C803.403 319.608 804 320.38 804.413 321.253C804.826 322.126 805.045 323.078 805.053 324.044Z" fill="#FD6B59"/>
<path d="M805.053 334.39C805.053 336.215 803.866 336.872 802.479 335.887C801.737 335.272 801.138 334.503 800.725 333.633C800.312 332.763 800.094 331.813 800.087 330.85C800.087 329.025 801.292 328.368 802.661 329.335C803.404 329.954 804.002 330.726 804.415 331.599C804.828 332.472 805.046 333.425 805.053 334.39Z" fill="#FD6B59"/>
<path d="M805.053 344.19C805.053 346.015 803.866 346.672 802.479 345.687C801.737 345.072 801.138 344.303 800.725 343.433C800.312 342.563 800.094 341.613 800.087 340.65C800.087 338.825 801.292 338.168 802.661 339.135C803.404 339.753 804.002 340.526 804.415 341.399C804.828 342.272 805.046 343.225 805.053 344.19Z" fill="#FD6B59"/>
<path opacity="0.5" d="M808.12 314.043V314.444L822.197 322.62V322.218L808.12 314.043Z" fill="white"/>
<path opacity="0.5" d="M808.12 312.692V313.094L825.282 323.058V322.656L808.12 312.692Z" fill="white"/>
<path opacity="0.5" d="M808.12 315.248V315.631L818.801 321.836V321.453L808.12 315.248Z" fill="white"/>
<path opacity="0.5" d="M808.12 324.408V324.81L822.197 332.985V332.584L808.12 324.408Z" fill="white"/>
<path opacity="0.5" d="M808.12 323.058V323.459L825.282 333.423V333.022L808.12 323.058Z" fill="white"/>
<path opacity="0.5" d="M808.12 325.613V325.997L818.801 332.201V331.818L808.12 325.613Z" fill="white"/>
<path opacity="0.5" d="M808.12 335.23V335.632L822.197 343.807V343.424L808.12 335.23Z" fill="white"/>
<path opacity="0.5" d="M808.12 333.898V334.3L825.282 344.264V343.862L808.12 333.898Z" fill="white"/>
<path opacity="0.5" d="M808.12 336.435V336.836L818.801 343.041V342.639L808.12 336.435Z" fill="white"/>
<path opacity="0.5" d="M808.12 345.157V345.559L822.197 353.734V353.333L808.12 345.157Z" fill="white"/>
<path opacity="0.5" d="M808.12 343.807V344.208L825.282 354.19V353.789L808.12 343.807Z" fill="white"/>
<path opacity="0.5" d="M808.12 346.362V346.764L818.801 352.968V352.567L808.12 346.362Z" fill="white"/>
<path d="M708.105 116.735V313.532L584.738 241.905V45.5645L708.105 116.735Z" fill="#99DCD8"/>
<path d="M705.056 118.487V315.284L581.67 243.657V47.2979L705.056 118.487Z" fill="#3C2E33"/>
<path d="M705.056 118.487L708.105 116.735L584.738 45.5645L581.67 47.2981L705.056 118.487Z" fill="#53444A"/>
<path d="M705.056 118.487L708.105 116.735V313.532L705.056 315.284V118.487Z" fill="#241B1E"/>
<path opacity="0.5" d="M670.092 134.309L693.297 147.685V151.718L670.092 138.342V134.309Z" fill="white"/>
<path opacity="0.5" d="M663.081 137.192L693.297 154.73V158.763L663.081 141.225V137.192Z" fill="white"/>
<path opacity="0.5" d="M693.297 165.734L663.081 148.288V144.255L693.297 161.701V165.734Z" fill="white"/>
<path d="M688.77 191.026V209.567L595.473 155.751V137.21L688.77 191.026Z" fill="#FD6B59"/>
<path d="M688.679 174.401L687.985 175.478L686.433 174.858L687.565 176.609L687.291 178.051L688.679 178.069L690.066 179.566L689.811 177.832L690.924 177.321L689.373 176.245L688.679 174.401Z" fill="white"/>
<path d="M682.307 170.77L681.613 171.846L680.061 171.226L681.193 172.959L680.919 174.419H682.307L683.694 175.934L683.439 174.2L684.552 173.689L683.001 172.594L682.307 170.77Z" fill="white"/>
<path d="M675.935 167.193L675.241 168.27L673.689 167.65L674.821 169.401L674.547 170.843H675.935L677.322 172.358L677.067 170.624L678.18 170.113L676.628 169.018L675.935 167.193Z" fill="#FAA619"/>
<path d="M669.563 163.251L668.869 164.328L667.317 163.707L668.449 165.459L668.175 166.901H669.563L670.951 168.415L670.695 166.682L671.809 166.171L670.257 165.076L669.563 163.251Z" fill="#FAA619"/>
<path d="M663.191 159.511L662.497 160.569L660.945 159.949L662.077 161.701L661.803 163.142L663.191 163.161L664.579 164.675L664.323 162.942L665.437 162.412L663.885 161.336L663.191 159.511Z" fill="#FAA619"/>
<path opacity="0.5" d="M678.984 190.862V193.746L605.259 151.317V148.434L678.984 190.862Z" fill="white"/>
<path opacity="0.5" d="M663.903 187.761V190.644L605.259 156.902V154L663.903 187.761Z" fill="white"/>
<path opacity="0.5" d="M598.485 183.746V181.738L638.25 204.805V206.831L598.485 183.746Z" fill="white"/>
<path opacity="0.5" d="M638.25 215.481L598.485 192.396V190.37L638.25 213.455V215.481Z" fill="white"/>
<path opacity="0.5" d="M638.25 224.112L598.485 201.027V199.02L638.25 222.104V224.112Z" fill="white"/>
<path opacity="0.5" d="M638.25 232.763L598.485 209.678V207.652L638.25 230.737V232.763Z" fill="white"/>
<path opacity="0.5" d="M638.25 241.394L598.485 218.309V216.302L638.25 239.387V241.394Z" fill="white"/>
<path opacity="0.5" d="M638.25 248.019V250.044L598.485 226.959V224.934L638.25 248.019Z" fill="white"/>
<path opacity="0.5" d="M613.73 181.976L638.25 196.283V198.29L613.73 183.983V181.976Z" fill="white"/>
<path opacity="0.5" d="M623.754 248.274L598.485 233.584V235.591L623.754 250.3V248.274Z" fill="white"/>
<path opacity="0.8" d="M686.834 284.498L686.469 284.279L647.818 261.851V199.95L686.834 222.561V284.498ZM648.311 261.559L686.378 283.64V222.743L648.347 200.844L648.311 261.559Z" fill="#FD6B59"/>
<path d="M659.959 223.382C659.959 225.207 658.754 225.864 657.385 224.878C656.643 224.264 656.045 223.494 655.631 222.624C655.218 221.754 655 220.804 654.993 219.841C654.993 218.016 656.18 217.359 657.549 218.327C658.293 218.945 658.894 219.717 659.31 220.59C659.726 221.462 659.948 222.415 659.959 223.382Z" fill="#FD6B59"/>
<path d="M659.959 234.404C659.959 236.229 658.754 236.886 657.385 235.901C656.643 235.286 656.045 234.517 655.631 233.647C655.218 232.777 655 231.827 654.993 230.864C654.993 229.039 656.18 228.382 657.549 229.349C658.294 229.966 658.895 230.738 659.312 231.611C659.728 232.484 659.949 233.437 659.959 234.404Z" fill="#FD6B59"/>
<path d="M659.959 244.733C659.959 246.558 658.754 247.234 657.385 246.248C656.643 245.634 656.045 244.864 655.631 243.994C655.218 243.124 655 242.175 654.993 241.211C654.993 239.387 656.18 238.73 657.549 239.697C658.293 240.311 658.893 241.08 659.309 241.95C659.726 242.82 659.947 243.769 659.959 244.733Z" fill="#FD6B59"/>
<path d="M659.959 254.533C659.959 256.358 658.754 257.033 657.385 256.048C656.643 255.433 656.045 254.664 655.631 253.794C655.218 252.924 655 251.974 654.993 251.011C654.993 249.186 656.18 248.529 657.549 249.497C658.293 250.111 658.893 250.88 659.309 251.75C659.726 252.619 659.947 253.569 659.959 254.533Z" fill="#FD6B59"/>
<path opacity="0.5" d="M662.99 224.404V224.788L677.085 232.981V232.58L662.99 224.404Z" fill="white"/>
<path opacity="0.5" d="M662.99 223.054V223.455L680.152 233.419V233.018L662.99 223.054Z" fill="white"/>
<path opacity="0.5" d="M662.99 225.608V225.992L673.671 232.196V231.795L662.99 225.608Z" fill="white"/>
<path opacity="0.5" d="M662.99 234.77V235.153L677.085 243.347V242.945L662.99 234.77Z" fill="white"/>
<path opacity="0.5" d="M662.99 233.419V233.82L680.152 243.784V243.383L662.99 233.419Z" fill="white"/>
<path opacity="0.5" d="M662.99 235.974V236.357L673.671 242.562V242.16L662.99 235.974Z" fill="white"/>
<path opacity="0.5" d="M662.99 245.592V245.993L677.085 254.169V253.786L662.99 245.592Z" fill="white"/>
<path opacity="0.5" d="M662.99 244.259V244.642L680.152 254.624V254.223L662.99 244.259Z" fill="white"/>
<path opacity="0.5" d="M662.99 246.795V247.196L673.671 253.401V253L662.99 246.795Z" fill="white"/>
<path opacity="0.5" d="M662.99 255.519V255.92L677.085 264.096V263.694L662.99 255.519Z" fill="white"/>
<path opacity="0.5" d="M662.99 254.168V254.569L680.152 264.533V264.15L662.99 254.168Z" fill="white"/>
<path opacity="0.5" d="M662.99 256.723V257.124L673.671 263.329V262.927L662.99 256.723Z" fill="white"/>
<path d="M855.572 476.878L764.503 424.065L639.365 496.715L730.434 549.527L855.572 476.878Z" fill="#3E3035"/>
<path d="M851.263 472.881L760.194 420.087L635.074 492.736L726.143 545.53L851.263 472.881Z" fill="#FD6B59"/>
<path d="M851.263 472.882L790.355 437.57L665.235 510.219L726.143 545.531L851.263 472.882Z" fill="#FD6B59"/>
<path opacity="0.5" d="M773.577 453.684L772.28 454.432L808.869 475.655L810.183 474.889L773.577 453.684Z" fill="white"/>
<path opacity="0.5" d="M770.035 455.728L768.738 456.494L805.345 477.699L806.641 476.951L770.035 455.728Z" fill="white"/>
<path opacity="0.5" d="M766.566 457.754L765.27 458.502L794.445 475.419L795.742 474.671L766.566 457.754Z" fill="white"/>
<path opacity="0.5" d="M749.075 467.771L747.778 468.52L784.367 489.743L785.681 488.995L749.075 467.771Z" fill="white"/>
<path opacity="0.5" d="M745.551 469.815L744.236 470.582L780.843 491.805L782.139 491.039L745.551 469.815Z" fill="white"/>
<path opacity="0.5" d="M742.064 471.842L740.768 472.59L769.943 489.507L771.258 488.759L742.064 471.842Z" fill="white"/>
<path opacity="0.5" d="M725.87 481.094L724.573 481.842L761.18 503.065L762.476 502.299L725.87 481.094Z" fill="white"/>
<path opacity="0.5" d="M722.346 483.138L721.031 483.886L757.638 505.109L758.934 504.361L722.346 483.138Z" fill="white"/>
<path opacity="0.5" d="M718.877 485.145L717.562 485.911L746.738 502.828L748.052 502.08L718.877 485.145Z" fill="white"/>
<path opacity="0.5" d="M702.518 494.817L701.203 495.584L737.81 516.789L739.106 516.041L702.518 494.817Z" fill="white"/>
<path opacity="0.5" d="M698.976 496.879L697.68 497.627L734.268 518.851L735.564 518.084L698.976 496.879Z" fill="white"/>
<path opacity="0.5" d="M695.507 498.887L694.192 499.635L723.368 516.57L724.683 515.804L695.507 498.887Z" fill="white"/>
<path d="M851.647 523.888V535.695L848.999 541.169L845.22 542.283L842.591 538.268L844.599 531.425C844.599 531.425 845.877 529.07 846.425 528.961C846.973 528.851 851.647 523.888 851.647 523.888Z" fill="#1E4482"/>
<path d="M732.46 527.428V538.049L737.755 544.199L738.723 540.275L737.974 534.855L736.349 532.027L732.46 527.428Z" fill="#1E4482"/>
<path d="M849.419 525.914C845.944 519.314 840.554 513.919 833.955 510.438C835.806 512.335 837.341 514.516 838.501 516.899C845.713 532.155 830.741 548.342 805.089 553.086C779.437 557.831 752.799 549.272 745.588 534.016C741.936 526.297 743.981 518.34 750.188 511.752C735.272 520.877 728.608 534.217 734.669 547.064C743.579 565.915 776.48 576.445 808.157 570.605C839.834 564.766 858.31 544.765 849.419 525.914Z" fill="#2B2024"/>
<path opacity="0.8" d="M833.955 510.438C823.237 499.361 800.762 493.832 778.999 497.828C766.219 500.164 756.25 505.31 750.188 511.752C758.132 507.1 766.855 503.928 775.932 502.39C797.293 498.449 819.202 501.971 833.955 510.438Z" fill="#8DD7F7"/>
<path opacity="0.9" d="M745.587 534.016C752.891 549.272 779.437 557.739 805.089 553.086C830.741 548.432 845.712 532.154 838.501 516.898C837.341 514.516 835.806 512.334 833.955 510.438C819.202 501.971 797.293 498.449 775.932 502.39C766.855 503.928 758.132 507.1 750.188 511.752C743.981 518.34 741.936 526.297 745.587 534.016Z" fill="#8DD7F7"/>
<path d="M849.419 514.891C840.509 496.04 807.609 485.51 775.932 491.35C744.255 497.189 725.778 517.19 734.669 536.023C743.561 554.856 776.479 565.404 808.156 559.564C839.833 553.725 858.31 533.724 849.419 514.891ZM805.053 553.086C779.492 557.812 752.763 549.272 745.551 534.016C738.339 518.76 753.311 502.573 778.963 497.828C804.615 493.083 831.252 501.642 838.464 516.898C845.676 532.154 830.741 548.341 805.053 553.086Z" fill="#3C2E33"/>
<g opacity="0.8">
<path style="mix-blend-mode:screen" opacity="0.8" d="M838.501 516.898C831.197 501.642 804.651 493.175 778.999 497.828C776.173 498.35 773.381 499.039 770.637 499.89C770.308 503.174 770.895 506.484 772.335 509.453C779.547 524.709 806.184 533.177 831.836 528.505C834.666 528.001 837.459 527.312 840.199 526.443C840.526 523.166 839.938 519.862 838.501 516.898Z" fill="url(#paint0_linear)"/>
</g>
<path d="M743.506 556.242C743.44 556.168 743.379 556.089 743.324 556.005L743.159 555.786L742.995 555.531L742.831 555.257C742.14 554.07 741.769 552.725 741.753 551.352C741.753 549.235 743.159 548.432 744.766 549.527C745.635 550.25 746.336 551.154 746.821 552.175C747.307 553.195 747.565 554.309 747.578 555.44C747.578 556.699 747.048 557.483 746.318 557.684H745.277H745.149H745.04H744.949L744.821 557.593L744.602 557.429L744.401 557.264L744.218 557.064L744.017 556.845L743.506 556.242Z" fill="#FFC4BD"/>
<path d="M742.502 549.144L711.154 567.758L715.024 576.152L746.555 557.465L742.502 549.144Z" fill="#FFC4BD"/>
<path d="M712.03 574.912L711.939 574.766L711.756 574.547L711.592 574.292L711.427 574.018C710.723 572.836 710.345 571.488 710.332 570.113C710.332 567.996 711.738 567.193 713.345 568.288C714.216 569.009 714.919 569.912 715.405 570.933C715.891 571.954 716.147 573.069 716.156 574.2C716.156 575.459 715.627 576.244 714.896 576.445H713.764H713.637H713.527H713.436L713.29 576.354C713.208 576.311 713.134 576.256 713.071 576.189L712.87 576.025L712.669 575.824L712.468 575.605L712.03 574.912Z" fill="#C2EAE8"/>
<path d="M731.128 565.641L730.817 565.258L730.543 564.874L730.269 564.436L729.996 563.98C728.825 562 728.196 559.747 728.17 557.447C728.261 553.907 730.525 552.575 733.209 554.491C734.665 555.699 735.841 557.209 736.655 558.917C737.468 560.625 737.9 562.49 737.919 564.382C737.919 566.499 737.043 567.812 735.802 568.141H735.637H734.998H734.797H734.651H734.56H734.432H734.268L734.049 568.05H733.885H733.72L733.556 567.958L733.319 567.794L732.972 567.52L732.625 567.21C732.625 567.101 732.424 567.01 732.314 566.9L731.986 566.535L731.128 565.641Z" fill="#3C2E33"/>
<path d="M729.484 553.761L676.993 584.893L683.475 598.963L736.239 567.666L729.484 553.761Z" fill="#3C2E33"/>
<path d="M678.454 596.883L678.144 596.5L677.852 596.117L677.56 595.697L677.286 595.241C676.119 593.259 675.489 591.007 675.46 588.708C675.57 585.149 677.815 583.817 680.517 585.733C681.972 586.947 683.147 588.461 683.96 590.171C684.773 591.882 685.206 593.749 685.228 595.643C685.228 597.741 684.333 599.073 683.11 599.384H682.946H681.814H681.668H681.522L681.302 599.292L681.12 599.201L680.974 599.11H680.882L680.736 599.019L680.499 598.873L680.134 598.581L679.787 598.289C679.675 598.195 679.571 598.091 679.477 597.978C679.358 597.866 679.248 597.743 679.148 597.613L678.454 596.883Z" fill="#261E21"/>
<path d="M727.458 450.764L720.173 460.089L744.109 464.724L725.942 458.282L728.699 452.68L727.458 450.764Z" fill="white"/>
<path d="M382.813 551.159C408.709 550.508 429.386 537.411 428.996 521.905C428.606 506.399 407.297 494.356 381.401 495.006C355.505 495.657 334.828 508.755 335.218 524.261C335.608 539.767 356.917 551.81 382.813 551.159Z" fill="#CE4A3A"/>
<path d="M428.945 518.193V522.555L426.882 526.862L423.888 527.738L421.825 524.526L423.413 519.142C423.413 519.142 424.417 517.318 424.764 517.208C426.175 517.461 427.57 517.79 428.945 518.193Z" fill="#00A79D"/>
<path d="M335.192 519.143V524.344L339.355 529.198L340.122 526.096L339.538 521.843L338.241 519.617L335.192 519.143Z" fill="#00A79D"/>
<path d="M382.829 547.4C408.725 546.75 429.402 533.652 429.012 518.146C428.622 502.64 407.313 490.597 381.416 491.248C355.52 491.898 334.843 504.996 335.233 520.502C335.623 536.008 356.932 548.051 382.829 547.4Z" fill="#FD6B59"/>
<path d="M375.706 497.591L357.777 520.512L416.658 531.917L371.981 516.077L378.737 502.281L375.706 497.591Z" fill="white"/>
<path d="M0 604.621L91.0692 551.827L216.207 624.476L125.138 677.271L0 604.621Z" fill="#141112"/>
<path d="M2.42871 601.756L93.4979 548.962L218.636 621.611L127.567 674.405L2.42871 601.756Z" fill="#282023"/>
<path d="M6.7373 597.778L97.8065 544.983L222.926 617.633L131.857 670.427L6.7373 597.778Z" fill="#3C2E33"/>
<path d="M36.8984 580.277L97.806 544.983L222.926 617.632L162.018 652.926L36.8984 580.277Z" fill="#3C2E33"/>
<path d="M64.0661 602.833L47.5977 612.377L32.5352 603.636L49.0036 594.073L64.0661 602.833Z" fill="#FD6B59"/>
<path d="M87.5453 616.41L71.0769 625.973L55.9961 617.213L72.4828 607.669L87.5453 616.41Z" fill="#FD6B59"/>
<path d="M111.207 630.188L94.739 639.751L79.6582 630.991L96.1449 621.429L111.207 630.188Z" fill="#FD6B59"/>
<path d="M134.833 643.911L118.346 653.474L103.284 644.732L119.77 635.17L134.833 643.911Z" fill="#FD6B59"/>
<path opacity="0.5" d="M107.939 566.371L109.254 567.138L72.6474 588.343L71.3511 587.595L107.939 566.371Z" fill="white"/>
<path opacity="0.5" d="M111.482 568.415L112.778 569.182L76.1896 590.405L74.875 589.639L111.482 568.415Z" fill="white"/>
<path opacity="0.5" d="M107.519 574.766L108.834 575.514L79.6583 592.431L78.3438 591.682L107.519 574.766Z" fill="white"/>
<path opacity="0.5" d="M127.84 577.85L129.136 578.616L92.5479 599.821L91.2334 599.073L127.84 577.85Z" fill="white"/>
<path opacity="0.5" d="M131.364 579.912L132.678 580.66L96.0717 601.884L94.7754 601.117L131.364 579.912Z" fill="white"/>
<path opacity="0.5" d="M127.42 586.244L128.717 586.992L99.5409 603.927L98.2446 603.161L127.42 586.244Z" fill="white"/>
<path opacity="0.5" d="M151.922 592.029L153.236 592.796L116.63 614.001L115.333 613.253L151.922 592.029Z" fill="white"/>
<path opacity="0.5" d="M155.464 594.073L156.76 594.84L120.172 616.063L118.857 615.297L155.464 594.073Z" fill="white"/>
<path opacity="0.5" d="M151.502 600.424L152.816 601.172L123.641 618.107L122.326 617.341L151.502 600.424Z" fill="white"/>
<path opacity="0.5" d="M172.644 603.781L173.959 604.548L137.352 625.753L136.056 625.005L172.644 603.781Z" fill="white"/>
<path opacity="0.5" d="M176.187 605.844L177.483 606.592L140.895 627.816L139.58 627.049L176.187 605.844Z" fill="white"/>
<path opacity="0.5" d="M172.225 612.176L173.539 612.942L144.345 629.859L143.049 629.093L172.225 612.176Z" fill="white"/>
<path d="M609.513 78.7588C613.502 78.9467 617.332 80.3759 620.468 82.8466C633.011 91.7703 642.834 112.392 642.377 128.925C642.067 140.313 636.9 146.791 629.724 146.791C625.767 146.584 621.972 145.156 618.861 142.703C606.318 133.779 596.496 113.158 596.952 96.6245C597.262 85.2372 602.429 78.7588 609.605 78.7588H609.513ZM609.605 77.8281C601.535 77.8281 596.331 85.0182 596.021 96.6063C595.564 113.377 605.57 134.4 618.313 143.451C621.59 146.006 625.574 147.49 629.724 147.703C637.794 147.703 642.998 140.513 643.308 128.943C643.765 112.173 633.759 91.1499 621.016 82.0984C617.74 79.5397 613.756 78.049 609.605 77.8281Z" fill="#8DD7F7"/>
<path d="M618.441 96.4244C618.441 96.4244 613.548 96.4244 612.709 98.3405C611.869 100.257 611.905 101.607 612.289 105.202C612.616 109.123 612.695 113.06 612.526 116.991C612.398 118.414 626.402 126.59 626.402 126.59V120.586C626.402 120.586 626.712 117.666 626.73 116.936C626.73 115.677 626.621 112.392 626.621 112.392L625.763 102.957L624.393 100.202L622.221 96.9353L620.815 95.9316L618.441 96.4244Z" fill="#081121"/>
<path d="M622.495 122.72L616.159 118.213L616.433 107.829L622.787 112.337L622.495 122.72Z" fill="#F7B6C7"/>
<path d="M614.297 97.8653C614.297 97.8653 612.471 110.64 618.952 114.8C618.952 114.8 624.046 119.344 625.069 114.435C626.091 109.526 626.675 103.486 626.675 103.486C626.784 102.013 626.32 100.555 625.379 99.4164C622.586 96.9346 617.163 91.9708 615.757 93.4308C614.818 94.7194 614.307 96.2706 614.297 97.8653Z" fill="#F7B6C7"/>
<path d="M624.63 121.133L614.26 113.834C608.582 109.782 603.817 112.574 603.616 120.056L603.506 123.706C607.031 131.164 612.282 137.676 618.825 142.703C624.795 146.955 630.309 147.777 634.508 145.678L634.599 142.028C634.745 134.51 630.309 125.166 624.63 121.133Z" fill="#FAA619"/>
<path d="M616.232 115.165L619.281 132.976L622.586 119.673L621.673 118.487L616.615 115.129L616.232 115.165Z" fill="#F7B6C7"/>
<path d="M620.03 97.6829C620.03 97.6829 619.281 103.687 622.403 106.004C625.525 108.322 625.233 108.34 625.854 110.603C626.326 112.663 626.644 114.755 626.803 116.863C626.807 114.966 627.016 113.076 627.424 111.224C628.02 108.198 627.913 105.077 627.113 102.099C626.409 98.797 624.623 95.8239 622.038 93.6499C620.76 92.7557 619.555 95.0003 620.03 97.6829Z" fill="#0F2241"/>
<path d="M620.65 97.3915C620.341 97.8975 619.902 98.3117 619.379 98.5908C618.855 98.87 618.267 99.0041 617.674 98.9791C615.41 99.0886 614.735 99.8916 614.479 103.231C614.223 106.571 612.087 102.72 612.526 108.012C612.526 108.012 611.101 100.457 612.526 98.1579C613.95 95.8586 613.365 92.9387 614.862 91.6431C615.342 91.1947 615.93 90.8789 616.569 90.7268C617.208 90.5748 617.875 90.5917 618.505 90.7758C619.135 90.96 619.707 91.3052 620.163 91.7772C620.619 92.2493 620.944 92.832 621.107 93.468C622.476 97.3915 621.216 97.1178 620.65 97.3915Z" fill="#0F2241"/>
<path d="M143.523 296.378C150.826 296.378 155.866 302.838 156.176 314.244C156.632 330.668 146.81 351.399 134.267 360.322C131.156 362.775 127.36 364.203 123.403 364.41C116.1 364.41 111.061 357.932 110.751 346.544C110.294 330.011 120.117 309.371 132.66 300.466C135.771 298.013 139.566 296.585 143.523 296.378ZM143.523 295.447C139.375 295.669 135.393 297.152 132.112 299.699C119.332 308.824 109.363 329.792 109.82 346.563C110.13 358.132 115.297 365.323 123.403 365.323C127.554 365.109 131.537 363.625 134.814 361.071C147.595 351.946 157.563 330.996 157.107 314.207C156.797 302.637 151.63 295.447 143.523 295.447Z" fill="#FD6B59"/>
<path d="M134.596 314.043C134.596 314.043 139.507 314.043 140.328 315.868C141.15 317.693 141.15 319.153 140.748 322.748C140.421 326.668 140.342 330.606 140.511 334.537C140.657 335.96 126.635 344.135 126.635 344.135V338.113C126.635 338.113 126.343 335.212 126.307 334.464C126.307 333.204 126.416 329.92 126.416 329.92L127.274 320.485L128.644 317.729L130.816 314.463L132.222 313.459L134.596 314.043Z" fill="#0F2241"/>
<path d="M130.524 340.322L136.878 335.815L136.585 325.449L130.25 329.957L130.524 340.322Z" fill="#FAC5A6"/>
<path d="M138.74 315.466C138.74 315.466 140.566 328.24 134.084 332.401C134.084 332.401 128.99 336.963 127.968 332.036C126.945 327.109 126.361 321.087 126.361 321.087C126.252 319.611 126.724 318.15 127.676 317.017C130.451 314.535 135.873 309.571 137.298 311.031C138.229 312.323 138.733 313.874 138.74 315.466Z" fill="#FAC5A6"/>
<path d="M128.406 338.752L138.776 331.452C144.455 327.419 149.22 330.211 149.421 337.693L149.53 341.343C146.023 348.802 140.791 355.32 134.267 360.358C128.297 364.61 122.783 365.413 118.583 363.333V359.683C118.291 352.128 122.728 342.785 128.406 338.752Z" fill="#EF761F"/>
<path d="M136.787 332.785L133.756 350.596L130.451 337.292L131.364 336.106L136.421 332.748L136.787 332.785Z" fill="#FAC5A6"/>
<path d="M133.026 315.302C133.026 315.302 133.756 321.306 130.634 323.624C127.512 325.942 127.804 325.96 127.183 328.223C126.711 330.283 126.393 332.375 126.234 334.482C126.229 332.581 126.027 330.685 125.631 328.825C125.017 325.802 125.117 322.678 125.923 319.7C126.639 316.402 128.423 313.432 130.999 311.251C132.277 310.375 133.482 312.62 133.026 315.302Z" fill="#0F2241"/>
<path d="M132.423 315.01C132.732 315.516 133.171 315.93 133.694 316.209C134.218 316.488 134.806 316.622 135.399 316.597C137.663 316.689 138.338 317.51 138.594 320.849C138.85 324.189 140.986 320.338 140.548 325.612C140.548 325.612 141.99 318.076 140.548 315.776C139.105 313.477 139.708 310.557 138.229 309.261C137.741 308.814 137.145 308.502 136.5 308.356C135.854 308.209 135.182 308.234 134.549 308.428C133.916 308.622 133.345 308.977 132.892 309.459C132.439 309.942 132.12 310.534 131.967 311.178C130.561 314.992 131.82 314.736 132.423 315.01Z" fill="#0F2241"/>
<path opacity="0.5" d="M318.706 304.279V304.681L335.977 294.662V294.261L318.706 304.279Z" fill="white"/>
<path opacity="0.5" d="M318.706 313.988V314.39L335.977 304.353V303.97L318.706 313.988Z" fill="white"/>
<path opacity="0.5" d="M318.706 323.695V324.097L335.977 314.078V313.677L318.706 323.695Z" fill="white"/>
<path opacity="0.5" d="M318.706 333.404V333.806L335.977 323.769V323.386L318.706 333.404Z" fill="white"/>
<g opacity="0.5">
<path opacity="0.5" d="M318.706 334.609V334.992L332.91 326.762V326.36L318.706 334.609Z" fill="white"/>
<path opacity="0.5" d="M318.706 335.704V336.106L329.551 329.81V329.408L318.706 335.704Z" fill="white"/>
</g>
<g opacity="0.5">
<path opacity="0.5" d="M318.706 324.9V325.284L332.837 317.09V316.688L318.706 324.9Z" fill="white"/>
<path opacity="0.5" d="M318.706 325.996V326.397L329.496 320.138V319.736L318.706 325.996Z" fill="white"/>
</g>
<path opacity="0.5" d="M318.706 315.193V315.576L332.837 307.382V306.98L318.706 315.193Z" fill="white"/>
<path opacity="0.5" d="M318.706 316.288V316.689L329.496 310.43V310.028L318.706 316.288Z" fill="white"/>
<g opacity="0.5">
<path opacity="0.5" d="M318.706 305.484V305.886L332.965 297.601V297.199L318.706 305.484Z" fill="white"/>
<path opacity="0.5" d="M318.706 306.579V306.981L329.551 300.685V300.302L318.706 306.579Z" fill="white"/>
</g>
<path opacity="0.5" d="M110.879 467.552V469.578L137.718 453.993V451.968L110.879 467.552Z" fill="white"/>
<path d="M646.065 248.274L643.126 251.741L641.902 257.818L637.94 265.884L642.121 272.928L646.759 263.731L650.41 259.807L651.908 254.314L649.972 249.241L652.62 243.931L651.597 242.233L646.065 248.274Z" fill="#F7B6C7"/>
<path d="M588.918 483.521C588.621 482.685 588.401 481.824 588.261 480.948L588.992 477.572L588.59 466.239L599.544 465.309L600.33 473.21L606.902 471.185C608.452 470.756 610.108 470.946 611.521 471.714L613.512 473.283C613.804 473.794 614.424 474.251 614.424 474.798C614.424 475.911 614.826 476.623 613.804 477.28L596.641 486.696C594.724 487.828 592.095 486.149 589.941 485.528L588.918 483.521Z" fill="#163362"/>
<path d="M554.649 468.064C554.484 467.216 554.399 466.354 554.393 465.491L555.415 462.297L556.657 451.348L567.429 452.023L567.064 459.797L573.71 458.775C575.269 458.588 576.84 459.013 578.092 459.961L579.351 461.001C579.552 461.531 580.082 462.06 580.009 462.589C579.844 463.666 580.136 464.414 579.059 464.907L561.532 472.316C559.523 473.137 557.205 471.13 555.215 470.217L554.649 468.064Z" fill="#163362"/>
<path d="M546.78 337.675L558.574 357.603C558.863 358.225 559.292 358.773 559.827 359.203C560.362 359.634 560.989 359.935 561.66 360.084L564.544 360.723C564.982 360.816 565.436 360.794 565.863 360.66C566.289 360.525 566.674 360.283 566.979 359.956C567.284 359.629 567.499 359.228 567.604 358.794C567.708 358.359 567.698 357.905 567.575 357.475L556.438 332.036L569.857 304.06L553.937 292.728L545.794 328.642C545.039 331.674 545.388 334.876 546.78 337.675Z" fill="#FAA619"/>
<path d="M601.352 358.99C601.352 358.99 603.342 375.998 601.352 378.644C599.362 381.29 588.316 386.6 582.802 385.049C577.289 383.498 556.073 381.399 556.073 372.165C556.073 362.932 556.073 353.698 556.073 353.698C556.073 353.698 558.502 351.051 567.776 353.698C577.051 356.344 598.741 350.613 601.352 358.99Z" fill="#1E4482"/>
<path d="M597.956 297.108C597.956 297.108 581.524 285.264 563.796 285.702C546.068 286.14 555.178 312.419 554.521 335.595C553.864 358.771 548.569 360.979 564.234 366.947C579.899 372.914 583.679 375.104 588.973 373.79C594.268 372.476 594.944 369.155 600.019 367.385C605.095 365.614 604.876 366.29 603.78 360.541C602.685 354.793 602.685 326.543 603.342 319.043C603.999 311.543 601.681 299.462 597.956 297.108Z" fill="url(#paint1_linear)"/>
<path d="M602.064 376.035L601.48 470.108C601.483 471.203 601.165 472.274 600.564 473.189C599.964 474.104 599.108 474.822 598.102 475.255L595.729 476.277C594.917 476.643 594.029 476.806 593.141 476.751C592.253 476.697 591.391 476.428 590.631 475.966C589.87 475.504 589.234 474.864 588.776 474.101C588.319 473.338 588.054 472.475 588.006 471.587L584.902 427.424L575.59 380.999L602.064 376.035Z" fill="url(#paint2_linear)"/>
<path d="M555.434 455.399L557.917 411.601L556.091 367.238L575.609 374.629L572.523 415.361L567.593 457.133C567.491 457.831 567.235 458.497 566.843 459.084C566.452 459.671 565.935 460.164 565.33 460.527L564.453 461.056C563.51 461.638 562.423 461.944 561.314 461.94C560.206 461.936 559.121 461.622 558.182 461.033C557.243 460.444 556.488 459.604 556.002 458.609C555.517 457.613 555.32 456.501 555.434 455.399Z" fill="url(#paint3_linear)"/>
<path d="M584.226 280.958L584.445 290.082C584.287 291.783 583.469 293.355 582.165 294.461C580.861 295.566 579.176 296.117 577.471 295.995H576.996C575.49 295.888 574.068 295.262 572.972 294.223C571.877 293.185 571.176 291.799 570.989 290.301L570.789 276.268L584.226 280.958Z" fill="#F7B6C7"/>
<path d="M586.691 251.284C588.626 251.941 591.456 252.252 592.497 254.186C593.537 256.12 595.674 257.489 596.148 263.931C596.623 270.373 596.02 277.91 593.446 280.246C590.872 282.581 581.78 286.797 580.52 286.067C579.26 285.337 572.249 282.618 570.277 274.917C568.305 267.216 566.388 260.518 568.305 258.091C570.642 255.244 576.832 247.981 586.691 251.284Z" fill="#F7B6C7"/>
<path d="M634.343 296.688L645.17 268.712C645.421 268.069 645.518 267.376 645.455 266.689C645.391 266.002 645.169 265.339 644.805 264.752L643.253 262.252C643.016 261.871 642.683 261.558 642.288 261.344C641.893 261.13 641.449 261.023 641 261.032C640.551 261.041 640.112 261.167 639.726 261.397C639.34 261.627 639.02 261.953 638.798 262.343L622.713 290.41L599.782 297.71C599.022 297.946 598.331 298.361 597.765 298.92C597.2 299.479 596.777 300.165 596.532 300.922C596.368 301.487 596.075 303.203 596.075 303.203C595.965 304.124 595.965 305.055 596.075 305.977C596.185 306.761 596.55 309.115 596.55 309.115C596.861 311.142 597.792 313.022 599.216 314.499L600.001 315.32C600.549 315.895 601.27 316.276 602.054 316.404C602.838 316.533 603.643 316.402 604.346 316.032L628.428 303.422C631.156 301.974 633.26 299.579 634.343 296.688Z" fill="url(#paint4_linear)"/>
<path d="M588.736 243.839C591.31 244.259 597.956 247.69 598.504 254.643C599.052 261.596 595.437 263.311 593.228 261.942C591.018 260.574 589.028 264.807 588.809 267.745C588.59 270.684 588.499 269.808 588.243 270.684C588.115 271.103 586.764 271.067 586.764 271.067C586.334 270.086 585.828 269.14 585.249 268.238C584.391 267.089 581.177 265.355 580.538 269.242C579.899 273.129 581.287 271.523 581.397 272.892C580.962 273.849 580.443 274.765 579.845 275.629C579.441 277.022 578.555 278.225 577.343 279.023C575.134 280.684 575.682 281.359 572.213 279.115C568.744 276.87 568.233 274.917 568.233 274.917C568.233 274.917 564.344 265.191 565.567 260.756C566.79 256.322 571.647 245.701 578.165 246.613C584.683 247.526 586.125 243.438 588.736 243.839Z" fill="#1D171A"/>
<path d="M181.809 356.143L184.767 359.61L185.99 365.687L189.952 373.735L185.771 380.797L181.116 371.582L177.464 367.658L175.985 362.183L177.92 357.092L175.255 351.8L176.296 350.103L181.809 356.143Z" fill="#F7B6C7"/>
<path d="M239.065 591.391C239.355 590.554 239.569 589.693 239.705 588.818L238.974 585.424L239.376 574.109L228.421 573.179L227.636 581.062L221.082 579.037C219.528 578.623 217.876 578.819 216.462 579.584L214.472 581.153C214.18 581.646 213.56 582.121 213.56 582.668C213.56 583.763 213.14 584.493 214.162 585.15L231.324 594.566C233.241 595.698 235.889 594.019 238.025 593.399L239.065 591.391Z" fill="#163362"/>
<path d="M273.244 575.915C273.407 575.067 273.499 574.206 273.518 573.342L272.477 570.149L271.235 559.199L260.463 559.893L260.829 567.649L254.201 566.627C252.638 566.459 251.068 566.882 249.801 567.813L248.559 568.853C248.34 569.382 247.811 569.93 247.884 570.459C248.048 571.536 247.756 572.284 248.833 572.776L266.361 580.186C268.387 581.007 270.688 578.999 272.678 578.087L273.244 575.915Z" fill="#163362"/>
<path d="M281.058 445.527L269.209 465.364C268.921 465.989 268.493 466.54 267.958 466.974C267.423 467.407 266.795 467.712 266.123 467.864L263.239 468.485C262.802 468.582 262.348 468.563 261.921 468.432C261.494 468.3 261.108 468.059 260.802 467.733C260.496 467.407 260.281 467.007 260.176 466.573C260.072 466.138 260.083 465.684 260.208 465.255L271.418 439.724L257.98 411.749L273.901 400.416L282.062 436.439C282.84 439.49 282.483 442.72 281.058 445.527Z" fill="#474044"/>
<path d="M226.541 466.86C226.541 466.86 224.551 483.849 226.541 486.514C228.531 489.178 239.577 494.452 245.09 492.901C250.604 491.35 271.82 489.36 271.82 480.017C271.82 470.674 271.82 461.549 271.82 461.549C271.82 461.549 269.391 458.903 260.117 461.549C250.842 464.195 229.188 458.465 226.541 466.86Z" fill="#0063AA"/>
<path d="M229.937 405.05C229.937 405.05 246.369 393.207 264.097 393.645C281.825 394.083 272.714 420.361 273.372 443.537C274.029 466.714 279.342 468.94 263.659 474.889C247.975 480.838 244.214 483.065 238.919 481.732C233.625 480.4 232.949 477.097 227.874 475.345C222.798 473.593 223.017 474.232 224.112 468.502C225.208 462.772 225.226 434.486 224.551 426.986C223.875 419.485 226.285 407.313 229.937 405.05Z" fill="#474044"/>
<path d="M225.829 483.886L226.413 577.977C226.399 579.072 226.713 580.145 227.315 581.059C227.917 581.973 228.779 582.686 229.791 583.105L232.164 584.146C232.976 584.512 233.866 584.675 234.756 584.62C235.645 584.565 236.508 584.293 237.269 583.829C238.03 583.365 238.666 582.723 239.122 581.958C239.579 581.192 239.841 580.327 239.887 579.437L242.991 535.293L252.32 488.868L225.829 483.886Z" fill="url(#paint5_linear)"/>
<path d="M272.459 563.251L269.976 519.454L271.801 475.072L252.302 482.463L255.37 523.195L260.299 564.967C260.401 565.667 260.657 566.336 261.049 566.926C261.44 567.516 261.957 568.012 262.563 568.379L263.439 568.908C264.384 569.483 265.469 569.783 266.575 569.776C267.68 569.769 268.762 569.453 269.698 568.866C270.635 568.279 271.389 567.442 271.877 566.451C272.364 565.459 272.566 564.351 272.459 563.251Z" fill="url(#paint6_linear)"/>
<path d="M243.666 388.845L243.447 397.97C243.605 399.673 244.423 401.246 245.726 402.354C247.03 403.463 248.715 404.018 250.422 403.901H250.915C252.42 403.791 253.84 403.163 254.935 402.126C256.03 401.088 256.732 399.703 256.921 398.207L257.104 384.155L243.666 388.845Z" fill="#F7B6C7"/>
<path d="M241.202 359.155C239.266 359.794 236.436 360.122 235.396 362.038C234.355 363.954 232.219 365.341 231.744 371.783C231.269 378.225 231.872 385.78 234.446 388.098C237.021 390.415 246.113 394.667 247.373 393.937C248.632 393.207 255.643 390.47 257.634 382.769C259.624 375.068 261.522 368.389 259.587 365.943C257.323 363.078 251.061 355.779 241.202 359.155Z" fill="#F7B6C7"/>
<path d="M193.549 404.558L182.722 376.564C182.473 375.923 182.377 375.234 182.44 374.55C182.504 373.866 182.725 373.206 183.087 372.622L184.639 370.122C184.869 369.736 185.195 369.417 185.586 369.195C185.976 368.973 186.418 368.856 186.867 368.856C187.316 368.856 187.757 368.973 188.148 369.195C188.538 369.417 188.864 369.736 189.094 370.122L205.179 398.189L228.111 405.488C228.871 405.728 229.564 406.146 230.129 406.708C230.695 407.27 231.117 407.959 231.361 408.718C231.543 409.266 231.835 410.999 231.835 410.999C231.936 411.921 231.936 412.851 231.835 413.773C231.707 414.54 231.342 416.894 231.342 416.894C231.031 418.916 230.107 420.795 228.695 422.277L227.892 423.099C227.343 423.674 226.623 424.054 225.838 424.183C225.054 424.311 224.249 424.18 223.546 423.81L199.464 411.218C196.757 409.779 194.657 407.415 193.549 404.558Z" fill="#474044"/>
<path d="M239.157 351.709C236.582 352.11 230.028 355.559 229.389 362.512C228.75 369.465 232.456 371.181 234.665 369.812C236.875 368.443 238.865 372.677 239.102 375.615C239.339 378.553 239.412 377.659 239.65 378.535C239.778 378.955 241.147 378.936 241.147 378.936C241.571 377.95 242.071 376.998 242.644 376.09C243.502 374.94 246.715 373.206 247.354 377.111C247.993 381.017 246.606 379.393 246.496 380.761C246.931 381.718 247.45 382.634 248.048 383.499C248.462 384.886 249.346 386.087 250.55 386.893C252.759 388.572 252.211 389.247 255.68 386.984C259.149 384.721 259.66 382.805 259.66 382.805C259.66 382.805 263.549 373.06 262.326 368.644C261.102 364.228 256.246 353.57 249.746 354.483C243.246 355.395 241.768 351.289 239.157 351.709Z" fill="#1D171A"/>
<defs>
<linearGradient id="paint0_linear" x1="810.913" y1="498.084" x2="799.931" y2="528.253" gradientUnits="userSpaceOnUse">
<stop stop-color="white"/>
<stop offset="1"/>
</linearGradient>
<linearGradient id="paint1_linear" x1="561.039" y1="285.921" x2="592.562" y2="372.559" gradientUnits="userSpaceOnUse">
<stop stop-color="#FBB847"/>
<stop offset="0.23" stop-color="#FBB339"/>
<stop offset="0.7" stop-color="#FAA922"/>
<stop offset="1" stop-color="#FAA619"/>
</linearGradient>
<linearGradient id="paint2_linear" x1="588.827" y1="376.035" x2="588.827" y2="476.733" gradientUnits="userSpaceOnUse">
<stop stop-color="#1E4482"/>
<stop offset="0.31" stop-color="#1B4786"/>
<stop offset="0.64" stop-color="#115294"/>
<stop offset="0.99" stop-color="#0063AA"/>
<stop offset="1" stop-color="#0063AA"/>
</linearGradient>
<linearGradient id="paint3_linear" x1="224816" y1="24633.7" x2="224816" y2="29547.8" gradientUnits="userSpaceOnUse">
<stop stop-color="#1E4482"/>
<stop offset="0.31" stop-color="#1B4786"/>
<stop offset="0.64" stop-color="#115294"/>
<stop offset="0.99" stop-color="#0063AA"/>
<stop offset="1" stop-color="#0063AA"/>
</linearGradient>
<linearGradient id="paint4_linear" x1="548612" y1="11839.6" x2="547847" y2="12233.7" gradientUnits="userSpaceOnUse">
<stop stop-color="#FBB847"/>
<stop offset="0.23" stop-color="#FBB339"/>
<stop offset="0.7" stop-color="#FAA922"/>
<stop offset="1" stop-color="#FAA619"/>
</linearGradient>
<linearGradient id="paint5_linear" x1="239.084" y1="584.602" x2="239.084" y2="483.886" gradientUnits="userSpaceOnUse">
<stop stop-color="#3382BB"/>
<stop offset="0.28" stop-color="#2077B5"/>
<stop offset="0.73" stop-color="#0968AD"/>
<stop offset="1" stop-color="#0063AA"/>
</linearGradient>
<linearGradient id="paint6_linear" x1="9418.85" y1="34658.4" x2="7793.08" y2="34058.3" gradientUnits="userSpaceOnUse">
<stop stop-color="#3382BB"/>
<stop offset="0.28" stop-color="#2077B5"/>
<stop offset="0.73" stop-color="#0968AD"/>
<stop offset="1" stop-color="#0063AA"/>
</linearGradient>
</defs>
</svg>
