<svg width="1091" height="1152" viewBox="0 0 1091 1152" fill="none" xmlns="http://www.w3.org/2000/svg">
<g clip-path="url(#clip0)">
<path d="M169.503 1151.57C231.023 1151.57 280.896 1137.58 280.896 1120.33C280.896 1103.08 231.023 1089.1 169.503 1089.1C107.983 1089.1 58.1104 1103.08 58.1104 1120.33C58.1104 1137.58 107.983 1151.57 169.503 1151.57Z" fill="#FFE0DC"/>
<path d="M0.359375 553.978C0.359375 307.723 463.386 333.792 463.386 168.783C463.386 3.77487 1090.38 -204.065 1090.38 440.361C1090.38 1524.21 0.359375 1103.77 0.359375 553.978Z" fill="url(#paint0_linear)"/>
<path d="M177.229 407.039C177.229 511.91 18.6133 512.063 18.6133 407.039C18.6133 302.016 177.229 302.016 177.229 407.039Z" fill="#CC4534"/>
<path d="M171.506 407.039C171.506 504.336 24.3525 504.472 24.3525 407.039C24.3525 309.607 171.506 309.607 171.506 407.039Z" fill="#F86A58"/>
<path d="M97.9295 407.04C92.2919 394.761 92.224 373.396 97.9295 361.066C103.618 373.379 103.567 394.676 97.9295 407.04Z" fill="white"/>
<path d="M97.9297 407.04C114.91 401.435 144.83 401.299 162.184 407.04C144.813 412.78 114.944 412.627 97.9297 407.04Z" fill="white"/>
<path d="M106.555 407.039C106.555 418.452 89.3032 418.469 89.3032 407.039C89.3032 395.609 106.555 395.609 106.555 407.039Z" fill="white"/>
<path d="M97.9293 350.4C95.9935 350.4 96.503 349.092 96.503 338.24C96.5412 337.891 96.7071 337.568 96.9688 337.333C97.2304 337.098 97.5695 336.969 97.9209 336.969C98.2723 336.969 98.6113 337.098 98.8729 337.333C99.1346 337.568 99.3005 337.891 99.3387 338.24C99.3387 348.99 99.8481 350.4 97.9293 350.4Z" fill="white"/>
<path d="M154.56 407.039C154.56 405.103 155.868 405.63 166.718 405.63C166.903 405.63 167.087 405.666 167.258 405.737C167.429 405.808 167.584 405.912 167.715 406.043C167.846 406.174 167.949 406.329 168.02 406.5C168.091 406.671 168.128 406.854 168.128 407.039C168.128 407.225 168.091 407.408 168.02 407.579C167.949 407.75 167.846 407.905 167.715 408.036C167.584 408.167 167.429 408.271 167.258 408.342C167.087 408.413 166.903 408.449 166.718 408.449C155.969 408.449 154.56 408.959 154.56 407.039Z" fill="white"/>
<path d="M97.9296 463.695C99.8484 463.695 99.339 464.986 99.339 475.838C99.3007 476.188 99.1348 476.511 98.8732 476.745C98.6115 476.98 98.2725 477.109 97.9211 477.109C97.5697 477.109 97.2307 476.98 96.969 476.745C96.7074 476.511 96.5415 476.188 96.5032 475.838C96.5032 465.088 96.0447 463.695 97.9296 463.695Z" fill="white"/>
<path d="M41.2823 407.039C41.2823 408.975 39.9918 408.449 29.1242 408.449C28.7504 408.449 28.392 408.3 28.1276 408.036C27.8633 407.772 27.7148 407.413 27.7148 407.039C27.7148 406.665 27.8633 406.307 28.1276 406.042C28.392 405.778 28.7504 405.63 29.1242 405.63C39.8729 405.63 41.2823 405.12 41.2823 407.039Z" fill="white"/>
<path d="M840.049 1007.04V266.723C840.049 243.397 821.142 224.486 797.818 224.486L305.144 224.486C281.82 224.486 262.913 243.397 262.913 266.723V1007.04C262.913 1030.36 281.82 1049.27 305.144 1049.27H797.818C821.142 1049.27 840.049 1030.36 840.049 1007.04Z" fill="white"/>
<path d="M806.036 966.005V300.689C806.036 300.08 805.916 299.477 805.683 298.915C805.451 298.352 805.109 297.841 804.679 297.411C804.248 296.98 803.737 296.639 803.175 296.406C802.612 296.173 802.009 296.053 801.401 296.053H301.51C300.279 296.053 299.098 296.541 298.226 297.41C297.354 298.279 296.861 299.458 296.857 300.689V966.005C296.861 967.236 297.354 968.415 298.226 969.284C299.098 970.153 300.279 970.641 301.51 970.641H801.401C802.009 970.641 802.612 970.521 803.175 970.288C803.737 970.055 804.248 969.714 804.679 969.283C805.109 968.852 805.451 968.341 805.683 967.779C805.916 967.216 806.036 966.613 806.036 966.005Z" fill="#FE9284"/>
<path d="M796.306 305.768H306.638V960.927H796.306V305.768Z" fill="#FFF7F6"/>
<path d="M788.088 383.008V920.848C788.088 926.253 785.941 931.436 782.12 935.258C778.298 939.08 773.116 941.227 767.711 941.227H335.301C329.897 941.227 324.714 939.08 320.892 935.258C317.071 931.436 314.924 926.253 314.924 920.848V383.008H788.088Z" fill="white"/>
<path d="M788.088 349.618V383.007H314.874V349.618C314.874 344.213 317.02 339.029 320.842 335.207C324.663 331.385 329.846 329.238 335.25 329.238H767.661C770.341 329.232 772.996 329.754 775.474 330.775C777.952 331.796 780.204 333.296 782.102 335.189C784 337.083 785.505 339.331 786.532 341.807C787.559 344.283 788.088 346.938 788.088 349.618Z" fill="#3C2D33"/>
<path d="M577.648 367.026H363.591C360.695 367.026 357.918 365.875 355.87 363.827C353.823 361.779 352.672 359.002 352.672 356.106C352.672 353.209 353.823 350.432 355.87 348.384C357.918 346.336 360.695 345.186 363.591 345.186H577.648C580.544 345.186 583.321 346.336 585.368 348.384C587.416 350.432 588.566 353.209 588.566 356.106C588.566 359.002 587.416 361.779 585.368 363.827C583.321 365.875 580.544 367.026 577.648 367.026Z" fill="white"/>
<path d="M367.734 360.708C366.683 360.708 365.655 360.396 364.781 359.812C363.907 359.228 363.226 358.397 362.824 357.426C362.421 356.455 362.316 355.386 362.521 354.355C362.726 353.324 363.232 352.377 363.976 351.633C364.719 350.89 365.666 350.383 366.697 350.178C367.728 349.973 368.797 350.078 369.768 350.481C370.739 350.883 371.569 351.564 372.153 352.439C372.737 353.313 373.049 354.341 373.049 355.392C373.044 356.8 372.483 358.15 371.487 359.146C370.491 360.142 369.142 360.703 367.734 360.708ZM367.734 352.216C367.099 352.216 366.479 352.404 365.951 352.757C365.423 353.11 365.012 353.611 364.769 354.198C364.526 354.784 364.462 355.429 364.586 356.052C364.71 356.675 365.016 357.247 365.465 357.696C365.913 358.144 366.485 358.45 367.108 358.574C367.73 358.698 368.376 358.634 368.962 358.391C369.548 358.148 370.05 357.737 370.402 357.209C370.755 356.681 370.943 356.061 370.943 355.426C370.943 354.575 370.605 353.758 370.003 353.156C369.401 352.554 368.585 352.216 367.734 352.216Z" fill="#D8D8D8"/>
<path d="M486.734 357.192H380.707C380.23 357.192 379.772 357.003 379.434 356.665C379.097 356.327 378.907 355.87 378.907 355.392C378.907 354.915 379.097 354.457 379.434 354.119C379.772 353.781 380.23 353.592 380.707 353.592H486.734C487.211 353.592 487.669 353.781 488.007 354.119C488.344 354.457 488.534 354.915 488.534 355.392C488.534 355.87 488.344 356.327 488.007 356.665C487.669 357.003 487.211 357.192 486.734 357.192Z" fill="#D8D8D8"/>
<path d="M656.693 356.107C656.693 357.786 656.195 359.428 655.262 360.824C654.329 362.221 653.003 363.309 651.451 363.952C649.9 364.595 648.193 364.763 646.546 364.435C644.899 364.107 643.386 363.299 642.199 362.111C641.011 360.924 640.203 359.411 639.875 357.763C639.547 356.116 639.716 354.409 640.358 352.857C641.001 351.306 642.089 349.979 643.485 349.046C644.882 348.113 646.523 347.615 648.202 347.615C650.454 347.615 652.613 348.51 654.206 350.102C655.798 351.695 656.693 353.855 656.693 356.107Z" fill="#779DC7"/>
<path d="M687.564 356.107C687.564 357.786 687.066 359.428 686.133 360.824C685.2 362.221 683.874 363.309 682.322 363.952C680.771 364.595 679.064 364.763 677.417 364.435C675.77 364.107 674.257 363.299 673.07 362.111C671.882 360.924 671.074 359.411 670.746 357.763C670.419 356.116 670.587 354.409 671.229 352.857C671.872 351.306 672.96 349.979 674.356 349.046C675.753 348.113 677.394 347.615 679.073 347.615C681.325 347.615 683.485 348.51 685.077 350.102C686.669 351.695 687.564 353.855 687.564 356.107Z" fill="#3F5369"/>
<path d="M718.451 356.107C718.451 357.786 717.953 359.428 717.02 360.824C716.087 362.221 714.761 363.309 713.21 363.952C711.658 364.595 709.951 364.763 708.304 364.435C706.657 364.107 705.144 363.299 703.957 362.111C702.77 360.924 701.961 359.411 701.633 357.763C701.306 356.116 701.474 354.409 702.117 352.857C702.759 351.306 703.847 349.979 705.244 349.046C706.64 348.113 708.281 347.615 709.961 347.615C712.212 347.615 714.372 348.51 715.964 350.102C717.556 351.695 718.451 353.855 718.451 356.107Z" fill="#3F5369"/>
<path d="M749.338 356.107C749.338 357.786 748.84 359.428 747.908 360.824C746.975 362.221 745.649 363.309 744.097 363.952C742.546 364.595 740.839 364.763 739.192 364.435C737.545 364.107 736.032 363.299 734.845 362.111C733.657 360.924 732.849 359.411 732.521 357.763C732.193 356.116 732.362 354.409 733.004 352.857C733.647 351.306 734.735 349.979 736.131 349.046C737.527 348.113 739.169 347.615 740.848 347.615C743.1 347.615 745.26 348.51 746.852 350.102C748.444 351.695 749.338 353.855 749.338 356.107Z" fill="#3F5369"/>
<path d="M658.781 451.823H435.656C433.073 451.716 430.63 450.615 428.84 448.749C427.049 446.883 426.05 444.397 426.05 441.811C426.05 439.225 427.049 436.739 428.84 434.873C430.63 433.007 433.073 431.906 435.656 431.8H658.781C660.13 431.744 661.477 431.962 662.739 432.44C664.002 432.918 665.156 433.646 666.13 434.581C667.104 435.517 667.879 436.639 668.409 437.881C668.939 439.124 669.212 440.461 669.212 441.811C669.212 443.162 668.939 444.498 668.409 445.741C667.879 446.983 667.104 448.106 666.13 449.041C665.156 449.976 664.002 450.704 662.739 451.182C661.477 451.661 660.13 451.878 658.781 451.823Z" fill="#FE9284"/>
<path d="M707.566 463.05H429.356C428.798 463.05 428.262 462.828 427.867 462.433C427.472 462.038 427.25 461.502 427.25 460.944C427.25 460.385 427.472 459.85 427.867 459.455C428.262 459.06 428.798 458.838 429.356 458.838H707.566C708.124 458.838 708.66 459.06 709.055 459.455C709.45 459.85 709.671 460.385 709.671 460.944C709.671 461.502 709.45 462.038 709.055 462.433C708.66 462.828 708.124 463.05 707.566 463.05Z" fill="#FE9284"/>
<path d="M758.677 474.188H429.356C428.798 474.188 428.262 473.966 427.867 473.571C427.472 473.177 427.25 472.641 427.25 472.082C427.25 471.524 427.472 470.988 427.867 470.593C428.262 470.198 428.798 469.977 429.356 469.977H758.677C759.236 469.977 759.771 470.198 760.166 470.593C760.561 470.988 760.783 471.524 760.783 472.082C760.783 472.641 760.561 473.177 760.166 473.571C759.771 473.966 759.236 474.188 758.677 474.188Z" fill="#FE9284"/>
<path d="M740.848 485.331H429.356C428.798 485.331 428.262 485.109 427.867 484.714C427.472 484.319 427.25 483.784 427.25 483.225C427.25 482.667 427.472 482.131 427.867 481.736C428.262 481.341 428.798 481.119 429.356 481.119H740.848C741.406 481.119 741.942 481.341 742.337 481.736C742.731 482.131 742.953 482.667 742.953 483.225C742.953 483.784 742.731 484.319 742.337 484.714C741.942 485.109 741.406 485.331 740.848 485.331Z" fill="#FE9284"/>
<path d="M707.566 496.573H429.356C428.828 496.525 428.337 496.282 427.979 495.891C427.622 495.499 427.423 494.988 427.423 494.458C427.423 493.928 427.622 493.417 427.979 493.026C428.337 492.634 428.828 492.391 429.356 492.344H707.566C708.094 492.391 708.585 492.634 708.943 493.026C709.301 493.417 709.499 493.928 709.499 494.458C709.499 494.988 709.301 495.499 708.943 495.891C708.585 496.282 708.094 496.525 707.566 496.573Z" fill="#FE9284"/>
<path d="M658.781 742.965H435.656C433.073 742.859 430.63 741.758 428.84 739.892C427.049 738.026 426.05 735.54 426.05 732.954C426.05 730.368 427.049 727.882 428.84 726.016C430.63 724.15 433.073 723.049 435.656 722.942H658.781C660.13 722.886 661.477 723.104 662.739 723.582C664.002 724.06 665.156 724.789 666.13 725.724C667.104 726.659 667.879 727.782 668.409 729.024C668.939 730.266 669.212 731.603 669.212 732.954C669.212 734.304 668.939 735.641 668.409 736.883C667.879 738.126 667.104 739.248 666.13 740.183C665.156 741.118 664.002 741.847 662.739 742.325C661.477 742.803 660.13 743.021 658.781 742.965Z" fill="#FE9284"/>
<path d="M707.566 754.192H429.356C428.798 754.192 428.262 753.97 427.867 753.575C427.472 753.181 427.25 752.645 427.25 752.086C427.25 751.528 427.472 750.992 427.867 750.597C428.262 750.202 428.798 749.98 429.356 749.98H707.566C708.124 749.98 708.66 750.202 709.055 750.597C709.45 750.992 709.671 751.528 709.671 752.086C709.671 752.645 709.45 753.181 709.055 753.575C708.66 753.97 708.124 754.192 707.566 754.192Z" fill="#FE9284"/>
<path d="M758.677 765.333H429.356C428.798 765.333 428.262 765.111 427.867 764.716C427.472 764.321 427.25 763.785 427.25 763.227C427.25 762.668 427.472 762.133 427.867 761.738C428.262 761.343 428.798 761.121 429.356 761.121H758.677C759.236 761.121 759.771 761.343 760.166 761.738C760.561 762.133 760.783 762.668 760.783 763.227C760.783 763.785 760.561 764.321 760.166 764.716C759.771 765.111 759.236 765.333 758.677 765.333Z" fill="#FE9284"/>
<path d="M740.848 776.474H429.356C428.798 776.474 428.262 776.252 427.867 775.857C427.472 775.462 427.25 774.926 427.25 774.368C427.25 773.809 427.472 773.273 427.867 772.878C428.262 772.484 428.798 772.262 429.356 772.262H740.848C741.406 772.262 741.942 772.484 742.337 772.878C742.731 773.273 742.953 773.809 742.953 774.368C742.953 774.926 742.731 775.462 742.337 775.857C741.942 776.252 741.406 776.474 740.848 776.474Z" fill="#FE9284"/>
<path d="M707.566 787.631H429.356C428.828 787.584 428.337 787.341 427.979 786.949C427.622 786.558 427.423 786.047 427.423 785.517C427.423 784.987 427.622 784.476 427.979 784.084C428.337 783.693 428.828 783.45 429.356 783.402H707.566C708.094 783.45 708.585 783.693 708.943 784.084C709.301 784.476 709.499 784.987 709.499 785.517C709.499 786.047 709.301 786.558 708.943 786.949C708.585 787.341 708.094 787.584 707.566 787.631Z" fill="#FE9284"/>
<path d="M658.781 843.963H435.656C433.073 843.857 430.63 842.756 428.84 840.89C427.049 839.024 426.05 836.538 426.05 833.952C426.05 831.366 427.049 828.88 428.84 827.014C430.63 825.148 433.073 824.047 435.656 823.94H658.781C660.13 823.885 661.477 824.102 662.739 824.58C664.002 825.058 665.156 825.787 666.13 826.722C667.104 827.657 667.879 828.78 668.409 830.022C668.939 831.264 669.212 832.601 669.212 833.952C669.212 835.302 668.939 836.639 668.409 837.881C667.879 839.124 667.104 840.246 666.13 841.181C665.156 842.116 664.002 842.845 662.739 843.323C661.477 843.801 660.13 844.019 658.781 843.963Z" fill="#FE9284"/>
<path d="M707.566 855.19H429.356C428.798 855.19 428.262 854.968 427.867 854.573C427.472 854.179 427.25 853.643 427.25 853.084C427.25 852.526 427.472 851.99 427.867 851.595C428.262 851.2 428.798 850.979 429.356 850.979H707.566C708.124 850.979 708.66 851.2 709.055 851.595C709.45 851.99 709.671 852.526 709.671 853.084C709.671 853.643 709.45 854.179 709.055 854.573C708.66 854.968 708.124 855.19 707.566 855.19Z" fill="#FE9284"/>
<path d="M758.677 866.329H429.356C428.798 866.329 428.262 866.107 427.867 865.712C427.472 865.317 427.25 864.782 427.25 864.223C427.25 863.665 427.472 863.129 427.867 862.734C428.262 862.339 428.798 862.117 429.356 862.117H758.677C759.236 862.117 759.771 862.339 760.166 862.734C760.561 863.129 760.783 863.665 760.783 864.223C760.783 864.782 760.561 865.317 760.166 865.712C759.771 866.107 759.236 866.329 758.677 866.329Z" fill="#FE9284"/>
<path d="M740.848 877.472H429.356C428.798 877.472 428.262 877.25 427.867 876.855C427.472 876.46 427.25 875.924 427.25 875.366C427.25 874.807 427.472 874.272 427.867 873.877C428.262 873.482 428.798 873.26 429.356 873.26H740.848C741.406 873.26 741.942 873.482 742.337 873.877C742.731 874.272 742.953 874.807 742.953 875.366C742.953 875.924 742.731 876.46 742.337 876.855C741.942 877.25 741.406 877.472 740.848 877.472Z" fill="#FE9284"/>
<path d="M707.566 888.629H429.356C428.828 888.582 428.337 888.339 427.979 887.947C427.622 887.556 427.423 887.045 427.423 886.515C427.423 885.985 427.622 885.474 427.979 885.082C428.337 884.691 428.828 884.448 429.356 884.4H707.566C708.094 884.448 708.585 884.691 708.943 885.082C709.301 885.474 709.499 885.985 709.499 886.515C709.499 887.045 709.301 887.556 708.943 887.947C708.585 888.339 708.094 888.582 707.566 888.629Z" fill="#FE9284"/>
<path d="M404.972 423.002H343.859C338.017 423.002 333.28 427.739 333.28 433.582V494.705C333.28 500.548 338.017 505.285 343.859 505.285H404.972C410.815 505.285 415.551 500.548 415.551 494.705V433.582C415.551 427.739 410.815 423.002 404.972 423.002Z" fill="#FE9284"/>
<path d="M404.972 714.145H343.859C338.017 714.145 333.28 718.882 333.28 724.725V785.847C333.28 791.691 338.017 796.428 343.859 796.428H404.972C410.815 796.428 415.551 791.691 415.551 785.847V724.725C415.551 718.882 410.815 714.145 404.972 714.145Z" fill="#FE9284"/>
<path d="M404.972 815.143H343.859C338.017 815.143 333.28 819.88 333.28 825.723V886.845C333.28 892.689 338.017 897.426 343.859 897.426H404.972C410.815 897.426 415.551 892.689 415.551 886.845V825.723C415.551 819.88 410.815 815.143 404.972 815.143Z" fill="#FE9284"/>
<path d="M836.568 1007C836.559 1017.28 832.474 1027.14 825.21 1034.41C817.946 1041.68 808.095 1045.77 797.818 1045.79H305.161C294.882 1045.78 285.028 1041.69 277.763 1034.41C270.498 1027.14 266.415 1017.28 266.411 1007V266.724C266.42 256.448 270.505 246.596 277.77 239.33C285.035 232.063 294.886 227.977 305.161 227.968H797.818C808.091 227.982 817.939 232.069 825.203 239.334C832.467 246.6 836.554 256.449 836.568 266.724V1007ZM255.832 346.069V393.435H260.672V346.069H255.832ZM255.832 288.581V335.947H260.672V288.581H255.832ZM797.903 220.988H305.161C293.042 221.02 281.429 225.848 272.86 234.419C264.291 242.989 259.463 254.604 259.432 266.724V1007C259.463 1019.12 264.291 1030.74 272.86 1039.31C281.429 1047.88 293.042 1052.71 305.161 1052.74H797.818C809.936 1052.71 821.549 1047.88 830.118 1039.31C838.688 1030.74 843.515 1019.12 843.547 1007V266.724C843.515 254.604 838.688 242.989 830.118 234.419C821.549 225.848 809.936 221.02 797.818 220.988H797.903Z" fill="#CC4534"/>
<path d="M551.481 277.864C549.51 277.861 547.585 277.273 545.948 276.176C544.311 275.078 543.036 273.52 542.284 271.698C541.532 269.876 541.337 267.872 541.724 265.94C542.11 264.007 543.061 262.232 544.456 260.84C545.85 259.447 547.627 258.499 549.56 258.116C551.493 257.733 553.496 257.931 555.316 258.686C557.137 259.441 558.692 260.719 559.787 262.358C560.881 263.997 561.466 265.924 561.466 267.895C561.466 269.205 561.207 270.503 560.705 271.714C560.203 272.924 559.467 274.024 558.54 274.95C557.613 275.876 556.512 276.61 555.301 277.11C554.089 277.61 552.791 277.866 551.481 277.864Z" fill="#B0BDCF"/>
<path d="M551.481 273.075C550.449 273.075 549.44 272.768 548.584 272.192C547.727 271.616 547.061 270.799 546.671 269.843C546.281 268.887 546.184 267.837 546.393 266.827C546.602 265.816 547.107 264.89 547.844 264.168C548.581 263.445 549.516 262.958 550.531 262.769C551.545 262.581 552.593 262.698 553.541 263.107C554.488 263.516 555.293 264.198 555.851 265.066C556.41 265.934 556.697 266.948 556.677 267.98C556.65 269.341 556.091 270.637 555.119 271.589C554.148 272.542 552.841 273.076 551.481 273.075Z" fill="black"/>
<path d="M555.437 267.897C554.964 267.897 554.501 267.756 554.107 267.493C553.713 267.23 553.406 266.856 553.225 266.418C553.044 265.981 552.997 265.499 553.089 265.035C553.181 264.57 553.409 264.144 553.744 263.809C554.079 263.474 554.506 263.246 554.97 263.153C555.435 263.061 555.916 263.108 556.353 263.29C556.791 263.471 557.165 263.778 557.428 264.172C557.691 264.565 557.831 265.028 557.831 265.502C557.831 265.817 557.77 266.128 557.649 266.418C557.529 266.709 557.353 266.973 557.13 267.195C556.908 267.418 556.644 267.594 556.353 267.714C556.063 267.835 555.752 267.897 555.437 267.897Z" fill="white"/>
<path d="M551.498 985.468C548.992 985.472 546.506 985.903 544.145 986.742C543.498 986.952 542.867 987.214 542.261 987.523C541.836 987.71 541.411 987.914 541.004 988.135L540.766 988.287C538.705 989.437 536.846 990.917 535.264 992.669L534.959 993.026C534.636 993.399 534.314 993.756 534.025 994.147C533.736 994.537 533.108 995.403 532.683 996.066C532.259 996.728 532.14 997.017 531.885 997.509L531.376 998.579C530.104 1001.39 529.45 1004.44 529.457 1007.53C529.457 1011.89 530.75 1016.16 533.172 1019.79C535.593 1023.42 539.036 1026.25 543.065 1027.92C547.093 1029.59 551.527 1030.03 555.807 1029.19C560.087 1028.34 564.021 1026.25 567.111 1023.17C570.202 1020.09 572.311 1016.17 573.172 1011.89C574.033 1007.61 573.608 1003.17 571.95 999.139C570.293 995.103 567.477 991.649 563.858 989.213C560.239 986.777 555.979 985.468 551.617 985.451L551.498 985.468ZM551.498 1027.25C548.918 1027.25 546.363 1026.74 543.978 1025.76C541.594 1024.77 539.427 1023.33 537.601 1021.5C535.775 1019.68 534.326 1017.52 533.336 1015.13C532.347 1012.75 531.837 1010.19 531.834 1007.61C531.836 1005.63 532.128 1003.66 532.7 1001.76C533.042 1000.75 533.45 999.768 533.923 998.817C534.073 998.495 534.243 998.183 534.432 997.883C534.587 997.554 534.775 997.241 534.993 996.949C535.171 996.628 535.381 996.326 535.621 996.049C536.023 995.444 536.478 994.876 536.979 994.35C538.369 992.796 540.011 991.487 541.836 990.478C541.836 990.478 541.836 990.478 541.921 990.478C542.359 990.204 542.819 989.965 543.296 989.765H543.381C543.75 989.587 544.13 989.434 544.519 989.306L544.858 989.17C546.986 988.396 549.234 988.005 551.498 988.016C554.125 987.938 556.742 988.389 559.192 989.342C561.642 990.294 563.876 991.728 565.762 993.56C567.648 995.391 569.147 997.582 570.171 1000C571.194 1002.43 571.722 1005.03 571.722 1007.66C571.722 1010.29 571.194 1012.89 570.171 1015.31C569.147 1017.73 567.648 1019.92 565.762 1021.75C563.876 1023.59 561.642 1025.02 559.192 1025.97C556.742 1026.92 554.125 1027.37 551.498 1027.3V1027.25Z" fill="#ACD8FD"/>
<path d="M531.359 1002.4H531.461C531.736 1002.45 532.021 1002.4 532.261 1002.26C532.502 1002.11 532.682 1001.89 532.768 1001.62C533.643 998.931 535.078 996.459 536.979 994.367C537.161 994.168 537.269 993.913 537.285 993.643C537.3 993.374 537.222 993.108 537.064 992.89C536.959 992.746 536.824 992.628 536.667 992.544C536.51 992.46 536.337 992.412 536.159 992.404C535.981 992.395 535.804 992.427 535.641 992.497C535.477 992.566 535.331 992.671 535.213 992.805C533.039 995.148 531.399 997.935 530.408 1000.97C530.373 1001.13 530.371 1001.29 530.4 1001.45C530.43 1001.61 530.491 1001.76 530.579 1001.89C530.668 1002.02 530.783 1002.14 530.917 1002.22C531.051 1002.31 531.201 1002.37 531.359 1002.4Z" fill="#E6E7E8"/>
<path d="M545.639 987.659V987.506C545.591 987.358 545.514 987.221 545.413 987.103C545.312 986.985 545.188 986.889 545.049 986.819C544.91 986.749 544.758 986.708 544.603 986.698C544.448 986.688 544.292 986.708 544.145 986.759C542.968 987.168 541.831 987.685 540.749 988.304C540.5 988.447 540.314 988.678 540.226 988.951C540.138 989.224 540.155 989.52 540.273 989.781C540.271 989.821 540.271 989.861 540.273 989.9C540.335 990.06 540.432 990.203 540.555 990.322C540.678 990.44 540.826 990.53 540.988 990.585C541.15 990.64 541.322 990.659 541.492 990.64C541.661 990.622 541.825 990.566 541.971 990.478C542.912 989.947 543.895 989.492 544.909 989.119C545.194 989.015 545.429 988.806 545.565 988.534C545.7 988.263 545.727 987.949 545.639 987.659Z" fill="#E6E7E8"/>
<path d="M551.481 1027.26C547.596 1027.26 543.799 1026.11 540.57 1023.94C537.342 1021.78 534.826 1018.71 533.342 1015.12C531.857 1011.53 531.471 1007.58 532.231 1003.77C532.991 999.96 534.863 996.46 537.611 993.714C540.36 990.968 543.86 989.098 547.671 988.341C551.482 987.584 555.431 987.974 559.02 989.462C562.609 990.95 565.676 993.468 567.834 996.699C569.992 999.93 571.144 1003.73 571.144 1007.61C571.144 1010.2 570.635 1012.75 569.647 1015.14C568.659 1017.52 567.21 1019.69 565.384 1021.51C563.558 1023.34 561.39 1024.79 559.004 1025.77C556.619 1026.76 554.062 1027.27 551.481 1027.26Z" fill="#FE9284"/>
<g style="mix-blend-mode:multiply">
<path d="M528.896 623.591V692.559C528.896 694.274 528.559 695.973 527.902 697.557C527.246 699.142 526.284 700.581 525.072 701.794C523.859 703.007 522.42 703.969 520.835 704.625C519.251 705.282 517.553 705.619 515.838 705.619H259.432V610.514H515.838C517.555 610.514 519.254 610.852 520.839 611.509C522.425 612.167 523.865 613.13 525.078 614.345C526.291 615.559 527.252 617.001 527.907 618.588C528.562 620.174 528.899 621.874 528.896 623.591Z" fill="#C1D1DE"/>
</g>
<g style="mix-blend-mode:multiply">
<path d="M843.547 266.724V684.051H609.402C603.496 684.054 597.648 682.892 592.192 680.633C586.735 678.373 581.778 675.061 577.602 670.884C573.426 666.708 570.114 661.749 567.855 656.292C565.596 650.835 564.435 644.986 564.437 639.08V220.988H797.818C809.936 221.02 821.549 225.848 830.118 234.419C838.687 242.989 843.515 254.604 843.547 266.724Z" fill="#D7DADE"/>
</g>
<path d="M925.478 116.151V610.87C925.46 622.781 920.72 634.199 912.297 642.62C903.875 651.041 892.457 655.777 880.548 655.791H629.235C623.33 655.793 617.482 654.631 612.025 652.372C606.569 650.113 601.611 646.8 597.435 642.624C593.26 638.448 589.948 633.489 587.689 628.032C585.43 622.575 584.268 616.726 584.271 610.819V116.151C584.266 104.216 589 92.7676 597.431 84.3221C605.863 75.8765 617.302 71.1248 629.235 71.1113H880.548C886.455 71.118 892.303 72.2883 897.757 74.5553C903.212 76.8224 908.167 80.1418 912.339 84.3241C916.512 88.5064 919.819 93.4697 922.074 98.9305C924.328 104.391 925.485 110.243 925.478 116.151Z" fill="white"/>
<path d="M779.7 136.377H628.25C626.994 136.377 625.789 135.878 624.9 134.989C624.012 134.101 623.513 132.895 623.513 131.639C623.513 130.382 624.012 129.177 624.9 128.288C625.789 127.4 626.994 126.9 628.25 126.9H779.7C780.956 126.9 782.161 127.4 783.05 128.288C783.938 129.177 784.438 130.382 784.438 131.639C784.438 132.895 783.938 134.101 783.05 134.989C782.161 135.878 780.956 136.377 779.7 136.377Z" fill="#F86A58"/>
<path d="M779.7 162.226H701.589C700.38 162.154 699.243 161.622 698.412 160.74C697.581 159.857 697.119 158.691 697.119 157.479C697.119 156.267 697.581 155.101 698.412 154.219C699.243 153.336 700.38 152.805 701.589 152.732H779.7C780.91 152.805 782.046 153.336 782.877 154.219C783.708 155.101 784.17 156.267 784.17 157.479C784.17 158.691 783.708 159.857 782.877 160.74C782.046 161.622 780.91 162.154 779.7 162.226Z" fill="#F86A58"/>
<path d="M684.32 162.225H628.284C627.074 162.152 625.938 161.621 625.107 160.738C624.276 159.856 623.813 158.69 623.813 157.478C623.813 156.266 624.276 155.1 625.107 154.217C625.938 153.335 627.074 152.804 628.284 152.731H684.32C684.967 152.692 685.615 152.786 686.225 153.007C686.834 153.229 687.392 153.572 687.864 154.016C688.336 154.461 688.712 154.997 688.969 155.593C689.226 156.188 689.359 156.83 689.359 157.478C689.359 158.126 689.226 158.768 688.969 159.363C688.712 159.958 688.336 160.495 687.864 160.939C687.392 161.384 686.834 161.727 686.225 161.948C685.615 162.169 684.967 162.263 684.32 162.225Z" fill="#F86A58"/>
<path d="M870.02 103.906H833.749C824.84 103.906 817.618 111.13 817.618 120.04V169.071C817.618 177.981 824.84 185.205 833.749 185.205H870.02C878.929 185.205 886.151 177.981 886.151 169.071V120.04C886.151 111.13 878.929 103.906 870.02 103.906Z" fill="#F86A58"/>
<path d="M860.579 138.402C865.38 133.6 865.38 125.814 860.579 121.013C855.778 116.211 847.994 116.211 843.193 121.013C838.392 125.814 838.392 133.6 843.193 138.402C847.994 143.203 855.778 143.203 860.579 138.402Z" fill="white"/>
<path d="M827.348 156.588V173.197H876.472V156.588C862.905 146.721 840.898 146.721 827.348 156.588Z" fill="white"/>
<path d="M881.431 264.822H729.998C728.788 264.749 727.652 264.218 726.821 263.335C725.99 262.453 725.527 261.287 725.527 260.075C725.527 258.863 725.99 257.697 726.821 256.814C727.652 255.932 728.788 255.401 729.998 255.328H881.431C882.64 255.401 883.777 255.932 884.608 256.814C885.438 257.697 885.901 258.863 885.901 260.075C885.901 261.287 885.438 262.453 884.608 263.335C883.777 264.218 882.64 264.749 881.431 264.822Z" fill="#F86A58"/>
<path d="M881.431 290.654H803.32C802.111 290.581 800.974 290.05 800.143 289.167C799.312 288.285 798.85 287.119 798.85 285.907C798.85 284.695 799.312 283.529 800.143 282.646C800.974 281.764 802.111 281.233 803.32 281.16H881.431C882.641 281.233 883.777 281.764 884.608 282.646C885.439 283.529 885.901 284.695 885.901 285.907C885.901 287.119 885.439 288.285 884.608 289.167C883.777 290.05 882.641 290.581 881.431 290.654Z" fill="#F86A58"/>
<path d="M786.068 290.654H730.032C728.822 290.581 727.686 290.05 726.855 289.167C726.024 288.285 725.562 287.119 725.562 285.907C725.562 284.695 726.024 283.529 726.855 282.646C727.686 281.764 728.822 281.233 730.032 281.16H786.068C787.278 281.233 788.414 281.764 789.245 282.646C790.076 283.529 790.539 284.695 790.539 285.907C790.539 287.119 790.076 288.285 789.245 289.167C788.414 290.05 787.278 290.581 786.068 290.654Z" fill="#F86A58"/>
<path d="M688.991 300.124C703.971 285.142 703.971 260.85 688.991 245.868C674.01 230.886 649.723 230.886 634.743 245.868C619.762 260.85 619.762 285.142 634.743 300.124C649.723 315.107 674.01 315.107 688.991 300.124Z" fill="#F86A58"/>
<path d="M661.498 294.899H660.938C660.294 294.814 659.678 294.582 659.139 294.219C658.6 293.857 658.152 293.375 657.83 292.81L637.725 257.434C637.198 256.459 637.074 255.316 637.378 254.25C637.682 253.184 638.391 252.279 639.354 251.729C640.316 251.179 641.456 251.028 642.528 251.307C643.601 251.586 644.522 252.273 645.095 253.223L662.534 283.792L679.515 266.911C679.907 266.506 680.376 266.183 680.894 265.962C681.412 265.74 681.969 265.624 682.533 265.619C683.097 265.615 683.655 265.724 684.177 265.938C684.698 266.152 685.172 266.468 685.57 266.867C685.968 267.266 686.282 267.741 686.495 268.263C686.708 268.785 686.814 269.344 686.809 269.908C686.803 270.472 686.685 271.029 686.462 271.546C686.239 272.064 685.915 272.532 685.509 272.923L664.64 293.71C664.225 294.114 663.733 294.427 663.192 294.632C662.652 294.836 662.075 294.927 661.498 294.899Z" fill="white"/>
<path d="M782.536 397.546H631.103C630.456 397.507 629.808 397.601 629.198 397.822C628.589 398.043 628.031 398.386 627.559 398.831C627.087 399.276 626.711 399.812 626.454 400.407C626.197 401.002 626.064 401.644 626.064 402.292C626.064 402.941 626.197 403.582 626.454 404.178C626.711 404.773 627.087 405.309 627.559 405.754C628.031 406.198 628.589 406.542 629.198 406.763C629.808 406.984 630.456 407.078 631.103 407.039H782.536C783.745 406.967 784.882 406.435 785.713 405.553C786.544 404.671 787.006 403.504 787.006 402.292C787.006 401.08 786.544 399.914 785.713 399.032C784.882 398.15 783.745 397.618 782.536 397.546Z" fill="#F86A58"/>
<path d="M782.536 371.714H704.425C703.778 371.675 703.13 371.769 702.52 371.99C701.911 372.211 701.353 372.554 700.881 372.999C700.409 373.443 700.033 373.98 699.776 374.575C699.519 375.17 699.387 375.812 699.387 376.46C699.387 377.109 699.519 377.75 699.776 378.346C700.033 378.941 700.409 379.477 700.881 379.922C701.353 380.366 701.911 380.71 702.52 380.931C703.13 381.152 703.778 381.246 704.425 381.207H782.536C783.746 381.135 784.882 380.603 785.713 379.721C786.544 378.839 787.006 377.672 787.006 376.46C787.006 375.248 786.544 374.082 785.713 373.2C784.882 372.318 783.746 371.786 782.536 371.714Z" fill="#F86A58"/>
<path d="M687.173 371.714H631.137C630.49 371.675 629.842 371.769 629.232 371.99C628.623 372.211 628.065 372.554 627.593 372.999C627.121 373.443 626.745 373.98 626.488 374.575C626.231 375.17 626.099 375.812 626.099 376.46C626.099 377.109 626.231 377.75 626.488 378.346C626.745 378.941 627.121 379.477 627.593 379.922C628.065 380.366 628.623 380.71 629.232 380.931C629.842 381.152 630.49 381.246 631.137 381.207H687.173C688.383 381.135 689.519 380.603 690.35 379.721C691.181 378.839 691.644 377.672 691.644 376.46C691.644 375.248 691.181 374.082 690.35 373.2C689.519 372.318 688.383 371.786 687.173 371.714Z" fill="#F86A58"/>
<path d="M850.645 427.742C871.83 427.742 889.004 410.565 889.004 389.377C889.004 368.188 871.83 351.012 850.645 351.012C829.46 351.012 812.286 368.188 812.286 389.377C812.286 410.565 829.46 427.742 850.645 427.742Z" fill="#F86A58"/>
<path d="M850.645 405.817C859.723 405.817 867.082 398.457 867.082 389.377C867.082 380.298 859.723 372.938 850.645 372.938C841.567 372.938 834.208 380.298 834.208 389.377C834.208 398.457 841.567 405.817 850.645 405.817Z" fill="white"/>
<path d="M642.021 488.338V632.576C642.021 633.702 641.574 634.782 640.778 635.578C639.982 636.374 638.902 636.821 637.776 636.821C636.65 636.821 635.57 636.374 634.774 635.578C633.978 634.782 633.531 633.702 633.531 632.576V488.338C633.531 487.212 633.978 486.132 634.774 485.335C635.57 484.539 636.65 484.092 637.776 484.092C638.902 484.092 639.982 484.539 640.778 485.335C641.574 486.132 642.021 487.212 642.021 488.338Z" fill="#F86A58"/>
<path d="M637.725 633.137C637.575 633.132 637.432 633.07 637.328 632.962C637.223 632.854 637.165 632.71 637.165 632.559V488.338C637.15 488.255 637.154 488.17 637.176 488.089C637.198 488.008 637.238 487.932 637.292 487.868C637.346 487.803 637.414 487.752 637.49 487.716C637.566 487.68 637.649 487.662 637.734 487.662C637.818 487.662 637.901 487.68 637.977 487.716C638.054 487.752 638.121 487.803 638.175 487.868C638.23 487.932 638.269 488.008 638.291 488.089C638.313 488.17 638.317 488.255 638.302 488.338V632.559C638.302 632.712 638.242 632.859 638.133 632.968C638.025 633.076 637.878 633.137 637.725 633.137Z" fill="white"/>
<g style="mix-blend-mode:multiply">
<path d="M642.021 492.686V517.906C639.267 518.834 636.285 518.834 633.531 517.906V492.686C636.281 491.735 639.271 491.735 642.021 492.686Z" fill="#C8C8C8"/>
</g>
<path d="M649.204 505.287C649.204 507.546 648.535 509.753 647.282 511.632C646.028 513.51 644.246 514.975 642.161 515.842C640.076 516.708 637.781 516.938 635.565 516.501C633.35 516.064 631.314 514.98 629.713 513.387C628.113 511.794 627.021 509.762 626.574 507.548C626.127 505.334 626.346 503.038 627.203 500.948C628.061 498.859 629.517 497.071 631.39 495.809C633.263 494.547 635.467 493.868 637.725 493.858C639.231 493.849 640.723 494.138 642.117 494.708C643.51 495.279 644.777 496.12 645.844 497.182C646.911 498.245 647.757 499.508 648.334 500.899C648.911 502.29 649.206 503.781 649.204 505.287Z" fill="#F86A58"/>
<path d="M689.974 488.338V632.576C689.974 633.702 689.527 634.782 688.731 635.578C687.935 636.374 686.855 636.821 685.729 636.821C684.603 636.821 683.523 636.374 682.727 635.578C681.931 634.782 681.484 633.702 681.484 632.576V488.338C681.484 487.212 681.931 486.132 682.727 485.335C683.523 484.539 684.603 484.092 685.729 484.092C686.855 484.092 687.935 484.539 688.731 485.335C689.527 486.132 689.974 487.212 689.974 488.338Z" fill="#F86A58"/>
<path d="M685.746 633.137C685.593 633.137 685.446 633.076 685.338 632.968C685.23 632.859 685.169 632.712 685.169 632.559V488.338C685.154 488.255 685.158 488.17 685.18 488.089C685.202 488.008 685.242 487.932 685.296 487.868C685.35 487.803 685.418 487.752 685.494 487.716C685.57 487.68 685.653 487.662 685.738 487.662C685.822 487.662 685.905 487.68 685.981 487.716C686.057 487.752 686.125 487.803 686.179 487.868C686.233 487.932 686.273 488.008 686.295 488.089C686.317 488.17 686.321 488.255 686.306 488.338V632.559C686.306 632.71 686.248 632.854 686.143 632.962C686.039 633.07 685.896 633.132 685.746 633.137Z" fill="white"/>
<g style="mix-blend-mode:multiply">
<path d="M689.974 549.46V574.697C687.225 575.653 684.233 575.653 681.484 574.697V549.46C684.233 548.505 687.225 548.505 689.974 549.46Z" fill="#C8C8C8"/>
</g>
<path d="M685.729 573.475C692.041 573.475 697.157 568.357 697.157 562.045C697.157 555.732 692.041 550.615 685.729 550.615C679.418 550.615 674.301 555.732 674.301 562.045C674.301 568.357 679.418 573.475 685.729 573.475Z" fill="#F86A58"/>
<path d="M737.911 488.338V632.576C737.911 633.702 737.463 634.782 736.667 635.578C735.871 636.374 734.791 636.821 733.666 636.821C732.54 636.821 731.46 636.374 730.664 635.578C729.868 634.782 729.42 633.702 729.42 632.576V488.338C729.42 487.212 729.868 486.132 730.664 485.335C731.46 484.539 732.54 484.092 733.666 484.092C734.791 484.092 735.871 484.539 736.667 485.335C737.463 486.132 737.911 487.212 737.911 488.338Z" fill="#F86A58"/>
<path d="M733.7 633.136C733.625 633.136 733.55 633.121 733.481 633.092C733.412 633.063 733.35 633.02 733.297 632.966C733.245 632.912 733.204 632.848 733.177 632.779C733.15 632.709 733.137 632.634 733.139 632.559V488.338C733.139 488.189 733.199 488.047 733.304 487.941C733.409 487.836 733.551 487.777 733.7 487.777C733.848 487.777 733.991 487.836 734.096 487.941C734.201 488.047 734.26 488.189 734.26 488.338V632.559C734.262 632.634 734.25 632.709 734.223 632.779C734.195 632.848 734.154 632.912 734.102 632.966C734.05 633.02 733.987 633.063 733.918 633.092C733.849 633.121 733.775 633.136 733.7 633.136Z" fill="white"/>
<g style="mix-blend-mode:multiply">
<path d="M737.91 519.314V544.517C735.161 545.472 732.169 545.472 729.42 544.517V519.314C732.169 518.359 735.161 518.359 737.91 519.314Z" fill="#C8C8C8"/>
</g>
<path d="M733.699 543.328C740.011 543.328 745.127 538.211 745.127 531.898C745.127 525.586 740.011 520.469 733.699 520.469C727.388 520.469 722.271 525.586 722.271 531.898C722.271 538.211 727.388 543.328 733.699 543.328Z" fill="#F86A58"/>
<path d="M785.898 488.338V632.576C785.898 633.702 785.451 634.782 784.655 635.578C783.859 636.374 782.779 636.821 781.653 636.821C780.527 636.821 779.447 636.374 778.651 635.578C777.855 634.782 777.408 633.702 777.408 632.576V488.338C777.408 487.212 777.855 486.132 778.651 485.335C779.447 484.539 780.527 484.092 781.653 484.092C782.779 484.092 783.859 484.539 784.655 485.335C785.451 486.132 785.898 487.212 785.898 488.338Z" fill="#F86A58"/>
<path d="M781.67 633.137C781.517 633.137 781.37 633.076 781.262 632.968C781.153 632.859 781.092 632.712 781.092 632.559V488.338C781.078 488.255 781.082 488.17 781.104 488.089C781.126 488.008 781.165 487.932 781.22 487.868C781.274 487.803 781.341 487.752 781.418 487.716C781.494 487.68 781.577 487.662 781.661 487.662C781.746 487.662 781.829 487.68 781.905 487.716C781.981 487.752 782.049 487.803 782.103 487.868C782.157 487.932 782.197 488.008 782.219 488.089C782.241 488.17 782.244 488.255 782.23 488.338V632.559C782.23 632.71 782.172 632.854 782.067 632.962C781.962 633.07 781.82 633.132 781.67 633.137Z" fill="white"/>
<g style="mix-blend-mode:multiply">
<path d="M785.898 594.177V619.38C783.148 620.335 780.157 620.335 777.407 619.38V594.177C780.157 593.222 783.148 593.222 785.898 594.177Z" fill="#C8C8C8"/>
</g>
<path d="M793.081 606.762C793.081 609.023 792.41 611.233 791.153 613.113C789.897 614.993 788.111 616.458 786.022 617.323C783.933 618.188 781.634 618.413 779.417 617.971C777.2 617.528 775.163 616.438 773.566 614.838C771.968 613.238 770.881 611.199 770.442 608.981C770.003 606.763 770.232 604.464 771.099 602.376C771.967 600.288 773.434 598.504 775.316 597.25C777.198 595.996 779.409 595.329 781.67 595.332C783.17 595.332 784.655 595.628 786.04 596.202C787.426 596.777 788.685 597.619 789.744 598.681C790.804 599.742 791.644 601.002 792.217 602.389C792.789 603.776 793.083 605.262 793.081 606.762Z" fill="#F86A58"/>
<path d="M833.868 488.338V632.576C833.868 633.702 833.42 634.782 832.624 635.578C831.828 636.374 830.748 636.821 829.623 636.821C828.497 636.821 827.417 636.374 826.621 635.578C825.825 634.782 825.377 633.702 825.377 632.576V488.338C825.377 487.212 825.825 486.132 826.621 485.335C827.417 484.539 828.497 484.092 829.623 484.092C830.748 484.092 831.828 484.539 832.624 485.335C833.42 486.132 833.868 487.212 833.868 488.338Z" fill="#F86A58"/>
<path d="M829.606 633.136C829.531 633.136 829.456 633.121 829.387 633.092C829.318 633.063 829.255 633.02 829.203 632.966C829.151 632.912 829.11 632.848 829.083 632.779C829.056 632.709 829.043 632.634 829.045 632.559V488.338C829.045 488.189 829.104 488.047 829.209 487.941C829.314 487.836 829.457 487.777 829.606 487.777C829.754 487.777 829.897 487.836 830.002 487.941C830.107 488.047 830.166 488.189 830.166 488.338V632.559C830.168 632.634 830.155 632.709 830.128 632.779C830.101 632.848 830.06 632.912 830.008 632.966C829.956 633.02 829.893 633.063 829.824 633.092C829.755 633.121 829.681 633.136 829.606 633.136Z" fill="white"/>
<g style="mix-blend-mode:multiply">
<path d="M833.868 549.443V574.697C831.118 575.652 828.127 575.652 825.377 574.697V549.443C828.127 548.488 831.118 548.488 833.868 549.443Z" fill="#C8C8C8"/>
</g>
<path d="M841.051 562.045C841.051 564.305 840.38 566.515 839.125 568.395C837.869 570.275 836.084 571.739 833.996 572.605C831.908 573.47 829.61 573.696 827.393 573.255C825.176 572.814 823.14 571.725 821.542 570.127C819.944 568.528 818.855 566.492 818.414 564.275C817.973 562.058 818.2 559.759 819.065 557.671C819.93 555.582 821.394 553.797 823.274 552.542C825.153 551.286 827.363 550.615 829.623 550.615C831.124 550.613 832.611 550.907 833.999 551.481C835.386 552.054 836.647 552.896 837.709 553.958C838.77 555.02 839.612 556.281 840.185 557.668C840.759 559.056 841.053 560.543 841.051 562.045Z" fill="#F86A58"/>
<path d="M881.821 488.338V632.576C881.821 633.702 881.374 634.782 880.577 635.578C879.781 636.374 878.702 636.821 877.576 636.821C876.45 636.821 875.37 636.374 874.574 635.578C873.778 634.782 873.331 633.702 873.331 632.576V488.338C873.331 487.212 873.778 486.132 874.574 485.335C875.37 484.539 876.45 484.092 877.576 484.092C878.702 484.092 879.781 484.539 880.577 485.335C881.374 486.132 881.821 487.212 881.821 488.338Z" fill="#F86A58"/>
<path d="M877.593 633.137C877.44 633.137 877.293 633.076 877.184 632.968C877.076 632.859 877.015 632.712 877.015 632.559V488.338C877.001 488.255 877.005 488.17 877.027 488.089C877.049 488.008 877.088 487.932 877.142 487.868C877.197 487.803 877.264 487.752 877.341 487.716C877.417 487.68 877.5 487.662 877.584 487.662C877.668 487.662 877.752 487.68 877.828 487.716C877.904 487.752 877.972 487.803 878.026 487.868C878.08 487.932 878.12 488.008 878.142 488.089C878.164 488.17 878.168 488.255 878.153 488.338V632.559C878.153 632.71 878.095 632.854 877.99 632.962C877.885 633.07 877.743 633.132 877.593 633.137Z" fill="white"/>
<g style="mix-blend-mode:multiply">
<path d="M881.821 578.636V603.856C879.067 604.788 876.084 604.788 873.331 603.856V578.636C876.084 577.705 879.067 577.705 881.821 578.636Z" fill="#C8C8C8"/>
</g>
<path d="M889.038 591.238C889.038 593.499 888.367 595.709 887.112 597.588C885.856 599.468 884.071 600.933 881.983 601.798C879.895 602.663 877.597 602.889 875.38 602.448C873.163 602.007 871.127 600.919 869.529 599.32C867.931 597.722 866.842 595.685 866.401 593.468C865.96 591.251 866.187 588.953 867.052 586.864C867.917 584.776 869.381 582.991 871.261 581.735C873.14 580.479 875.349 579.809 877.61 579.809C880.639 579.813 883.543 581.019 885.685 583.161C887.828 585.304 889.033 588.208 889.038 591.238Z" fill="#F86A58"/>
<path d="M285.395 116.237C285.391 117.995 284.689 119.68 283.444 120.921C282.2 122.163 280.514 122.86 278.756 122.86H269.552C268.653 122.906 267.754 122.768 266.91 122.455C266.066 122.142 265.294 121.661 264.642 121.041C263.99 120.421 263.47 119.674 263.115 118.847C262.76 118.019 262.577 117.129 262.577 116.228C262.577 115.328 262.76 114.437 263.115 113.61C263.47 112.782 263.99 112.036 264.642 111.416C265.294 110.795 266.066 110.314 266.91 110.001C267.754 109.689 268.653 109.551 269.552 109.596H278.756C279.628 109.596 280.491 109.768 281.296 110.102C282.102 110.436 282.834 110.925 283.45 111.541C284.067 112.158 284.556 112.89 284.89 113.696C285.223 114.501 285.395 115.365 285.395 116.237Z" fill="#F86A58"/>
<path d="M324.315 94.8884C324.315 94.6337 324.315 94.3619 324.315 94.1071C324.312 88.5227 326.046 83.0758 329.276 78.5208C332.507 73.9659 337.073 70.5285 342.344 68.6849C347.614 66.8413 353.328 66.6829 358.692 68.2314C364.057 69.78 368.807 72.9589 372.285 77.3278C382.675 70.6511 395.168 68.0584 407.356 70.0497C419.544 72.0411 430.563 78.4755 438.288 88.1121C439.105 89.12 440.142 89.9272 441.32 90.4719C442.497 91.0165 443.784 91.2841 445.081 91.254C450.431 91.2547 455.624 93.0684 459.811 96.3993C463.999 99.7303 466.935 104.382 468.14 109.596H474.932C476.633 109.682 478.235 110.418 479.409 111.652C480.582 112.887 481.236 114.525 481.236 116.228C481.236 117.931 480.582 119.569 479.409 120.803C478.235 122.037 476.633 122.774 474.932 122.86H304.244C302.543 122.774 300.941 122.037 299.767 120.803C298.594 119.569 297.94 117.931 297.94 116.228C297.94 114.525 298.594 112.887 299.767 111.652C300.941 110.418 302.543 109.682 304.244 109.596H316.911C316.911 106.736 317.581 103.917 318.866 101.363C320.152 98.8087 322.018 96.5913 324.315 94.8884Z" fill="#F86A58"/>
<path d="M534.449 589.354H96.6391C89.4274 589.354 83.5811 595.201 83.5811 602.414V671.365C83.5811 678.578 89.4274 684.425 96.6391 684.425H534.449C541.661 684.425 547.507 678.578 547.507 671.365V602.414C547.507 595.201 541.661 589.354 534.449 589.354Z" fill="#FFF3F1"/>
<path d="M138.734 670.94C157.537 670.94 172.78 655.695 172.78 636.889C172.78 618.083 157.537 602.838 138.734 602.838C119.931 602.838 104.688 618.083 104.688 636.889C104.688 655.695 119.931 670.94 138.734 670.94Z" fill="white"/>
<path d="M422.853 624.559H199.745C198.396 624.615 197.05 624.397 195.787 623.919C194.524 623.441 193.37 622.712 192.396 621.777C191.422 620.842 190.647 619.719 190.117 618.477C189.587 617.235 189.314 615.898 189.314 614.547C189.314 613.197 189.587 611.86 190.117 610.618C190.647 609.375 191.422 608.253 192.396 607.318C193.37 606.383 194.524 605.654 195.787 605.176C197.05 604.698 198.396 604.48 199.745 604.536H422.853C425.437 604.642 427.879 605.744 429.669 607.609C431.46 609.475 432.459 611.961 432.459 614.547C432.459 617.134 431.46 619.619 429.669 621.485C427.879 623.351 425.437 624.453 422.853 624.559Z" fill="#FE9284"/>
<path d="M471.638 635.837H193.428C192.87 635.837 192.334 635.615 191.939 635.22C191.545 634.825 191.323 634.289 191.323 633.731C191.323 633.172 191.545 632.637 191.939 632.242C192.334 631.847 192.87 631.625 193.428 631.625H471.638C472.197 631.625 472.732 631.847 473.127 632.242C473.522 632.637 473.744 633.172 473.744 633.731C473.744 634.289 473.522 634.825 473.127 635.22C472.732 635.615 472.197 635.837 471.638 635.837Z" fill="#FE9284"/>
<path d="M522.75 646.942H193.428C193.135 646.969 192.839 646.934 192.56 646.839C192.281 646.745 192.024 646.594 191.807 646.395C191.589 646.196 191.415 645.954 191.296 645.684C191.178 645.414 191.116 645.123 191.116 644.828C191.116 644.533 191.178 644.242 191.296 643.972C191.415 643.702 191.589 643.46 191.807 643.261C192.024 643.062 192.281 642.911 192.56 642.817C192.839 642.722 193.135 642.687 193.428 642.714H522.75C523.278 642.761 523.769 643.004 524.126 643.396C524.484 643.787 524.683 644.298 524.683 644.828C524.683 645.358 524.484 645.869 524.126 646.26C523.769 646.652 523.278 646.895 522.75 646.942Z" fill="#FE9284"/>
<path d="M504.92 658.083H193.428C192.87 658.083 192.334 657.861 191.939 657.466C191.545 657.071 191.323 656.536 191.323 655.977C191.323 655.418 191.545 654.883 191.939 654.488C192.334 654.093 192.87 653.871 193.428 653.871H504.92C505.478 653.871 506.014 654.093 506.409 654.488C506.804 654.883 507.026 655.418 507.026 655.977C507.026 656.536 506.804 657.071 506.409 657.466C506.014 657.861 505.478 658.083 504.92 658.083Z" fill="#FE9284"/>
<path d="M471.638 669.225H193.428C192.87 669.225 192.334 669.004 191.939 668.609C191.545 668.214 191.323 667.678 191.323 667.12C191.323 666.561 191.545 666.025 191.939 665.631C192.334 665.236 192.87 665.014 193.428 665.014H471.638C472.197 665.014 472.732 665.236 473.127 665.631C473.522 666.025 473.744 666.561 473.744 667.12C473.744 667.678 473.522 668.214 473.127 668.609C472.732 669.004 472.197 669.225 471.638 669.225Z" fill="#FE9284"/>
<path d="M138.19 661.634C137.456 661.635 136.735 661.446 136.095 661.086C135.456 660.726 134.92 660.207 134.54 659.579L119.682 635.446C119.345 634.967 119.11 634.423 118.991 633.85C118.872 633.276 118.872 632.684 118.99 632.11C119.109 631.536 119.343 630.993 119.679 630.513C120.015 630.033 120.445 629.627 120.944 629.32C121.443 629.012 121.999 628.81 122.578 628.726C123.158 628.641 123.749 628.676 124.315 628.828C124.88 628.981 125.409 629.247 125.868 629.611C126.327 629.975 126.706 630.429 126.983 630.945L137.172 647.504L147.122 619.991C147.554 618.982 148.355 618.177 149.361 617.74C150.368 617.303 151.503 617.268 152.535 617.641C153.566 618.015 154.416 618.769 154.909 619.749C155.402 620.729 155.502 621.861 155.188 622.912L142.215 658.798C141.941 659.555 141.46 660.219 140.826 660.715C140.193 661.21 139.432 661.517 138.632 661.6L138.19 661.634Z" fill="#F86A58"/>
<path fill-rule="evenodd" clip-rule="evenodd" d="M154.95 768.017L155.68 784.032L141.026 787.666V772.381C156.122 767.643 154.882 768.017 154.95 768.017Z" fill="#FAA478"/>
<path fill-rule="evenodd" clip-rule="evenodd" d="M180.37 1133.95C181.491 1140.35 197.554 1136.99 184.462 1140.74C175.157 1139.73 177.178 1140.59 174.919 1137.25C174.919 1135.68 174.749 1132.52 174.58 1130.95C181.864 1130.27 180.37 1129.33 180.37 1133.95Z" fill="#FAA478"/>
<path fill-rule="evenodd" clip-rule="evenodd" d="M175.48 1135.65C175.581 1136.49 175.979 1137.26 176.602 1137.83C177.225 1138.4 178.032 1138.73 178.876 1138.76C187.893 1139.25 188.436 1139.61 188.742 1138.3C199.354 1138.3 201.29 1138.3 200.339 1139.86C199.388 1141.42 199.253 1142.02 198.454 1142.02C176.482 1142.02 179.334 1141.48 179.453 1143.46L174.461 1143.77C173.816 1134.36 173.357 1135.65 175.48 1135.65Z" fill="#0D0057"/>
<path fill-rule="evenodd" clip-rule="evenodd" d="M142.775 1093.6C143.675 1098.69 156.903 1096.27 146.171 1099.19C137.579 1098.25 138.938 1099.44 138.038 1091.12C143.998 1090.56 142.758 1089.8 142.775 1093.6Z" fill="#FAA478"/>
<path fill-rule="evenodd" clip-rule="evenodd" d="M138.734 1094.99C138.823 1095.67 139.144 1096.3 139.642 1096.76C140.141 1097.23 140.786 1097.51 141.468 1097.56C148.922 1097.96 149.347 1098.25 149.601 1097.17C157.277 1097.17 160.028 1096.98 159.162 1098.46C158.296 1099.93 158.262 1100.24 157.616 1100.24C139.515 1100.24 141.858 1099.8 141.96 1101.43C136.594 1101.75 137.936 1103.38 137.443 1095.06L138.734 1094.99Z" fill="#0D0057"/>
<path fill-rule="evenodd" clip-rule="evenodd" d="M104.195 901.47C94.737 929.951 109.85 1050.14 137.087 1091.09C137.196 1091.25 137.343 1091.37 137.515 1091.46C137.688 1091.55 137.879 1091.59 138.071 1091.58C142.571 1091.33 142.588 1091.44 143.013 1090.97C144.303 1089.51 131.924 940.294 144.473 899.178C144.473 899.178 113.687 872.854 104.195 901.47Z" fill="#3C2E33"/>
<path fill-rule="evenodd" clip-rule="evenodd" d="M137.426 890.584C123.485 944.846 163.27 1131.29 174.546 1131.46C180.981 1131.56 180.523 1131.59 180.642 1131.46C180.76 1131.32 180.641 1142.89 182.051 883.893C182.051 883.791 146.986 853.578 137.426 890.584Z" fill="#3C2E33"/>
<path fill-rule="evenodd" clip-rule="evenodd" d="M125.251 818.999C116.285 872.479 71.7793 894.201 84.7864 900.518C119.953 917.501 159.62 915.464 197.317 885.471L187.825 838.785C199.015 838.479 207.115 819.509 199.473 813.802C195.687 810.898 189.794 806.483 189.794 806.483C188.232 783.538 172.084 774.062 163.05 775.539L131.008 782.146C125.047 820.239 125.336 818.999 125.251 818.999Z" fill="#EEEEEE"/>
<path fill-rule="evenodd" clip-rule="evenodd" d="M162.472 779.479C182.51 768.05 205.348 808.096 185.311 819.526C165.274 830.955 142.435 790.909 162.472 779.479Z" fill="#FAA478"/>
<path fill-rule="evenodd" clip-rule="evenodd" d="M149.652 687.619C130.091 686.498 133.724 703.753 121.074 707.795C98.167 715.063 101.886 746.397 111.769 760.731C112.274 761.472 112.628 762.307 112.81 763.186C112.992 764.064 112.998 764.971 112.827 765.852C112.657 766.733 112.313 767.572 111.817 768.319C111.32 769.067 110.681 769.709 109.935 770.208C94.1087 780.856 80.7619 815.858 90.1862 821.972C90.6967 822.311 91.1333 822.75 91.4696 823.262C91.8059 823.774 92.0349 824.349 92.1429 824.952C92.2508 825.555 92.2354 826.174 92.0975 826.771C91.9597 827.368 91.7023 827.931 91.3409 828.426C82.5789 840.586 93.2427 854.903 103.906 848.925C105.171 848.209 106.662 848.01 108.07 848.367C109.478 848.725 110.693 849.612 111.463 850.844C117.406 860.405 135.864 863.751 141.637 827.067C147.869 787.429 139.243 784.609 146.613 780.415C157.463 774.131 177.178 745.922 174.749 724.54C172.372 704.16 156.954 710.954 159.467 702.734C162.405 692.849 157.837 687.619 149.652 687.619Z" fill="#4B2200"/>
<path fill-rule="evenodd" clip-rule="evenodd" d="M147.343 698.13C130.192 697.145 133.402 712.26 122.313 715.81C102.242 722.178 105.503 749.623 114.163 762.174C114.614 762.821 114.93 763.552 115.094 764.324C115.257 765.096 115.263 765.893 115.113 766.667C114.963 767.442 114.658 768.178 114.218 768.833C113.777 769.487 113.21 770.047 112.55 770.478C98.6934 779.802 86.9938 810.406 95.2463 815.823C95.6923 816.121 96.0737 816.506 96.3677 816.955C96.6617 817.403 96.8621 817.907 96.9572 818.434C97.0524 818.962 97.0401 819.504 96.9212 820.027C96.8023 820.55 96.5792 821.044 96.2652 821.479C88.59 832.127 97.9632 844.661 107.269 839.43C108.378 838.805 109.687 838.632 110.921 838.949C112.155 839.265 113.219 840.046 113.891 841.128C119.104 849.501 135.253 852.422 140.313 820.341C145.781 785.627 138.224 783.08 144.677 779.462C154.186 773.96 171.506 749.266 169.333 730.534C167.516 715.011 158.346 717.915 156.275 714.434C154.576 711.581 161.522 698.13 147.343 698.13Z" fill="#170B00"/>
<path fill-rule="evenodd" clip-rule="evenodd" d="M143.811 714.145C130.379 713.38 132.875 725.235 124.181 728.02C108.44 733.013 111.004 754.531 117.797 764.381C118.15 764.888 118.398 765.46 118.526 766.064C118.654 766.668 118.66 767.292 118.542 767.899C118.425 768.505 118.188 769.082 117.844 769.595C117.5 770.108 117.057 770.547 116.54 770.886C105.656 778.205 96.4861 802.203 102.956 806.448C103.306 806.682 103.605 806.983 103.835 807.335C104.066 807.686 104.223 808.081 104.298 808.495C104.372 808.909 104.363 809.333 104.269 809.743C104.176 810.153 104 810.54 103.754 810.881C97.7257 819.237 105.061 829.07 112.363 824.96C113.235 824.466 114.264 824.329 115.235 824.575C116.207 824.822 117.045 825.435 117.576 826.285C121.651 832.857 134.319 835.15 138.292 809.981C142.571 782.808 136.594 780.77 141.688 777.917C149.143 773.603 162.727 754.242 161.029 739.552C159.603 727.358 152.42 729.667 150.841 726.933C149.499 724.725 154.916 714.145 143.811 714.145Z" fill="#421E00"/>
<path fill-rule="evenodd" clip-rule="evenodd" d="M141.06 726.713C130.176 726.102 132.91 735.205 125.659 737.582C113.314 741.505 115.318 758.387 120.65 766.097C120.926 766.494 121.121 766.942 121.221 767.416C121.321 767.889 121.326 768.378 121.234 768.853C121.142 769.328 120.956 769.779 120.686 770.181C120.417 770.583 120.069 770.927 119.665 771.192C111.175 776.932 103.941 795.75 109.018 799.078C109.547 799.449 109.91 800.012 110.027 800.648C110.145 801.283 110.008 801.939 109.646 802.475C104.926 809.03 110.665 816.741 116.439 813.514C117.121 813.132 117.924 813.027 118.683 813.22C119.441 813.412 120.096 813.888 120.514 814.55C123.723 819.645 133.657 821.513 136.764 801.762C140.16 780.38 135.474 778.868 139.447 776.627C145.288 773.23 155.952 758.047 154.611 746.532C153.507 736.971 147.819 738.771 146.579 736.631C145.509 735.001 149.771 726.713 141.06 726.713Z" fill="#2A1300"/>
<path fill-rule="evenodd" clip-rule="evenodd" d="M137.189 744.291C130.498 743.918 132.094 749.556 127.713 750.983C120.123 753.394 121.363 763.771 124.64 768.526C124.809 768.772 124.927 769.048 124.988 769.34C125.049 769.632 125.051 769.933 124.994 770.225C124.937 770.518 124.822 770.796 124.657 771.044C124.491 771.292 124.277 771.504 124.029 771.668C118.782 775.201 114.367 786.766 117.491 788.821C117.659 788.935 117.802 789.081 117.912 789.251C118.022 789.422 118.097 789.612 118.131 789.812C118.166 790.012 118.161 790.216 118.115 790.414C118.069 790.611 117.984 790.797 117.865 790.961C114.961 794.986 118.493 799.724 122.025 797.754C122.445 797.518 122.939 797.451 123.407 797.568C123.874 797.685 124.279 797.977 124.538 798.383C126.508 801.559 132.621 802.662 134.523 790.519C136.594 777.374 133.742 776.423 136.221 775.048C139.804 772.976 146.409 763.635 145.543 756.553C144.864 750.677 141.383 751.781 140.602 750.456C139.821 749.131 142.555 744.291 137.189 744.291Z" fill="#0F0700"/>
<path fill-rule="evenodd" clip-rule="evenodd" d="M254.219 705.739C257.75 674.643 257.496 680.604 250.024 663.281C248.173 659.001 251.468 663.96 255.475 634.155C258.583 631.166 262.267 637.857 261.418 642.528C258.413 658.203 258.311 657.812 259.007 657.49L264.509 655.52C270.01 657.082 272.778 662.975 272.999 665.71C273.591 666.241 274.071 666.886 274.41 667.607C274.748 668.328 274.938 669.109 274.969 669.904C273.024 672.375 270.449 674.276 267.514 675.407C268.402 676.109 269.14 676.982 269.685 677.974C270.23 678.965 270.572 680.056 270.69 681.181C270.809 682.285 269.993 689.248 269.144 696.075C269.041 697.803 268.533 699.482 267.661 700.977C266.789 702.472 265.577 703.741 264.125 704.682C262.672 705.623 261.018 706.208 259.298 706.392C257.577 706.576 255.837 706.352 254.219 705.739Z" fill="#FAA478"/>
<path fill-rule="evenodd" clip-rule="evenodd" d="M272.269 663.01C271.539 661.312 271.929 661.549 268.533 660.819C264.848 660.038 265.358 660.14 264.678 660.276C263.592 661.855 265.527 661.736 272.269 663.01ZM274.052 666.933C272.982 665.421 273.101 664.997 263.863 664.029C258.752 665.472 275.427 666.865 274.052 666.865V666.933ZM267.599 675.425C269.671 674.643 269.824 675.289 264.644 670.941C270.503 669.973 269.433 669.65 263.507 669.939C261.282 670.567 263.048 671.264 262.675 671.094C266.716 674.711 267.684 675.408 267.548 675.408L267.599 675.425Z" fill="#F8854A"/>
<path fill-rule="evenodd" clip-rule="evenodd" d="M258.566 657.659C248.938 661.956 255.577 660.309 259.466 652.564C258.498 657.914 258.481 657.659 258.566 657.659Z" fill="#F98D55"/>
</g>
<defs>
<linearGradient id="paint0_linear" x1="477144" y1="1.026e+06" x2="876136" y2="529495" gradientUnits="userSpaceOnUse">
<stop stop-color="#FD7868"/>
<stop offset="1" stop-color="#FE988B"/>
</linearGradient>
<clipPath id="clip0">
<rect width="1090" height="1151" fill="white" transform="translate(0.359375 0.564453)"/>
</clipPath>
</defs>
</svg>
