<svg width="959" height="712" viewBox="0 0 959 712" fill="none" xmlns="http://www.w3.org/2000/svg">
<path d="M296.685 234.025H239.95V256.538H296.685V234.025Z" fill="#FFF3F3"/>
<path d="M237.073 234.57H180.338V257.082H237.073V234.57Z" fill="#FFF3F3"/>
<path d="M177.47 235.114H120.734V257.627H177.47V235.114Z" fill="#FFF3F3"/>
<path d="M117.858 235.659H61.123V258.171H117.858V235.659Z" fill="#FFF3F3"/>
<path d="M263.717 208.501H206.982V231.014H263.717V208.501Z" fill="#FFF3F3"/>
<path d="M204.105 209.046H147.37V231.558H204.105V209.046Z" fill="#FFF3F3"/>
<path d="M144.503 209.59H87.7676V232.103H144.503V209.59Z" fill="#FFF3F3"/>
<path d="M84.8904 210.135H28.1553V232.647H84.8904V210.135Z" fill="#FFF3F3"/>
<path d="M235.582 182.539H178.847V205.051H235.582V182.539Z" fill="#FFF3F3"/>
<path d="M175.979 183.083H119.244V205.595H175.979V183.083Z" fill="#FFF3F3"/>
<path d="M116.368 183.627H59.6328V206.14H116.368V183.627Z" fill="#FFF3F3"/>
<path d="M56.7557 184.163H0.0205078V206.675H56.7557V184.163Z" fill="#FFF3F3"/>
<path d="M263.761 157.076H207.026V179.588H263.761V157.076Z" fill="#FFF3F3"/>
<path d="M204.149 157.621H147.414V180.133H204.149V157.621Z" fill="#FFF3F3"/>
<path d="M144.538 158.156H87.8027V180.669H144.538V158.156Z" fill="#FFF3F3"/>
<path d="M84.9256 158.701H28.1904V181.213H84.9256V158.701Z" fill="#FFF3F3"/>
<path d="M237.66 131.614H180.925V154.126H237.66V131.614Z" fill="#FFF3F3"/>
<path d="M178.049 132.158H121.313V154.67H178.049V132.158Z" fill="#FFF3F3"/>
<path d="M118.436 132.694H61.7012V155.206H118.436V132.694Z" fill="#FFF3F3"/>
<path d="M58.825 133.238H2.08984V155.751H58.825V133.238Z" fill="#FFF3F3"/>
<path d="M261.411 105.756H204.676V128.269H261.411V105.756Z" fill="#FFF3F3"/>
<path d="M201.8 106.301H145.064V128.813H201.8V106.301Z" fill="#FFF3F3"/>
<path d="M142.196 106.845H85.4609V129.357H142.196V106.845Z" fill="#FFF3F3"/>
<path d="M82.5848 107.381H25.8496V129.893H82.5848V107.381Z" fill="#FFF3F3"/>
<path d="M175.979 80.4434H119.244V102.956H175.979V80.4434Z" fill="#FFF3F3"/>
<path d="M116.368 80.9878H59.6328V103.5H116.368V80.9878Z" fill="#FFF3F3"/>
<path d="M56.7557 81.5322H0.0205078V104.044H56.7557V81.5322Z" fill="#FFF3F3"/>
<path d="M267.445 53.4971H210.71V76.0093H267.445V53.4971Z" fill="#FFF3F3"/>
<path d="M207.833 54.0415H151.098V76.5538H207.833V54.0415Z" fill="#FFF3F3"/>
<path d="M148.23 54.5859H91.4951V77.0982H148.23V54.5859Z" fill="#FFF3F3"/>
<path d="M300.693 24.8477H243.958V47.3599H300.693V24.8477Z" fill="#FFF3F3"/>
<path d="M241.081 25.3921H184.346V47.9044H241.081V25.3921Z" fill="#FFF3F3"/>
<path d="M181.47 25.9365H124.734V48.4488H181.47V25.9365Z" fill="#FFF3F3"/>
<path d="M556.296 222.409H499.561V244.921H556.296V222.409Z" fill="#FFF3F3"/>
<path d="M615.908 222.954H559.172V245.466H615.908V222.954Z" fill="#FFF3F3"/>
<path d="M675.519 223.498H618.784V246.01H675.519V223.498Z" fill="#FFF3F3"/>
<path d="M735.131 224.042H678.396V246.555H735.131V224.042Z" fill="#FFF3F3"/>
<path d="M589.263 196.886H532.528V219.398H589.263V196.886Z" fill="#FFF3F3"/>
<path d="M648.875 197.43H592.14V219.942H648.875V197.43Z" fill="#FFF3F3"/>
<path d="M708.487 197.974H651.751V220.486H708.487V197.974Z" fill="#FFF3F3"/>
<path d="M768.098 198.519H711.363V221.031H768.098V198.519Z" fill="#FFF3F3"/>
<path d="M617.398 170.923H560.663V193.435H617.398V170.923Z" fill="#FFF3F3"/>
<path d="M677.01 171.467H620.275V193.979H677.01V171.467Z" fill="#FFF3F3"/>
<path d="M736.622 172.011H679.887V194.523H736.622V172.011Z" fill="#FFF3F3"/>
<path d="M796.234 172.556H739.499V195.068H796.234V172.556Z" fill="#FFF3F3"/>
<path d="M589.228 145.46H532.493V167.973H589.228V145.46Z" fill="#FFF3F3"/>
<path d="M648.831 146.004H592.096V168.517H648.831V146.004Z" fill="#FFF3F3"/>
<path d="M708.443 146.549H651.708V169.061H708.443V146.549Z" fill="#FFF3F3"/>
<path d="M768.054 147.084H711.319V169.597H768.054V147.084Z" fill="#FFF3F3"/>
<path d="M617.398 119.998H560.663V142.51H617.398V119.998Z" fill="#FFF3F3"/>
<path d="M677.01 120.542H620.275V143.055H677.01V120.542Z" fill="#FFF3F3"/>
<path d="M736.622 121.086H679.887V143.599H736.622V121.086Z" fill="#FFF3F3"/>
<path d="M796.234 121.622H739.499V144.134H796.234V121.622Z" fill="#FFF3F3"/>
<path d="M591.57 94.1401H534.834V116.652H591.57V94.1401Z" fill="#FFF3F3"/>
<path d="M651.181 94.6846H594.446V117.197H651.181V94.6846Z" fill="#FFF3F3"/>
<path d="M710.793 95.229H654.058V117.741H710.793V95.229Z" fill="#FFF3F3"/>
<path d="M770.405 95.7734H713.67V118.286H770.405V95.7734Z" fill="#FFF3F3"/>
<path d="M677.01 68.8271H620.275V91.3394H677.01V68.8271Z" fill="#FFF3F3"/>
<path d="M736.622 69.3716H679.887V91.8838H736.622V69.3716Z" fill="#FFF3F3"/>
<path d="M796.234 69.916H739.499V92.4283H796.234V69.916Z" fill="#FFF3F3"/>
<path d="M585.536 41.8896H528.801V64.4019H585.536V41.8896Z" fill="#FFF3F3"/>
<path d="M645.148 42.4253H588.413V64.9376H645.148V42.4253Z" fill="#FFF3F3"/>
<path d="M704.76 42.9697H648.024V65.482H704.76V42.9697Z" fill="#FFF3F3"/>
<path d="M554.366 13.2402H497.631V35.7525H554.366V13.2402Z" fill="#FFF3F3"/>
<path d="M613.978 13.7759H557.243V36.2881H613.978V13.7759Z" fill="#FFF3F3"/>
<path d="M673.59 14.3203H616.854V36.8326H673.59V14.3203Z" fill="#FFF3F3"/>
<path d="M951.387 54.8961C955.25 32.6671 940.382 11.5115 918.178 7.64391C895.974 3.77632 874.842 18.6613 870.978 40.8903C867.115 63.1194 881.983 84.275 904.188 88.1425C926.392 92.0101 947.524 77.1252 951.387 54.8961Z" fill="#FFF3F3"/>
<path d="M911.414 80.4785H910.59V85.4481H911.414V80.4785Z" fill="white"/>
<path d="M896.386 75.5654L895.764 75.0244L892.509 78.777L893.132 79.3179L896.386 75.5654Z" fill="white"/>
<path d="M883.966 62.969L883.624 62.2183L879.109 64.284L879.451 65.0347L883.966 62.969Z" fill="white"/>
<path d="M911.686 10.6411H910.861V15.6107H911.686V10.6411Z" fill="white"/>
<path d="M879.037 48.0947L879.055 47.2695L874.092 47.1585L874.074 47.9837L879.037 48.0947Z" fill="white"/>
<path d="M883.4 32.4693L883.836 31.769L879.625 29.1377L879.189 29.8379L883.4 32.4693Z" fill="white"/>
<path d="M894.359 20.9698L895.095 20.5972L892.853 16.1631L892.118 16.5357L894.359 20.9698Z" fill="white"/>
<path d="M926.01 20.463L926.681 20.9434L929.57 16.9021L928.899 16.4218L926.01 20.463Z" fill="white"/>
<path d="M937.695 31.5004L938.144 32.1924L942.306 29.4844L941.857 28.7924L937.695 31.5004Z" fill="white"/>
<path d="M948.488 47.9932L948.473 47.168L943.51 47.2591L943.525 48.0843L948.488 47.9932Z" fill="white"/>
<path d="M929.128 79.3331L929.755 78.7969L926.53 75.0191L925.903 75.5554L929.128 79.3331Z" fill="white"/>
<path d="M943.63 64.7974L943.99 64.0547L939.522 61.8877L939.163 62.6304L943.63 64.7974Z" fill="white"/>
<path d="M914.106 48.0361C914.106 48.6092 913.936 49.1694 913.618 49.6458C913.3 50.1223 912.848 50.4937 912.32 50.713C911.791 50.9323 911.209 50.9897 910.647 50.8779C910.086 50.7661 909.57 50.4901 909.166 50.0849C908.761 49.6797 908.485 49.1634 908.373 48.6014C908.262 48.0393 908.319 47.4567 908.538 46.9273C908.757 46.3979 909.128 45.9454 909.604 45.627C910.08 45.3086 910.64 45.1387 911.212 45.1387C911.98 45.1387 912.716 45.4439 913.259 45.9873C913.801 46.5307 914.106 47.2677 914.106 48.0361Z" fill="white"/>
<path d="M912.036 15.3301H910.379V47.6234H912.036V15.3301Z" fill="white"/>
<path d="M914.107 17.5336H908.318L911.353 13.1436C912.265 14.6011 913.183 16.0644 914.107 17.5336Z" fill="white"/>
<path d="M940.078 28.0992L939.098 26.7607L910.442 47.7875L911.422 49.126L940.078 28.0992Z" fill="white"/>
<path d="M939.373 31.1867L935.944 26.5157L941.662 26.0854L939.373 31.1867Z" fill="white"/>
<g opacity="0.27">
<path opacity="0.27" d="M389.615 699.601C355.753 704.746 319.926 709.689 288.222 696.721C256.517 683.753 232.346 645.796 246.729 614.671C248.659 610.509 251.229 606.47 251.597 601.904C252.965 585.222 229.268 581.534 213.806 575.064C190.906 565.476 179.794 534.675 191.292 512.725C200.475 495.103 220.91 484.101 225.952 464.873C234.319 432.931 195.344 405.756 196.133 372.752C196.818 345.314 231.881 325.488 255.701 339.071C249.518 321.599 250.483 300.439 262.63 286.487C274.777 272.535 299.518 269.805 311.472 283.976C331.644 307.928 302.184 350.538 322.759 374.174C329.951 382.427 341.238 385.439 351.017 390.33C382.783 406.204 398.473 452.317 375.872 479.729L389.615 699.601Z" fill="#E7BB49"/>
<path opacity="0.27" d="M344.395 560.067L347.798 558.311C346.772 556.274 345.764 554.219 344.755 552.165C339.081 540.558 333.213 528.546 323.285 520.056C279.706 482.767 283.626 456.909 290.73 435.591C302.201 401.129 299.281 375.43 296.939 354.814C295.185 339.589 293.843 327.595 299.176 317.577L295.817 315.777C289.914 326.814 291.344 339.361 293.186 355.244C295.483 375.517 298.351 400.751 287.143 434.406C281.732 450.658 271.663 480.94 320.838 522.98C330.17 530.961 335.862 542.603 341.361 553.868C342.352 555.976 343.361 558.021 344.395 560.067Z" fill="#EDF4F6"/>
<path opacity="0.27" d="M226.628 540.092C226.838 536.246 230.548 533.226 233.758 531.022C253.172 517.775 276.23 510.921 299.719 511.416C307.946 511.618 313.12 513.778 315.094 517.852L318.523 516.184C315.892 510.723 309.577 507.834 299.807 507.606C275.517 507.087 251.672 514.175 231.6 527.879C227.68 530.566 223.128 534.368 222.83 539.881L226.628 540.092Z" fill="#EDF4F6"/>
<path opacity="0.27" d="M286.038 451.492C288.002 438.769 279.206 411.577 272.426 400.567C267.097 391.914 260.565 384.065 253.026 377.256C241.45 366.632 217.305 364.217 206.421 367.281L207.456 370.96C216.375 368.44 239.476 369.994 250.43 380.074C257.704 386.647 264.009 394.221 269.155 402.569C275.496 412.859 284.064 439.156 282.24 450.86L286.038 451.492Z" fill="#EDF4F6"/>
<path opacity="0.27" d="M307.13 505.823L310.919 505.393C308.332 482.723 320.216 458.744 339.817 447.093L337.87 443.809C317.023 456.207 304.385 481.713 307.13 505.823Z" fill="#EDF4F6"/>
<path opacity="0.27" d="M220.611 411.446C234.012 398.688 256.07 396.256 271.926 405.774L272.418 404.957C256.21 395.22 233.653 397.714 219.954 410.752L220.611 411.446Z" fill="#EDF4F6"/>
</g>
<g opacity="0.22">
<path opacity="0.22" d="M633.956 656.069C659.39 672.751 695.164 674.384 719.827 657.597C744.489 640.809 754.61 605.574 740.174 579.252C733.324 566.766 721.853 551.102 731.57 540.935C735.35 536.984 741.217 535.781 746.48 534.139C779.921 523.805 801.171 486.27 792.506 452.835C786.367 429.208 767.572 407.995 769.589 383.876C771.186 364.77 785.832 348.685 787.226 329.562C788.358 314.03 779.684 298.006 765.783 289.92C751.882 281.833 733.412 282.088 720.116 290.543C714.205 294.327 709.258 299.595 702.83 302.537C682.018 312.098 659.092 294.459 636.903 287.347C598.024 274.879 551.884 301.817 545.49 340.704C542.368 359.652 547.341 380.171 539.57 397.722L633.956 656.069Z" fill="#E7BB49"/>
<path opacity="0.22" d="M753.426 307.954C752.338 319.755 747.971 331.143 743.112 341.837C737.045 355.098 729.795 367.785 721.449 379.741C713.556 391.085 704.786 402.104 694.261 411.279C684 420.252 672.151 425.064 658.838 428.637C638.201 434.178 616.442 436.715 597.586 447.023C597.237 447.209 596.829 447.249 596.45 447.134C596.072 447.019 595.755 446.758 595.569 446.408C595.383 446.059 595.343 445.65 595.458 445.271C595.573 444.893 595.834 444.575 596.183 444.389C611.496 436.013 628.817 432.624 645.84 428.76C660.548 425.424 675.905 421.868 687.885 412.64C709.618 395.887 725.65 370.688 737.525 346.613C743.489 334.532 749.163 321.353 750.409 307.788C750.584 305.917 753.601 306.075 753.426 307.946V307.954Z" fill="#EDF4F6"/>
<path opacity="0.22" d="M625.765 427.347C634.925 406.316 637.721 383.057 633.807 360.451C630.588 341.74 622.292 321.002 603.936 311.66C602.181 310.782 603.848 308.35 605.567 309.228C624.142 318.684 633.035 339.572 636.508 358.511C640.797 381.883 638.263 406.705 628.615 428.277C627.861 429.981 624.975 429.068 625.738 427.347H625.765Z" fill="#EDF4F6"/>
<path opacity="0.22" d="M673.335 456.084C699.595 455.272 725.756 459.68 750.304 469.052C752.119 469.746 751.233 472.564 749.426 471.827C725.135 462.545 699.244 458.185 673.256 458.999C671.309 459.061 671.432 456.128 673.353 456.067L673.335 456.084Z" fill="#EDF4F6"/>
<path opacity="0.22" d="M717.687 587.918C696.941 566.659 669.928 552.625 640.622 547.88C638.719 547.573 638.807 544.64 640.718 544.956C670.828 549.779 698.593 564.163 719.914 585.986C721.265 587.373 719.037 589.305 717.687 587.918Z" fill="#EDF4F6"/>
<path opacity="0.22" d="M637.043 375.886L637.605 375.105C624.902 365.822 609.603 360.778 593.876 360.688V361.663C609.401 361.744 624.505 366.721 637.043 375.886Z" fill="#EDF4F6"/>
<path opacity="0.22" d="M713.258 389.276L714.38 388.828C726.931 383.876 741.568 385.878 755.513 388.775L755.706 387.818C741.998 384.973 727.641 382.98 715.091 387.502C721.607 371.093 721.723 352.831 715.415 336.34L714.468 336.665C720.835 353.295 720.568 371.74 713.723 388.178L713.258 389.276Z" fill="#EDF4F6"/>
</g>
<path d="M645.243 39.1504H329.354C306.061 39.1504 287.178 58.0546 287.178 81.3741V665.437C287.178 688.757 306.061 707.661 329.354 707.661H645.243C668.537 707.661 687.42 688.757 687.42 665.437V81.3741C687.42 58.0546 668.537 39.1504 645.243 39.1504Z" fill="#FF7663"/>
<path d="M624.396 67.8086H350.201C327.518 67.8086 309.13 86.2175 309.13 108.926V608.524C309.13 631.233 327.518 649.642 350.201 649.642H624.396C647.079 649.642 665.468 631.233 665.468 608.524V108.926C665.468 86.2175 647.079 67.8086 624.396 67.8086Z" fill="#FFF7F7"/>
<path d="M624.396 69.363C634.874 69.3747 644.919 73.5467 652.328 80.9637C659.737 88.3807 663.904 98.4371 663.915 108.926V608.516C663.904 619.005 659.737 629.062 652.328 636.479C644.919 643.896 634.874 648.068 624.396 648.079H350.201C339.725 648.065 329.681 643.893 322.273 636.476C314.864 629.06 310.696 619.005 310.682 608.516V108.926C310.694 98.4371 314.861 88.3807 322.27 80.9637C329.679 73.5467 339.724 69.3747 350.201 69.363H624.396ZM624.396 66.2461H350.201C344.603 66.2461 339.06 67.3501 333.888 69.4951C328.716 71.6401 324.017 74.784 320.059 78.7474C316.101 82.7107 312.961 87.4158 310.82 92.594C308.678 97.7721 307.576 103.322 307.578 108.926V608.516C307.578 614.12 308.68 619.669 310.822 624.846C312.964 630.023 316.104 634.727 320.062 638.689C324.02 642.652 328.719 645.795 333.89 647.939C339.061 650.084 344.604 651.187 350.201 651.187H624.396C635.702 651.187 646.544 646.692 654.539 638.69C662.534 630.688 667.027 619.834 667.029 608.516V108.926C667.029 97.6068 662.537 86.7509 654.542 78.7469C646.547 70.7428 635.703 66.2461 624.396 66.2461Z" fill="#EF7061"/>
<path d="M627.624 106.907C634.114 106.907 639.376 101.175 639.376 94.1051C639.376 87.0351 634.114 81.3037 627.624 81.3037C621.133 81.3037 615.872 87.0351 615.872 94.1051C615.872 101.175 621.133 106.907 627.624 106.907Z" fill="#201322"/>
<path d="M504.883 679.096H469.67C468.386 679.096 467.155 678.585 466.247 677.677C465.339 676.768 464.829 675.535 464.829 674.249C464.831 672.966 465.343 671.735 466.25 670.828C467.158 669.921 468.388 669.412 469.67 669.412H504.927C506.209 669.412 507.439 669.921 508.347 670.828C509.255 671.735 509.766 672.966 509.768 674.249C509.768 674.89 509.642 675.523 509.396 676.114C509.15 676.705 508.789 677.242 508.335 677.692C507.881 678.143 507.342 678.499 506.749 678.74C506.157 678.981 505.523 679.102 504.883 679.096Z" fill="#474044"/>
<path d="M645.498 426.135C643.323 426.188 640.841 425.257 640.157 423.185C639.578 421.429 640.464 419.576 641.411 417.996C643.034 415.318 644.989 412.728 647.673 411.121C650.673 409.312 654.277 408.882 657.759 408.487C660.978 408.127 664.688 407.934 666.959 410.243C672.739 416.135 663.618 417.574 660.285 419.181C655.373 421.552 651.243 426.03 645.498 426.135Z" fill="#F2B879"/>
<path d="M658.654 420.841C674.279 424.689 690.426 425.964 706.461 424.616C724.001 423.124 753.461 420.604 760.696 403.193C765.643 391.287 759.389 374.385 752.706 373.261C747.874 372.445 745.339 380.285 737.507 388.073C718.353 407.118 658.917 407.671 658.917 407.671C657.504 411.934 657.412 416.525 658.654 420.841Z" fill="#474044"/>
<path d="M744.708 405.976C743.732 403.122 743.024 400.182 742.595 397.196C742.595 397.196 738.806 389.794 742.524 383.701C753.049 366.486 763.573 349.262 774.098 332.03C774.299 331.687 779.105 324.128 787.762 324.338C789.9 324.435 791.996 324.964 793.925 325.891C795.854 326.819 797.576 328.128 798.988 329.738C800.644 331.351 801.941 333.296 802.794 335.445C806.627 345.34 797.742 353.594 782.14 380.171C779.369 385.067 776.173 389.709 772.589 394.044C769.911 397.358 766.978 400.458 763.819 403.316C758.986 407.609 756.136 409.989 752.33 409.848C748.821 409.672 746.138 407.425 744.708 405.976Z" fill="#474044"/>
<path d="M813.108 467.911C808.381 492.337 799.391 507.211 788.885 528.854C780.358 546.45 772.746 564.476 766.082 582.86C762.694 581.337 759.641 579.156 757.102 576.443C754.562 573.73 752.585 570.54 751.286 567.056C747.576 557.653 746.235 557.398 746.822 554.351L778.106 431.57C779.334 431.087 802.11 422.491 811.784 435.082C813.073 436.706 817.835 443.537 813.108 467.911Z" fill="#F86958"/>
<path d="M754.952 685.167L743.016 685.597C749.073 644.88 750.086 603.57 746.033 562.605C745.591 558.394 746.513 554.152 748.664 550.506C750.479 547.459 752.944 545.238 755.89 544.482C759.732 543.482 763.687 546.59 769.318 547.652C771.396 548.038 774.229 549.197 777.281 552.701C779.326 597.943 771.714 643.102 754.952 685.167Z" fill="#F86958"/>
<path d="M755.627 693.894L735.315 691.225L744.779 680.83L756.312 682.349L755.627 693.894Z" fill="#175CA0"/>
<path d="M711.276 702.402C727.527 703.324 733.544 702.481 735.596 701.314C736.881 700.594 738.273 700.084 739.718 699.803C741.064 699.474 742.473 699.501 743.805 699.882C744.809 700.241 745.728 700.803 746.506 701.533C747.944 702.771 750.619 703.912 756.022 703.289C757.928 698.164 758.024 692.54 756.294 687.353C750.953 685.889 745.333 685.774 739.937 687.019C734.371 688.36 729.198 690.992 724.835 694.702L710.504 698.846C709.092 699.838 709.671 702.367 711.276 702.402Z" fill="#474044"/>
<path d="M831.008 454.82C834.577 479.404 831.008 496.447 828.21 520.355C825.96 539.775 824.721 559.299 824.5 578.848C822.15 578.69 813.011 577.724 805.311 568.795C798.716 561.147 797.365 561.349 796.926 558.259L786.025 432.036C787.016 431.158 805.688 415.538 818.975 424.248C820.694 425.371 827.438 430.253 831.008 454.82Z" fill="#FF8C7F"/>
<path d="M847.645 679.117L836.524 683.507C828.83 643.069 816.181 603.735 798.864 566.398C797.051 562.571 796.51 558.263 797.321 554.106C798.031 550.594 799.636 547.722 802.162 546.037C805.46 543.824 810.213 545.448 815.888 544.588C817.966 544.281 821.027 544.439 825.061 546.739C841.907 588.765 849.606 633.903 847.645 679.144V679.117Z" fill="#FF8C7F"/>
<path d="M852.241 685.693L833.025 692.788L836.568 679.179L847.478 675.148L852.241 685.693Z" fill="#195FB2"/>
<path d="M838.708 404.185C838.55 405.356 838.392 406.585 838.234 407.873C838.234 407.987 838.234 408.092 838.234 408.206C835.331 430.622 833.191 429.279 833.025 436.786C832.83 447.259 834.576 457.679 838.173 467.516C831.336 472.348 823.651 475.848 815.519 477.833C806.86 480.138 797.795 480.474 788.989 478.816C780.462 477.149 772.407 473.62 765.397 468.482C768.905 450.851 771.203 439.297 771.773 435.539C772.157 432.904 772.71 430.297 773.431 427.733C773.79 426.46 774.088 425.529 774.255 425.011C778.403 411.92 779.14 390.207 777.851 380.768C777.351 377.168 776.755 374.271 776.36 370.329C776.36 370.223 776.141 367.861 776.027 365.385C775.483 353.655 775.15 346.877 776.904 340.687C780.745 327.262 793.287 320.405 794.26 319.896L794.734 319.65C798.417 317.771 807.635 313.881 817.536 316.533C818.106 316.682 818.677 316.858 819.247 317.051C822.399 318.169 825.339 319.817 827.938 321.924C828.701 322.521 829.42 323.144 830.078 323.768L830.455 324.128C833.609 327.211 836.124 330.887 837.857 334.945C839.644 341.573 840.949 348.322 841.76 355.139C842.918 364.499 842.83 371.944 838.708 404.185Z" fill="#474044"/>
<path d="M820.685 317.156C817.364 321.558 813.759 326.068 809.871 330.686C804.968 336.481 800.101 341.802 795.374 346.675L794.769 319.114C797.608 317.572 800.666 316.473 803.837 315.857C809.469 314.799 815.281 315.248 820.685 317.156Z" fill="white"/>
<path d="M791.085 294.942C792.443 299.169 793.507 303.484 794.269 307.858C794.427 308.736 794.567 309.667 794.699 310.545C795.246 314.383 795.565 318.25 795.655 322.126C796.409 322.617 802.425 326.349 809.468 323.882C813.102 322.563 816.138 319.975 818.019 316.594C812.326 310.148 808.932 301.992 808.372 293.406L806.276 293.59L791.085 294.942Z" fill="#F2B879"/>
<path d="M791.085 294.943C792.443 299.169 793.507 303.484 794.269 307.858C794.427 308.736 794.567 309.667 794.699 310.545C796.211 309.992 797.624 309.197 798.882 308.192C802.575 305.329 805.802 301.405 806.302 296.778C806.407 295.725 806.39 294.665 806.249 293.617L791.085 294.943Z" fill="#EDA966"/>
<path d="M779.465 294.661C781.999 297.12 781.219 301.633 783.569 304.276C785.744 306.743 789.63 306.567 792.804 305.724C797.312 304.53 801.82 302.212 804.083 298.094C805.653 295.258 805.977 291.948 806.144 288.7C806.442 283.23 806.214 277.198 802.636 273.08C799.487 269.48 794.295 268.172 789.542 268.734C784.122 269.375 778.333 273.01 778.044 278.962C777.939 281.149 778.456 283.309 778.281 285.521C777.93 289.665 776.237 291.536 779.465 294.661Z" fill="#F7C589"/>
<path d="M805.013 305.514C806.717 304.632 808.474 303.858 810.275 303.196C811.266 302.827 812.222 302.502 813.143 302.23C811.775 300.34 810.925 298.124 810.678 295.803C810.292 291.255 813.371 288.884 815.283 282.633C816.106 279.953 816.558 277.173 816.624 274.371C817.273 268.479 815.169 262.904 810.924 260.129C806.837 257.451 802.074 258.215 800.829 258.417C796.277 259.155 794.935 261.42 790.936 262.974C787.849 264.177 783.043 265.002 775.956 262.798C775.72 264.976 775.465 270.534 779.026 275.134C782.587 279.735 789.129 282.106 794.523 281.693C798.619 281.377 801.303 279.568 803.136 281.193C804.399 282.308 804.679 284.564 804.065 286.162C803.285 288.199 801.347 288.436 800.32 289.674C798.803 291.386 798.979 295.513 805.013 305.514Z" fill="#EA942D"/>
<path d="M781.999 301.168C781.473 300.904 781.42 299.701 781.491 298.534C782.336 298.308 783.153 297.99 783.929 297.585C785.683 296.646 786.472 295.68 786.56 295.829C786.902 296.137 783.306 301.835 781.999 301.168Z" fill="white"/>
<path d="M794.444 319.86C792.863 321.02 791.439 322.38 790.208 323.908C789.215 325.038 788.508 326.39 788.147 327.85C787.977 328.584 787.998 329.348 788.209 330.071C788.419 330.794 788.812 331.45 789.349 331.977C789.574 332.144 789.78 332.335 789.963 332.548C790.577 333.426 789.963 334.514 789.559 335.471C789.196 336.596 789.105 337.79 789.294 338.957C789.483 340.123 789.947 341.228 790.647 342.179C792.057 344.071 793.763 345.722 795.698 347.07L794.444 319.86Z" fill="#2D2629"/>
<path d="M792.726 350.099C791.928 366.694 794.208 383.253 793.603 399.847C793.015 416.029 789.27 431.851 787.464 447.901C786.338 456.845 786.3 465.893 787.349 474.847C787.446 475.567 788.595 475.576 788.498 474.847C786.367 458.753 789.156 442.694 791.664 426.82C792.945 419.006 794.111 411.103 794.594 403.201C794.971 394.927 794.901 386.638 794.383 378.371C793.936 368.959 793.419 359.538 793.866 350.108C793.866 349.37 792.761 349.37 792.726 350.108V350.099Z" fill="#2D2629"/>
<path d="M838.708 404.185L819.475 356.605C814.099 343.286 818.756 328.842 829.885 324.329C830.096 324.25 830.297 324.171 830.508 324.11C833.661 327.194 836.177 330.869 837.91 334.927C839.697 341.555 841.001 348.304 841.813 355.121C842.918 364.498 842.83 371.944 838.708 404.185Z" fill="#2D2629"/>
<path d="M853.293 503.69C850.773 501.318 849.089 498.191 848.494 494.78C847.9 491.368 848.426 487.856 849.995 484.769L860.634 486.666C860.634 488.105 860.634 490.494 860.914 493.417C861.791 502.329 863.94 506.07 862.344 507.378C860.59 508.809 855.845 506.052 853.293 503.69Z" fill="#F7C589"/>
<path d="M860.643 489.247C869.358 474.971 875.5 459.273 878.789 442.87C879.78 437.839 888.988 391.304 872.448 382.77C866.308 379.609 856.608 381.655 853.021 386.844C849.847 391.445 852.013 397.679 853.1 401.84C860.906 431.833 850.469 474.259 848.075 485.313C848.008 485.627 848.008 485.951 848.074 486.265C848.14 486.578 848.271 486.875 848.458 487.134C848.646 487.394 848.886 487.612 849.163 487.773C849.44 487.934 849.747 488.035 850.066 488.07L860.643 489.247Z" fill="#474044"/>
<path d="M872.649 406.371L864.756 407.679C860.064 408.461 854.933 405.923 851.855 401.34L821.159 355.534C813.16 343.611 814.756 328.509 824.728 321.81C829.113 318.842 835.463 320.238 839.576 325.058C849.332 336.517 858.043 348.826 865.607 361.838C870.937 371.018 875.676 380.529 879.797 390.312C882.858 397.679 879.49 405.238 872.649 406.371Z" fill="#474044"/>
<path d="M795.146 347.307L808.74 345.595C810.444 345.486 812.115 345.067 813.669 344.357C814.441 343.99 815.1 343.421 815.577 342.71C816.054 341.999 816.331 341.173 816.379 340.318C816.379 339.028 815.607 337.772 815.844 336.499C816.107 335.068 817.528 334.128 818.931 333.716C820.362 333.446 821.774 333.085 823.158 332.636C824.477 331.993 825.523 330.898 826.105 329.55C826.688 328.202 826.768 326.689 826.333 325.287C825.93 324.263 825.354 323.316 824.632 322.486C823.321 320.867 821.819 319.414 820.159 318.157L795.146 347.307Z" fill="#2D2629"/>
<path d="M815.572 710.963C830.657 706.16 835.814 703.272 837.261 701.463C838.171 700.351 839.252 699.391 840.462 698.618C841.42 697.893 842.556 697.441 843.749 697.31C844.943 697.178 846.149 697.373 847.242 697.872C848.996 698.521 851.82 698.653 856.521 696.23C856.417 690.772 854.504 685.503 851.083 681.251C845.716 681.743 840.563 683.599 836.112 686.642C831.504 689.854 827.731 694.123 825.105 699.092L813.581 707.951C812.652 709.339 814.072 711.499 815.572 710.963Z" fill="#474044"/>
<path d="M817.984 316.691C814.031 323.117 808.068 328.055 801.022 330.739L800.285 319.421L814.537 309.825L817.984 316.691Z" fill="white"/>
<path d="M258.657 415.493C258.255 416.846 257.384 418.01 256.201 418.777C255.512 419.157 254.742 419.364 253.956 419.383L250.606 419.488C248.277 420.299 245.751 420.343 243.396 419.611C236.213 417.17 231.802 405.897 232.179 390.584C232.241 388.099 232.425 385.5 232.749 382.822C233.398 377.8 234.044 372.784 234.687 367.773L259.621 367.044C258.341 371.364 257.964 378.459 257.867 386.949C257.815 390.461 257.78 392.753 257.806 393.894C257.92 398.571 258.345 403.234 259.078 407.854C259.712 410.385 259.565 413.048 258.657 415.493Z" fill="#EFB98F"/>
<path d="M315.734 476.585C314.763 476.35 313.841 475.949 313.006 475.4C307.805 471.985 308.209 464.1 308.27 463.204L312.12 452.01C313.669 452.933 315.098 454.045 316.374 455.32C318.513 457.499 320.189 460.088 321.303 462.932C322.916 466.734 324.355 470.106 322.873 473.126C322.241 474.413 321.21 475.46 319.935 476.111C318.626 476.732 317.148 476.899 315.734 476.585Z" fill="#EFB98F"/>
<path d="M308.911 463.24C294.608 459.474 281.047 453.308 268.804 445.003C264.919 442.369 228.732 417.732 234.082 401.656C236.713 393.639 249.615 388.187 255.017 391.567C257.552 393.156 256.324 396.572 258.604 402.902C260.762 408.882 264.129 412.561 267.699 416.468C280.048 429.963 305.894 446.592 314.112 453.046C314.629 453.386 315.072 453.827 315.414 454.343C315.756 454.859 315.99 455.439 316.102 456.049C316.33 458.902 312.226 461.545 308.911 463.24Z" fill="#EFB98F"/>
<path opacity="0.53" d="M257.894 383.7C252.324 388.968 241.116 391.322 232.091 388.213C232.153 385.72 232.337 383.121 232.661 380.443C233.31 375.421 233.956 370.404 234.6 365.394L259.534 364.665C258.262 368.959 258.016 375.192 257.894 383.7Z" fill="#EDA264"/>
<path d="M253.877 328.324C239.607 332.662 234.275 352.584 233.047 357.184C231.928 361.515 231.519 365.998 231.837 370.46C232.179 374.85 233.091 376.659 233.486 377.37C235.017 379.952 237.427 381.895 240.274 382.84C243.789 384.156 247.655 384.19 251.193 382.937C256.271 381.181 259.332 377.309 261.007 375.149C270.654 362.725 276.794 336.63 266.752 329.264C262.068 325.831 255.64 327.789 253.877 328.324Z" fill="#E8EAEA"/>
<path d="M220.427 476.234C221.225 500.037 227.487 515.455 234.17 537.511C237.117 547.266 240.783 560.339 244.343 576.416C244.809 578.514 245.901 580.422 247.474 581.885C249.047 583.349 251.027 584.299 253.152 584.611C255.276 584.922 257.445 584.58 259.371 583.629C261.298 582.678 262.889 581.164 263.936 579.287V579.225C267.916 571.91 269.631 563.576 268.865 555.282C265.69 520.864 262.518 486.446 259.349 452.028C259.204 450.457 258.638 448.955 257.712 447.678C256.786 446.402 255.534 445.399 254.087 444.775C247.185 441.772 234.45 437.874 226.496 445.407C225.145 446.733 219.62 452.484 220.427 476.234Z" fill="#2D2629"/>
<path d="M262.972 686.58H274.373C267.26 647.826 264.95 608.342 267.497 569.023C267.789 564.982 266.781 560.954 264.62 557.53C262.779 554.676 260.349 552.63 257.508 551.998C254.175 551.261 251.044 552.648 244.764 555.466C242.738 556.344 241.098 557.222 240.002 557.828C235.782 602.038 243.719 646.561 262.954 686.58H262.972Z" fill="#2D2629"/>
<path d="M262.594 694.956L281.942 691.743L272.558 682.102L261.568 683.928L262.594 694.956Z" fill="#195FB2"/>
<path d="M263.191 703.13C265.021 703.22 266.856 703.111 268.663 702.805C272.777 702.103 273.049 701.005 276.399 700.171C281.749 698.925 284.783 700.847 290.089 699.592C291.237 699.307 292.368 698.956 293.475 698.538C294.266 698.295 295.025 697.959 295.737 697.537C296.23 697.247 296.699 696.918 297.141 696.554C297.411 696.321 297.62 696.027 297.751 695.695C297.882 695.363 297.93 695.004 297.891 694.65C297.852 694.295 297.727 693.956 297.528 693.66C297.328 693.365 297.06 693.122 296.746 692.954C296.237 692.7 295.694 692.454 295.115 692.225C292.361 691.129 289.399 690.655 286.441 690.838C284.529 689.425 281.722 687.888 278.627 688.353C276.557 688.661 275.434 689.706 273.803 690.601C271.452 691.901 267.743 693.051 261.972 692.111C260.858 693.029 260.054 694.269 259.67 695.661C259.285 697.053 259.339 698.53 259.823 699.89C260.144 700.626 260.606 701.291 261.184 701.847C261.762 702.403 262.444 702.839 263.191 703.13Z" fill="#052B51"/>
<path d="M192.879 471.835C186.143 494.664 187.24 511.285 186.635 534.324C186.363 544.509 185.714 558.118 184.047 574.458C183.056 584.116 194.572 589.955 201.728 583.369H201.781C207.872 577.659 212.125 570.262 213.998 562.121C221.821 528.447 229.647 494.79 237.476 461.15C237.834 459.617 237.774 458.016 237.302 456.515C236.829 455.013 235.963 453.667 234.792 452.616C229.188 447.585 218.33 439.876 208.411 444.512C206.648 445.346 199.597 449.042 192.879 471.835Z" fill="#474044"/>
<path d="M167.042 684.885L177.882 688.555C183.325 649.523 193.561 611.312 208.359 574.791C209.901 571.046 210.208 566.905 209.236 562.973C208.359 559.68 206.719 556.976 204.228 555.484C201.29 553.728 197.878 554.052 191.072 554.755C188.854 554.974 187.038 555.273 185.81 555.492C167.894 596.118 161.41 640.873 167.059 684.92L167.042 684.885Z" fill="#474044"/>
<path d="M164.051 692.717L183.434 695.773L177.549 683.656L166.551 681.926L164.051 692.717Z" fill="#195FB2"/>
<path d="M162.043 700.672C163.742 701.327 165.506 701.798 167.305 702.077C171.427 702.718 172.006 701.743 175.461 702.077C180.925 702.577 183.206 705.361 188.617 705.844C189.784 705.937 190.955 705.961 192.125 705.914C192.953 705.925 193.779 705.845 194.589 705.677C195.15 705.553 195.701 705.389 196.238 705.185C196.559 705.045 196.843 704.83 197.065 704.558C197.286 704.286 197.441 703.966 197.514 703.623C197.588 703.28 197.579 702.924 197.488 702.585C197.398 702.246 197.228 701.933 196.992 701.673C196.589 701.269 196.115 700.865 195.677 700.47C193.407 698.561 190.745 697.176 187.88 696.414C186.503 694.473 184.328 692.129 181.241 691.594C179.189 691.234 177.785 691.874 175.979 692.208C173.348 692.691 169.454 692.621 164.27 689.908C162.924 690.428 161.77 691.351 160.966 692.551C160.163 693.752 159.748 695.171 159.78 696.616C159.975 698.212 160.787 699.669 162.043 700.672Z" fill="#052B51"/>
<path d="M193.905 458.771C217.015 464.191 241.212 462.617 263.427 454.249C257.937 430.472 254.341 411.727 252.649 400.997C251.734 396.051 251.854 390.969 253 386.071C254.229 381.412 256.353 377.037 259.253 373.191C266.822 361.97 269.856 338.606 258.867 325.567C246.878 311.352 222.909 314.724 219.778 315.54C217.217 316.216 211.604 318.236 209.253 318.543C204.951 319.784 200.973 321.954 197.599 324.9C194.224 327.846 191.535 331.496 189.722 335.594C187.523 340.411 185.731 345.404 184.363 350.52C183.36 354.515 182.639 358.576 182.206 362.672C180.539 377.66 183.153 400.839 188.924 423.106C190.687 429.444 192.002 435.899 192.862 442.422C193.545 447.845 193.893 453.305 193.905 458.771Z" fill="#F76958"/>
<path d="M254.245 409.084L241.116 410.568L238.327 337.333L240.651 337.069L254.245 409.084Z" fill="#191718"/>
<path d="M248.632 416.371L248.211 416.424L241.116 410.568L254.245 409.084L248.632 416.371Z" fill="#195FB2"/>
<path d="M241.203 330.819L236.627 331.336C235.665 331.445 234.972 332.314 235.081 333.278L235.65 338.321C235.758 339.284 236.627 339.977 237.589 339.869L242.165 339.352C243.127 339.243 243.82 338.373 243.711 337.41L243.142 332.367C243.034 331.403 242.165 330.71 241.203 330.819Z" fill="#191718"/>
<path d="M248.483 331.046C240.08 328.109 232.712 322.788 227.276 315.733L235.968 304.6L251.263 316.085C250.334 321.072 249.407 326.059 248.483 331.046Z" fill="white"/>
<path d="M213.033 321.994C223.558 332.021 242.791 331.599 243.598 330.019C243.273 329.694 242.765 319.623 242.721 311.58C242.677 307.111 242.773 303.257 243.115 301.975L225.057 286.425C225.826 292.498 225.367 298.664 223.707 304.556C222.749 307.88 221.351 311.06 219.55 314.012C217.736 316.947 215.546 319.631 213.033 321.994Z" fill="#EDC094"/>
<path d="M223.707 304.512C224.604 305.996 225.732 307.327 227.049 308.455C229.663 310.662 232.875 312.041 236.275 312.414C236.587 312.441 236.901 312.441 237.213 312.414C239.08 312.438 240.937 312.141 242.704 311.536C242.66 307.067 242.756 303.213 243.098 301.931L225.058 286.425C225.82 292.484 225.361 298.634 223.707 304.512Z" fill="#EFA55B"/>
<path d="M238.774 306.4C239.09 306.426 239.406 306.426 239.722 306.4C241.274 306.312 246.106 306.4 248.606 302.888C251.86 298.322 247.729 294.406 247.606 292.352C247.361 285.863 249.088 282.79 249.106 276.302V276.161C249.076 273.278 247.908 270.524 245.858 268.499C243.807 266.474 241.04 265.343 238.16 265.353H231.425C231.03 265.349 230.635 265.391 230.25 265.476C229.118 265.734 228.052 266.225 227.119 266.916C223.4 269.699 223.488 274.695 223.549 275.696C223.549 275.819 223.549 275.924 223.549 276.038V288.392C223.549 289.498 223.435 297.172 229.548 302.44C232.167 304.64 235.377 306.018 238.774 306.4Z" fill="#052A4F"/>
<path d="M230.574 272.834H237.52C241.387 272.822 245.092 271.279 247.827 268.542C250.561 265.804 252.102 262.095 252.114 258.224V257.662C252.112 256.631 251.702 255.643 250.974 254.914C250.245 254.185 249.259 253.774 248.229 253.772H237.582C230.416 253.772 221.549 263.307 224.058 271.332C224.058 274.642 227.259 272.834 230.574 272.834Z" fill="#052A4F"/>
<path d="M240.905 294.406H242.063C245.369 294.406 248.071 293.704 248.071 290.394C248.238 287.366 248.575 284.35 249.079 281.359C249.456 280.033 251.403 266.31 246.08 266.31C245.571 266.31 245.738 267.934 244.571 268.321C243.071 268.821 240.081 268.224 238.634 267.364L238.414 267.232C236.612 266.126 234.486 265.671 232.389 265.941C229.758 266.31 228.136 270.006 228.004 274.888C228.004 275.183 227.975 275.477 227.916 275.766L227.109 279.981C227.034 280.344 227.002 280.716 227.013 281.087C227.162 284.673 228.692 288.063 231.282 290.545C233.871 293.028 237.32 294.412 240.905 294.406Z" fill="#F7CFA4"/>
<path d="M227.18 280.613C228.187 280.613 229.004 279.335 229.004 277.759C229.004 276.183 228.187 274.906 227.18 274.906C226.172 274.906 225.355 276.183 225.355 277.759C225.355 279.335 226.172 280.613 227.18 280.613Z" fill="#F7CFA4"/>
<path d="M231.442 333.838C223.041 330.903 215.675 325.582 210.244 318.525L218.936 307.392L234.231 318.912L231.442 333.838Z" fill="white"/>
<path d="M243.054 399.838C243.423 401.2 243.292 402.648 242.686 403.921C242.297 404.605 241.753 405.189 241.098 405.624L238.301 407.468C236.746 409.384 234.619 410.75 232.232 411.367C224.838 413.061 215.165 405.791 207.456 392.568C206.201 390.426 204.991 388.117 203.86 385.667C201.778 381.061 199.694 376.451 197.606 371.839L218.445 358.106C219.629 362.497 223.014 368.643 227.373 375.974C229.197 379.038 230.346 380.961 230.977 381.918C233.525 385.836 236.332 389.579 239.379 393.122C241.254 394.938 242.535 397.279 243.054 399.838Z" fill="#F7CFA4"/>
<path d="M323.706 421.833C322.756 422.133 321.764 422.276 320.768 422.254C314.55 422.079 310.752 415.16 310.331 414.352C309.472 410.506 308.595 406.658 307.7 402.806C309.504 402.774 311.304 402.969 313.059 403.386C316.023 404.117 318.809 405.44 321.25 407.275C324.618 409.655 327.609 411.771 327.925 415.116C328.077 416.543 327.75 417.979 326.995 419.199C326.218 420.415 325.062 421.341 323.706 421.833Z" fill="#F7CFA4"/>
<path d="M310.892 414.062C296.748 418.381 281.974 420.27 267.199 419.646C262.498 419.436 218.787 417.513 214.91 401.024C212.972 392.797 221.049 381.391 227.417 381.435C230.407 381.435 231.162 385 236.424 389.188C241.396 393.139 246.194 394.5 251.281 395.94C268.865 400.936 299.588 401.489 309.963 402.657C310.581 402.672 311.19 402.813 311.753 403.071C312.315 403.329 312.819 403.699 313.234 404.158C314.927 406.467 312.813 410.884 310.892 414.062Z" fill="#F7CFA4"/>
<path opacity="0.53" d="M225.742 373.226C223.786 380.654 215.472 388.53 206.149 390.628C204.904 388.486 203.693 386.177 202.562 383.727C200.48 379.109 198.396 374.499 196.309 369.898L217.147 356.157C218.331 360.512 221.383 365.912 225.742 373.226Z" fill="#F2AC6D"/>
<path d="M193.265 328.21C183.399 339.414 189.319 359.169 190.687 363.726C192.002 368.001 194.008 372.031 196.624 375.658C199.211 379.17 200.939 380.276 201.65 380.672C204.307 382.066 207.378 382.453 210.297 381.76C213.977 381.027 217.283 379.023 219.638 376.097C223.023 371.909 223.61 367.027 223.9 364.305C225.575 348.677 217.12 323.223 204.71 322.248C198.922 321.792 194.484 326.814 193.265 328.21Z" fill="#ECF5F7"/>
<path opacity="0.24" d="M630.658 410.48H342.571C333.581 410.48 326.293 417.776 326.293 426.776V485.216C326.293 494.216 333.581 501.512 342.571 501.512H630.658C639.648 501.512 646.936 494.216 646.936 485.216V426.776C646.936 417.776 639.648 410.48 630.658 410.48Z" fill="#F76958"/>
<path d="M630.658 398.302H342.571C333.581 398.302 326.293 405.598 326.293 414.598V473.039C326.293 482.039 333.581 489.335 342.571 489.335H630.658C639.648 489.335 646.936 482.039 646.936 473.039V414.598C646.936 405.598 639.648 398.302 630.658 398.302Z" fill="white"/>
<path d="M630.658 270.261H342.571C333.581 270.261 326.293 277.557 326.293 286.557V344.998C326.293 353.998 333.581 361.294 342.571 361.294H630.658C639.648 361.294 646.936 353.998 646.936 344.998V286.557C646.936 277.557 639.648 270.261 630.658 270.261Z" fill="white"/>
<path d="M630.658 142.221H342.571C333.581 142.221 326.293 149.517 326.293 158.517V216.957C326.293 225.957 333.581 233.253 342.571 233.253H630.658C639.648 233.253 646.936 225.957 646.936 216.957V158.517C646.936 149.517 639.648 142.221 630.658 142.221Z" fill="white"/>
<path d="M594.314 166.638H448.069C447.405 166.639 446.747 166.509 446.133 166.256C445.519 166.002 444.962 165.63 444.492 165.16C444.021 164.69 443.649 164.132 443.394 163.518C443.14 162.904 443.009 162.246 443.009 161.581C443.009 160.237 443.542 158.949 444.491 157.998C445.44 157.048 446.727 156.515 448.069 156.515H594.314C594.978 156.515 595.636 156.646 596.25 156.9C596.863 157.155 597.42 157.528 597.889 157.999C598.359 158.47 598.731 159.028 598.984 159.643C599.237 160.257 599.367 160.916 599.366 161.581C599.366 162.922 598.834 164.208 597.886 165.157C596.939 166.105 595.654 166.638 594.314 166.638Z" fill="#474044"/>
<path d="M574.265 195.349H427.994C427.33 195.349 426.672 195.218 426.059 194.963C425.445 194.709 424.888 194.335 424.419 193.865C423.95 193.394 423.578 192.836 423.324 192.221C423.071 191.606 422.941 190.948 422.942 190.283C422.942 188.942 423.475 187.655 424.422 186.707C425.369 185.758 426.654 185.226 427.994 185.226H574.265C575.606 185.226 576.892 185.758 577.841 186.706C578.789 187.655 579.324 188.941 579.326 190.283C579.326 191.627 578.793 192.915 577.844 193.865C576.895 194.815 575.608 195.349 574.265 195.349Z" fill="#FFE5E4"/>
<path d="M574.265 215.307H427.994C426.654 215.307 425.369 214.774 424.422 213.825C423.475 212.877 422.942 211.591 422.942 210.249C422.947 208.911 423.481 207.629 424.428 206.685C425.375 205.74 426.657 205.209 427.994 205.209H574.265C575.608 205.209 576.895 205.743 577.844 206.693C578.793 207.643 579.326 208.932 579.326 210.276C579.317 211.613 578.779 212.893 577.831 213.835C576.883 214.778 575.601 215.307 574.265 215.307Z" fill="#FFE5E4"/>
<path d="M584.29 298.867H438.045C436.705 298.867 435.42 298.334 434.473 297.386C433.525 296.437 432.993 295.151 432.993 293.81C432.992 293.145 433.122 292.486 433.375 291.872C433.629 291.257 434 290.699 434.47 290.228C434.939 289.757 435.496 289.384 436.11 289.129C436.723 288.875 437.381 288.744 438.045 288.744H584.29C584.954 288.744 585.612 288.875 586.225 289.129C586.839 289.384 587.396 289.757 587.865 290.228C588.334 290.699 588.706 291.257 588.96 291.872C589.213 292.486 589.343 293.145 589.342 293.81C589.342 295.151 588.809 296.437 587.862 297.386C586.915 298.334 585.63 298.867 584.29 298.867Z" fill="#2A1927"/>
<path d="M564.241 327.578H417.996C417.332 327.578 416.674 327.447 416.061 327.192C415.447 326.938 414.89 326.564 414.421 326.094C413.952 325.623 413.58 325.065 413.326 324.45C413.073 323.835 412.943 323.177 412.944 322.512C412.944 321.171 413.477 319.884 414.424 318.936C415.371 317.987 416.656 317.455 417.996 317.455H564.241C564.905 317.453 565.563 317.583 566.177 317.837C566.791 318.091 567.349 318.463 567.819 318.933C568.289 319.402 568.662 319.96 568.916 320.575C569.171 321.189 569.302 321.847 569.302 322.512C569.302 323.856 568.768 325.144 567.819 326.094C566.87 327.044 565.583 327.578 564.241 327.578Z" fill="#FFE5E4"/>
<path d="M564.241 347.562H417.996C416.656 347.562 415.371 347.029 414.424 346.081C413.477 345.132 412.944 343.846 412.944 342.505C412.943 341.84 413.073 341.181 413.326 340.567C413.58 339.952 413.952 339.393 414.421 338.923C414.89 338.452 415.447 338.079 416.061 337.824C416.674 337.57 417.332 337.438 417.996 337.438H564.241C565.583 337.438 566.87 337.972 567.819 338.922C568.768 339.872 569.302 341.161 569.302 342.505C569.302 343.169 569.171 343.828 568.916 344.442C568.662 345.056 568.289 345.614 567.819 346.084C567.349 346.554 566.791 346.926 566.177 347.18C565.563 347.433 564.905 347.563 564.241 347.562Z" fill="#FFE5E4"/>
<path d="M584.29 427.926H438.045C436.705 427.926 435.42 427.393 434.473 426.445C433.525 425.497 432.993 424.21 432.993 422.869C432.992 422.204 433.122 421.545 433.375 420.931C433.629 420.316 434 419.758 434.47 419.287C434.939 418.817 435.496 418.443 436.11 418.189C436.723 417.934 437.381 417.803 438.045 417.803H584.29C584.956 417.799 585.617 417.928 586.233 418.181C586.85 418.434 587.41 418.807 587.882 419.278C588.354 419.749 588.728 420.308 588.983 420.925C589.238 421.541 589.369 422.202 589.368 422.869C589.368 423.535 589.236 424.195 588.981 424.81C588.725 425.426 588.351 425.984 587.879 426.454C587.407 426.924 586.847 427.296 586.231 427.549C585.615 427.801 584.956 427.93 584.29 427.926Z" fill="#2A1927"/>
<path d="M564.241 446.514H417.987C415.197 446.514 412.936 448.778 412.936 451.571V451.58C412.936 454.373 415.197 456.637 417.987 456.637H564.241C567.031 456.637 569.293 454.373 569.293 451.58V451.571C569.293 448.778 567.031 446.514 564.241 446.514Z" fill="#FFE5E4"/>
<path d="M564.241 476.621H417.996C416.656 476.621 415.371 476.088 414.424 475.14C413.477 474.191 412.944 472.905 412.944 471.564C412.943 470.899 413.073 470.24 413.326 469.626C413.58 469.011 413.952 468.452 414.421 467.982C414.89 467.511 415.447 467.138 416.061 466.883C416.674 466.629 417.332 466.498 417.996 466.498H564.241C565.583 466.498 566.87 467.031 567.819 467.981C568.768 468.931 569.302 470.22 569.302 471.564C569.302 472.229 569.171 472.887 568.916 473.501C568.662 474.115 568.289 474.673 567.819 475.143C567.349 475.613 566.791 475.985 566.177 476.239C565.563 476.492 564.905 476.622 564.241 476.621Z" fill="#FFE5E4"/>
<path d="M373.776 223.147C393.311 223.147 409.147 207.294 409.147 187.737C409.147 168.18 393.311 152.327 373.776 152.327C354.241 152.327 338.405 168.18 338.405 187.737C338.405 207.294 354.241 223.147 373.776 223.147Z" fill="white"/>
<path d="M387.159 218.239C384.352 217.249 381.679 215.91 379.205 214.253C376.068 212.137 373.293 209.528 370.987 206.527L377.617 198.036L389.282 206.816C388.58 210.627 387.873 214.435 387.159 218.239Z" fill="#9EDEE5"/>
<path d="M360.129 211.329C368.154 218.977 382.827 218.661 383.441 217.475C383.195 217.23 382.801 209.573 382.757 203.375C382.65 200.93 382.749 198.48 383.055 196.052L369.303 184.19C369.888 188.822 369.537 193.525 368.268 198.019C367.536 200.555 366.469 202.983 365.093 205.236C363.711 207.475 362.042 209.523 360.129 211.329Z" fill="#FBC092"/>
<path d="M368.268 197.992C368.95 199.128 369.812 200.145 370.82 201.004C372.809 202.683 375.251 203.734 377.836 204.024C378.076 204.046 378.316 204.046 378.556 204.024C379.98 204.035 381.395 203.801 382.739 203.331C382.632 200.886 382.732 198.436 383.037 196.008L369.285 184.146C369.879 188.783 369.533 193.492 368.268 197.992Z" fill="#FFA655"/>
<path d="M379.757 199.432C379.999 199.454 380.243 199.454 380.485 199.432C381.669 199.371 385.353 199.432 387.256 196.798C389.747 193.286 386.554 190.327 386.493 188.764C386.309 183.812 387.624 181.477 387.642 176.525V176.419C387.635 174.209 386.751 172.091 385.186 170.532C383.62 168.973 381.501 168.1 379.292 168.105H374.153C373.858 168.103 373.564 168.135 373.276 168.201C372.414 168.399 371.602 168.772 370.89 169.299C368.049 171.415 368.119 175.234 368.163 176.024C368.163 176.112 368.163 176.2 368.163 176.288V185.7C368.163 186.578 368.075 192.426 372.741 196.421C374.731 198.097 377.173 199.145 379.757 199.432Z" fill="#00264F"/>
<path d="M373.504 173.838H378.766C381.715 173.828 384.541 172.652 386.626 170.564C388.711 168.477 389.887 165.648 389.896 162.696V162.266C389.896 161.48 389.585 160.726 389.031 160.17C388.477 159.614 387.725 159.3 386.94 159.298H378.88C373.416 159.298 366.654 166.568 368.558 172.688C368.531 175.216 370.987 173.838 373.504 173.838Z" fill="#00264F"/>
<path d="M381.389 190.283H382.266C384.792 190.283 386.853 189.748 386.853 187.228C386.978 184.918 387.232 182.617 387.616 180.335C387.905 179.326 389.37 168.86 385.327 168.86C384.941 168.86 385.063 170.098 384.178 170.396C382.626 170.667 381.029 170.407 379.643 169.659L379.477 169.562C378.103 168.715 376.48 168.368 374.881 168.579C372.873 168.86 371.636 171.678 371.566 175.401C371.567 175.631 371.547 175.86 371.505 176.086L370.882 179.299C370.826 179.588 370.802 179.883 370.812 180.177C370.938 182.9 372.108 185.47 374.077 187.352C376.047 189.234 378.666 190.284 381.389 190.283Z" fill="#FFCFA2"/>
<path d="M369.531 177.552C369.531 178.755 370.154 179.721 370.917 179.721C371.68 179.721 372.311 178.755 372.311 177.552C372.311 176.349 371.689 175.375 370.917 175.375C370.145 175.375 369.531 176.384 369.531 177.552Z" fill="#FFCFA2"/>
<path d="M374.171 220.355C367.762 218.116 362.142 214.059 357.998 208.677L364.628 200.187L376.293 208.967C375.585 212.76 374.878 216.556 374.171 220.355Z" fill="#9EDEE5"/>
<path d="M381.239 286.636C373.101 284.81 362.62 288.278 359.401 295.162C356.849 300.623 361.155 305.066 357.788 312.836C356.034 316.858 353.885 318.183 353.332 318.491C350.587 320.054 348.675 319.026 347.947 320.247C346.421 322.714 352.104 331.468 359.945 332.987C362.129 333.408 362.12 332.811 366.549 332.741C375.477 332.6 376.889 335.015 382.704 334.216C388.519 333.417 394.106 330.098 393.965 327.596C393.904 326.718 393.088 326.489 391.764 324.9C391.571 324.681 388.554 321.09 388.159 316.902C387.896 314.118 388.887 311.519 391.273 306.523C392.273 304.434 392.895 303.679 393.228 301.861C393.685 299.001 393.169 296.07 391.764 293.538C388.878 288.349 383.037 287.04 381.239 286.636Z" fill="#0068DD"/>
<path d="M378.468 333.759C378.413 336.67 378.604 339.581 379.038 342.46C377.057 344.035 374.636 344.955 372.11 345.094C365.839 345.27 362.734 339.826 361.954 338.369C364.452 335.902 366.547 333.058 368.163 329.94C369.651 327.056 370.703 323.967 371.285 320.773C371.844 317.758 372.007 314.682 371.768 311.625L382.687 314.259C380.425 319.559 379.044 325.194 378.6 330.941C378.529 331.845 378.486 332.793 378.468 333.759Z" fill="#FFB876"/>
<path d="M382.687 314.276C380.425 319.577 379.044 325.212 378.6 330.958C375.157 328.421 372.598 324.864 371.285 320.791C371.844 317.776 372.006 314.7 371.768 311.642L382.687 314.276Z" fill="#F8A867"/>
<path d="M388.896 301.861C390.422 304.004 390.65 306.488 391.115 311.449C391.51 315.646 391.711 317.744 390.913 320.229C390.036 323.135 387.317 328.184 383.213 328.878C377.539 329.835 371.241 322.126 369.891 314.908C368.663 308.42 370.768 298.806 377.214 297.041C381.512 295.908 386.502 298.498 388.896 301.861Z" fill="#FFC586"/>
<path d="M382.029 293.599C382.725 295.55 382.958 297.636 382.707 299.693C382.455 301.749 381.728 303.718 380.582 305.443C379.437 307.169 377.904 308.602 376.107 309.629C374.311 310.657 372.299 311.25 370.233 311.361C369.126 311.496 368.007 311.241 367.066 310.641C365.76 309.632 365.567 307.735 365.768 306.093C366.036 304.012 366.739 302.01 367.831 300.218C368.924 298.427 370.382 296.887 372.109 295.698C374.898 293.792 380.003 292.063 383.274 293.546C382.871 293.608 382.45 293.555 382.029 293.599Z" fill="#0068DD"/>
<path d="M380.073 446.409C378.778 450.431 377.762 454.538 377.03 458.701C376.881 459.579 376.749 460.457 376.626 461.273C376.098 464.933 375.79 468.622 375.705 472.319C374.986 472.784 369.25 476.349 362.55 474.005C359.085 472.746 356.191 470.277 354.402 467.051C359.837 460.9 363.082 453.119 363.629 444.925L365.628 445.1L380.073 446.409Z" fill="#F2B879"/>
<path d="M380.073 446.408C378.778 450.431 377.762 454.538 377.03 458.701C376.881 459.579 376.749 460.457 376.626 461.273C375.181 460.745 373.83 459.986 372.627 459.025C369.119 456.295 366.023 452.546 365.549 448.112C365.453 447.109 365.471 446.099 365.602 445.1L380.073 446.408Z" fill="#EDA966"/>
<path d="M391.159 446.145C388.738 448.489 389.466 452.791 387.239 455.32C385.169 457.673 381.459 457.498 378.468 456.699C374.162 455.557 369.865 453.31 367.707 449.411C366.207 446.716 365.9 443.537 365.734 440.455C365.453 435.231 365.672 429.48 369.11 425.529C372.118 422.096 377.065 420.849 381.599 421.385C386.774 422 392.299 425.468 392.571 431.14C392.676 433.229 392.185 435.293 392.352 437.4C392.58 441.377 394.193 443.16 391.159 446.145Z" fill="#F7C589"/>
<path d="M366.742 456.497C365.122 455.658 363.453 454.919 361.743 454.284C360.796 453.933 359.884 453.64 359.007 453.406C360.318 451.601 361.129 449.48 361.357 447.26C361.726 442.923 358.787 440.657 356.972 434.696C356.19 432.132 355.759 429.473 355.692 426.793C355.069 421.174 357.077 415.853 361.138 413.202C365.041 410.647 369.575 411.376 370.785 411.569C375.127 412.271 376.398 414.44 380.222 415.959C383.169 417.1 387.73 417.882 394.518 415.783C394.737 417.864 394.983 423.167 391.588 427.557C388.194 431.947 381.941 434.204 376.802 433.809C372.89 433.51 370.329 431.781 368.584 433.335C368.01 433.964 367.624 434.742 367.469 435.58C367.314 436.418 367.397 437.282 367.707 438.076C368.452 440.016 370.338 440.245 371.285 441.395C372.662 443.01 372.531 446.953 366.742 456.497Z" fill="#EA942D"/>
<path d="M381.064 628.368L373.863 621.677L422.784 568.856L464.54 600.333L509.812 541.664L555.821 561.533L581.527 530.048L589.131 536.264L558.733 573.501L512.925 553.71L466.381 614.021L423.959 582.044L381.064 628.368Z" fill="white"/>
<path d="M599.366 515.956L569.687 532.103L584.281 534.447L589.473 548.285L599.366 515.956Z" fill="white"/>
<path d="M380.511 514.095H337.379V516.219H380.511V514.095Z" fill="#F76958"/>
<path d="M380.511 518.941H337.379V521.066H380.511V518.941Z" fill="#F76958"/>
<path d="M380.511 523.788H337.379V525.913H380.511V523.788Z" fill="#F76958"/>
<path d="M380.511 528.634H337.379V530.759H380.511V528.634Z" fill="#F76958"/>
<path d="M380.511 533.49H337.379V535.615H380.511V533.49Z" fill="#F76958"/>
<path d="M380.511 538.336H337.379V540.461H380.511V538.336Z" fill="#F76958"/>
<path d="M380.511 543.183H337.379V545.308H380.511V543.183Z" fill="#F76958"/>
<path d="M380.511 548.03H337.379V550.155H380.511V548.03Z" fill="#F76958"/>
<path d="M436.791 514.095H393.658V516.219H436.791V514.095Z" fill="#F76958"/>
<path d="M436.791 518.941H393.658V521.066H436.791V518.941Z" fill="#F76958"/>
<path d="M436.791 523.788H393.658V525.913H436.791V523.788Z" fill="#F76958"/>
<path d="M436.791 528.634H393.658V530.759H436.791V528.634Z" fill="#F76958"/>
<path d="M436.791 533.49H393.658V535.615H436.791V533.49Z" fill="#F76958"/>
<path d="M436.791 538.336H393.658V540.461H436.791V538.336Z" fill="#F76958"/>
<path d="M436.791 543.183H393.658V545.308H436.791V543.183Z" fill="#F76958"/>
<path d="M436.791 548.03H393.658V550.155H436.791V548.03Z" fill="#F76958"/>
<path d="M616.985 588.401H573.853V590.526H616.985V588.401Z" fill="#F76958"/>
<path d="M616.985 593.248H573.853V595.372H616.985V593.248Z" fill="#F76958"/>
<path d="M616.985 598.094H573.853V600.219H616.985V598.094Z" fill="#F76958"/>
<path d="M616.985 602.95H573.853V605.074H616.985V602.95Z" fill="#F76958"/>
<path d="M616.985 607.796H573.853V609.921H616.985V607.796Z" fill="#F76958"/>
<path d="M616.985 612.643H573.853V614.767H616.985V612.643Z" fill="#F76958"/>
<path d="M616.985 617.489H573.853V619.614H616.985V617.489Z" fill="#F76958"/>
<path d="M616.985 622.336H573.853V624.461H616.985V622.336Z" fill="#F76958"/>
</svg>
