<svg width="24" height="24" viewBox="0 0 24 24" fill="none" xmlns="http://www.w3.org/2000/svg">
<path d="M15.392 8.60019C14.456 7.66419 13.232 7.19219 12 7.19219V11.9922L8.608 15.3842C10.48 17.2562 13.52 17.2562 15.4 15.3842C17.272 13.5122 17.272 10.4722 15.392 8.60019ZM12 3.99219C7.584 3.99219 4 7.57619 4 11.9922C4 16.4082 7.584 19.9922 12 19.9922C16.416 19.9922 20 16.4082 20 11.9922C20 7.57619 16.416 3.99219 12 3.99219ZM12 18.3922C8.464 18.3922 5.6 15.5282 5.6 11.9922C5.6 8.45619 8.464 5.59219 12 5.59219C15.536 5.59219 18.4 8.45619 18.4 11.9922C18.4 15.5282 15.536 18.3922 12 18.3922Z" fill="#5A9903"/>
</svg>
