<svg width="24" height="24" viewBox="0 0 24 24" fill="none" xmlns="http://www.w3.org/2000/svg">
<g clip-path="url(#clip0)">
<rect width="24" height="24" rx="12" fill="#D93025"/>
<path opacity="0.3" d="M18.75 6.50055H5.25098L5.75098 17.3748H18.25L18.75 6.50055Z" fill="white"/>
<path opacity="0.3" d="M18.75 6.50055H5.25098L11.4691 11.1406H12.6254L18.75 6.50055Z" fill="white"/>
<path fill-rule="evenodd" clip-rule="evenodd" d="M6.37584 7.43811C6.37584 6.92064 5.95662 6.50067 5.43841 6.50067C4.92095 6.50067 4.50098 6.92064 4.50098 7.43811C4.50098 9.43446 4.50098 14.0984 4.50098 16.25C4.50098 16.8717 5.00494 17.3749 5.6259 17.3749C6.02487 17.3749 6.37584 17.3749 6.37584 17.3749C6.37584 17.3749 6.37584 10.0772 6.37584 7.43811Z" fill="white"/>
<path fill-rule="evenodd" clip-rule="evenodd" d="M17.625 7.43798C17.625 6.92052 18.045 6.50055 18.5624 6.50055C18.5632 6.50055 18.5639 6.50055 18.5639 6.50055C19.0814 6.50055 19.4999 6.91977 19.4999 7.43648C19.4999 9.43209 19.4999 14.0975 19.4999 16.2499C19.4999 16.8716 18.9967 17.3748 18.3749 17.3748C17.9767 17.3748 17.625 17.3748 17.625 17.3748C17.625 17.3748 17.625 10.077 17.625 7.43798Z" fill="white"/>
<path fill-rule="evenodd" clip-rule="evenodd" d="M4.9685 8.2494C4.75326 8.12491 4.59652 7.92093 4.53203 7.68094C4.46753 7.44096 4.50128 7.18598 4.62577 6.97074C4.62577 6.97074 4.62652 6.96999 4.62652 6.96925C4.75101 6.75401 4.95575 6.59727 5.19573 6.53278C5.43571 6.46828 5.69144 6.50203 5.90668 6.62652L12 10.1445L18.0948 6.62577C18.3101 6.50128 18.565 6.46753 18.805 6.53203C19.045 6.59652 19.249 6.75326 19.3735 6.9685L19.3742 6.96925C19.4987 7.18448 19.5325 7.44096 19.468 7.68094C19.4035 7.92093 19.246 8.12566 19.0308 8.25015L13.8749 11.2267L12 12.3096L10.1251 11.2267L4.9685 8.2494Z" fill="white"/>
</g>
<defs>
<clipPath id="clip0">
<rect width="24" height="24" fill="white"/>
</clipPath>
</defs>
</svg>
