<svg width="24" height="24" viewBox="0 0 24 24" fill="none" xmlns="http://www.w3.org/2000/svg">
<path d="M9.5004 12C9.5004 10.6193 10.6193 9.4998 12 9.4998C13.3807 9.4998 14.5002 10.6193 14.5002 12C14.5002 13.3807 13.3807 14.5002 12 14.5002C10.6193 14.5002 9.5004 13.3807 9.5004 12ZM8.14884 12C8.14884 14.127 9.873 15.8512 12 15.8512C14.127 15.8512 15.8512 14.127 15.8512 12C15.8512 9.873 14.127 8.14884 12 8.14884C9.873 8.14884 8.14884 9.873 8.14884 12ZM15.1036 7.99614C15.1035 8.17414 15.1563 8.34817 15.2551 8.49621C15.3539 8.64426 15.4944 8.75967 15.6589 8.82785C15.8233 8.89604 16.0043 8.91393 16.1788 8.87928C16.3534 8.84462 16.5138 8.75897 16.6398 8.63315C16.7657 8.50733 16.8515 8.347 16.8863 8.17243C16.9211 7.99787 16.9033 7.8169 16.8352 7.65242C16.7672 7.48794 16.6519 7.34733 16.5039 7.24838C16.356 7.14943 16.182 7.09657 16.004 7.0965H16.0036C15.765 7.09661 15.5362 7.19142 15.3675 7.3601C15.1987 7.52878 15.1038 7.75754 15.1036 7.99614ZM8.97 18.1048C8.23878 18.0715 7.84134 17.9497 7.57722 17.8468C7.22706 17.7105 6.97722 17.5481 6.71454 17.2858C6.45186 17.0235 6.28926 16.7739 6.15354 16.4237C6.05058 16.1597 5.92878 15.7622 5.89554 15.031C5.85918 14.2404 5.85192 14.0029 5.85192 12.0001C5.85192 9.9972 5.85978 9.76038 5.89554 8.96916C5.92884 8.23794 6.05154 7.84116 6.15354 7.57638C6.28986 7.22622 6.45222 6.97638 6.71454 6.7137C6.97686 6.45102 7.22646 6.28842 7.57722 6.1527C7.84122 6.04974 8.23878 5.92794 8.97 5.8947C9.76056 5.85834 9.99804 5.85108 12 5.85108C14.002 5.85108 14.2397 5.85894 15.0309 5.8947C15.7621 5.928 16.1589 6.0507 16.4237 6.1527C16.7738 6.28842 17.0237 6.45138 17.2864 6.7137C17.549 6.97602 17.711 7.22622 17.8474 7.57638C17.9503 7.84038 18.0721 8.23794 18.1054 8.96916C18.1417 9.76038 18.149 9.9972 18.149 12.0001C18.149 14.0029 18.1417 14.2397 18.1054 15.031C18.0721 15.7622 17.9497 16.1596 17.8474 16.4237C17.711 16.7739 17.5487 17.0237 17.2864 17.2858C17.024 17.5479 16.7738 17.7105 16.4237 17.8468C16.1597 17.9498 15.7621 18.0716 15.0309 18.1048C14.2403 18.1412 14.0029 18.1484 12 18.1484C9.99714 18.1484 9.76032 18.1412 8.97 18.1048ZM8.9079 4.54542C8.10948 4.58178 7.5639 4.70838 7.08744 4.89378C6.594 5.08524 6.17628 5.3421 5.75886 5.75886C5.34144 6.17562 5.08524 6.594 4.89378 7.08744C4.70838 7.5642 4.58178 8.10948 4.54542 8.9079C4.50846 9.70758 4.5 9.96324 4.5 12C4.5 14.0368 4.50846 14.2924 4.54542 15.0921C4.58178 15.8906 4.70838 16.4358 4.89378 16.9126C5.08524 17.4057 5.3415 17.8246 5.75886 18.2411C6.17622 18.6577 6.594 18.9142 7.08744 19.1062C7.5648 19.2916 8.10948 19.4182 8.9079 19.4546C9.708 19.4909 9.96324 19.5 12 19.5C14.0368 19.5 14.2924 19.4915 15.0921 19.4546C15.8906 19.4182 16.4358 19.2916 16.9126 19.1062C17.4057 18.9142 17.8237 18.6579 18.2411 18.2411C18.6586 17.8244 18.9142 17.4057 19.1062 16.9126C19.2916 16.4358 19.4188 15.8905 19.4546 15.0921C19.4909 14.2918 19.4994 14.0368 19.4994 12C19.4994 9.96324 19.4909 9.70758 19.4546 8.9079C19.4182 8.10942 19.2916 7.5639 19.1062 7.08744C18.9142 6.5943 18.6579 6.17628 18.2411 5.75886C17.8244 5.34144 17.4057 5.08524 16.9132 4.89378C16.4358 4.70838 15.8905 4.58118 15.0927 4.54542C14.293 4.50906 14.0374 4.5 12.0006 4.5C9.96384 4.5 9.708 4.50846 8.9079 4.54542Z" fill="#829299"/>
</svg>
