<svg width="24" height="24" viewBox="0 0 24 24" fill="none" xmlns="http://www.w3.org/2000/svg">
<path d="M18.6621 17.6625C17.8746 17.6438 17.1059 17.6438 16.3184 17.6625C16.1496 17.6625 16.1121 17.625 16.1121 17.4563C16.1121 16.0688 16.1121 14.6625 16.1121 13.275C16.1121 12.9563 16.0934 12.6375 15.9996 12.3375C15.7184 11.3625 14.5934 11.0063 13.7871 11.6625C13.3559 12 13.1871 12.4688 13.1871 13.0313C13.1871 14.3438 13.1871 15.6563 13.1871 16.9688C13.1871 17.1375 13.1684 17.3063 13.1871 17.4938C13.2059 17.6438 13.1309 17.6813 12.9996 17.6625C12.1934 17.6625 11.4059 17.6625 10.5996 17.6625C10.4496 17.6625 10.4121 17.625 10.4121 17.475C10.4309 16.2938 10.4309 15.1125 10.4309 13.9125C10.4309 12.45 10.4309 10.9875 10.4121 9.54379C10.4121 9.37504 10.4496 9.33754 10.5996 9.33754C11.4059 9.33754 12.1934 9.33754 12.9996 9.33754C13.1496 9.33754 13.1871 9.37504 13.1871 9.52504C13.1871 9.82504 13.1871 10.125 13.1871 10.4813C13.2434 10.425 13.2621 10.4063 13.2809 10.3875C14.0121 9.31879 15.0434 9.01879 16.2621 9.20629C17.6684 9.43129 18.5684 10.4063 18.7934 11.9063C18.8496 12.2625 18.8684 12.6188 18.8684 12.975C18.8684 14.475 18.8684 15.9563 18.8684 17.4563C18.8684 17.6063 18.8309 17.6625 18.6621 17.6625Z" fill="#829299"/>
<path d="M8.9125 13.5C8.9125 14.8125 8.9125 16.125 8.9125 17.4375C8.9125 17.6063 8.875 17.6625 8.70625 17.6625C7.91875 17.6438 7.13125 17.6625 6.34375 17.6625C6.19375 17.6625 6.15625 17.625 6.15625 17.475C6.15625 14.8313 6.15625 12.1688 6.15625 9.52502C6.15625 9.39377 6.19375 9.33752 6.34375 9.33752C7.15 9.33752 7.95625 9.33752 8.7625 9.33752C8.93125 9.33752 8.95 9.39377 8.95 9.54377C8.9125 10.8563 8.9125 12.1688 8.9125 13.5Z" fill="#829299"/>
<path d="M9.04372 7.16251C8.85622 7.91251 8.08747 8.34376 7.20622 8.19376C6.26872 8.04376 5.74372 7.12501 6.08122 6.22501C6.30622 5.66251 6.84997 5.32501 7.54372 5.34376C8.59372 5.32501 9.28747 6.16876 9.04372 7.16251Z" fill="#829299"/>
</svg>
