<svg width="24" height="24" viewBox="0 0 24 24" fill="none" xmlns="http://www.w3.org/2000/svg">
<rect width="24" height="24" rx="12" fill="#292929"/>
<path d="M19.25 17.8286L18.1654 16.7429C18.0512 16.6857 17.9941 16.5143 17.9941 16.4V7.71429C17.9941 7.6 18.0512 7.42857 18.1654 7.31429L19.25 6.05714V6H15.3681L12.4567 13.3714L9.14567 6H5.14961V6.05714L6.17717 7.48571C6.40551 7.71429 6.4626 8.05714 6.4626 8.34286V14.6286C6.51968 14.9714 6.4626 15.3714 6.29134 15.7143L4.75 17.8286V17.8857H8.86024V17.8286L7.3189 15.7714C7.14764 15.4286 7.09055 15.0857 7.14764 14.6857V8.97143C7.20472 9.08571 7.26181 9.08571 7.3189 9.31429L11.2008 18H11.2579L15.0256 8.57143C14.9685 8.91429 14.9685 9.31429 14.9685 9.6V16.3429C14.9685 16.5143 14.9114 16.6286 14.7972 16.7429L13.6555 17.8286V17.8857H19.25V17.8286Z" fill="white"/>
</svg>
