<svg width="24" height="24" viewBox="0 0 24 24" fill="none" xmlns="http://www.w3.org/2000/svg">
<path fill-rule="evenodd" clip-rule="evenodd" d="M15.9004 14H15.1004L14.8004 13.7C15.8004 12.6 16.4004 11.1 16.4004 9.5C16.4004 5.9 13.5004 3 9.90039 3C6.30039 3 3.40039 5.9 3.40039 9.5C3.40039 13.1 6.30039 16 9.90039 16C11.5004 16 13.0004 15.4 14.1004 14.4L14.4004 14.7V15.5L19.4004 20.5L20.9004 19L15.9004 14ZM9.90039 14C7.40039 14 5.40039 12 5.40039 9.5C5.40039 7 7.40039 5 9.90039 5C12.4004 5 14.4004 7 14.4004 9.5C14.4004 12 12.4004 14 9.90039 14Z" fill="#455A64"/>
</svg>
