<svg width="24" height="24" viewBox="0 0 24 24" fill="none" xmlns="http://www.w3.org/2000/svg">
<rect width="24" height="24" rx="12" fill="#419FD9"/>
<path fill-rule="evenodd" clip-rule="evenodd" d="M14.2675 17.6355C14.5331 17.8392 14.8234 18.0653 15.1571 18.039C15.2528 18.0314 15.3368 18.0067 15.41 17.972C15.7754 17.7989 15.8604 17.3406 15.9393 16.9441L17.8291 7.45056C17.9692 6.74685 17.7665 5.81352 17.0931 6.06121C16.9478 6.11467 16.9368 6.12304 16.7926 6.17961L5.37588 10.6596C4.84858 10.8665 3.96306 10.9859 4.04317 11.5466C4.08118 11.8127 4.3397 11.9778 4.47896 12.0484C4.53676 12.0777 4.59812 12.0986 4.65958 12.1192C6.56444 12.7577 8.03979 14.2797 8.63489 16.1986C8.72184 16.4789 8.79198 16.703 8.83106 16.8238C8.88547 17.0034 8.93818 17.1287 8.98498 17.2162C9.07104 17.377 9.3196 17.4757 9.47453 17.3794C9.51732 17.3528 9.51377 17.3486 9.55112 17.3148L9.58196 17.2869C10.7058 16.2696 12.3959 16.2007 13.5988 17.1229L14.2675 17.6355ZM15.2006 8.37174C15.2063 8.36814 15.2117 8.36476 15.2175 8.36142C15.2399 8.34859 15.3038 8.31321 15.3747 8.2857C15.5651 8.21188 15.6102 8.49628 15.4712 8.64593C15.2724 8.84469 10.8191 12.8428 9.78981 13.765C9.69664 13.8485 9.56497 13.9203 9.56497 14.0454L9.37275 15.688C9.3378 15.8627 9.11064 15.8802 9.05822 15.7229L8.23694 13.0319C8.20199 12.9271 8.23694 12.8048 8.34178 12.7349L15.2006 8.37174Z" fill="white"/>
</svg>
