<svg width="18" height="18" viewBox="0 0 18 18" fill="none" xmlns="http://www.w3.org/2000/svg">
<path fill-rule="evenodd" clip-rule="evenodd" d="M12.9004 11H12.1004L11.8004 10.7C12.8004 9.6 13.4004 8.1 13.4004 6.5C13.4004 2.9 10.5004 0 6.90039 0C3.30039 0 0.400391 2.9 0.400391 6.5C0.400391 10.1 3.30039 13 6.90039 13C8.50039 13 10.0004 12.4 11.1004 11.4L11.4004 11.7V12.5L16.4004 17.5L17.9004 16L12.9004 11ZM6.90039 11C4.40039 11 2.40039 9 2.40039 6.5C2.40039 4 4.40039 2 6.90039 2C9.40039 2 11.4004 4 11.4004 6.5C11.4004 9 9.40039 11 6.90039 11Z" fill="#455A64"/>
</svg>
