<svg width="44" height="21" viewBox="0 0 44 21" fill="none" xmlns="http://www.w3.org/2000/svg">
<path d="M43.7451 10.0753L33.9676 1.16314C33.6959 0.942494 33.3989 0.900042 33.0763 1.03587C32.7541 1.17188 32.5923 1.41785 32.5923 1.7745V7.47824H0.814795C0.577028 7.47824 0.381712 7.5545 0.229117 7.70727C0.07661 7.85996 0 8.05527 0 8.29286V13.1816C0 13.4191 0.0762533 13.6144 0.229027 13.7669C0.38198 13.9196 0.577295 13.9959 0.814706 13.9959H32.5925V19.6995C32.5925 20.0395 32.7546 20.2855 33.0766 20.4378C33.3995 20.5742 33.6964 20.5226 33.9681 20.2855L43.7456 11.2709C43.9154 11.1013 44 10.898 44 10.6601C44 10.44 43.9148 10.245 43.7451 10.0753Z" fill="#FF7663"/>
</svg>
