<svg width="64" height="63" viewBox="0 0 64 63" fill="none" xmlns="http://www.w3.org/2000/svg">
<rect x="1.03027" y="0.859375" width="61.5902" height="61.5902" rx="11.5" fill="#FA4767" fill-opacity="0.128" stroke="#FC5E5C"/>
<g clip-path="url(#clip0)">
<path d="M30.5762 42.2564C29.1573 43.6753 26.8551 43.6753 25.4369 42.2564L17.4743 34.2936C16.0554 32.8754 16.0554 30.5731 17.4743 29.1549C18.8925 27.736 21.1947 27.736 22.6136 29.1549L27.3577 33.8985C27.7159 34.256 28.2972 34.256 28.6561 33.8985L41.5018 21.0525C42.92 19.6336 45.2223 19.6336 46.6411 21.0525C47.3225 21.7338 47.7053 22.6583 47.7053 23.6218C47.7053 24.5853 47.3225 25.5098 46.6411 26.1911L30.5762 42.2564Z" fill="url(#paint0_linear)"/>
</g>
<defs>
<linearGradient id="paint0_linear" x1="32.0577" y1="19.9883" x2="32.0577" y2="43.3206" gradientUnits="userSpaceOnUse">
<stop stop-color="#FF804C"/>
<stop offset="1" stop-color="#F94666"/>
</linearGradient>
<clipPath id="clip0">
<rect width="31.2951" height="31.2951" fill="white" transform="translate(16.4102 16.0078)"/>
</clipPath>
</defs>
</svg>
