<svg width="101" height="101" viewBox="0 0 101 101" fill="none" xmlns="http://www.w3.org/2000/svg">
<path d="M50.2006 31.2587C60.5554 31.2587 68.9476 39.6574 68.9476 50.0057C68.9476 60.3635 60.555 68.7527 50.2006 68.7527C39.852 68.7527 31.4536 60.3601 31.4536 50.0057C31.4536 39.6574 39.8524 31.2587 50.2006 31.2587Z" fill="#26A6D1"/>
<path d="M50.2006 75.005C37.5525 75.005 27.126 65.6064 25.4639 53.4083L8.23215 23.5285L8.21327 23.4849L6.28544 26.2687C5.81044 27.1404 5.34813 28.0245 4.92323 28.9275L4.00136 31.0836C3.69521 31.8273 3.39216 32.5804 3.12033 33.3488C2.81419 34.2017 2.54854 35.0642 2.29559 35.9298L1.73958 37.9201C1.50826 38.8481 1.3116 39.7762 1.13347 40.7104L0.796091 42.6818C0.658463 43.5972 0.55241 44.5067 0.471068 45.4158L0.308728 47.5935C0.268229 48.4248 0.252441 49.2526 0.252441 50.0839C0.252441 50.9152 0.264797 51.7461 0.308728 52.5742L0.471068 54.7519C0.555499 55.6611 0.664641 56.5768 0.796091 57.486L1.13347 59.4574C1.31469 60.3916 1.50826 61.3197 1.73958 62.2477L2.29559 64.238C2.55197 65.0974 2.81419 65.9657 3.12033 66.819C3.39216 67.5812 3.6983 68.3312 4.00136 69.0842C4.30133 69.8029 4.5886 70.5246 4.92323 71.2368C5.34813 72.1398 5.81044 73.0177 6.28853 73.8988L6.91044 75.1206L7.19805 75.5675C7.74788 76.5079 8.35399 77.4047 8.96663 78.3015L9.94787 79.7605C10.5385 80.5667 11.1852 81.3352 11.8321 82.1102L13.1257 83.6598C13.6882 84.2751 14.2912 84.8627 14.8847 85.4534C15.4784 86.0502 16.0626 86.6625 16.6814 87.2155L18.231 88.5152C19.006 89.1556 19.7744 89.8026 20.5806 90.396L22.0273 91.3834C22.9272 91.9988 23.8302 92.6053 24.7613 93.152L25.2051 93.4396L26.4235 94.0615C27.2983 94.5365 28.1794 95.0081 29.0824 95.4299L29.3418 95.5641L30.6073 96.0827C33.9879 97.5232 37.5185 98.5418 41.1182 99.2135L55.3814 74.4798C53.7096 74.8145 51.9785 75.005 50.2006 75.005Z" fill="#3DB39E"/>
<path d="M100.024 46.5999L99.9587 45.7752C99.6056 41.6007 97.8902 35.5581 96.4655 31.5023H66.9608C72.0068 36.0736 75.1969 42.6568 75.1969 50.0056C75.1969 57.9356 71.4943 64.9876 65.7452 69.565L48.1699 100.048C54.3502 100.048 62.6707 98.9324 68.6573 96.5392L68.8605 96.4736L69.1794 96.3394C71.2198 95.4927 73.2382 94.5647 75.2034 93.4273C76.9624 92.4148 78.6092 91.2777 80.1996 90.0902L80.2902 90.0185C81.8213 88.8591 83.2552 87.6252 84.624 86.3251L84.8364 86.1408L85.527 85.4379C88.5513 82.4101 91.1481 79.0672 93.2664 75.4614L93.507 75.1083L93.9412 74.2303C94.6225 72.993 95.2536 71.7276 95.8285 70.4402L96.5657 68.706C97.0531 67.4841 97.478 66.2468 97.8686 64.9941L98.3841 63.3817C98.8622 61.6412 99.2527 59.8854 99.5434 58.1075L99.6653 57.095C99.8808 55.5701 100.034 54.036 100.112 52.4864L100.14 51.246C100.165 49.7026 100.134 48.1499 100.024 46.5999Z" fill="#EFC75E"/>
<path d="M93.4786 25.0098C92.4318 23.1976 91.26 21.5073 90.0289 19.8763L89.626 19.3763C88.5198 17.9485 87.3481 16.5924 86.1108 15.3174L85.2734 14.458C83.9142 13.1208 82.505 11.852 81.0271 10.693L80.7021 10.418C79.0554 9.14952 77.3307 8.00903 75.5529 6.96532L75.1966 6.72781L73.8437 6.02491C73.0625 5.6031 72.2845 5.18129 71.4817 4.80307C70.7098 4.44373 69.9321 4.12488 69.154 3.80329L67.195 3.02214C66.2484 2.68167 65.2922 2.39406 64.3329 2.10027L62.7394 1.63796C61.6957 1.36922 60.6427 1.15677 59.5931 0.953591L58.106 0.659801C57.0812 0.494372 56.0563 0.391065 55.0284 0.294279L53.3442 0.122329C52.4632 0.0660419 51.5853 0.0722197 50.6977 0.059864L48.5293 0.0478516L46.8421 0.169692C43.1113 0.419552 39.3806 1.08504 35.7158 2.19431L34.9566 2.40058C34.0285 2.70055 33.1132 3.06607 32.1944 3.42541L30.4324 4.12214C29.6763 4.44407 28.9294 4.82195 28.1795 5.19399C27.4546 5.55025 26.7267 5.90959 26.0142 6.30635L25.2018 6.72198L24.0019 7.49695C23.2925 7.93455 22.5896 8.38107 21.899 8.85608C21.2243 9.328 20.5588 9.80918 19.9087 10.3027L18.1903 11.6745C17.4809 12.2683 16.7907 12.8713 16.1186 13.496L14.8439 14.7394C14.1033 15.4832 13.3784 16.2393 12.6944 17.0204L12.229 17.583L26.4487 42.2511C29.7137 32.2495 39.1091 25.0101 50.2045 25.0101C50.2038 25.0098 93.4786 25.0098 93.4786 25.0098Z" fill="#E2574C"/>
</svg>
