<svg width="19" height="18" viewBox="0 0 19 18" fill="none" xmlns="http://www.w3.org/2000/svg">
<path d="M18.833 0.790379L15.5603 0.790378L15.5603 10.6086L18.833 10.6086L18.833 0.790379ZM0.832965 9.79042C0.832965 10.6904 1.56937 11.4268 2.46936 11.4268L7.62397 11.4268L6.80577 15.1904C6.80577 15.2722 6.80577 15.354 6.80577 15.4359C6.80577 15.7631 6.96937 16.0904 7.13297 16.3359L8.03296 17.1541L13.433 11.754C13.7603 11.5086 13.9239 11.0995 13.9239 10.6086L13.9239 2.42678C13.9239 1.52678 13.1876 0.790378 12.2876 0.790378L4.92397 0.790377C4.26937 0.790377 3.69667 1.19948 3.45117 1.77228L0.996665 7.58138C0.914864 7.745 0.914866 7.99045 0.914866 8.15409L0.914866 9.79045L0.832965 9.79045C0.832965 9.7086 0.832965 9.79042 0.832965 9.79042Z" fill="#EC2434"/>
</svg>
