<svg width="101" height="98" viewBox="0 0 101 98" fill="none" xmlns="http://www.w3.org/2000/svg">
<path d="M50.1392 0.51416C76.0448 0.51416 96.9565 21.4259 96.9565 47.3315C96.9565 73.2372 76.0444 94.1489 50.1392 94.1489C24.2339 94.1489 3.32178 73.2372 3.32178 47.3315C3.32178 21.4259 24.2335 0.51416 50.1392 0.51416Z" fill="#2394BC"/>
<path d="M58.2541 96.6454C81.9748 92.5879 100.078 72.3005 100.078 47.3311L99.7656 47.9555C100.39 43.2736 100.39 38.904 99.4536 35.4708C99.1416 38.2797 98.8293 39.8404 98.205 40.4647C98.205 40.1527 98.205 37.3434 97.2687 33.5982C96.9567 30.7893 96.3324 27.98 95.3961 25.4831C95.7081 26.7314 95.7081 27.668 95.7081 28.6043C91.9628 18.9286 83.2234 6.75627 61.0633 7.06826C61.0633 7.06826 68.8661 8.00456 72.2994 13.3104C72.2994 13.3104 68.5541 12.3741 65.7449 13.9347C69.1781 15.183 72.2994 16.7436 74.7963 18.3043H75.1083C75.7326 18.6163 76.3566 19.2406 76.9809 19.5526C81.6628 22.9858 86.0323 27.6677 85.72 33.5979C84.4717 31.7252 83.2231 30.4766 81.3504 30.1646C83.5354 38.5917 83.5354 45.4582 81.9748 50.7644C80.7265 47.0192 79.7898 45.1462 78.8535 44.2099C80.1018 55.4459 78.5415 63.561 73.5477 68.8669C74.484 65.7456 74.796 62.9367 74.796 60.7518C68.8658 69.4908 62.3113 74.1727 54.8205 74.4847C52.0116 74.4847 49.2023 74.1727 46.3934 73.2364C42.6482 71.9881 39.2146 69.8032 36.0937 66.6819C40.7756 66.9939 45.4571 66.3699 49.2027 64.185L55.4448 60.1274C56.3811 59.8155 57.0054 59.8155 57.9417 60.1274C59.5024 59.8155 60.1267 59.1911 59.5024 57.6305C58.8781 56.6942 57.6298 55.7579 56.0691 54.8216C52.9479 53.261 49.5147 53.5733 46.0814 55.7579C42.6482 57.6305 39.5269 57.6305 36.4057 55.4459C34.5331 54.1976 32.3481 52.3247 30.4755 49.8277L29.8512 48.5794C29.5392 51.3884 29.8512 54.5096 31.0995 58.8791C29.8512 54.8216 29.5389 51.3884 29.8512 48.5794C29.8512 46.3945 30.7875 44.8342 32.6601 44.8342H32.0358H32.9721C35.157 45.1462 37.3416 45.4585 40.1509 46.3948C40.4629 43.8979 40.1509 41.089 38.2783 38.2797C40.7752 35.7828 42.9602 34.2222 44.8328 33.2859C45.7691 32.9739 46.0811 32.0376 46.3934 31.1009C47.0177 29.8526 46.7054 29.2283 46.0814 28.604C44.2088 28.604 42.6482 28.604 40.7756 28.292C40.1512 27.98 39.2149 27.3557 37.9666 26.4194L35.1577 23.6105L34.2214 22.9861L33.9094 22.6742L34.2214 22.3622C34.5334 20.1772 35.1577 18.3046 36.094 16.744L36.406 16.432C37.3423 14.8714 39.2149 13.3108 41.7119 11.4381C36.718 12.0625 32.3485 14.2471 28.2909 17.9926C25.1697 17.0563 21.1121 17.3683 16.7426 19.2409L16.1182 19.5529L16.7426 19.2409C13.9336 17.9926 12.0607 14.2471 11.1244 8.0049C7.37949 11.4381 5.81886 17.9926 5.81886 27.044L4.88256 28.6047L4.57057 28.9167C3.94625 29.853 3.32228 31.1016 2.38563 32.6619C1.13733 35.1588 0.513014 37.0314 0.513014 38.904V39.5284C0.513014 39.8403 0.513014 40.4647 0.513014 40.7767L3.32193 38.5917C2.38563 41.4006 1.44932 44.2099 1.13699 47.0188V48.2671L0.200684 47.3315C0.200684 57.9435 3.63392 67.9313 9.2521 76.046L9.56409 76.358L9.87608 76.67C13.9336 82.2882 19.2395 86.9697 25.482 90.7153C29.8515 93.2122 34.5334 95.0848 39.5273 96.3335L40.4636 96.6454C41.3999 96.9574 42.6485 96.9574 43.5848 97.2698C44.5211 97.2698 45.1454 97.5818 46.0818 97.5818H47.0181H48.5787H50.1393H51.3876H53.5725C54.8208 97.5818 56.0695 97.2698 57.3178 97.2698C57.3178 96.6454 58.2541 96.6454 58.2541 96.6454ZM89.7779 35.7831V36.0951V35.7831Z" fill="#EC8840"/>
</svg>
