<svg width="19" height="18" viewBox="0 0 19 18" fill="none" xmlns="http://www.w3.org/2000/svg">
<path d="M0.833008 17.1541H4.10573V7.33586H0.833008V17.1541ZM18.8331 8.15404C18.8331 7.25404 18.0967 6.51768 17.1967 6.51768H12.0421L12.8603 2.75404C12.8603 2.67222 12.8603 2.59041 12.8603 2.50859C12.8603 2.18131 12.6967 1.85404 12.5331 1.60859L11.6331 0.790405L6.23301 6.19041C5.90573 6.43586 5.7421 6.84495 5.7421 7.33586V15.5177C5.7421 16.4177 6.47846 17.1541 7.37846 17.1541H14.7421C15.3967 17.1541 15.9694 16.745 16.2149 16.1722L18.6694 10.3631C18.7512 10.1995 18.7512 9.95401 18.7512 9.79037V8.15401H18.8331C18.8331 8.23586 18.8331 8.15404 18.8331 8.15404Z" fill="#5CD44C"/>
</svg>
