<svg width="29" height="22" viewBox="0 0 29 22" fill="none" xmlns="http://www.w3.org/2000/svg">
<path d="M25.5389 0.201172H4.38099C2.49231 0.201172 0.957031 1.73645 0.957031 3.62513V18.0857C0.957031 19.9744 2.49231 21.5097 4.38099 21.5097H25.5331C27.4218 21.5097 28.957 19.9744 28.957 18.0857V3.63093C28.9628 1.74224 27.4275 0.201172 25.5389 0.201172ZM27.3986 18.0857C27.3986 19.1112 26.5643 19.9454 25.5389 19.9454H4.38099C3.35554 19.9454 2.52128 19.1112 2.52128 18.0857V3.63093C2.52128 2.60548 3.35554 1.77121 4.38099 1.77121H25.5331C26.5585 1.77121 27.3928 2.60548 27.3928 3.63093V18.0857H27.3986Z" fill="#7C787A"/>
<path d="M18.6161 10.6752L25.464 4.53409C25.7826 4.24441 25.8116 3.75197 25.5219 3.42753C25.2323 3.10889 24.7398 3.07992 24.4154 3.36959L14.972 11.8455L13.1296 10.2001C13.1238 10.1943 13.118 10.1885 13.118 10.1828C13.0775 10.1422 13.0369 10.1074 12.9906 10.0727L5.4938 3.3638C5.16936 3.07413 4.67691 3.10309 4.38724 3.42753C4.09756 3.75197 4.12653 4.24441 4.45097 4.53409L11.38 10.7273L4.47993 17.1871C4.16708 17.4826 4.1497 17.975 4.44517 18.2937C4.6016 18.4559 4.81016 18.5428 5.01873 18.5428C5.20992 18.5428 5.4011 18.4733 5.55173 18.3342L12.5561 11.7818L14.4563 13.4793C14.607 13.6125 14.7924 13.6762 14.9778 13.6762C15.1632 13.6762 15.3543 13.6067 15.4992 13.4735L17.4516 11.7238L24.4154 18.34C24.566 18.4848 24.763 18.5544 24.9542 18.5544C25.1627 18.5544 25.3655 18.4733 25.5219 18.311C25.8174 17.9982 25.8058 17.4999 25.493 17.2045L18.6161 10.6752Z" fill="#7C787A"/>
</svg>
