<svg width="101" height="101" viewBox="0 0 101 101" fill="none" xmlns="http://www.w3.org/2000/svg">
<g clip-path="url(#clip0)">
<path d="M33.7446 21.8303C38.3321 16.4116 44.2571 13.1491 50.7321 13.1491C65.2884 13.1491 77.0884 29.6491 77.0884 50.0053C77.0884 70.3616 65.2884 86.8678 50.7321 86.8678C44.2571 86.8678 38.3321 83.5991 33.7446 78.1866C40.9196 87.4991 51.5821 93.4053 63.4884 93.4053C70.8134 93.4053 77.6634 91.1678 83.5259 87.2803C93.7571 78.1241 100.201 64.8178 100.201 50.0053C100.201 35.1928 93.7571 21.8866 83.5259 12.7366C77.6634 8.84908 70.8134 6.61158 63.4884 6.61158C51.5821 6.60533 40.9134 12.5178 33.7446 21.8303Z" fill="#D32F2F"/>
<path d="M50.2007 0.00537109C22.5882 0.00537109 0.200684 22.3929 0.200684 50.0054C0.200684 76.8179 21.3132 98.7054 47.8194 99.9491C48.6069 99.9866 49.4007 100.005 50.2007 100.005C63.0007 100.005 74.6757 95.1929 83.5194 87.2804C77.6569 91.1679 70.8069 93.4054 63.4819 93.4054C51.5757 93.4054 40.9132 87.4991 33.7382 78.1866C28.2069 71.6616 24.6257 62.0179 24.3882 51.1866C24.3882 51.1616 24.3882 48.8616 24.3882 48.8304C24.6319 38.0054 28.2132 28.3554 33.7382 21.8304C40.9132 12.5179 51.5757 6.61162 63.4819 6.61162C70.8069 6.61162 77.6569 8.84912 83.5194 12.7366C74.7257 4.86162 63.1194 0.0553711 50.3882 0.00537109C50.3257 0.00537109 50.2632 0.00537109 50.2007 0.00537109Z" fill="#F44336"/>
</g>
<defs>
<clipPath id="clip0">
<rect width="100" height="100" fill="white" transform="translate(0.200684 0.00537109)"/>
</clipPath>
</defs>
</svg>
