<svg width="42" height="43" viewBox="0 0 42 43" fill="none" xmlns="http://www.w3.org/2000/svg">
<g clip-path="url(#clip0)">
<g clip-path="url(#clip1)">
<path d="M39.8462 9.31577C39.8451 6.93454 37.915 5.00443 35.5338 5.00342H4.31235C1.93113 5.00443 0.00101071 6.93454 0 9.31577V38.4673C0.00101071 40.8485 1.93113 42.7786 4.31235 42.7796H35.5338C37.915 42.7786 39.8451 40.8485 39.8462 38.4673V9.31577ZM38.1212 38.4673C38.1222 39.1539 37.8497 39.8125 37.3645 40.298C36.8791 40.7832 36.2204 41.0557 35.5338 41.0547H4.31235C3.62575 41.0557 2.9671 40.7832 2.48163 40.298C1.99649 39.8125 1.72393 39.1539 1.72494 38.4673V9.31577C1.72393 8.62916 1.99649 7.97052 2.48163 7.48504C2.9671 6.9999 3.62575 6.72735 4.31235 6.72836H35.5338C36.2204 6.72735 36.8791 6.9999 37.3645 7.48504C37.8497 7.97052 38.1222 8.62916 38.1212 9.31577V38.4673Z" fill="url(#paint0_linear)"/>
<path d="M10.9275 18.2943C11.5309 18.2946 12.1235 18.1339 12.644 17.8283L13.6099 18.7942C13.7717 18.9573 13.9927 19.0476 14.2221 19.0446C14.4512 19.0436 14.6705 18.9539 14.8346 18.7942C14.996 18.6332 15.0869 18.4146 15.0869 18.1865C15.0869 17.9581 14.996 17.7394 14.8346 17.5784L13.8687 16.6125C14.6513 15.2804 14.4404 13.5881 13.3542 12.4891C12.2681 11.3901 10.5788 11.159 9.23762 11.9261C7.89607 12.6933 7.23844 14.2663 7.63497 15.7598C8.03117 17.2533 9.38249 18.2933 10.9275 18.2943ZM10.9275 13.2057C11.8564 13.2057 12.6093 13.9587 12.6093 14.8875C12.6093 15.8164 11.8564 16.5693 10.9275 16.5693C9.99868 16.5693 9.2457 15.8164 9.2457 14.8875C9.24503 14.4411 9.4219 14.0129 9.73725 13.6972C10.0529 13.3816 10.4811 13.2047 10.9275 13.2057Z" fill="url(#paint1_linear)"/>
<path d="M35.2753 10.092C35.2739 9.61626 34.8885 9.23084 34.4128 9.22949H5.43376C4.95805 9.23084 4.57264 9.61626 4.57129 10.092V20.4416C4.57264 20.9173 4.95805 21.3027 5.43376 21.3041H34.4128C34.8885 21.3027 35.2739 20.9173 35.2753 20.4416V10.092ZM33.5503 19.5791H6.29623V10.9544H33.5503V19.5791Z" fill="url(#paint2_linear)"/>
<path d="M11.4711 24.1503C11.4697 23.6746 11.0843 23.2892 10.6086 23.2878H5.43376C4.95805 23.2892 4.57264 23.6746 4.57129 24.1503V29.3251C4.57264 29.8008 4.95805 30.1863 5.43376 30.1876H10.6086C11.0843 30.1863 11.4697 29.8008 11.4711 29.3251V24.1503ZM9.74611 28.4627H6.29623V25.0128H9.74611V28.4627Z" fill="url(#paint3_linear)"/>
<path d="M13.5412 25.8753H23.7183C24.1947 25.8753 24.5808 25.4892 24.5808 25.0129C24.5808 24.5365 24.1947 24.1504 23.7183 24.1504H13.5412C13.0648 24.1504 12.6787 24.5365 12.6787 25.0129C12.6787 25.4892 13.0648 25.8753 13.5412 25.8753Z" fill="url(#paint4_linear)"/>
<path d="M31.4806 27.6001H13.5412C13.0648 27.6001 12.6787 27.9862 12.6787 28.4626C12.6787 28.9389 13.0648 29.325 13.5412 29.325H31.4806C31.957 29.325 32.343 28.9389 32.343 28.4626C32.343 27.9862 31.957 27.6001 31.4806 27.6001Z" fill="url(#paint5_linear)"/>
<path d="M11.4711 32.3437C11.4697 31.868 11.0843 31.4825 10.6086 31.4812H5.43376C4.95805 31.4825 4.57264 31.868 4.57129 32.3437V37.5185C4.57264 37.9942 4.95805 38.3796 5.43376 38.381H10.6086C11.0843 38.3796 11.4697 37.9942 11.4711 37.5185V32.3437ZM9.74611 36.656H6.29623V33.2061H9.74611V36.656Z" fill="url(#paint6_linear)"/>
<path d="M13.5412 34.0687H23.7183C24.1947 34.0687 24.5808 33.6826 24.5808 33.2062C24.5808 32.7298 24.1947 32.3438 23.7183 32.3438H13.5412C13.0648 32.3438 12.6787 32.7298 12.6787 33.2062C12.6787 33.6826 13.0648 34.0687 13.5412 34.0687Z" fill="url(#paint7_linear)"/>
<path d="M31.4806 35.7937H13.5412C13.0648 35.7937 12.6787 36.1798 12.6787 36.6562C12.6787 37.1326 13.0648 37.5187 13.5412 37.5187H31.4806C31.957 37.5187 32.343 37.1326 32.343 36.6562C32.343 36.1798 31.957 35.7937 31.4806 35.7937Z" fill="url(#paint8_linear)"/>
</g>
</g>
<defs>
<linearGradient id="paint0_linear" x1="19.9231" y1="5.00342" x2="19.9231" y2="42.7796" gradientUnits="userSpaceOnUse">
<stop stop-color="#FF8B61"/>
<stop offset="1" stop-color="#EC4862"/>
</linearGradient>
<linearGradient id="paint1_linear" x1="11.3037" y1="11.4763" x2="11.3037" y2="19.0446" gradientUnits="userSpaceOnUse">
<stop stop-color="#FF8B61"/>
<stop offset="1" stop-color="#EC4862"/>
</linearGradient>
<linearGradient id="paint2_linear" x1="19.9233" y1="9.22949" x2="19.9233" y2="21.3041" gradientUnits="userSpaceOnUse">
<stop stop-color="#FF8B61"/>
<stop offset="1" stop-color="#EC4862"/>
</linearGradient>
<linearGradient id="paint3_linear" x1="8.02117" y1="23.2878" x2="8.02117" y2="30.1876" gradientUnits="userSpaceOnUse">
<stop stop-color="#FF8B61"/>
<stop offset="1" stop-color="#EC4862"/>
</linearGradient>
<linearGradient id="paint4_linear" x1="18.6298" y1="24.1504" x2="18.6298" y2="25.8753" gradientUnits="userSpaceOnUse">
<stop stop-color="#FF8B61"/>
<stop offset="1" stop-color="#EC4862"/>
</linearGradient>
<linearGradient id="paint5_linear" x1="22.5109" y1="27.6001" x2="22.5109" y2="29.325" gradientUnits="userSpaceOnUse">
<stop stop-color="#FF8B61"/>
<stop offset="1" stop-color="#EC4862"/>
</linearGradient>
<linearGradient id="paint6_linear" x1="8.02117" y1="31.4812" x2="8.02117" y2="38.381" gradientUnits="userSpaceOnUse">
<stop stop-color="#FF8B61"/>
<stop offset="1" stop-color="#EC4862"/>
</linearGradient>
<linearGradient id="paint7_linear" x1="18.6298" y1="32.3438" x2="18.6298" y2="34.0687" gradientUnits="userSpaceOnUse">
<stop stop-color="#FF8B61"/>
<stop offset="1" stop-color="#EC4862"/>
</linearGradient>
<linearGradient id="paint8_linear" x1="22.5109" y1="35.7937" x2="22.5109" y2="37.5187" gradientUnits="userSpaceOnUse">
<stop stop-color="#FF8B61"/>
<stop offset="1" stop-color="#EC4862"/>
</linearGradient>
<clipPath id="clip0">
<rect width="42" height="42" fill="white" transform="translate(0 0.737793)"/>
</clipPath>
<clipPath id="clip1">
<rect width="39.8462" height="39.8462" fill="white" transform="translate(0 3.96851)"/>
</clipPath>
</defs>
</svg>
