<svg width="36" height="36" viewBox="0 0 36 36" fill="none" xmlns="http://www.w3.org/2000/svg">
<g clip-path="url(#clip0)">
<path d="M23.978 17.4194L16.7028 12.1364C16.4358 11.943 16.0814 11.9139 15.7888 12.0642C15.4938 12.2132 15.3096 12.5161 15.3096 12.8433V23.4059C15.3096 23.7366 15.4938 24.0383 15.7888 24.1874C15.9135 24.2503 16.0499 24.2817 16.1875 24.2817C16.367 24.2817 16.5489 24.2247 16.7028 24.1117L23.978 18.8333C24.2077 18.6644 24.3417 18.4035 24.3417 18.1264C24.3429 17.8445 24.2053 17.5848 23.978 17.4194Z" fill="white"/>
<path d="M18.1993 0.605713C8.52245 0.605713 0.680664 8.4394 0.680664 18.1063C0.680664 27.7697 8.52245 35.6011 18.1993 35.6011C27.8739 35.6011 35.7169 27.7685 35.7169 18.1063C35.718 8.4394 27.8739 0.605713 18.1993 0.605713ZM18.1993 32.6812C10.1407 32.6812 3.60705 26.1578 3.60705 18.1063C3.60705 10.0583 10.1407 3.52675 18.1993 3.52675C26.2568 3.52675 32.7893 10.0571 32.7893 18.1063C32.7905 26.1578 26.2568 32.6812 18.1993 32.6812Z" fill="white"/>
</g>
<defs>
<clipPath id="clip0">
<rect width="35.0362" height="35" fill="white" transform="translate(0.680664 0.60376)"/>
</clipPath>
</defs>
</svg>
