<svg width="36" height="36" viewBox="0 0 36 36" fill="none" xmlns="http://www.w3.org/2000/svg">
<g clip-path="url(#clip0)">
<path d="M23.8803 16.9632L16.6052 11.6802C16.3382 11.4869 15.9837 11.4577 15.6911 11.608C15.3961 11.7571 15.2119 12.0599 15.2119 12.3872V22.9497C15.2119 23.2805 15.3961 23.5821 15.6911 23.7312C15.8158 23.7941 15.9523 23.8255 16.0898 23.8255C16.2694 23.8255 16.4513 23.7685 16.6052 23.6555L23.8803 18.3771C24.11 18.2083 24.2441 17.9474 24.2441 17.6702C24.2452 17.3883 24.1077 17.1286 23.8803 16.9632Z" fill="url(#paint0_linear)"/>
<path d="M18.1017 0.149475C8.42479 0.149475 0.583008 7.98316 0.583008 17.6501C0.583008 27.3135 8.42479 35.1448 18.1017 35.1448C27.7763 35.1448 35.6192 27.3123 35.6192 17.6501C35.6204 7.98316 27.7763 0.149475 18.1017 0.149475ZM18.1017 32.2249C10.043 32.2249 3.50939 25.7015 3.50939 17.6501C3.50939 9.60207 10.043 3.07051 18.1017 3.07051C26.1592 3.07051 32.6916 9.60091 32.6916 17.6501C32.6928 25.7015 26.1592 32.2249 18.1017 32.2249Z" fill="url(#paint1_linear)"/>
</g>
<defs>
<linearGradient id="paint0_linear" x1="19.728" y1="11.5125" x2="19.728" y2="23.8255" gradientUnits="userSpaceOnUse">
<stop stop-color="#FF804D"/>
<stop offset="1" stop-color="#FA4767"/>
</linearGradient>
<linearGradient id="paint1_linear" x1="18.1011" y1="0.149475" x2="18.1011" y2="35.1448" gradientUnits="userSpaceOnUse">
<stop stop-color="#FF804D"/>
<stop offset="1" stop-color="#FA4767"/>
</linearGradient>
<clipPath id="clip0">
<rect width="35.0362" height="35" fill="white" transform="translate(0.583008 0.147461)"/>
</clipPath>
</defs>
</svg>
