<svg width="101" height="101" viewBox="0 0 101 101" fill="none" xmlns="http://www.w3.org/2000/svg">
<g clip-path="url(#clip0)">
<path d="M50.2007 100.048C77.8149 100.048 100.201 77.6621 100.201 50.0479C100.201 22.4336 77.8149 0.0478516 50.2007 0.0478516C22.5864 0.0478516 0.200684 22.4336 0.200684 50.0479C0.200684 77.6621 22.5864 100.048 50.2007 100.048Z" fill="#1DA2F8"/>
<path d="M50.2006 7.44824C49.8639 7.44824 49.5908 7.1752 49.5908 6.83848V4.04824C49.5908 3.71152 49.8639 3.43848 50.2006 3.43848C50.5373 3.43848 50.8103 3.71152 50.8103 4.04824V6.83848C50.8103 7.1752 50.5373 7.44824 50.2006 7.44824Z" fill="#F2F2F2"/>
<path d="M50.2006 96.6572C49.8639 96.6572 49.5908 96.3842 49.5908 96.0475V93.2572C49.5908 92.9205 49.8639 92.6475 50.2006 92.6475C50.5373 92.6475 50.8103 92.9205 50.8103 93.2572V96.0475C50.8103 96.3842 50.5373 96.6572 50.2006 96.6572Z" fill="#F2F2F2"/>
<path d="M42.6969 8.10484C42.4063 8.10484 42.1491 7.89664 42.0969 7.60074L41.6124 4.85289C41.554 4.52125 41.7755 4.20484 42.1069 4.14664C42.4395 4.08883 42.7551 4.30973 42.8133 4.64137L43.2979 7.38922C43.3563 7.72086 43.1348 8.03727 42.8034 8.09547C42.7674 8.10152 42.7321 8.10484 42.6969 8.10484Z" fill="#F2F2F2"/>
<path d="M58.1877 95.9586C57.897 95.9586 57.6398 95.7504 57.5877 95.4545L57.1031 92.7066C57.0447 92.375 57.2662 92.0586 57.5976 92.0004C57.9302 91.9418 58.2459 92.1633 58.3041 92.4951L58.7887 95.2427C58.8471 95.5744 58.6256 95.8908 58.2941 95.949C58.2582 95.9554 58.2228 95.9586 58.1877 95.9586Z" fill="#F2F2F2"/>
<path d="M35.422 10.0541C35.173 10.0541 34.9392 9.90024 34.8492 9.65278L33.8947 7.03091C33.7798 6.7143 33.9429 6.3645 34.2593 6.24927C34.5748 6.13462 34.9257 6.29712 35.0406 6.61372L35.9949 9.2356C36.1101 9.5522 35.9468 9.902 35.6304 10.0172C35.5617 10.0422 35.4914 10.0541 35.422 10.0541Z" fill="#F2F2F2"/>
<path d="M65.9332 93.8832C65.6842 93.8832 65.4504 93.7293 65.3604 93.4818L64.4061 90.8599C64.2909 90.5433 64.4541 90.1935 64.7705 90.0783C65.086 89.9632 65.4369 90.1261 65.5518 90.4427L66.5063 93.0646C66.6211 93.3812 66.458 93.731 66.1416 93.8463C66.0729 93.8713 66.0026 93.8832 65.9332 93.8832Z" fill="#F2F2F2"/>
<path d="M28.5969 13.2373C28.3861 13.2373 28.1812 13.1279 28.0681 12.9322L26.673 10.5158C26.5049 10.2242 26.6045 9.85135 26.8963 9.68299C27.1875 9.51385 27.5607 9.61443 27.7293 9.90604L29.1244 12.3224C29.2926 12.614 29.1929 12.9869 28.9012 13.1553C28.8054 13.2109 28.7004 13.2373 28.5969 13.2373Z" fill="#F2F2F2"/>
<path d="M73.2013 90.4945C72.9906 90.4945 72.7857 90.3851 72.6726 90.1894L71.2775 87.773C71.1094 87.4814 71.209 87.1086 71.5008 86.9402C71.792 86.7711 72.165 86.8716 72.3338 87.1632L73.7289 89.5796C73.897 89.8713 73.7974 90.2441 73.5056 90.4125C73.4099 90.4681 73.3049 90.4945 73.2013 90.4945Z" fill="#F2F2F2"/>
<path d="M22.4266 17.5573C22.2528 17.5573 22.0797 17.4832 21.9592 17.3395L20.1657 15.2022C19.9491 14.9442 19.9828 14.5596 20.241 14.343C20.4987 14.1268 20.8834 14.1602 21.1 14.4182L22.8936 16.5555C23.1102 16.8135 23.0764 17.1981 22.8182 17.4147C22.7041 17.5106 22.5651 17.5573 22.4266 17.5573Z" fill="#F2F2F2"/>
<path d="M79.7687 85.8953C79.5948 85.8953 79.4218 85.8213 79.3013 85.6776L77.5079 83.5403C77.2913 83.2823 77.3251 82.8977 77.5833 82.6811C77.8409 82.4653 78.2257 82.4983 78.4423 82.7563L80.2355 84.8936C80.4521 85.1516 80.4183 85.5362 80.1601 85.7528C80.0462 85.8487 79.907 85.8953 79.7687 85.8953Z" fill="#F2F2F2"/>
<path d="M17.1002 22.8832C16.962 22.8832 16.8227 22.8366 16.7088 22.7407L14.5715 20.9471C14.3133 20.7305 14.2797 20.3461 14.4961 20.0879C14.7127 19.8297 15.0975 19.7965 15.3551 20.0127L17.4924 21.8063C17.7506 22.0229 17.7842 22.4073 17.5678 22.6655C17.4471 22.809 17.2741 22.8832 17.1002 22.8832Z" fill="#F2F2F2"/>
<path d="M85.438 80.2255C85.2997 80.2255 85.1605 80.1789 85.0462 80.083L82.9091 78.2894C82.6513 78.0728 82.6177 77.6884 82.8339 77.4302C83.0505 77.172 83.4349 77.1388 83.6931 77.355L85.8302 79.1486C86.088 79.3652 86.1216 79.7496 85.9054 80.0078C85.7847 80.1515 85.6118 80.2255 85.438 80.2255Z" fill="#F2F2F2"/>
<path d="M12.7796 29.053C12.6762 29.053 12.5714 29.0266 12.4753 28.9711L10.0589 27.576C9.76707 27.4076 9.66746 27.0348 9.83562 26.7432C10.0042 26.4518 10.3761 26.3512 10.6686 26.5201L13.085 27.9153C13.3768 28.0836 13.4764 28.4565 13.3083 28.7481C13.1954 28.9436 12.9905 29.053 12.7796 29.053Z" fill="#F2F2F2"/>
<path d="M90.0367 73.6574C89.9334 73.6574 89.8283 73.6311 89.7324 73.5756L87.3162 72.1805C87.0244 72.0121 86.9248 71.6393 87.0929 71.3477C87.2611 71.056 87.6342 70.9553 87.926 71.1246L90.3422 72.5197C90.634 72.6881 90.7336 73.0609 90.5654 73.3525C90.4521 73.5481 90.2474 73.6574 90.0367 73.6574Z" fill="#F2F2F2"/>
<path d="M9.59713 35.8794C9.5278 35.8794 9.45748 35.8675 9.38873 35.8425L6.76666 34.8882C6.45006 34.7729 6.28698 34.4231 6.40221 34.1065C6.51705 33.7899 6.86783 33.6274 7.18346 33.7421L9.80553 34.6964C10.1221 34.8116 10.2852 35.1614 10.17 35.478C10.0799 35.7255 9.84615 35.8794 9.59713 35.8794Z" fill="#F2F2F2"/>
<path d="M93.4261 66.3904C93.3567 66.3904 93.2864 66.3785 93.2173 66.3535L90.5954 65.3992C90.2792 65.284 90.1161 64.9342 90.2313 64.6175C90.3462 64.3009 90.696 64.1386 91.013 64.2531L93.6348 65.2074C93.9511 65.3226 94.1141 65.6724 93.9989 65.989C93.9089 66.2369 93.6747 66.3904 93.4261 66.3904Z" fill="#F2F2F2"/>
<path d="M7.64821 43.1545C7.61306 43.1545 7.57751 43.1513 7.54177 43.1451L4.79392 42.6605C4.46228 42.6019 4.24099 42.2857 4.29939 41.9543C4.35779 41.6228 4.67263 41.4015 5.00583 41.4596L7.75368 41.9441C8.08532 42.0027 8.30661 42.3189 8.24821 42.6504C8.19606 42.9463 7.93884 43.1545 7.64821 43.1545Z" fill="#F2F2F2"/>
<path d="M95.502 58.6456C95.4669 58.6456 95.4313 58.6424 95.3956 58.6362L92.6479 58.1516C92.3163 58.093 92.095 57.7768 92.1534 57.4454C92.2118 57.1139 92.5262 56.8926 92.8598 56.9506L95.6077 57.4352C95.9393 57.4938 96.1606 57.81 96.1022 58.1415C96.0501 58.4374 95.7927 58.6456 95.502 58.6456Z" fill="#F2F2F2"/>
<path d="M6.99111 50.6576H4.20107C3.86436 50.6576 3.59131 50.3846 3.59131 50.0479C3.59131 49.7112 3.86436 49.4381 4.20107 49.4381H6.99111C7.32783 49.4381 7.60088 49.7112 7.60088 50.0479C7.60088 50.3846 7.32783 50.6576 6.99111 50.6576Z" fill="#F2F2F2"/>
<path d="M96.2005 50.6576H93.4101C93.0733 50.6576 92.8003 50.3846 92.8003 50.0479C92.8003 49.7112 93.0733 49.4381 93.4101 49.4381H96.2005C96.5372 49.4381 96.8102 49.7112 96.8102 50.0479C96.8102 50.3846 96.5372 50.6576 96.2005 50.6576Z" fill="#F2F2F2"/>
<path d="M4.89939 58.6456C4.60876 58.6456 4.35154 58.4374 4.29939 58.1415C4.24099 57.81 4.46228 57.4934 4.79392 57.4352L7.54177 56.9507C7.87458 56.8926 8.19001 57.1135 8.24821 57.4454C8.30661 57.7768 8.08532 58.0934 7.75368 58.1516L5.00583 58.6362C4.96989 58.6425 4.93435 58.6456 4.89939 58.6456Z" fill="#F2F2F2"/>
<path d="M92.7529 43.1545C92.4623 43.1545 92.2051 42.9463 92.1529 42.6504C92.0945 42.3189 92.3158 42.0023 92.6474 41.9441L95.3953 41.4596C95.7275 41.4016 96.0435 41.6225 96.1017 41.9543C96.1601 42.2857 95.9388 42.6023 95.6072 42.6605L92.8595 43.1451C92.8236 43.1514 92.7881 43.1545 92.7529 43.1545Z" fill="#F2F2F2"/>
<path d="M6.97504 66.3904C6.72602 66.3904 6.49223 66.2365 6.40219 65.9891C6.28695 65.6725 6.45024 65.3227 6.76664 65.2074L9.38871 64.2532C9.70414 64.1385 10.0551 64.3012 10.17 64.6176C10.2852 64.9342 10.1219 65.284 9.80551 65.3992L7.18344 66.3535C7.11488 66.3787 7.04457 66.3904 6.97504 66.3904Z" fill="#F2F2F2"/>
<path d="M90.8046 35.8793C90.5556 35.8793 90.3218 35.7254 90.2318 35.478C90.1165 35.1614 90.2798 34.8116 90.5958 34.6963L93.2177 33.742C93.5349 33.6274 93.8843 33.7901 93.9994 34.1065C94.1146 34.4231 93.9513 34.7729 93.6353 34.8881L91.0134 35.8424C90.9441 35.8674 90.874 35.8793 90.8046 35.8793Z" fill="#F2F2F2"/>
<path d="M10.3643 73.6574C10.1536 73.6574 9.94871 73.548 9.83562 73.3523C9.66746 73.0607 9.76707 72.6879 10.0589 72.5195L12.4753 71.1244C12.7673 70.9553 13.1395 71.0558 13.3083 71.3474C13.4764 71.639 13.3768 72.0119 13.085 72.1803L10.6686 73.5754C10.5725 73.631 10.4678 73.6574 10.3643 73.6574Z" fill="#F2F2F2"/>
<path d="M87.6221 29.0529C87.4114 29.0529 87.2065 28.9435 87.0934 28.7478C86.9253 28.4562 87.0249 28.0834 87.3167 27.915L89.7329 26.5199C90.0241 26.3509 90.3971 26.4515 90.5659 26.7429C90.7341 27.0345 90.6344 27.4074 90.3427 27.5758L87.9264 28.9709C87.8305 29.0265 87.7253 29.0529 87.6221 29.0529Z" fill="#F2F2F2"/>
<path d="M14.9631 80.2256C14.7893 80.2256 14.6162 80.1516 14.4957 80.0078C14.2791 79.7498 14.3129 79.3652 14.5711 79.1486L16.7084 77.3551C16.966 77.1389 17.3508 77.1723 17.5674 77.4303C17.784 77.6883 17.7502 78.0729 17.492 78.2895L15.3547 80.083C15.2407 80.1789 15.1016 80.2256 14.9631 80.2256Z" fill="#F2F2F2"/>
<path d="M83.3015 22.8832C83.1277 22.8832 82.9546 22.8092 82.8341 22.6654C82.6175 22.4074 82.6513 22.023 82.9093 21.8062L85.0464 20.0127C85.3046 19.7965 85.6892 19.8299 85.9056 20.0879C86.1222 20.3459 86.0884 20.7303 85.8304 20.9471L83.6933 22.7406C83.5789 22.8363 83.44 22.8832 83.3015 22.8832Z" fill="#F2F2F2"/>
<path d="M20.6324 85.8953C20.4941 85.8953 20.3548 85.8486 20.241 85.7527C19.9828 85.5361 19.9492 85.1517 20.1656 84.8935L21.9591 82.7562C22.1759 82.4982 22.5607 82.4648 22.8181 82.681C23.0763 82.8976 23.1099 83.282 22.8935 83.5402L21.0999 85.6775C20.9792 85.8212 20.8062 85.8953 20.6324 85.8953Z" fill="#F2F2F2"/>
<path d="M77.9747 17.5573C77.8364 17.5573 77.6971 17.5106 77.5833 17.4147C77.325 17.1981 77.2915 16.8137 77.5079 16.5555L79.3012 14.4182C79.5178 14.1602 79.9028 14.1268 80.1602 14.343C80.4184 14.5596 80.452 14.9442 80.2356 15.2022L78.4424 17.3395C78.3217 17.4832 78.1487 17.5573 77.9747 17.5573Z" fill="#F2F2F2"/>
<path d="M27.2006 90.4945C27.0972 90.4945 26.9924 90.4682 26.8963 90.4127C26.6045 90.2443 26.5049 89.8715 26.673 89.5799L28.0681 87.1635C28.2367 86.8719 28.6086 86.7713 28.9012 86.9404C29.1929 87.1088 29.2926 87.4816 29.1244 87.7732L27.7293 90.1896C27.6162 90.3852 27.4113 90.4945 27.2006 90.4945Z" fill="#F2F2F2"/>
<path d="M71.8051 13.2373C71.7017 13.2373 71.5969 13.2109 71.5008 13.1555C71.209 12.9871 71.1094 12.6143 71.2775 12.3227L72.6726 9.90624C72.8412 9.61464 73.2131 9.51386 73.5056 9.6832C73.7974 9.85156 73.897 10.2244 73.7289 10.516L72.3338 12.9324C72.2207 13.1279 72.0158 13.2373 71.8051 13.2373Z" fill="#F2F2F2"/>
<path d="M34.4678 93.8832C34.3985 93.8832 34.3282 93.8712 34.2594 93.8462C33.9428 93.731 33.7797 93.3812 33.8948 93.0646L34.8493 90.4427C34.9645 90.1259 35.3145 89.963 35.6305 90.0783C35.9471 90.1935 36.1102 90.5433 35.995 90.8599L35.0407 93.4818C34.9506 93.7294 34.7167 93.8832 34.4678 93.8832Z" fill="#F2F2F2"/>
<path d="M64.9795 10.0542C64.9101 10.0542 64.8398 10.0423 64.7711 10.0173C64.4545 9.90202 64.2914 9.55222 64.4066 9.23562L65.3609 6.61374C65.4757 6.29694 65.8265 6.13464 66.1421 6.24929C66.4587 6.36452 66.6218 6.71433 66.5068 7.03093L65.5523 9.6528C65.4627 9.90046 65.2285 10.0542 64.9795 10.0542Z" fill="#F2F2F2"/>
<path d="M42.2138 95.9586C42.1787 95.9586 42.1431 95.9554 42.1074 95.9492C41.7759 95.8906 41.5545 95.5746 41.6129 95.2429L42.0974 92.4953C42.1558 92.1636 42.4707 91.9422 42.8039 92.0006C43.1353 92.0591 43.3568 92.3752 43.2984 92.7068L42.8138 95.4547C42.7615 95.7502 42.5045 95.9586 42.2138 95.9586Z" fill="#F2F2F2"/>
<path d="M57.7046 8.10486C57.6694 8.10486 57.6339 8.10173 57.5981 8.09548C57.2667 8.03689 57.0452 7.72088 57.1036 7.38924L57.5882 4.64138C57.6466 4.30994 57.9614 4.08924 58.2946 4.14666C58.6261 4.20525 58.8475 4.52127 58.7891 4.85291L58.3046 7.60076C58.2522 7.89646 57.9952 8.10486 57.7046 8.10486Z" fill="#F2F2F2"/>
<path d="M46.8287 12.1223C46.5158 12.1223 46.2496 11.8831 46.2221 11.5659L45.5844 4.27662C45.5551 3.94107 45.8031 3.64537 46.1387 3.61607C46.4746 3.58541 46.7699 3.83502 46.799 4.17037L47.4367 11.4596C47.466 11.7952 47.218 12.0909 46.8824 12.1202C46.8645 12.1215 46.8463 12.1223 46.8287 12.1223Z" fill="#F2F2F2"/>
<path d="M54.2091 96.4822C53.8962 96.4822 53.63 96.2429 53.6024 95.9257L52.9648 88.6365C52.9355 88.3009 53.1835 88.0052 53.519 87.9759C53.8569 87.9453 54.1499 88.1949 54.1794 88.5302L54.8171 95.8195C54.8464 96.155 54.5984 96.4507 54.2628 96.48C54.2448 96.4812 54.2267 96.4822 54.2091 96.4822Z" fill="#F2F2F2"/>
<path d="M40.1884 13.2934C39.9191 13.2934 39.6728 13.1137 39.5999 12.8415L37.706 5.77369C37.6189 5.4483 37.8116 5.11412 38.137 5.02701C38.4622 4.93814 38.7968 5.13287 38.8837 5.45806L40.7777 12.5258C40.8648 12.8512 40.672 13.1854 40.3466 13.2725C40.2939 13.2868 40.2406 13.2934 40.1884 13.2934Z" fill="#F2F2F2"/>
<path d="M62.1062 95.0898C61.8368 95.0898 61.5905 94.9101 61.5177 94.6379L59.624 87.5701C59.5368 87.2447 59.7296 86.9105 60.055 86.8234C60.3814 86.7352 60.7144 86.9293 60.8017 87.2545L62.6954 94.3223C62.7825 94.6477 62.5898 94.9818 62.2644 95.0689C62.2111 95.0832 62.1583 95.0898 62.1062 95.0898Z" fill="#F2F2F2"/>
<path d="M33.8534 15.5995C33.6237 15.5995 33.4038 15.469 33.3005 15.2473L30.2081 8.61568C30.0659 8.3106 30.1978 7.94771 30.5028 7.80552C30.8077 7.66333 31.1712 7.79517 31.3132 8.10044L34.4056 14.7321C34.5478 15.0372 34.4159 15.4001 34.1108 15.5422C34.0276 15.5811 33.9398 15.5995 33.8534 15.5995Z" fill="#F2F2F2"/>
<path d="M69.6413 92.3475C69.4116 92.3475 69.1917 92.217 69.0884 91.9953L65.9962 85.3637C65.854 85.0586 65.9858 84.6957 66.2909 84.5535C66.596 84.4113 66.9593 84.5434 67.1013 84.8485L70.1935 91.4801C70.3356 91.7852 70.2038 92.1481 69.8987 92.2903C69.8153 92.3291 69.7276 92.3475 69.6413 92.3475Z" fill="#F2F2F2"/>
<path d="M28.0139 18.9707C27.8217 18.9707 27.6325 18.8801 27.5137 18.7108L23.3167 12.7168C23.1239 12.4408 23.1907 12.0608 23.4665 11.8676C23.7434 11.6741 24.1229 11.7418 24.3159 12.0174L28.5129 18.0114C28.7057 18.2873 28.6389 18.6674 28.3631 18.8606C28.2565 18.935 28.1344 18.9707 28.0139 18.9707Z" fill="#F2F2F2"/>
<path d="M76.5855 88.3383C76.3933 88.3383 76.2041 88.2477 76.0853 88.0783L71.8884 82.0844C71.6957 81.8084 71.7625 81.4283 72.0382 81.2352C72.3152 81.0416 72.6947 81.1094 72.8877 81.385L77.0843 87.3789C77.2771 87.6549 77.2103 88.035 76.9345 88.2281C76.8281 88.3026 76.7058 88.3383 76.5855 88.3383Z" fill="#F2F2F2"/>
<path d="M22.8481 23.3051C22.6922 23.3051 22.536 23.2455 22.417 23.1266L17.243 17.9524C17.0049 17.7145 17.0049 17.3281 17.243 17.0901C17.4811 16.852 17.867 16.852 18.1053 17.0901L23.2793 22.2641C23.5174 22.502 23.5174 22.8883 23.2793 23.1264C23.1602 23.2453 23.0043 23.3051 22.8481 23.3051Z" fill="#F2F2F2"/>
<path d="M82.7275 83.1842C82.5716 83.1842 82.4154 83.1246 82.2964 83.0057L77.1224 77.8316C76.8843 77.5937 76.8843 77.2074 77.1224 76.9693C77.3605 76.7312 77.7464 76.7312 77.9847 76.9693L83.1587 82.1434C83.3968 82.3813 83.3968 82.7676 83.1587 83.0057C83.0396 83.1246 82.8835 83.1842 82.7275 83.1842Z" fill="#F2F2F2"/>
<path d="M18.513 28.4703C18.3923 28.4703 18.2705 28.4346 18.1638 28.3599L12.1701 24.1631C11.8943 23.9701 11.8275 23.5898 12.0203 23.3139C12.2138 23.0379 12.5933 22.9709 12.8697 23.1641L18.8634 27.3607C19.1392 27.5537 19.206 27.934 19.0132 28.2099C18.8945 28.3795 18.7052 28.4703 18.513 28.4703Z" fill="#F2F2F2"/>
<path d="M87.8809 77.042C87.7602 77.042 87.6383 77.0063 87.5317 76.9317L81.5378 72.735C81.262 72.542 81.1952 72.1617 81.3879 71.8858C81.5815 71.6102 81.9608 71.5428 82.2374 71.736L88.2313 75.9328C88.5071 76.1258 88.5739 76.5061 88.3811 76.7821C88.2624 76.9512 88.0731 77.042 87.8809 77.042Z" fill="#F2F2F2"/>
<path d="M15.1424 34.3097C15.0561 34.3097 14.9686 34.2914 14.8852 34.2523L8.25371 31.1601C7.94824 31.0179 7.81641 30.655 7.95859 30.35C8.10078 30.0449 8.46387 29.913 8.76875 30.055L15.4004 33.1472C15.7059 33.2894 15.8377 33.6523 15.6955 33.9574C15.592 34.1793 15.3721 34.3097 15.1424 34.3097Z" fill="#F2F2F2"/>
<path d="M91.89 70.098C91.8037 70.098 91.716 70.0797 91.6324 70.0406L85.001 66.9484C84.6959 66.8062 84.5639 66.4433 84.7062 66.1383C84.8486 65.8332 85.2117 65.7011 85.5166 65.8433L92.148 68.9355C92.4531 69.0777 92.5851 69.4406 92.4428 69.7457C92.3396 69.9676 92.1195 70.098 91.89 70.098Z" fill="#F2F2F2"/>
<path d="M12.8364 40.6461C12.7845 40.6461 12.7314 40.6394 12.6782 40.625L5.61026 38.7312C5.28468 38.6441 5.0919 38.3097 5.17921 37.9845C5.26612 37.6593 5.59991 37.4654 5.92589 37.5535L12.9939 39.4472C13.3194 39.5343 13.5122 39.8687 13.4249 40.1939C13.3519 40.4662 13.1054 40.6461 12.8364 40.6461Z" fill="#F2F2F2"/>
<path d="M94.6328 62.5632C94.5809 62.5632 94.5277 62.5566 94.4746 62.5421L87.4067 60.6482C87.0811 60.5611 86.8883 60.2267 86.9756 59.9015C87.0625 59.5763 87.3963 59.3828 87.7223 59.4705L94.7902 61.3644C95.1158 61.4515 95.3086 61.7859 95.2213 62.1111C95.1486 62.3837 94.902 62.5632 94.6328 62.5632Z" fill="#F2F2F2"/>
<path d="M11.6657 47.2862C11.6478 47.2862 11.63 47.2854 11.6118 47.2836L4.32256 46.6459C3.98721 46.6166 3.73917 46.3211 3.76846 45.9854C3.79756 45.6498 4.09424 45.4008 4.42901 45.4311L11.7183 46.0688C12.0536 46.0981 12.3017 46.3936 12.2724 46.7293C12.245 47.0469 11.9788 47.2862 11.6657 47.2862Z" fill="#F2F2F2"/>
<path d="M96.0263 54.6668C96.0087 54.6668 95.9906 54.666 95.9726 54.6642L88.6831 54.0265C88.3476 53.9972 88.0994 53.7017 88.1288 53.366C88.1581 53.0307 88.4513 52.7822 88.7892 52.8117L96.0787 53.4494C96.4142 53.4787 96.6624 53.7742 96.6329 54.1099C96.6052 54.4277 96.339 54.6668 96.0263 54.6668Z" fill="#F2F2F2"/>
<path d="M4.37559 54.6668C4.0627 54.6668 3.79649 54.4276 3.76895 54.1104C3.73965 53.7748 3.9877 53.4791 4.32305 53.4499L11.6123 52.8122C11.9531 52.7829 12.2438 53.0313 12.2729 53.3665C12.3022 53.702 12.0541 53.9977 11.7188 54.027L4.4295 54.6647C4.41133 54.6661 4.39317 54.6668 4.37559 54.6668Z" fill="#F2F2F2"/>
<path d="M88.7355 47.2861C88.4226 47.2861 88.1564 47.0468 88.1288 46.7297C88.0995 46.3941 88.3476 46.0984 88.6831 46.0691L95.9726 45.4314C96.3101 45.3998 96.6034 45.6505 96.6329 45.9857C96.6622 46.3213 96.4142 46.617 96.0786 46.6463L88.7892 47.2839C88.771 47.2853 88.7528 47.2861 88.7355 47.2861Z" fill="#F2F2F2"/>
<path d="M5.76809 62.5633C5.49876 62.5633 5.25247 62.3838 5.17962 62.1114C5.09251 61.786 5.28528 61.4518 5.61067 61.3647L12.6786 59.4707C13.0031 59.3822 13.338 59.5766 13.4253 59.9018C13.5124 60.2272 13.3197 60.5613 12.9943 60.6485L5.9263 62.5424C5.87356 62.5567 5.82005 62.5633 5.76809 62.5633Z" fill="#F2F2F2"/>
<path d="M87.5645 40.6461C87.2951 40.6461 87.0489 40.4664 86.976 40.1941C86.8889 39.8688 87.0817 39.5346 87.4071 39.4475L94.475 37.5537C94.8 37.4656 95.1344 37.6596 95.2217 37.9848C95.3088 38.3102 95.116 38.6443 94.7906 38.7315L87.7227 40.6252C87.6698 40.6393 87.6166 40.6461 87.5645 40.6461Z" fill="#F2F2F2"/>
<path d="M8.51103 70.098C8.28135 70.098 8.06143 69.9676 7.9581 69.7457C7.81592 69.4406 7.94775 69.0777 8.25322 68.9355L14.8849 65.8433C15.1886 65.7011 15.5526 65.8332 15.695 66.1383C15.8374 66.4433 15.7054 66.8062 15.3999 66.9484L8.76826 70.0406C8.68525 70.0795 8.59736 70.098 8.51103 70.098Z" fill="#F2F2F2"/>
<path d="M85.2596 34.3098C85.0299 34.3098 84.81 34.1793 84.7066 33.9576C84.5645 33.6525 84.6963 33.2897 85.0014 33.1475L91.6328 30.0553C91.9379 29.9133 92.301 30.0451 92.4432 30.3502C92.5853 30.6553 92.4535 31.0182 92.1484 31.1604L85.517 34.2525C85.4338 34.2914 85.3461 34.3098 85.2596 34.3098Z" fill="#F2F2F2"/>
<path d="M12.5205 77.0419C12.3283 77.0419 12.139 76.9513 12.0203 76.782C11.8275 76.506 11.8943 76.1259 12.1701 75.9328L18.1638 71.7359C18.4408 71.5423 18.8203 71.6101 19.0132 71.8857C19.206 72.1617 19.1392 72.5417 18.8634 72.7349L12.8697 76.9316C12.7632 77.006 12.6412 77.0419 12.5205 77.0419Z" fill="#F2F2F2"/>
<path d="M81.8881 28.4703C81.696 28.4703 81.5067 28.3797 81.3879 28.2104C81.1952 27.9344 81.262 27.5543 81.5378 27.3612L87.5317 23.1645C87.8086 22.9709 88.1877 23.0387 88.3811 23.3143C88.5739 23.5903 88.5071 23.9703 88.2313 24.1635L82.2374 28.3602C82.1309 28.4344 82.0088 28.4703 81.8881 28.4703Z" fill="#F2F2F2"/>
<path d="M17.6741 83.1842C17.5182 83.1842 17.362 83.1246 17.243 83.0057C17.0049 82.7678 17.0049 82.3815 17.243 82.1434L22.417 76.9693C22.6551 76.7312 23.0411 76.7312 23.2793 76.9693C23.5174 77.2072 23.5174 77.5936 23.2793 77.8316L18.1053 83.0057C17.9862 83.1246 17.8299 83.1842 17.6741 83.1842Z" fill="#F2F2F2"/>
<path d="M77.5535 23.3051C77.3976 23.3051 77.2414 23.2456 77.1224 23.1266C76.8843 22.8887 76.8843 22.5024 77.1224 22.2643L82.2964 17.0903C82.5345 16.8522 82.9205 16.8522 83.1587 17.0903C83.3968 17.3282 83.3968 17.7145 83.1587 17.9526L77.9847 23.1266C77.8652 23.2454 77.7093 23.3051 77.5535 23.3051Z" fill="#F2F2F2"/>
<path d="M23.8157 88.3383C23.695 88.3383 23.5731 88.3026 23.4665 88.228C23.1907 88.035 23.1239 87.6547 23.3167 87.3787L27.5137 81.3848C27.7073 81.1092 28.0868 81.0418 28.3631 81.235C28.6389 81.428 28.7057 81.8082 28.5129 82.0842L24.3159 88.0781C24.1969 88.2477 24.0081 88.3383 23.8157 88.3383Z" fill="#F2F2F2"/>
<path d="M72.3875 18.9707C72.2668 18.9707 72.1449 18.935 72.0382 18.8604C71.7625 18.6674 71.6957 18.2871 71.8884 18.0112L76.0853 12.0172C76.2787 11.7412 76.6587 11.6743 76.9347 11.8674C77.2105 12.0604 77.2773 12.4407 77.0845 12.7166L72.8878 18.7106C72.7689 18.8801 72.5798 18.9707 72.3875 18.9707Z" fill="#F2F2F2"/>
<path d="M30.7601 92.3474C30.6737 92.3474 30.586 92.3291 30.5024 92.29C30.1974 92.1478 30.0653 91.7849 30.2077 91.4799L33.3001 84.8482C33.4421 84.5431 33.8056 84.4111 34.1104 84.5533C34.4155 84.6955 34.5475 85.0584 34.4052 85.3635L31.3128 91.9951C31.2097 92.217 30.9897 92.3474 30.7601 92.3474Z" fill="#F2F2F2"/>
<path d="M66.5486 15.5994C66.4623 15.5994 66.3746 15.5811 66.291 15.542C65.9859 15.3998 65.8539 15.0369 65.9963 14.7318L69.0885 8.1002C69.2305 7.79493 69.5939 7.66309 69.8988 7.80528C70.2039 7.94746 70.3359 8.31036 70.1936 8.61543L67.1014 15.2471C66.9978 15.4691 66.7779 15.5994 66.5486 15.5994Z" fill="#F2F2F2"/>
<path d="M38.2953 95.0898C38.2434 95.0898 38.19 95.0832 38.1371 95.0687C37.8115 94.9816 37.6188 94.6472 37.7061 94.3221L39.6 87.2543C39.6871 86.9295 40.0219 86.7351 40.3467 86.8232C40.6723 86.9103 40.865 87.2447 40.7777 87.5699L38.8838 94.6377C38.8109 94.9103 38.5645 95.0898 38.2953 95.0898Z" fill="#F2F2F2"/>
<path d="M60.2128 13.2933C60.1609 13.2933 60.1077 13.2867 60.0546 13.2722C59.729 13.1851 59.5362 12.8507 59.6235 12.5255L61.5173 5.45775C61.6044 5.13256 61.9374 4.93803 62.264 5.0267C62.5896 5.11381 62.7823 5.44818 62.695 5.77338L60.8013 12.8412C60.7284 13.1134 60.4819 13.2933 60.2128 13.2933Z" fill="#F2F2F2"/>
<path d="M46.1924 96.4822C46.1748 96.4822 46.1567 96.4814 46.1387 96.4797C45.8032 96.4504 45.5549 96.1547 45.5844 95.8191L46.2221 88.5299C46.2512 88.1945 46.5469 87.9449 46.8825 87.9756C47.218 88.0049 47.4662 88.3004 47.4368 88.6361L46.7991 95.9254C46.7713 96.2429 46.5053 96.4822 46.1924 96.4822Z" fill="#F2F2F2"/>
<path d="M53.5728 12.1223C53.5552 12.1223 53.537 12.1215 53.5191 12.1197C53.1835 12.0904 52.9353 11.7949 52.9648 11.4592L53.6025 4.16991C53.6316 3.83456 53.9242 3.58476 54.2628 3.61562C54.5984 3.64491 54.8466 3.94042 54.8171 4.27616L54.1794 11.5654C54.1519 11.8832 53.8859 12.1223 53.5728 12.1223Z" fill="#F2F2F2"/>
<path d="M56.2412 56.0885L83.1844 17.0641L44.16 44.0073L17.2168 83.0317L56.2412 56.0885Z" fill="#F2F2F2"/>
<path d="M56.2412 56.0885L83.1844 17.0641L17.2168 83.0317L56.2412 56.0885Z" fill="#CCCCCC"/>
<path d="M56.2414 56.0885L83.1846 17.0641L44.1602 44.0073L56.2414 56.0885Z" fill="#FF525D"/>
<path d="M56.2413 56.0885L83.1845 17.0641L50.2007 50.0479L56.2413 56.0885Z" fill="#EF4152"/>
</g>
<defs>
<clipPath id="clip0">
<rect width="100" height="100" fill="white" transform="translate(0.200684 0.0478516)"/>
</clipPath>
</defs>
</svg>
