<svg width="26" height="26" viewBox="0 0 26 26" fill="none" xmlns="http://www.w3.org/2000/svg">
<g clip-path="url(#clip0)">
<path d="M23.7841 23.5724L17.8341 17.3841C19.3639 15.5655 20.2021 13.2773 20.2021 10.8951C20.2021 5.32953 15.674 0.801392 10.1084 0.801392C4.54279 0.801392 0.0146484 5.32953 0.0146484 10.8951C0.0146484 16.4607 4.54279 20.9889 10.1084 20.9889C12.1978 20.9889 14.1889 20.3587 15.8912 19.1623L21.8865 25.3976C22.1371 25.6579 22.4741 25.8014 22.8353 25.8014C23.1772 25.8014 23.5015 25.6711 23.7477 25.4341C24.2708 24.9307 24.2875 24.096 23.7841 23.5724ZM10.1084 3.43454C14.2222 3.43454 17.569 6.78127 17.569 10.8951C17.569 15.009 14.2222 18.3557 10.1084 18.3557C5.99453 18.3557 2.6478 15.009 2.6478 10.8951C2.6478 6.78127 5.99453 3.43454 10.1084 3.43454Z" fill="#FF7663"/>
</g>
<defs>
<clipPath id="clip0">
<rect width="25" height="25" fill="white" transform="translate(0.0146484 0.801392)"/>
</clipPath>
</defs>
</svg>
