<svg width="25" height="26" viewBox="0 0 25 26" fill="none" xmlns="http://www.w3.org/2000/svg">
<g clip-path="url(#clip0)">
<path d="M23.7694 23.6434L17.8194 17.455C19.3493 15.6364 20.1875 13.3482 20.1875 10.9661C20.1875 5.40045 15.6593 0.872314 10.0937 0.872314C4.52814 0.872314 0 5.40045 0 10.9661C0 16.5317 4.52814 21.0598 10.0937 21.0598C12.1831 21.0598 14.1742 20.4296 15.8766 19.2333L21.8718 25.4686C22.1224 25.7288 22.4595 25.8723 22.8206 25.8723C23.1625 25.8723 23.4868 25.742 23.733 25.505C24.2561 25.0016 24.2728 24.1669 23.7694 23.6434ZM10.0937 3.50546C14.2076 3.50546 17.5543 6.8522 17.5543 10.9661C17.5543 15.0799 14.2076 18.4266 10.0937 18.4266C5.97988 18.4266 2.63315 15.0799 2.63315 10.9661C2.63315 6.8522 5.97988 3.50546 10.0937 3.50546Z" fill="#C4C4C4"/>
</g>
<defs>
<clipPath id="clip0">
<rect width="25" height="25" fill="white" transform="translate(0 0.872314)"/>
</clipPath>
</defs>
</svg>
