<svg width="127" height="127" viewBox="0 0 127 127" fill="none" xmlns="http://www.w3.org/2000/svg">
<rect x="1.21777" y="0.967163" width="124.85" height="124.85" rx="29.5" fill="#FB4B66" fill-opacity="0.14" stroke="#FC5E5C"/>
<g clip-path="url(#clip0)">
<path d="M63.6448 96.392C70.1722 96.392 76.553 94.4564 81.9803 90.8299C87.4076 87.2033 91.6376 82.0488 94.1353 76.0182C96.6331 69.9876 97.2863 63.3517 96.0126 56.9498C94.7388 50.5478 91.5952 44.6674 86.9793 40.0521C82.3634 35.4369 76.4826 32.2941 70.0805 31.0212C63.6784 29.7483 57.0426 30.4025 51.0123 32.901C44.982 35.3996 39.8281 39.6302 36.2023 45.058C32.5765 50.4858 30.6417 56.8669 30.6426 63.3943C30.6426 67.728 31.4962 72.0192 33.1548 76.023C34.8134 80.0268 37.2444 83.6646 40.309 86.7288C43.3736 89.793 47.0118 92.2235 51.0157 93.8815C55.0197 95.5396 59.3111 96.3926 63.6448 96.392ZM63.6448 33.0708C69.6422 33.0708 75.505 34.8492 80.4916 38.1812C85.4783 41.5132 89.3649 46.2491 91.6601 51.79C93.9552 57.3309 94.5557 63.4279 93.3856 69.3101C92.2156 75.1923 89.3276 80.5954 85.0868 84.8362C80.8459 89.077 75.4428 91.9651 69.5606 93.1351C63.6784 94.3051 57.5814 93.7046 52.0405 91.4095C46.4996 89.1144 41.7637 85.2278 38.4318 80.2411C35.0998 75.2544 33.3213 69.3917 33.3213 63.3943C33.3308 55.3549 36.5286 47.6475 42.2133 41.9628C47.898 36.2781 55.6054 33.0803 63.6448 33.0708Z" fill="#FC5E5C"/>
<path d="M52.6485 58.8857C54.4559 58.8857 55.9211 57.4205 55.9211 55.6131C55.9211 53.8057 54.4559 52.3406 52.6485 52.3406C50.8411 52.3406 49.376 53.8057 49.376 55.6131C49.376 57.4205 50.8411 58.8857 52.6485 58.8857Z" fill="#FC5E5C"/>
<path d="M74.6368 58.8852C75.2853 58.8861 75.9195 58.6945 76.4591 58.3348C76.9987 57.975 77.4194 57.4633 77.668 56.8643C77.9165 56.2653 77.9818 55.6061 77.8555 54.97C77.7292 54.3339 77.417 53.7496 76.9585 53.291C76.4999 52.8324 75.9156 52.5202 75.2795 52.3939C74.6434 52.2676 73.9841 52.3329 73.3851 52.5815C72.7862 52.8301 72.2744 53.2508 71.9147 53.7904C71.5549 54.3299 71.3634 54.9641 71.3643 55.6126C71.3654 56.4802 71.7106 57.3119 72.3241 57.9254C72.9375 58.5388 73.7692 58.884 74.6368 58.8852Z" fill="#FC5E5C"/>
<path d="M63.5913 71.5735H63.6806C66.2732 71.5738 68.836 72.1262 71.1985 73.1939C73.561 74.2616 75.6691 75.8202 77.3824 77.7659L79.4004 76.0069C77.4364 73.772 75.0184 71.9816 72.3077 70.7552C69.5969 69.5288 66.6559 68.8946 63.6806 68.8948H63.5913C60.6318 68.8851 57.7038 69.5028 55.0003 70.7072C52.2969 71.9115 49.8794 73.6751 47.9072 75.8818L49.9118 77.6677C51.6315 75.7425 53.7399 74.2038 56.0979 73.1534C58.4559 72.1029 61.0099 71.5644 63.5913 71.5735Z" fill="#FC5E5C"/>
<path d="M53.1656 44.0755L44.5913 47.4877L45.5818 49.9766L54.1561 46.5645L53.1656 44.0755Z" fill="#FC5E5C"/>
<path d="M74.1246 44.0711L73.1333 46.5597L81.7064 49.9748L82.6978 47.4863L74.1246 44.0711Z" fill="#FC5E5C"/>
</g>
<defs>
<clipPath id="clip0">
<rect width="66" height="66" fill="white" transform="translate(30.6426 30.3922)"/>
</clipPath>
</defs>
</svg>
