<svg width="126" height="126" viewBox="0 0 126 126" fill="none" xmlns="http://www.w3.org/2000/svg">
<rect x="0.547852" y="0.503418" width="124.85" height="124.85" rx="29.5" fill="#492538" stroke="#FC5E5C"/>
<path d="M62.9727 29.4222C56.4459 29.4222 50.0657 31.3577 44.6389 34.9838C39.212 38.6099 34.9823 43.7637 32.4846 49.7937C29.987 55.8237 29.3334 62.4589 30.6068 68.8602C31.8801 75.2616 35.023 81.1417 39.6381 85.7568C44.2533 90.3719 50.1333 93.5148 56.5347 94.7882C62.9361 96.0615 69.5713 95.408 75.6012 92.9103C81.6312 90.4126 86.7851 86.1829 90.4112 80.7561C94.0372 75.3293 95.9727 68.949 95.9727 62.4223C95.9727 53.6701 92.4959 45.2764 86.3072 39.0877C80.1185 32.899 71.7248 29.4222 62.9727 29.4222ZM62.9727 92.7437C56.9757 92.7437 51.1133 90.9653 46.127 87.6336C41.1407 84.3018 37.2543 79.5663 34.9593 74.0257C32.6644 68.4852 32.0639 62.3886 33.2339 56.5068C34.4038 50.6251 37.2917 45.2223 41.5322 40.9818C45.7727 36.7412 51.1755 33.8534 57.0572 32.6835C62.939 31.5135 69.0357 32.1139 74.5762 34.4089C80.1167 36.7039 84.8522 40.5902 88.184 45.5766C91.5158 50.5629 93.2941 56.4252 93.2941 62.4223C93.2846 70.4611 90.087 78.168 84.4027 83.8523C78.7184 89.5366 71.0115 92.7342 62.9727 92.7437Z" fill="#FC5E5C"/>
<path d="M51.5174 55.6812C53.3247 55.6812 54.7898 54.2162 54.7898 52.4089C54.7898 50.6017 53.3247 49.1366 51.5174 49.1366C49.7102 49.1366 48.2451 50.6017 48.2451 52.4089C48.2451 54.2162 49.7102 55.6812 51.5174 55.6812Z" fill="#FC5E5C"/>
<path d="M71.1602 52.4089C71.1602 53.0561 71.3521 53.6888 71.7116 54.2269C72.0712 54.7651 72.5823 55.1845 73.1802 55.4322C73.7782 55.6798 74.4361 55.7446 75.0709 55.6184C75.7056 55.4921 76.2887 55.1804 76.7464 54.7228C77.204 54.2651 77.5157 53.6821 77.6419 53.0473C77.7682 52.4125 77.7034 51.7546 77.4557 51.1566C77.208 50.5587 76.7886 50.0477 76.2505 49.6881C75.7124 49.3285 75.0797 49.1366 74.4325 49.1366C74.0028 49.1366 73.5772 49.2212 73.1802 49.3857C72.7832 49.5501 72.4225 49.7912 72.1186 50.095C71.8147 50.3989 71.5737 50.7596 71.4092 51.1566C71.2448 51.5537 71.1602 51.9792 71.1602 52.4089Z" fill="#FC5E5C"/>
<path d="M63.5305 81.9044H63.401C59.2339 81.907 55.1971 80.4522 51.9897 77.7918C48.7823 75.1315 46.6063 71.4332 45.8385 67.3375L43.2046 67.833C44.0879 72.5427 46.5905 76.7952 50.2789 79.8542C53.9672 82.9131 58.6092 84.586 63.401 84.583H63.5528C68.3685 84.5484 73.0188 82.8224 76.691 79.7068C80.3631 76.5912 82.8235 72.2841 83.6421 67.5383L81.0037 67.0919C80.2899 71.2177 78.149 74.9615 74.9551 77.669C71.7612 80.3766 67.7175 81.8757 63.5305 81.9044Z" fill="#FC5E5C"/>
</svg>
