<svg width="127" height="126" viewBox="0 0 127 126" fill="none" xmlns="http://www.w3.org/2000/svg">
<rect x="1.17969" y="0.503418" width="124.85" height="124.85" rx="29.5" fill="#492538" stroke="#FC5E5C"/>
<path d="M62.6269 95C69.1537 95 75.5339 93.0646 80.9608 89.4385C86.3876 85.8124 90.6173 80.6585 93.115 74.6286C95.6127 68.5986 96.2662 61.9634 94.9929 55.562C93.7195 49.1607 90.5766 43.2806 85.9614 38.6655C81.3463 34.0504 75.4663 30.9074 69.0649 29.6341C62.6636 28.3608 56.0284 29.0143 49.9984 31.512C43.9684 34.0097 38.8145 38.2394 35.1885 43.6662C31.5624 49.093 29.627 55.4732 29.627 62C29.6281 70.7518 33.1053 79.1448 39.2937 85.3332C45.4822 91.5217 53.8752 94.9988 62.6269 95ZM62.6269 31.6786C68.624 31.6786 74.4863 33.4569 79.4726 36.7887C84.459 40.1204 88.3453 44.856 90.6403 50.3965C92.9352 55.937 93.5357 62.0337 92.3658 67.9154C91.1958 73.7972 88.308 79.2 84.0674 83.4405C79.8269 87.681 74.4241 90.5689 68.5424 91.7388C62.6606 92.9088 56.5639 92.3083 51.0234 90.0133C45.4829 87.7184 40.7474 83.832 37.4156 78.8457C34.0838 73.8594 32.3055 67.997 32.3055 62C32.315 53.9612 35.5126 46.2543 41.1969 40.57C46.8812 34.8856 54.5881 31.688 62.6269 31.6786Z" fill="#FC5E5C"/>
<path d="M63.6045 71.9197H45.2563V74.5982H63.6045V71.9197Z" fill="#FC5E5C"/>
<path d="M51.8681 55.4867C52.3751 55.4876 52.871 55.338 53.293 55.057C53.7149 54.776 54.0441 54.3761 54.2387 53.9079C54.4334 53.4398 54.4848 52.9244 54.3864 52.427C54.288 51.9297 54.0443 51.4726 53.6861 51.1138C53.3279 50.755 52.8713 50.5105 52.3741 50.4113C51.8769 50.312 51.3615 50.3625 50.893 50.5563C50.4245 50.7501 50.024 51.0786 49.7422 51.5001C49.4605 51.9216 49.3101 52.4172 49.3101 52.9242C49.3101 53.603 49.5794 54.2541 50.059 54.7346C50.5386 55.215 51.1893 55.4855 51.8681 55.4867Z" fill="#FC5E5C"/>
<path d="M73.1538 55.4867C73.6608 55.4876 74.1566 55.338 74.5786 55.057C75.0006 54.776 75.3297 54.3761 75.5244 53.9079C75.719 53.4398 75.7704 52.9244 75.672 52.427C75.5737 51.9297 75.33 51.4726 74.9718 51.1138C74.6136 50.755 74.157 50.5105 73.6598 50.4113C73.1626 50.312 72.6471 50.3625 72.1786 50.5563C71.7101 50.7501 71.3097 51.0786 71.0279 51.5001C70.7461 51.9216 70.5957 52.4172 70.5957 52.9242C70.5957 53.603 70.8651 54.2541 71.3447 54.7346C71.8243 55.215 72.4749 55.4855 73.1538 55.4867Z" fill="#FC5E5C"/>
</svg>
