<svg width="127" height="126" viewBox="0 0 127 126" fill="none" xmlns="http://www.w3.org/2000/svg">
<rect x="1.375" y="0.503418" width="124.85" height="124.85" rx="29.5" fill="#492538" stroke="#FC5E5C"/>
<g clip-path="url(#clip0)">
<path d="M63.802 94.9998C70.3295 94.9998 76.7103 93.0642 82.1376 89.4376C87.5648 85.8111 91.7948 80.6566 94.2926 74.626C96.7903 68.5953 97.4436 61.9595 96.1698 55.5575C94.8961 49.1556 91.7525 43.2752 87.1366 38.6599C82.5207 34.0447 76.6398 30.9019 70.2377 29.629C63.8356 28.3561 57.1998 29.0103 51.1695 31.5088C45.1392 34.0073 39.9853 38.238 36.3595 43.6658C32.7337 49.0936 30.7989 55.4747 30.7998 62.0021C30.7998 66.3358 31.6535 70.627 33.312 74.6308C34.9706 78.6346 37.4016 82.2724 40.4662 85.3366C43.5308 88.4008 47.169 90.8313 51.173 92.4893C55.177 94.1473 59.4683 95.0004 63.802 94.9998ZM63.802 31.6786C69.7995 31.6786 75.6622 33.457 80.6489 36.789C85.6355 40.121 89.5222 44.8569 91.8173 50.3978C94.1124 55.9387 94.7129 62.0357 93.5429 67.9179C92.3728 73.8001 89.4848 79.2032 85.244 83.444C81.0032 87.6848 75.6 90.5729 69.7179 91.7429C63.8357 92.9129 57.7386 92.3124 52.1977 90.0173C46.6569 87.7222 41.921 83.8356 38.589 78.8489C35.257 73.8622 33.4786 67.9995 33.4786 62.0021C33.488 53.9627 36.6858 46.2553 42.3705 40.5706C48.0552 34.8859 55.7627 31.688 63.802 31.6786Z" fill="#FC5E5C"/>
<path d="M52.8057 57.4935C54.6131 57.4935 56.0783 56.0283 56.0783 54.2209C56.0783 52.4135 54.6131 50.9484 52.8057 50.9484C50.9984 50.9484 49.5332 52.4135 49.5332 54.2209C49.5332 56.0283 50.9984 57.4935 52.8057 57.4935Z" fill="#FC5E5C"/>
<path d="M74.794 57.493C75.4425 57.4939 76.0767 57.3023 76.6163 56.9426C77.1559 56.5828 77.5766 56.0711 77.8252 55.4721C78.0738 54.8731 78.139 54.2138 78.0127 53.5778C77.8864 52.9417 77.5742 52.3573 77.1157 51.8988C76.6571 51.4402 76.0728 51.128 75.4367 51.0017C74.8006 50.8754 74.1414 50.9407 73.5424 51.1893C72.9434 51.4379 72.4316 51.8586 72.0719 52.3981C71.7122 52.9377 71.5206 53.5719 71.5215 54.2204C71.5227 55.088 71.8678 55.9197 72.4813 56.5332C73.0948 57.1466 73.9265 57.4918 74.794 57.493Z" fill="#FC5E5C"/>
<path d="M63.7486 70.1813H63.8378C66.4304 70.1816 68.9932 70.734 71.3557 71.8017C73.7182 72.8694 75.8263 74.428 77.5397 76.3737L79.5577 74.6146C77.5936 72.3798 75.1756 70.5894 72.4649 69.363C69.7542 68.1366 66.8131 67.5023 63.8378 67.5026H63.7486C60.789 67.4929 57.861 68.1106 55.1576 69.3149C52.4541 70.5193 50.0366 72.2829 48.0645 74.4896L50.0691 76.2755C51.7887 74.3502 53.8971 72.8116 56.2551 71.7611C58.6132 70.7107 61.1671 70.1722 63.7486 70.1813Z" fill="#FC5E5C"/>
<path d="M53.3229 42.6833L44.7485 46.0955L45.739 48.5844L54.3133 45.1722L53.3229 42.6833Z" fill="#FC5E5C"/>
<path d="M74.2819 42.6789L73.2905 45.1675L81.8636 48.5826L82.855 46.094L74.2819 42.6789Z" fill="#FC5E5C"/>
</g>
<defs>
<clipPath id="clip0">
<rect width="66" height="66" fill="white" transform="translate(30.7998 29)"/>
</clipPath>
</defs>
</svg>
