<svg width="95" height="96" viewBox="0 0 95 96" fill="none" xmlns="http://www.w3.org/2000/svg">
<path fill-rule="evenodd" clip-rule="evenodd" d="M7.14489 13.9592C10.8601 13.9592 13.8718 10.9506 13.8718 7.23926C13.8718 3.52792 10.8601 0.519287 7.14489 0.519287C3.42971 0.519287 0.417969 3.52792 0.417969 7.23926C0.417969 10.9506 3.42971 13.9592 7.14489 13.9592ZM33.928 13.9592C37.6431 13.9592 40.6549 10.9506 40.6549 7.23926C40.6549 3.52792 37.6431 0.519287 33.928 0.519287C30.2128 0.519287 27.201 3.52792 27.201 7.23926C27.201 10.9506 30.2128 13.9592 33.928 13.9592ZM67.4384 7.23926C67.4384 10.9506 64.4267 13.9592 60.7115 13.9592C56.9963 13.9592 53.9846 10.9506 53.9846 7.23926C53.9846 3.52792 56.9963 0.519287 60.7115 0.519287C64.4267 0.519287 67.4384 3.52792 67.4384 7.23926ZM87.4955 13.9592C91.2107 13.9592 94.2224 10.9506 94.2224 7.23926C94.2224 3.52792 91.2107 0.519287 87.4955 0.519287C83.7803 0.519287 80.7686 3.52792 80.7686 7.23926C80.7686 10.9506 83.7803 13.9592 87.4955 13.9592ZM13.8718 34.3334C13.8718 38.0447 10.8601 41.0533 7.14489 41.0533C3.42971 41.0533 0.417969 38.0447 0.417969 34.3334C0.417969 30.622 3.42971 27.6134 7.14489 27.6134C10.8601 27.6134 13.8718 30.622 13.8718 34.3334ZM33.928 41.0533C37.6431 41.0533 40.6549 38.0447 40.6549 34.3334C40.6549 30.622 37.6431 27.6134 33.928 27.6134C30.2128 27.6134 27.201 30.622 27.201 34.3334C27.201 38.0447 30.2128 41.0533 33.928 41.0533ZM67.4384 34.3334C67.4384 38.0447 64.4267 41.0533 60.7115 41.0533C56.9963 41.0533 53.9846 38.0447 53.9846 34.3334C53.9846 30.622 56.9963 27.6134 60.7115 27.6134C64.4267 27.6134 67.4384 30.622 67.4384 34.3334ZM87.4955 41.0533C91.2107 41.0533 94.2224 38.0447 94.2224 34.3334C94.2224 30.622 91.2107 27.6134 87.4955 27.6134C83.7803 27.6134 80.7686 30.622 80.7686 34.3334C80.7686 38.0447 83.7803 41.0533 87.4955 41.0533ZM13.8718 61.4273C13.8718 65.1386 10.8601 68.1473 7.14489 68.1473C3.42971 68.1473 0.417969 65.1386 0.417969 61.4273C0.417969 57.716 3.42971 54.7073 7.14489 54.7073C10.8601 54.7073 13.8718 57.716 13.8718 61.4273ZM33.928 68.1473C37.6431 68.1473 40.6549 65.1386 40.6549 61.4273C40.6549 57.716 37.6431 54.7073 33.928 54.7073C30.2128 54.7073 27.201 57.716 27.201 61.4273C27.201 65.1386 30.2128 68.1473 33.928 68.1473ZM67.4384 61.4273C67.4384 65.1386 64.4267 68.1473 60.7115 68.1473C56.9963 68.1473 53.9846 65.1386 53.9846 61.4273C53.9846 57.716 56.9963 54.7073 60.7115 54.7073C64.4267 54.7073 67.4384 57.716 67.4384 61.4273ZM87.4955 68.1473C91.2107 68.1473 94.2224 65.1386 94.2224 61.4273C94.2224 57.716 91.2107 54.7073 87.4955 54.7073C83.7803 54.7073 80.7686 57.716 80.7686 61.4273C80.7686 65.1386 83.7803 68.1473 87.4955 68.1473ZM13.8718 88.5214C13.8718 92.2327 10.8601 95.2413 7.14489 95.2413C3.42971 95.2413 0.417969 92.2327 0.417969 88.5214C0.417969 84.81 3.42971 81.8014 7.14489 81.8014C10.8601 81.8014 13.8718 84.81 13.8718 88.5214ZM33.928 95.2413C37.6431 95.2413 40.6549 92.2327 40.6549 88.5214C40.6549 84.81 37.6431 81.8014 33.928 81.8014C30.2128 81.8014 27.201 84.81 27.201 88.5214C27.201 92.2327 30.2128 95.2413 33.928 95.2413ZM67.4384 88.5214C67.4384 92.2327 64.4267 95.2413 60.7115 95.2413C56.9963 95.2413 53.9846 92.2327 53.9846 88.5214C53.9846 84.81 56.9963 81.8014 60.7115 81.8014C64.4267 81.8014 67.4384 84.81 67.4384 88.5214ZM87.4955 95.2413C91.2107 95.2413 94.2224 92.2327 94.2224 88.5214C94.2224 84.81 91.2107 81.8014 87.4955 81.8014C83.7803 81.8014 80.7686 84.81 80.7686 88.5214C80.7686 92.2327 83.7803 95.2413 87.4955 95.2413Z" fill="url(#paint0_linear)"/>
<defs>
<linearGradient id="paint0_linear" x1="0.417969" y1="0.519287" x2="125.854" y2="129.075" gradientUnits="userSpaceOnUse">
<stop stop-color="#FF804D"/>
<stop offset="1" stop-color="#FA4767"/>
</linearGradient>
</defs>
</svg>
