<svg width="296" height="262" viewBox="0 0 296 262" fill="none" xmlns="http://www.w3.org/2000/svg">
<rect width="296" height="262" fill="url(#paint0_linear)"/>
<path fill-rule="evenodd" clip-rule="evenodd" d="M116 96H24V138H116V96ZM31.3438 134.943C31.9414 135.242 32.7604 135.392 33.8008 135.392C35.793 135.392 37.3203 134.811 38.3828 133.648C39.4453 132.497 39.9766 130.87 39.9766 128.768V104.729H37.1543V129C37.1543 130.251 36.8665 131.208 36.291 131.872C35.7266 132.536 34.8965 132.868 33.8008 132.868C32.9486 132.868 32.1296 132.757 31.3438 132.536V134.943ZM58.6699 121.28L61.6914 129H64.6133L55.0674 104.629H52.6934L43.0977 129H45.9531L48.9414 121.28H58.6699ZM54.9678 111.22L57.79 118.74H49.9375L52.793 111.22C53.2467 109.947 53.5954 108.779 53.8389 107.717C54.2262 109.1 54.6025 110.268 54.9678 111.22ZM84.8506 104.729H81.8125L76.2676 120.334C75.6257 122.116 75.1055 123.903 74.707 125.696C74.3307 123.992 73.8216 122.238 73.1797 120.434L67.6016 104.729H64.6133L73.3125 129H76.1016L84.8506 104.729ZM100.439 121.28L103.461 129H106.383L96.8369 104.629H94.4629L84.8672 129H87.7227L90.7109 121.28H100.439ZM96.7373 111.22L99.5596 118.74H91.707L94.5625 111.22C95.0163 109.947 95.3649 108.779 95.6084 107.717C95.9958 109.1 96.3721 110.268 96.7373 111.22ZM45.4375 157.867C46.625 156.93 47.2188 155.594 47.2188 153.859C47.2188 150.531 45.0781 148.867 40.7969 148.867H36.3555V166H38.3477V159.262H40.3633C42.5664 159.262 44.2578 158.797 45.4375 157.867ZM40.1406 157.551H38.3477V150.59H40.5742C42.1445 150.59 43.3008 150.867 44.043 151.422C44.7852 151.977 45.1562 152.82 45.1562 153.953C45.1562 155.211 44.7617 156.125 43.9727 156.695C43.1836 157.266 41.9062 157.551 40.1406 157.551ZM52.8086 166V158.875H56.3828L60.5312 166H62.8867L58.2344 158.301C60.5312 157.504 61.6797 155.973 61.6797 153.707C61.6797 152.09 61.1758 150.879 60.168 150.074C59.168 149.27 57.6172 148.867 55.5156 148.867H50.8164V166H52.8086ZM55.5391 157.164H52.8086V150.613H55.3984C56.875 150.613 57.9453 150.863 58.6094 151.363C59.2812 151.863 59.6172 152.68 59.6172 153.812C59.6172 154.93 59.2891 155.77 58.6328 156.332C57.9766 156.887 56.9453 157.164 55.5391 157.164ZM74.2891 160.551L76.4219 166H78.4844L71.7461 148.797H70.0703L63.2969 166H65.3125L67.4219 160.551H74.2891ZM71.6758 153.449L73.668 158.758H68.125L70.1406 153.449C70.4609 152.551 70.707 151.727 70.8789 150.977C71.1523 151.953 71.418 152.777 71.6758 153.449ZM83.7109 152.289C84.8047 151.031 86.293 150.402 88.1758 150.402C89.4727 150.402 90.7695 150.707 92.0664 151.316L92.9102 149.605C91.5664 148.949 89.9961 148.621 88.1992 148.621C86.5117 148.621 85.043 148.98 83.793 149.699C82.5508 150.418 81.5977 151.441 80.9336 152.77C80.2773 154.098 79.9492 155.645 79.9492 157.41C79.9492 160.23 80.6328 162.406 82 163.938C83.375 165.469 85.3242 166.234 87.8477 166.234C89.5898 166.234 91.0547 166.012 92.2422 165.566V163.82C90.7109 164.25 89.3477 164.465 88.1523 164.465C86.207 164.465 84.707 163.855 83.6523 162.637C82.6055 161.41 82.082 159.676 82.082 157.434C82.082 155.254 82.625 153.539 83.7109 152.289ZM99.2617 166H101.254V150.637H106.68V148.867H93.8359V150.637H99.2617V166ZM111.262 148.867H109.27V166H111.262V148.867ZM118.844 152.289C119.938 151.031 121.426 150.402 123.309 150.402C124.605 150.402 125.902 150.707 127.199 151.316L128.043 149.605C126.699 148.949 125.129 148.621 123.332 148.621C121.645 148.621 120.176 148.98 118.926 149.699C117.684 150.418 116.73 151.441 116.066 152.77C115.41 154.098 115.082 155.645 115.082 157.41C115.082 160.23 115.766 162.406 117.133 163.938C118.508 165.469 120.457 166.234 122.98 166.234C124.723 166.234 126.188 166.012 127.375 165.566V163.82C125.844 164.25 124.48 164.465 123.285 164.465C121.34 164.465 119.84 163.855 118.785 162.637C117.738 161.41 117.215 159.676 117.215 157.434C117.215 155.254 117.758 153.539 118.844 152.289ZM131.113 166H140.664V164.219H133.105V157.914H140.207V156.156H133.105V150.637H140.664V148.867H131.113V166ZM152.699 148.867H150.707V166H152.699V148.867ZM159.402 148.867H157.41V166H159.402V148.867ZM166.105 148.867H164.113V166H166.105V148.867Z" fill="#FFAB91"/>
<defs>
<linearGradient id="paint0_linear" x1="7.68831" y1="7.97391" x2="247.127" y2="281.126" gradientUnits="userSpaceOnUse">
<stop stop-color="#768EA6"/>
<stop offset="1" stop-color="#5B6D80"/>
</linearGradient>
</defs>
</svg>
