<svg width="296" height="262" viewBox="0 0 296 262" fill="none" xmlns="http://www.w3.org/2000/svg">
<rect width="296" height="262" fill="url(#paint0_linear)"/>
<path fill-rule="evenodd" clip-rule="evenodd" d="M41.9922 107.93L44.125 113.379H46.1875L39.4492 96.1758H37.7734L31 113.379H33.0156L35.125 107.93H41.9922ZM39.3789 100.828L41.3711 106.137H35.8281L37.8438 100.828C38.1641 99.9297 38.4102 99.1055 38.582 98.3555C38.8555 99.332 39.1211 100.156 39.3789 100.828ZM61.9023 104.402H56.0781V106.184H59.9102V111.457C58.7773 111.73 57.6172 111.867 56.4297 111.867C54.2422 111.867 52.582 111.27 51.4492 110.074C50.3242 108.879 49.7617 107.125 49.7617 104.812C49.7617 102.609 50.3477 100.887 51.5195 99.6445C52.6914 98.4023 54.3203 97.7812 56.4062 97.7812C57.8359 97.7812 59.3242 98.1094 60.8711 98.7656L61.6445 97.0078C60.0664 96.3359 58.3633 96 56.5352 96C54.7305 96 53.1562 96.3555 51.8125 97.0664C50.4688 97.7695 49.4375 98.793 48.7188 100.137C48.0078 101.473 47.6523 103.031 47.6523 104.812C47.6523 107.594 48.375 109.758 49.8203 111.305C51.2656 112.844 53.2852 113.613 55.8789 113.613C57.1133 113.613 58.1992 113.539 59.1367 113.391C60.0742 113.242 60.9961 113.023 61.9023 112.734V104.402ZM68.0195 96.2461H66.0273V113.379H68.0195V96.2461ZM74.7227 96.2461H72.7305V113.379H82.2812V111.574H74.7227V96.2461ZM85.1992 113.379H94.75V111.598H87.1914V105.293H94.293V103.535H87.1914V98.0156H94.75V96.2461H85.1992V113.379ZM113.942 113.379H115.419L118.855 100.529H117.273L115.252 108.448C114.941 109.644 114.73 110.657 114.619 111.489C114.426 110.347 114.188 109.321 113.907 108.413L111.49 100.529H109.908L107.605 108.343C107.295 109.368 107.061 110.417 106.902 111.489C106.773 110.587 106.568 109.579 106.287 108.466L104.257 100.529H102.675L106.094 113.379H107.57L110.084 104.827C110.365 103.907 110.57 103.061 110.699 102.287C110.705 102.404 110.784 102.753 110.937 103.333C111.089 103.913 111.227 104.394 111.35 104.774L113.942 113.379ZM120.868 100.529V113.379H122.362V100.529H120.868ZM128.356 113.379H129.851V101.856H133.92V100.529H124.287V101.856H128.356V113.379ZM144.124 113.379H145.618V100.529H144.124V105.996H137.356V100.529H135.862V113.379H137.356V107.332H144.124V113.379ZM45.709 155.918C47.2585 154.723 48.0332 153.057 48.0332 150.921C48.0332 149.261 47.5518 147.91 46.5889 146.87C45.637 145.83 43.8883 144.856 41.3428 143.948C39.8265 143.406 38.6976 142.913 37.9561 142.471C37.2256 142.017 36.7054 141.524 36.3955 140.993C36.0856 140.451 35.9307 139.759 35.9307 138.918C35.9307 137.778 36.3512 136.887 37.1924 136.245C38.0335 135.603 39.2012 135.282 40.6953 135.282C42.5879 135.282 44.5358 135.703 46.5391 136.544L47.4189 134.087C45.3936 133.201 43.1745 132.759 40.7617 132.759C38.4486 132.759 36.5892 133.312 35.1836 134.419C33.778 135.526 33.0752 137.014 33.0752 138.885C33.0752 140.667 33.5566 142.111 34.5195 143.218C35.4935 144.325 37.1094 145.282 39.3672 146.09C40.9831 146.665 42.1839 147.18 42.9697 147.634C43.7666 148.088 44.3311 148.586 44.6631 149.128C45.0062 149.659 45.1777 150.345 45.1777 151.187C45.1777 152.459 44.7018 153.455 43.75 154.175C42.7982 154.883 41.3815 155.237 39.5 155.237C38.349 155.237 37.1868 155.116 36.0137 154.872C34.8405 154.629 33.7559 154.297 32.7598 153.876V156.599C34.3092 157.34 36.5228 157.711 39.4004 157.711C42.0566 157.711 44.1595 157.113 45.709 155.918ZM57.0645 137.955C58.6139 136.173 60.7223 135.282 63.3896 135.282C65.2269 135.282 67.0641 135.714 68.9014 136.577L70.0967 134.153C68.193 133.224 65.9684 132.759 63.4229 132.759C61.0322 132.759 58.9515 133.268 57.1807 134.286C55.4209 135.304 54.0706 136.754 53.1299 138.636C52.2002 140.517 51.7354 142.709 51.7354 145.21C51.7354 149.205 52.7038 152.288 54.6406 154.457C56.5885 156.626 59.3499 157.711 62.9248 157.711C65.3929 157.711 67.4681 157.396 69.1504 156.765V154.291C66.9811 154.9 65.0498 155.204 63.3564 155.204C60.6006 155.204 58.4756 154.341 56.9814 152.614C55.4984 150.877 54.7568 148.42 54.7568 145.243C54.7568 142.155 55.526 139.726 57.0645 137.955ZM77.2686 157.379V147.285H82.332L88.209 157.379H91.5459L84.9551 146.472C88.209 145.343 89.8359 143.174 89.8359 139.964C89.8359 137.673 89.1221 135.957 87.6943 134.817C86.2777 133.677 84.0807 133.107 81.1035 133.107H74.4463V157.379H77.2686ZM81.1367 144.861H77.2686V135.581H80.9375C83.0293 135.581 84.5456 135.935 85.4863 136.644C86.4382 137.352 86.9141 138.508 86.9141 140.113C86.9141 141.696 86.4492 142.886 85.5195 143.683C84.5898 144.468 83.1289 144.861 81.1367 144.861ZM113.792 148.812V133.107H110.97V148.912C110.97 150.949 110.416 152.515 109.31 153.61C108.203 154.695 106.626 155.237 104.578 155.237C102.431 155.237 100.804 154.695 99.6973 153.61C98.5905 152.526 98.0371 150.971 98.0371 148.945V133.107H95.2148V148.746C95.2148 151.535 96.0117 153.727 97.6055 155.32C99.2103 156.914 101.474 157.711 104.396 157.711C107.317 157.711 109.614 156.92 111.285 155.337C112.956 153.754 113.792 151.579 113.792 148.812ZM122.74 135.863L130.975 157.379H133.249L141.55 135.896H141.683C141.528 137.999 141.45 139.947 141.45 141.74V157.379H144.272V133.107H140.056L132.303 153.129H132.17L124.483 133.107H120.233V157.379H122.84V141.939C122.84 139.593 122.762 137.568 122.607 135.863H122.74ZM153 123.379H24V165.379H153V123.379Z" fill="#90CAF9"/>
<defs>
<linearGradient id="paint0_linear" x1="7.68831" y1="7.97391" x2="247.127" y2="281.126" gradientUnits="userSpaceOnUse">
<stop stop-color="#768EA6"/>
<stop offset="1" stop-color="#5B6D80"/>
</linearGradient>
</defs>
</svg>
