<svg width="296" height="262" viewBox="0 0 296 262" fill="none" xmlns="http://www.w3.org/2000/svg">
<rect width="296" height="262" fill="url(#paint0_linear)"/>
<path fill-rule="evenodd" clip-rule="evenodd" d="M232.551 96H99.5508V138H232.551V96ZM45.2832 129H48.0723L54.5635 104.729H51.5752L47.7568 119.687C47.1702 121.944 46.7718 123.859 46.5615 125.431C46.1963 123.272 45.748 121.336 45.2168 119.62L40.6514 104.729H37.6631L33.3135 119.487C32.7269 121.424 32.2842 123.405 31.9854 125.431C31.7419 123.726 31.3545 121.823 30.8232 119.72L26.9883 104.729H24L30.458 129H33.2471L37.9951 112.847C38.5264 111.109 38.9137 109.51 39.1572 108.049C39.1683 108.27 39.3177 108.929 39.6055 110.024C39.8932 111.12 40.1533 112.028 40.3857 112.747L45.2832 129ZM58.3652 129H71.8955V126.477H61.1875V117.545H71.248V115.055H61.1875V107.235H71.8955V104.729H58.3652V129ZM84.1475 104.729H77.291V129H85.7578C88.3919 129 90.4395 128.391 91.9004 127.174C93.3724 125.956 94.1084 124.263 94.1084 122.094C94.1084 118.851 92.2656 116.914 88.5801 116.283V116.117C90.1185 115.84 91.2861 115.237 92.083 114.308C92.891 113.367 93.2949 112.177 93.2949 110.738C93.2949 108.658 92.5755 107.136 91.1367 106.173C89.6979 105.21 87.3682 104.729 84.1475 104.729ZM84.7617 115.121H80.1133V107.169H84.2637C86.3887 107.169 87.9382 107.473 88.9121 108.082C89.8861 108.68 90.373 109.659 90.373 111.021C90.373 112.504 89.9359 113.561 89.0615 114.191C88.1872 114.811 86.7539 115.121 84.7617 115.121ZM80.1133 126.593V117.512H84.9443C87.014 117.512 88.5524 117.866 89.5596 118.574C90.5778 119.283 91.0869 120.389 91.0869 121.895C91.0869 123.51 90.5889 124.7 89.5928 125.464C88.6077 126.216 87.1357 126.593 85.1768 126.593H80.1133ZM124.273 125.829C126.454 123.704 127.544 120.638 127.544 116.632C127.544 112.88 126.498 109.958 124.406 107.866C122.314 105.774 119.382 104.729 115.607 104.729H108.17V129H114.894C118.978 129 122.104 127.943 124.273 125.829ZM122.165 109.576C123.759 111.181 124.556 113.566 124.556 116.731C124.556 119.974 123.709 122.426 122.016 124.086C120.322 125.735 117.793 126.56 114.429 126.56H110.992V107.169H115.093C118.225 107.169 120.582 107.971 122.165 109.576ZM132.973 129H146.503V126.477H135.795V117.545H145.855V115.055H135.795V107.235H146.503V104.729H132.973V129ZM163.271 127.539C164.82 126.344 165.595 124.678 165.595 122.542C165.595 120.882 165.113 119.532 164.15 118.491C163.199 117.451 161.45 116.477 158.904 115.569C157.388 115.027 156.259 114.535 155.518 114.092C154.787 113.638 154.267 113.146 153.957 112.614C153.647 112.072 153.492 111.38 153.492 110.539C153.492 109.399 153.913 108.508 154.754 107.866C155.595 107.224 156.763 106.903 158.257 106.903C160.149 106.903 162.097 107.324 164.101 108.165L164.98 105.708C162.955 104.823 160.736 104.38 158.323 104.38C156.01 104.38 154.151 104.933 152.745 106.04C151.34 107.147 150.637 108.635 150.637 110.506C150.637 112.288 151.118 113.732 152.081 114.839C153.055 115.946 154.671 116.903 156.929 117.711C158.545 118.286 159.745 118.801 160.531 119.255C161.328 119.709 161.893 120.207 162.225 120.749C162.568 121.28 162.739 121.966 162.739 122.808C162.739 124.08 162.263 125.076 161.312 125.796C160.36 126.504 158.943 126.858 157.062 126.858C155.91 126.858 154.748 126.737 153.575 126.493C152.402 126.25 151.317 125.918 150.321 125.497V128.22C151.871 128.961 154.084 129.332 156.962 129.332C159.618 129.332 161.721 128.734 163.271 127.539ZM170.559 104.729V129H173.381V104.729H170.559ZM198.98 116.283H190.729V118.807H196.158V126.277C194.553 126.665 192.91 126.858 191.228 126.858C188.129 126.858 185.777 126.012 184.172 124.318C182.578 122.625 181.781 120.14 181.781 116.864C181.781 113.743 182.611 111.303 184.271 109.543C185.932 107.783 188.239 106.903 191.194 106.903C193.22 106.903 195.328 107.368 197.52 108.298L198.615 105.808C196.38 104.856 193.967 104.38 191.377 104.38C188.82 104.38 186.59 104.883 184.687 105.891C182.783 106.887 181.322 108.337 180.304 110.24C179.297 112.133 178.793 114.341 178.793 116.864C178.793 120.804 179.817 123.87 181.864 126.062C183.912 128.242 186.773 129.332 190.447 129.332C192.196 129.332 193.734 129.227 195.062 129.017C196.391 128.806 197.697 128.496 198.98 128.087V116.283ZM220.562 129H223.783V104.729H221.144V118.657C221.121 119.354 221.149 120.517 221.227 122.144C221.304 123.759 221.354 124.717 221.376 125.016H221.243L208.012 104.729H204.824V129H207.431V115.204C207.431 113.212 207.342 111.021 207.165 108.63H207.298L220.562 129ZM25.9072 166H27.8994V158.676H35.001V156.906H27.8994V150.637H35.458V148.867H25.9072V166ZM51.2432 159.953V148.867H49.251V160.023C49.251 161.461 48.8604 162.566 48.0791 163.34C47.2979 164.105 46.1846 164.488 44.7393 164.488C43.2236 164.488 42.0752 164.105 41.2939 163.34C40.5127 162.574 40.1221 161.477 40.1221 160.047V148.867H38.1299V159.906C38.1299 161.875 38.6924 163.422 39.8174 164.547C40.9502 165.672 42.5479 166.234 44.6104 166.234C46.6729 166.234 48.2939 165.676 49.4736 164.559C50.6533 163.441 51.2432 161.906 51.2432 159.953ZM66.8994 166H69.1729V148.867H67.3096V158.699C67.2939 159.191 67.3135 160.012 67.3682 161.16C67.4229 162.301 67.458 162.977 67.4736 163.188H67.3799L58.04 148.867H55.79V166H57.6299V156.262C57.6299 154.855 57.5674 153.309 57.4424 151.621H57.5361L66.8994 166ZM85.251 163.762C86.79 162.262 87.5596 160.098 87.5596 157.27C87.5596 154.621 86.8213 152.559 85.3447 151.082C83.8682 149.605 81.7979 148.867 79.1338 148.867H73.8838V166H78.6299C81.5127 166 83.7197 165.254 85.251 163.762ZM83.7627 152.289C84.8877 153.422 85.4502 155.105 85.4502 157.34C85.4502 159.629 84.8525 161.359 83.6572 162.531C82.4619 163.695 80.6768 164.277 78.3018 164.277H75.876V150.59H78.7705C80.9814 150.59 82.6455 151.156 83.7627 152.289ZM100.028 160.551L102.161 166H104.224L97.4854 148.797H95.8096L89.0361 166H91.0518L93.1611 160.551H100.028ZM97.415 153.449L99.4072 158.758H93.8643L95.8799 153.449C96.2002 152.551 96.4463 151.727 96.6182 150.977C96.8916 151.953 97.1572 152.777 97.415 153.449ZM108.349 150.812L114.161 166H115.767L121.626 150.836H121.72C121.61 152.32 121.556 153.695 121.556 154.961V166H123.548V148.867H120.571L115.099 163H115.005L109.579 148.867H106.579V166H108.419V155.102C108.419 153.445 108.364 152.016 108.255 150.812H108.349ZM128.259 166H137.81V164.219H130.251V157.914H137.353V156.156H130.251V150.637H137.81V148.867H128.259V166ZM152.728 166H155.001V148.867H153.138V158.699C153.122 159.191 153.142 160.012 153.196 161.16C153.251 162.301 153.286 162.977 153.302 163.188H153.208L143.868 148.867H141.618V166H143.458V156.262C143.458 154.855 143.396 153.309 143.271 151.621H143.364L152.728 166ZM162.993 166H164.985V150.637H170.411V148.867H157.567V150.637H162.993V166ZM181.638 160.551L183.771 166H185.833L179.095 148.797H177.419L170.646 166H172.661L174.771 160.551H181.638ZM179.024 153.449L181.017 158.758H175.474L177.489 153.449C177.81 152.551 178.056 151.727 178.228 150.977C178.501 151.953 178.767 152.777 179.024 153.449ZM188.188 148.867V166H197.739V164.195H190.181V148.867H188.188ZM208.685 164.969C209.778 164.125 210.325 162.949 210.325 161.441C210.325 160.27 209.985 159.316 209.306 158.582C208.634 157.848 207.399 157.16 205.603 156.52C204.532 156.137 203.735 155.789 203.212 155.477C202.696 155.156 202.329 154.809 202.11 154.434C201.892 154.051 201.782 153.562 201.782 152.969C201.782 152.164 202.079 151.535 202.673 151.082C203.267 150.629 204.091 150.402 205.146 150.402C206.481 150.402 207.856 150.699 209.271 151.293L209.892 149.559C208.462 148.934 206.896 148.621 205.192 148.621C203.56 148.621 202.247 149.012 201.255 149.793C200.263 150.574 199.767 151.625 199.767 152.945C199.767 154.203 200.106 155.223 200.786 156.004C201.474 156.785 202.614 157.461 204.208 158.031C205.349 158.438 206.196 158.801 206.751 159.121C207.313 159.441 207.712 159.793 207.946 160.176C208.188 160.551 208.31 161.035 208.31 161.629C208.31 162.527 207.974 163.23 207.302 163.738C206.63 164.238 205.63 164.488 204.302 164.488C203.489 164.488 202.669 164.402 201.841 164.23C201.013 164.059 200.247 163.824 199.544 163.527V165.449C200.638 165.973 202.2 166.234 204.231 166.234C206.106 166.234 207.591 165.812 208.685 164.969Z" fill="#D1C4E9"/>
<defs>
<linearGradient id="paint0_linear" x1="7.68831" y1="7.97391" x2="247.127" y2="281.126" gradientUnits="userSpaceOnUse">
<stop stop-color="#768EA6"/>
<stop offset="1" stop-color="#5B6D80"/>
</linearGradient>
</defs>
</svg>
