<svg width="296" height="262" viewBox="0 0 296 262" fill="none" xmlns="http://www.w3.org/2000/svg">
<rect width="296" height="262" fill="url(#paint0_linear)"/>
<path fill-rule="evenodd" clip-rule="evenodd" d="M83 96H24V138H83V96ZM47.9424 129H50.7646V104.729H47.9424V115.055H35.1592V104.729H32.3369V129H35.1592V117.578H47.9424V129ZM60.2607 129V118.906H65.3242L71.2012 129H74.5381L67.9473 118.093C71.2012 116.964 72.8281 114.795 72.8281 111.585C72.8281 109.294 72.1143 107.578 70.6865 106.438C69.2699 105.299 67.0729 104.729 64.0957 104.729H57.4385V129H60.2607ZM64.1289 116.482H60.2607V107.202H63.9297C66.0215 107.202 67.5378 107.556 68.4785 108.265C69.4303 108.973 69.9062 110.13 69.9062 111.734C69.9062 113.317 69.4414 114.507 68.5117 115.304C67.582 116.09 66.1211 116.482 64.1289 116.482ZM39.3828 164.969C40.4766 164.125 41.0234 162.949 41.0234 161.441C41.0234 160.27 40.6836 159.316 40.0039 158.582C39.332 157.848 38.0977 157.16 36.3008 156.52C35.2305 156.137 34.4336 155.789 33.9102 155.477C33.3945 155.156 33.0273 154.809 32.8086 154.434C32.5898 154.051 32.4805 153.562 32.4805 152.969C32.4805 152.164 32.7773 151.535 33.3711 151.082C33.9648 150.629 34.7891 150.402 35.8438 150.402C37.1797 150.402 38.5547 150.699 39.9688 151.293L40.5898 149.559C39.1602 148.934 37.5938 148.621 35.8906 148.621C34.2578 148.621 32.9453 149.012 31.9531 149.793C30.9609 150.574 30.4648 151.625 30.4648 152.945C30.4648 154.203 30.8047 155.223 31.4844 156.004C32.1719 156.785 33.3125 157.461 34.9062 158.031C36.0469 158.438 36.8945 158.801 37.4492 159.121C38.0117 159.441 38.4102 159.793 38.6445 160.176C38.8867 160.551 39.0078 161.035 39.0078 161.629C39.0078 162.527 38.6719 163.23 38 163.738C37.3281 164.238 36.3281 164.488 35 164.488C34.1875 164.488 33.3672 164.402 32.5391 164.23C31.7109 164.059 30.9453 163.824 30.2422 163.527V165.449C31.3359 165.973 32.8984 166.234 34.9297 166.234C36.8047 166.234 38.2891 165.812 39.3828 164.969ZM53.6094 157.867C54.7969 156.93 55.3906 155.594 55.3906 153.859C55.3906 150.531 53.25 148.867 48.9688 148.867H44.5273V166H46.5195V159.262H48.5352C50.7383 159.262 52.4297 158.797 53.6094 157.867ZM48.3125 157.551H46.5195V150.59H48.7461C50.3164 150.59 51.4727 150.867 52.2148 151.422C52.957 151.977 53.3281 152.82 53.3281 153.953C53.3281 155.211 52.9336 156.125 52.1445 156.695C51.3555 157.266 50.0781 157.551 48.3125 157.551ZM58.9883 166H68.5391V164.219H60.9805V157.914H68.082V156.156H60.9805V150.637H68.5391V148.867H58.9883V166ZM75.2188 152.289C76.3125 151.031 77.8008 150.402 79.6836 150.402C80.9805 150.402 82.2773 150.707 83.5742 151.316L84.418 149.605C83.0742 148.949 81.5039 148.621 79.707 148.621C78.0195 148.621 76.5508 148.98 75.3008 149.699C74.0586 150.418 73.1055 151.441 72.4414 152.77C71.7852 154.098 71.457 155.645 71.457 157.41C71.457 160.23 72.1406 162.406 73.5078 163.938C74.8828 165.469 76.832 166.234 79.3555 166.234C81.0977 166.234 82.5625 166.012 83.75 165.566V163.82C82.2188 164.25 80.8555 164.465 79.6602 164.465C77.7148 164.465 76.2148 163.855 75.1602 162.637C74.1133 161.41 73.5898 159.676 73.5898 157.434C73.5898 155.254 74.1328 153.539 75.2188 152.289ZM89.4805 148.867H87.4883V166H89.4805V148.867ZM102.828 160.551L104.961 166H107.023L100.285 148.797H98.6094L91.8359 166H93.8516L95.9609 160.551H102.828ZM100.215 153.449L102.207 158.758H96.6641L98.6797 153.449C99 152.551 99.2461 151.727 99.418 150.977C99.6914 151.953 99.957 152.777 100.215 153.449ZM111.371 148.867H109.379V166H118.93V164.195H111.371V148.867ZM123.84 148.867H121.848V166H123.84V148.867ZM136.578 164.969C137.672 164.125 138.219 162.949 138.219 161.441C138.219 160.27 137.879 159.316 137.199 158.582C136.527 157.848 135.293 157.16 133.496 156.52C132.426 156.137 131.629 155.789 131.105 155.477C130.59 155.156 130.223 154.809 130.004 154.434C129.785 154.051 129.676 153.562 129.676 152.969C129.676 152.164 129.973 151.535 130.566 151.082C131.16 150.629 131.984 150.402 133.039 150.402C134.375 150.402 135.75 150.699 137.164 151.293L137.785 149.559C136.355 148.934 134.789 148.621 133.086 148.621C131.453 148.621 130.141 149.012 129.148 149.793C128.156 150.574 127.66 151.625 127.66 152.945C127.66 154.203 128 155.223 128.68 156.004C129.367 156.785 130.508 157.461 132.102 158.031C133.242 158.438 134.09 158.801 134.645 159.121C135.207 159.441 135.605 159.793 135.84 160.176C136.082 160.551 136.203 161.035 136.203 161.629C136.203 162.527 135.867 163.23 135.195 163.738C134.523 164.238 133.523 164.488 132.195 164.488C131.383 164.488 130.562 164.402 129.734 164.23C128.906 164.059 128.141 163.824 127.438 163.527V165.449C128.531 165.973 130.094 166.234 132.125 166.234C134 166.234 135.484 165.812 136.578 164.969ZM145.004 166H146.996V150.637H152.422V148.867H139.578V150.637H145.004V166Z" fill="#F2F2F2"/>
<path fill-rule="evenodd" clip-rule="evenodd" d="M83 96H24V138H83V96ZM47.9424 129H50.7646V104.729H47.9424V115.055H35.1592V104.729H32.3369V129H35.1592V117.578H47.9424V129ZM60.2607 129V118.906H65.3242L71.2012 129H74.5381L67.9473 118.093C71.2012 116.964 72.8281 114.795 72.8281 111.585C72.8281 109.294 72.1143 107.578 70.6865 106.438C69.2699 105.299 67.0729 104.729 64.0957 104.729H57.4385V129H60.2607ZM64.1289 116.482H60.2607V107.202H63.9297C66.0215 107.202 67.5378 107.556 68.4785 108.265C69.4303 108.973 69.9062 110.13 69.9062 111.734C69.9062 113.317 69.4414 114.507 68.5117 115.304C67.582 116.09 66.1211 116.482 64.1289 116.482ZM39.3828 164.969C40.4766 164.125 41.0234 162.949 41.0234 161.441C41.0234 160.27 40.6836 159.316 40.0039 158.582C39.332 157.848 38.0977 157.16 36.3008 156.52C35.2305 156.137 34.4336 155.789 33.9102 155.477C33.3945 155.156 33.0273 154.809 32.8086 154.434C32.5898 154.051 32.4805 153.562 32.4805 152.969C32.4805 152.164 32.7773 151.535 33.3711 151.082C33.9648 150.629 34.7891 150.402 35.8438 150.402C37.1797 150.402 38.5547 150.699 39.9688 151.293L40.5898 149.559C39.1602 148.934 37.5938 148.621 35.8906 148.621C34.2578 148.621 32.9453 149.012 31.9531 149.793C30.9609 150.574 30.4648 151.625 30.4648 152.945C30.4648 154.203 30.8047 155.223 31.4844 156.004C32.1719 156.785 33.3125 157.461 34.9062 158.031C36.0469 158.438 36.8945 158.801 37.4492 159.121C38.0117 159.441 38.4102 159.793 38.6445 160.176C38.8867 160.551 39.0078 161.035 39.0078 161.629C39.0078 162.527 38.6719 163.23 38 163.738C37.3281 164.238 36.3281 164.488 35 164.488C34.1875 164.488 33.3672 164.402 32.5391 164.23C31.7109 164.059 30.9453 163.824 30.2422 163.527V165.449C31.3359 165.973 32.8984 166.234 34.9297 166.234C36.8047 166.234 38.2891 165.812 39.3828 164.969ZM53.6094 157.867C54.7969 156.93 55.3906 155.594 55.3906 153.859C55.3906 150.531 53.25 148.867 48.9688 148.867H44.5273V166H46.5195V159.262H48.5352C50.7383 159.262 52.4297 158.797 53.6094 157.867ZM48.3125 157.551H46.5195V150.59H48.7461C50.3164 150.59 51.4727 150.867 52.2148 151.422C52.957 151.977 53.3281 152.82 53.3281 153.953C53.3281 155.211 52.9336 156.125 52.1445 156.695C51.3555 157.266 50.0781 157.551 48.3125 157.551ZM58.9883 166H68.5391V164.219H60.9805V157.914H68.082V156.156H60.9805V150.637H68.5391V148.867H58.9883V166ZM75.2188 152.289C76.3125 151.031 77.8008 150.402 79.6836 150.402C80.9805 150.402 82.2773 150.707 83.5742 151.316L84.418 149.605C83.0742 148.949 81.5039 148.621 79.707 148.621C78.0195 148.621 76.5508 148.98 75.3008 149.699C74.0586 150.418 73.1055 151.441 72.4414 152.77C71.7852 154.098 71.457 155.645 71.457 157.41C71.457 160.23 72.1406 162.406 73.5078 163.938C74.8828 165.469 76.832 166.234 79.3555 166.234C81.0977 166.234 82.5625 166.012 83.75 165.566V163.82C82.2188 164.25 80.8555 164.465 79.6602 164.465C77.7148 164.465 76.2148 163.855 75.1602 162.637C74.1133 161.41 73.5898 159.676 73.5898 157.434C73.5898 155.254 74.1328 153.539 75.2188 152.289ZM89.4805 148.867H87.4883V166H89.4805V148.867ZM102.828 160.551L104.961 166H107.023L100.285 148.797H98.6094L91.8359 166H93.8516L95.9609 160.551H102.828ZM100.215 153.449L102.207 158.758H96.6641L98.6797 153.449C99 152.551 99.2461 151.727 99.418 150.977C99.6914 151.953 99.957 152.777 100.215 153.449ZM111.371 148.867H109.379V166H118.93V164.195H111.371V148.867ZM123.84 148.867H121.848V166H123.84V148.867ZM136.578 164.969C137.672 164.125 138.219 162.949 138.219 161.441C138.219 160.27 137.879 159.316 137.199 158.582C136.527 157.848 135.293 157.16 133.496 156.52C132.426 156.137 131.629 155.789 131.105 155.477C130.59 155.156 130.223 154.809 130.004 154.434C129.785 154.051 129.676 153.562 129.676 152.969C129.676 152.164 129.973 151.535 130.566 151.082C131.16 150.629 131.984 150.402 133.039 150.402C134.375 150.402 135.75 150.699 137.164 151.293L137.785 149.559C136.355 148.934 134.789 148.621 133.086 148.621C131.453 148.621 130.141 149.012 129.148 149.793C128.156 150.574 127.66 151.625 127.66 152.945C127.66 154.203 128 155.223 128.68 156.004C129.367 156.785 130.508 157.461 132.102 158.031C133.242 158.438 134.09 158.801 134.645 159.121C135.207 159.441 135.605 159.793 135.84 160.176C136.082 160.551 136.203 161.035 136.203 161.629C136.203 162.527 135.867 163.23 135.195 163.738C134.523 164.238 133.523 164.488 132.195 164.488C131.383 164.488 130.562 164.402 129.734 164.23C128.906 164.059 128.141 163.824 127.438 163.527V165.449C128.531 165.973 130.094 166.234 132.125 166.234C134 166.234 135.484 165.812 136.578 164.969ZM145.004 166H146.996V150.637H152.422V148.867H139.578V150.637H145.004V166Z" fill="#AED581"/>
<defs>
<linearGradient id="paint0_linear" x1="7.68831" y1="7.97391" x2="247.127" y2="281.126" gradientUnits="userSpaceOnUse">
<stop stop-color="#768EA6"/>
<stop offset="1" stop-color="#5B6D80"/>
</linearGradient>
</defs>
</svg>
