<svg width="296" height="262" viewBox="0 0 296 262" fill="none" xmlns="http://www.w3.org/2000/svg">
<rect width="296" height="262" fill="url(#paint0_linear)"/>
<path fill-rule="evenodd" clip-rule="evenodd" d="M174 96H24V138H174V96ZM32.3369 129H45.8672V126.477H35.1592V117.545H45.2197V115.055H35.1592V107.235H45.8672V104.729H32.3369V129ZM67.001 129H70.2217V104.729H67.582V118.657C67.5599 119.354 67.5876 120.517 67.665 122.144C67.7425 123.759 67.7923 124.717 67.8145 125.016H67.6816L54.4502 104.729H51.2627V129H53.8691V115.204C53.8691 113.212 53.7806 111.021 53.6035 108.63H53.7363L67.001 129ZM95.8213 116.283H87.5703V118.807H92.999V126.277C91.3942 126.665 89.7506 126.858 88.0684 126.858C84.9694 126.858 82.6175 126.012 81.0127 124.318C79.4189 122.625 78.6221 120.14 78.6221 116.864C78.6221 113.743 79.4521 111.303 81.1123 109.543C82.7725 107.783 85.0801 106.903 88.0352 106.903C90.0605 106.903 92.1689 107.368 94.3604 108.298L95.4561 105.808C93.2204 104.856 90.8076 104.38 88.2178 104.38C85.6611 104.38 83.431 104.883 81.5273 105.891C79.6237 106.887 78.1628 108.337 77.1445 110.24C76.1374 112.133 75.6338 114.341 75.6338 116.864C75.6338 120.804 76.6576 123.87 78.7051 126.062C80.7526 128.242 83.6136 129.332 87.2881 129.332C89.0368 129.332 90.5752 129.227 91.9033 129.017C93.2314 128.806 94.5374 128.496 95.8213 128.087V116.283ZM104.487 104.729H101.665V129H115.195V126.443H104.487V104.729ZM122.151 104.729H119.329V129H122.151V104.729ZM140.197 127.539C141.747 126.344 142.521 124.678 142.521 122.542C142.521 120.882 142.04 119.532 141.077 118.491C140.125 117.451 138.377 116.477 135.831 115.569C134.315 115.027 133.186 114.535 132.444 114.092C131.714 113.638 131.194 113.146 130.884 112.614C130.574 112.072 130.419 111.38 130.419 110.539C130.419 109.399 130.84 108.508 131.681 107.866C132.522 107.224 133.689 106.903 135.184 106.903C137.076 106.903 139.024 107.324 141.027 108.165L141.907 105.708C139.882 104.823 137.663 104.38 135.25 104.38C132.937 104.38 131.077 104.933 129.672 106.04C128.266 107.147 127.563 108.635 127.563 110.506C127.563 112.288 128.045 113.732 129.008 114.839C129.982 115.946 131.598 116.903 133.855 117.711C135.471 118.286 136.672 118.801 137.458 119.255C138.255 119.709 138.819 120.207 139.151 120.749C139.494 121.28 139.666 121.966 139.666 122.808C139.666 124.08 139.19 125.076 138.238 125.796C137.286 126.504 135.87 126.858 133.988 126.858C132.837 126.858 131.675 126.737 130.502 126.493C129.329 126.25 128.244 125.918 127.248 125.497V128.22C128.798 128.961 131.011 129.332 133.889 129.332C136.545 129.332 138.648 128.734 140.197 127.539ZM163.091 129H165.913V104.729H163.091V115.055H150.308V104.729H147.485V129H150.308V117.578H163.091V129ZM40.4375 157.867C41.625 156.93 42.2188 155.594 42.2188 153.859C42.2188 150.531 40.0781 148.867 35.7969 148.867H31.3555V166H33.3477V159.262H35.3633C37.5664 159.262 39.2578 158.797 40.4375 157.867ZM35.1406 157.551H33.3477V150.59H35.5742C37.1445 150.59 38.3008 150.867 39.043 151.422C39.7852 151.977 40.1562 152.82 40.1562 153.953C40.1562 155.211 39.7617 156.125 38.9727 156.695C38.1836 157.266 36.9062 157.551 35.1406 157.551ZM47.8086 166V158.875H51.3828L55.5312 166H57.8867L53.2344 158.301C55.5312 157.504 56.6797 155.973 56.6797 153.707C56.6797 152.09 56.1758 150.879 55.168 150.074C54.168 149.27 52.6172 148.867 50.5156 148.867H45.8164V166H47.8086ZM50.5391 157.164H47.8086V150.613H50.3984C51.875 150.613 52.9453 150.863 53.6094 151.363C54.2812 151.863 54.6172 152.68 54.6172 153.812C54.6172 154.93 54.2891 155.77 53.6328 156.332C52.9766 156.887 51.9453 157.164 50.5391 157.164ZM73.4375 163.879C74.8281 162.309 75.5234 160.152 75.5234 157.41C75.5234 154.66 74.832 152.504 73.4492 150.941C72.0664 149.379 70.1445 148.598 67.6836 148.598C65.1523 148.598 63.1992 149.367 61.8242 150.906C60.4492 152.438 59.7617 154.598 59.7617 157.387C59.7617 160.199 60.4453 162.379 61.8125 163.926C63.1875 165.465 65.1367 166.234 67.6602 166.234C70.1289 166.234 72.0547 165.449 73.4375 163.879ZM63.3477 162.695C62.3633 161.492 61.8711 159.73 61.8711 157.41C61.8711 155.121 62.3633 153.379 63.3477 152.184C64.3398 150.98 65.7852 150.379 67.6836 150.379C69.5742 150.379 71 150.977 71.9609 152.172C72.9297 153.359 73.4141 155.105 73.4141 157.41C73.4141 159.738 72.9297 161.5 71.9609 162.695C70.9922 163.891 69.5586 164.488 67.6602 164.488C65.7773 164.488 64.3398 163.891 63.3477 162.695ZM79.3555 166H81.3477V158.676H88.4492V156.906H81.3477V150.637H88.9062V148.867H79.3555V166ZM91.7539 166H101.305V164.219H93.7461V157.914H100.848V156.156H93.7461V150.637H101.305V148.867H91.7539V166ZM113.141 164.969C114.234 164.125 114.781 162.949 114.781 161.441C114.781 160.27 114.441 159.316 113.762 158.582C113.09 157.848 111.855 157.16 110.059 156.52C108.988 156.137 108.191 155.789 107.668 155.477C107.152 155.156 106.785 154.809 106.566 154.434C106.348 154.051 106.238 153.562 106.238 152.969C106.238 152.164 106.535 151.535 107.129 151.082C107.723 150.629 108.547 150.402 109.602 150.402C110.938 150.402 112.312 150.699 113.727 151.293L114.348 149.559C112.918 148.934 111.352 148.621 109.648 148.621C108.016 148.621 106.703 149.012 105.711 149.793C104.719 150.574 104.223 151.625 104.223 152.945C104.223 154.203 104.562 155.223 105.242 156.004C105.93 156.785 107.07 157.461 108.664 158.031C109.805 158.438 110.652 158.801 111.207 159.121C111.77 159.441 112.168 159.793 112.402 160.176C112.645 160.551 112.766 161.035 112.766 161.629C112.766 162.527 112.43 163.23 111.758 163.738C111.086 164.238 110.086 164.488 108.758 164.488C107.945 164.488 107.125 164.402 106.297 164.23C105.469 164.059 104.703 163.824 104 163.527V165.449C105.094 165.973 106.656 166.234 108.688 166.234C110.562 166.234 112.047 165.812 113.141 164.969ZM126.312 164.969C127.406 164.125 127.953 162.949 127.953 161.441C127.953 160.27 127.613 159.316 126.934 158.582C126.262 157.848 125.027 157.16 123.23 156.52C122.16 156.137 121.363 155.789 120.84 155.477C120.324 155.156 119.957 154.809 119.738 154.434C119.52 154.051 119.41 153.562 119.41 152.969C119.41 152.164 119.707 151.535 120.301 151.082C120.895 150.629 121.719 150.402 122.773 150.402C124.109 150.402 125.484 150.699 126.898 151.293L127.52 149.559C126.09 148.934 124.523 148.621 122.82 148.621C121.188 148.621 119.875 149.012 118.883 149.793C117.891 150.574 117.395 151.625 117.395 152.945C117.395 154.203 117.734 155.223 118.414 156.004C119.102 156.785 120.242 157.461 121.836 158.031C122.977 158.438 123.824 158.801 124.379 159.121C124.941 159.441 125.34 159.793 125.574 160.176C125.816 160.551 125.938 161.035 125.938 161.629C125.938 162.527 125.602 163.23 124.93 163.738C124.258 164.238 123.258 164.488 121.93 164.488C121.117 164.488 120.297 164.402 119.469 164.23C118.641 164.059 117.875 163.824 117.172 163.527V165.449C118.266 165.973 119.828 166.234 121.859 166.234C123.734 166.234 125.219 165.812 126.312 164.969ZM131.457 148.867V166H133.449V148.867H131.457ZM150.945 163.879C152.336 162.309 153.031 160.152 153.031 157.41C153.031 154.66 152.34 152.504 150.957 150.941C149.574 149.379 147.652 148.598 145.191 148.598C142.66 148.598 140.707 149.367 139.332 150.906C137.957 152.438 137.27 154.598 137.27 157.387C137.27 160.199 137.953 162.379 139.32 163.926C140.695 165.465 142.645 166.234 145.168 166.234C147.637 166.234 149.562 165.449 150.945 163.879ZM140.855 162.695C139.871 161.492 139.379 159.73 139.379 157.41C139.379 155.121 139.871 153.379 140.855 152.184C141.848 150.98 143.293 150.379 145.191 150.379C147.082 150.379 148.508 150.977 149.469 152.172C150.438 153.359 150.922 155.105 150.922 157.41C150.922 159.738 150.438 161.5 149.469 162.695C148.5 163.891 147.066 164.488 145.168 164.488C143.285 164.488 141.848 163.891 140.855 162.695ZM167.973 166H170.246V148.867H168.383V158.699C168.367 159.191 168.387 160.012 168.441 161.16C168.496 162.301 168.531 162.977 168.547 163.188H168.453L159.113 148.867H156.863V166H158.703V156.262C158.703 154.855 158.641 153.309 158.516 151.621H158.609L167.973 166ZM183.594 160.551L185.727 166H187.789L181.051 148.797H179.375L172.602 166H174.617L176.727 160.551H183.594ZM180.98 153.449L182.973 158.758H177.43L179.445 153.449C179.766 152.551 180.012 151.727 180.184 150.977C180.457 151.953 180.723 152.777 180.98 153.449ZM190.145 148.867V166H199.695V164.195H192.137V148.867H190.145Z" fill="#F2F2F2"/>
<path fill-rule="evenodd" clip-rule="evenodd" d="M174 96H24V138H174V96ZM32.3369 129H45.8672V126.477H35.1592V117.545H45.2197V115.055H35.1592V107.235H45.8672V104.729H32.3369V129ZM67.001 129H70.2217V104.729H67.582V118.657C67.5599 119.354 67.5876 120.517 67.665 122.144C67.7425 123.759 67.7923 124.717 67.8145 125.016H67.6816L54.4502 104.729H51.2627V129H53.8691V115.204C53.8691 113.212 53.7806 111.021 53.6035 108.63H53.7363L67.001 129ZM95.8213 116.283H87.5703V118.807H92.999V126.277C91.3942 126.665 89.7506 126.858 88.0684 126.858C84.9694 126.858 82.6175 126.012 81.0127 124.318C79.4189 122.625 78.6221 120.14 78.6221 116.864C78.6221 113.743 79.4521 111.303 81.1123 109.543C82.7725 107.783 85.0801 106.903 88.0352 106.903C90.0605 106.903 92.1689 107.368 94.3604 108.298L95.4561 105.808C93.2204 104.856 90.8076 104.38 88.2178 104.38C85.6611 104.38 83.431 104.883 81.5273 105.891C79.6237 106.887 78.1628 108.337 77.1445 110.24C76.1374 112.133 75.6338 114.341 75.6338 116.864C75.6338 120.804 76.6576 123.87 78.7051 126.062C80.7526 128.242 83.6136 129.332 87.2881 129.332C89.0368 129.332 90.5752 129.227 91.9033 129.017C93.2314 128.806 94.5374 128.496 95.8213 128.087V116.283ZM104.487 104.729H101.665V129H115.195V126.443H104.487V104.729ZM122.151 104.729H119.329V129H122.151V104.729ZM140.197 127.539C141.747 126.344 142.521 124.678 142.521 122.542C142.521 120.882 142.04 119.532 141.077 118.491C140.125 117.451 138.377 116.477 135.831 115.569C134.315 115.027 133.186 114.535 132.444 114.092C131.714 113.638 131.194 113.146 130.884 112.614C130.574 112.072 130.419 111.38 130.419 110.539C130.419 109.399 130.84 108.508 131.681 107.866C132.522 107.224 133.689 106.903 135.184 106.903C137.076 106.903 139.024 107.324 141.027 108.165L141.907 105.708C139.882 104.823 137.663 104.38 135.25 104.38C132.937 104.38 131.077 104.933 129.672 106.04C128.266 107.147 127.563 108.635 127.563 110.506C127.563 112.288 128.045 113.732 129.008 114.839C129.982 115.946 131.598 116.903 133.855 117.711C135.471 118.286 136.672 118.801 137.458 119.255C138.255 119.709 138.819 120.207 139.151 120.749C139.494 121.28 139.666 121.966 139.666 122.808C139.666 124.08 139.19 125.076 138.238 125.796C137.286 126.504 135.87 126.858 133.988 126.858C132.837 126.858 131.675 126.737 130.502 126.493C129.329 126.25 128.244 125.918 127.248 125.497V128.22C128.798 128.961 131.011 129.332 133.889 129.332C136.545 129.332 138.648 128.734 140.197 127.539ZM163.091 129H165.913V104.729H163.091V115.055H150.308V104.729H147.485V129H150.308V117.578H163.091V129ZM40.4375 157.867C41.625 156.93 42.2188 155.594 42.2188 153.859C42.2188 150.531 40.0781 148.867 35.7969 148.867H31.3555V166H33.3477V159.262H35.3633C37.5664 159.262 39.2578 158.797 40.4375 157.867ZM35.1406 157.551H33.3477V150.59H35.5742C37.1445 150.59 38.3008 150.867 39.043 151.422C39.7852 151.977 40.1562 152.82 40.1562 153.953C40.1562 155.211 39.7617 156.125 38.9727 156.695C38.1836 157.266 36.9062 157.551 35.1406 157.551ZM47.8086 166V158.875H51.3828L55.5312 166H57.8867L53.2344 158.301C55.5312 157.504 56.6797 155.973 56.6797 153.707C56.6797 152.09 56.1758 150.879 55.168 150.074C54.168 149.27 52.6172 148.867 50.5156 148.867H45.8164V166H47.8086ZM50.5391 157.164H47.8086V150.613H50.3984C51.875 150.613 52.9453 150.863 53.6094 151.363C54.2812 151.863 54.6172 152.68 54.6172 153.812C54.6172 154.93 54.2891 155.77 53.6328 156.332C52.9766 156.887 51.9453 157.164 50.5391 157.164ZM73.4375 163.879C74.8281 162.309 75.5234 160.152 75.5234 157.41C75.5234 154.66 74.832 152.504 73.4492 150.941C72.0664 149.379 70.1445 148.598 67.6836 148.598C65.1523 148.598 63.1992 149.367 61.8242 150.906C60.4492 152.438 59.7617 154.598 59.7617 157.387C59.7617 160.199 60.4453 162.379 61.8125 163.926C63.1875 165.465 65.1367 166.234 67.6602 166.234C70.1289 166.234 72.0547 165.449 73.4375 163.879ZM63.3477 162.695C62.3633 161.492 61.8711 159.73 61.8711 157.41C61.8711 155.121 62.3633 153.379 63.3477 152.184C64.3398 150.98 65.7852 150.379 67.6836 150.379C69.5742 150.379 71 150.977 71.9609 152.172C72.9297 153.359 73.4141 155.105 73.4141 157.41C73.4141 159.738 72.9297 161.5 71.9609 162.695C70.9922 163.891 69.5586 164.488 67.6602 164.488C65.7773 164.488 64.3398 163.891 63.3477 162.695ZM79.3555 166H81.3477V158.676H88.4492V156.906H81.3477V150.637H88.9062V148.867H79.3555V166ZM91.7539 166H101.305V164.219H93.7461V157.914H100.848V156.156H93.7461V150.637H101.305V148.867H91.7539V166ZM113.141 164.969C114.234 164.125 114.781 162.949 114.781 161.441C114.781 160.27 114.441 159.316 113.762 158.582C113.09 157.848 111.855 157.16 110.059 156.52C108.988 156.137 108.191 155.789 107.668 155.477C107.152 155.156 106.785 154.809 106.566 154.434C106.348 154.051 106.238 153.562 106.238 152.969C106.238 152.164 106.535 151.535 107.129 151.082C107.723 150.629 108.547 150.402 109.602 150.402C110.938 150.402 112.312 150.699 113.727 151.293L114.348 149.559C112.918 148.934 111.352 148.621 109.648 148.621C108.016 148.621 106.703 149.012 105.711 149.793C104.719 150.574 104.223 151.625 104.223 152.945C104.223 154.203 104.562 155.223 105.242 156.004C105.93 156.785 107.07 157.461 108.664 158.031C109.805 158.438 110.652 158.801 111.207 159.121C111.77 159.441 112.168 159.793 112.402 160.176C112.645 160.551 112.766 161.035 112.766 161.629C112.766 162.527 112.43 163.23 111.758 163.738C111.086 164.238 110.086 164.488 108.758 164.488C107.945 164.488 107.125 164.402 106.297 164.23C105.469 164.059 104.703 163.824 104 163.527V165.449C105.094 165.973 106.656 166.234 108.688 166.234C110.562 166.234 112.047 165.812 113.141 164.969ZM126.312 164.969C127.406 164.125 127.953 162.949 127.953 161.441C127.953 160.27 127.613 159.316 126.934 158.582C126.262 157.848 125.027 157.16 123.23 156.52C122.16 156.137 121.363 155.789 120.84 155.477C120.324 155.156 119.957 154.809 119.738 154.434C119.52 154.051 119.41 153.562 119.41 152.969C119.41 152.164 119.707 151.535 120.301 151.082C120.895 150.629 121.719 150.402 122.773 150.402C124.109 150.402 125.484 150.699 126.898 151.293L127.52 149.559C126.09 148.934 124.523 148.621 122.82 148.621C121.188 148.621 119.875 149.012 118.883 149.793C117.891 150.574 117.395 151.625 117.395 152.945C117.395 154.203 117.734 155.223 118.414 156.004C119.102 156.785 120.242 157.461 121.836 158.031C122.977 158.438 123.824 158.801 124.379 159.121C124.941 159.441 125.34 159.793 125.574 160.176C125.816 160.551 125.938 161.035 125.938 161.629C125.938 162.527 125.602 163.23 124.93 163.738C124.258 164.238 123.258 164.488 121.93 164.488C121.117 164.488 120.297 164.402 119.469 164.23C118.641 164.059 117.875 163.824 117.172 163.527V165.449C118.266 165.973 119.828 166.234 121.859 166.234C123.734 166.234 125.219 165.812 126.312 164.969ZM131.457 148.867V166H133.449V148.867H131.457ZM150.945 163.879C152.336 162.309 153.031 160.152 153.031 157.41C153.031 154.66 152.34 152.504 150.957 150.941C149.574 149.379 147.652 148.598 145.191 148.598C142.66 148.598 140.707 149.367 139.332 150.906C137.957 152.438 137.27 154.598 137.27 157.387C137.27 160.199 137.953 162.379 139.32 163.926C140.695 165.465 142.645 166.234 145.168 166.234C147.637 166.234 149.562 165.449 150.945 163.879ZM140.855 162.695C139.871 161.492 139.379 159.73 139.379 157.41C139.379 155.121 139.871 153.379 140.855 152.184C141.848 150.98 143.293 150.379 145.191 150.379C147.082 150.379 148.508 150.977 149.469 152.172C150.438 153.359 150.922 155.105 150.922 157.41C150.922 159.738 150.438 161.5 149.469 162.695C148.5 163.891 147.066 164.488 145.168 164.488C143.285 164.488 141.848 163.891 140.855 162.695ZM167.973 166H170.246V148.867H168.383V158.699C168.367 159.191 168.387 160.012 168.441 161.16C168.496 162.301 168.531 162.977 168.547 163.188H168.453L159.113 148.867H156.863V166H158.703V156.262C158.703 154.855 158.641 153.309 158.516 151.621H158.609L167.973 166ZM183.594 160.551L185.727 166H187.789L181.051 148.797H179.375L172.602 166H174.617L176.727 160.551H183.594ZM180.98 153.449L182.973 158.758H177.43L179.445 153.449C179.766 152.551 180.012 151.727 180.184 150.977C180.457 151.953 180.723 152.777 180.98 153.449ZM190.145 148.867V166H199.695V164.195H192.137V148.867H190.145Z" fill="#AED581"/>
<defs>
<linearGradient id="paint0_linear" x1="7.68831" y1="7.97391" x2="247.127" y2="281.126" gradientUnits="userSpaceOnUse">
<stop stop-color="#768EA6"/>
<stop offset="1" stop-color="#5B6D80"/>
</linearGradient>
</defs>
</svg>
