<svg width="296" height="262" viewBox="0 0 296 262" fill="none" xmlns="http://www.w3.org/2000/svg">
<rect width="296" height="262" fill="url(#paint0_linear)"/>
<path fill-rule="evenodd" clip-rule="evenodd" d="M101 96H24V138H101V96ZM45.709 127.539C47.2585 126.344 48.0332 124.678 48.0332 122.542C48.0332 120.882 47.5518 119.532 46.5889 118.491C45.637 117.451 43.8883 116.477 41.3428 115.569C39.8265 115.027 38.6976 114.535 37.9561 114.092C37.2256 113.638 36.7054 113.146 36.3955 112.614C36.0856 112.072 35.9307 111.38 35.9307 110.539C35.9307 109.399 36.3512 108.508 37.1924 107.866C38.0335 107.224 39.2012 106.903 40.6953 106.903C42.5879 106.903 44.5358 107.324 46.5391 108.165L47.4189 105.708C45.3936 104.823 43.1745 104.38 40.7617 104.38C38.4486 104.38 36.5892 104.933 35.1836 106.04C33.778 107.147 33.0752 108.635 33.0752 110.506C33.0752 112.288 33.5566 113.732 34.5195 114.839C35.4935 115.946 37.1094 116.903 39.3672 117.711C40.9831 118.286 42.1839 118.801 42.9697 119.255C43.7666 119.709 44.3311 120.207 44.6631 120.749C45.0062 121.28 45.1777 121.966 45.1777 122.808C45.1777 124.08 44.7018 125.076 43.75 125.796C42.7982 126.504 41.3815 126.858 39.5 126.858C38.349 126.858 37.1868 126.737 36.0137 126.493C34.8405 126.25 33.7559 125.918 32.7598 125.497V128.22C34.3092 128.961 36.5228 129.332 39.4004 129.332C42.0566 129.332 44.1595 128.734 45.709 127.539ZM72.1885 124.584C73.4391 122.525 74.0645 119.941 74.0645 116.831C74.0645 112.935 73.085 109.881 71.126 107.667C69.167 105.453 66.4443 104.347 62.958 104.347C59.3721 104.347 56.6051 105.437 54.6572 107.617C52.7093 109.786 51.7354 112.847 51.7354 116.798C51.7354 120.782 52.7038 123.87 54.6406 126.062C56.5885 128.242 59.3499 129.332 62.9248 129.332L63.8379 129.299L68.5693 134.777H72.6699L66.8926 128.768C69.1725 128.037 70.9378 126.643 72.1885 124.584ZM56.8154 124.318C55.4209 122.614 54.7236 120.118 54.7236 116.831C54.7236 113.588 55.4209 111.12 56.8154 109.427C58.221 107.722 60.2686 106.87 62.958 106.87C65.6364 106.87 67.6562 107.717 69.0176 109.41C70.39 111.092 71.0762 113.566 71.0762 116.831C71.0762 120.129 70.39 122.625 69.0176 124.318C67.6452 126.012 65.6143 126.858 62.9248 126.858C60.2575 126.858 58.221 126.012 56.8154 124.318ZM79.4932 104.729V129H93.0234V126.443H82.3154V104.729H79.4932ZM33.3555 166H35.3477V158.676H42.4492V156.906H35.3477V150.637H42.9062V148.867H33.3555V166ZM58.6914 159.953V148.867H56.6992V160.023C56.6992 161.461 56.3086 162.566 55.5273 163.34C54.7461 164.105 53.6328 164.488 52.1875 164.488C50.6719 164.488 49.5234 164.105 48.7422 163.34C47.9609 162.574 47.5703 161.477 47.5703 160.047V148.867H45.5781V159.906C45.5781 161.875 46.1406 163.422 47.2656 164.547C48.3984 165.672 49.9961 166.234 52.0586 166.234C54.1211 166.234 55.7422 165.676 56.9219 164.559C58.1016 163.441 58.6914 161.906 58.6914 159.953ZM74.3477 166H76.6211V148.867H74.7578V158.699C74.7422 159.191 74.7617 160.012 74.8164 161.16C74.8711 162.301 74.9062 162.977 74.9219 163.188H74.8281L65.4883 148.867H63.2383V166H65.0781V156.262C65.0781 154.855 65.0156 153.309 64.8906 151.621H64.9844L74.3477 166ZM92.6992 163.762C94.2383 162.262 95.0078 160.098 95.0078 157.27C95.0078 154.621 94.2695 152.559 92.793 151.082C91.3164 149.605 89.2461 148.867 86.582 148.867H81.332V166H86.0781C88.9609 166 91.168 165.254 92.6992 163.762ZM91.2109 152.289C92.3359 153.422 92.8984 155.105 92.8984 157.34C92.8984 159.629 92.3008 161.359 91.1055 162.531C89.9102 163.695 88.125 164.277 85.75 164.277H83.3242V150.59H86.2188C88.4297 150.59 90.0938 151.156 91.2109 152.289ZM107.477 160.551L109.609 166H111.672L104.934 148.797H103.258L96.4844 166H98.5L100.609 160.551H107.477ZM104.863 153.449L106.855 158.758H101.312L103.328 153.449C103.648 152.551 103.895 151.727 104.066 150.977C104.34 151.953 104.605 152.777 104.863 153.449ZM115.797 150.812L121.609 166H123.215L129.074 150.836H129.168C129.059 152.32 129.004 153.695 129.004 154.961V166H130.996V148.867H128.02L122.547 163H122.453L117.027 148.867H114.027V166H115.867V155.102C115.867 153.445 115.812 152.016 115.703 150.812H115.797ZM135.707 166H145.258V164.219H137.699V157.914H144.801V156.156H137.699V150.637H145.258V148.867H135.707V166ZM160.176 166H162.449V148.867H160.586V158.699C160.57 159.191 160.59 160.012 160.645 161.16C160.699 162.301 160.734 162.977 160.75 163.188H160.656L151.316 148.867H149.066V166H150.906V156.262C150.906 154.855 150.844 153.309 150.719 151.621H150.812L160.176 166ZM170.441 166H172.434V150.637H177.859V148.867H165.016V150.637H170.441V166ZM189.086 160.551L191.219 166H193.281L186.543 148.797H184.867L178.094 166H180.109L182.219 160.551H189.086ZM186.473 153.449L188.465 158.758H182.922L184.938 153.449C185.258 152.551 185.504 151.727 185.676 150.977C185.949 151.953 186.215 152.777 186.473 153.449ZM195.637 148.867V166H205.188V164.195H197.629V148.867H195.637ZM216.133 164.969C217.227 164.125 217.773 162.949 217.773 161.441C217.773 160.27 217.434 159.316 216.754 158.582C216.082 157.848 214.848 157.16 213.051 156.52C211.98 156.137 211.184 155.789 210.66 155.477C210.145 155.156 209.777 154.809 209.559 154.434C209.34 154.051 209.23 153.562 209.23 152.969C209.23 152.164 209.527 151.535 210.121 151.082C210.715 150.629 211.539 150.402 212.594 150.402C213.93 150.402 215.305 150.699 216.719 151.293L217.34 149.559C215.91 148.934 214.344 148.621 212.641 148.621C211.008 148.621 209.695 149.012 208.703 149.793C207.711 150.574 207.215 151.625 207.215 152.945C207.215 154.203 207.555 155.223 208.234 156.004C208.922 156.785 210.062 157.461 211.656 158.031C212.797 158.438 213.645 158.801 214.199 159.121C214.762 159.441 215.16 159.793 215.395 160.176C215.637 160.551 215.758 161.035 215.758 161.629C215.758 162.527 215.422 163.23 214.75 163.738C214.078 164.238 213.078 164.488 211.75 164.488C210.938 164.488 210.117 164.402 209.289 164.23C208.461 164.059 207.695 163.824 206.992 163.527V165.449C208.086 165.973 209.648 166.234 211.68 166.234C213.555 166.234 215.039 165.812 216.133 164.969Z" fill="#FFAB91"/>
<defs>
<linearGradient id="paint0_linear" x1="7.68831" y1="7.97391" x2="247.127" y2="281.126" gradientUnits="userSpaceOnUse">
<stop stop-color="#768EA6"/>
<stop offset="1" stop-color="#5B6D80"/>
</linearGradient>
</defs>
</svg>
