<svg width="296" height="262" viewBox="0 0 296 262" fill="none" xmlns="http://www.w3.org/2000/svg">
<rect width="296" height="262" fill="url(#paint0_linear)"/>
<path fill-rule="evenodd" clip-rule="evenodd" d="M39.9922 107.953L42.125 113.402H44.1875L37.4492 96.1992H35.7734L29 113.402H31.0156L33.125 107.953H39.9922ZM37.3789 100.852L39.3711 106.16H33.8281L35.8438 100.852C36.1641 99.9531 36.4102 99.1289 36.582 98.3789C36.8555 99.3555 37.1211 100.18 37.3789 100.852ZM57.9102 111.164C59.4492 109.664 60.2188 107.5 60.2188 104.672C60.2188 102.023 59.4805 99.9609 58.0039 98.4844C56.5273 97.0078 54.457 96.2695 51.793 96.2695H46.543V113.402H51.2891C54.1719 113.402 56.3789 112.656 57.9102 111.164ZM56.4219 99.6914C57.5469 100.824 58.1094 102.508 58.1094 104.742C58.1094 107.031 57.5117 108.762 56.3164 109.934C55.1211 111.098 53.3359 111.68 50.9609 111.68H48.5352V97.9922H51.4297C53.6406 97.9922 55.3047 98.5586 56.4219 99.6914ZM75.9805 96.2695H73.8359L69.9219 107.285C69.4688 108.543 69.1016 109.805 68.8203 111.07C68.5547 109.867 68.1953 108.629 67.7422 107.355L63.8047 96.2695H61.6953L67.8359 113.402H69.8047L75.9805 96.2695ZM78.125 110.977C77.8906 111.242 77.7734 111.637 77.7734 112.16C77.7734 112.723 77.9023 113.129 78.1602 113.379C78.4258 113.621 78.7578 113.742 79.1562 113.742C79.6016 113.742 79.9531 113.605 80.2109 113.332C80.4688 113.059 80.5977 112.668 80.5977 112.16C80.5977 111.637 80.4688 111.242 80.2109 110.977C79.9609 110.703 79.6094 110.566 79.1562 110.566C78.7109 110.566 78.3672 110.703 78.125 110.977ZM100.062 105.27C101.25 104.332 101.844 102.996 101.844 101.262C101.844 97.9336 99.7031 96.2695 95.4219 96.2695H90.9805V113.402H92.9727V106.664H94.9883C97.1914 106.664 98.8828 106.199 100.062 105.27ZM94.7656 104.953H92.9727V97.9922H95.1992C96.7695 97.9922 97.9258 98.2695 98.668 98.8242C99.4102 99.3789 99.7812 100.223 99.7812 101.355C99.7812 102.613 99.3867 103.527 98.5977 104.098C97.8086 104.668 96.5312 104.953 94.7656 104.953ZM107.434 113.402V106.277H111.008L115.156 113.402H117.512L112.859 105.703C115.156 104.906 116.305 103.375 116.305 101.109C116.305 99.4922 115.801 98.2812 114.793 97.4766C113.793 96.6719 112.242 96.2695 110.141 96.2695H105.441V113.402H107.434ZM110.164 104.566H107.434V98.0156H110.023C111.5 98.0156 112.57 98.2656 113.234 98.7656C113.906 99.2656 114.242 100.082 114.242 101.215C114.242 102.332 113.914 103.172 113.258 103.734C112.602 104.289 111.57 104.566 110.164 104.566ZM133.062 111.281C134.453 109.711 135.148 107.555 135.148 104.812C135.148 102.062 134.457 99.9062 133.074 98.3438C131.691 96.7812 129.77 96 127.309 96C124.777 96 122.824 96.7695 121.449 98.3086C120.074 99.8398 119.387 102 119.387 104.789C119.387 107.602 120.07 109.781 121.438 111.328C122.812 112.867 124.762 113.637 127.285 113.637C129.754 113.637 131.68 112.852 133.062 111.281ZM122.973 110.098C121.988 108.895 121.496 107.133 121.496 104.812C121.496 102.523 121.988 100.781 122.973 99.5859C123.965 98.3828 125.41 97.7812 127.309 97.7812C129.199 97.7812 130.625 98.3789 131.586 99.5742C132.555 100.762 133.039 102.508 133.039 104.812C133.039 107.141 132.555 108.902 131.586 110.098C130.617 111.293 129.184 111.891 127.285 111.891C125.402 111.891 123.965 111.293 122.973 110.098ZM134.75 117.598C135.172 117.809 135.75 117.914 136.484 117.914C137.891 117.914 138.969 117.504 139.719 116.684C140.469 115.871 140.844 114.723 140.844 113.238V96.2695H138.852V113.402C138.852 114.285 138.648 114.961 138.242 115.43C137.844 115.898 137.258 116.133 136.484 116.133C135.883 116.133 135.305 116.055 134.75 115.898V117.598ZM145.402 113.402H154.953V111.621H147.395V105.316H154.496V103.559H147.395V98.0391H154.953V96.2695H145.402V113.402ZM161.633 99.6914C162.727 98.4336 164.215 97.8047 166.098 97.8047C167.395 97.8047 168.691 98.1094 169.988 98.7188L170.832 97.0078C169.488 96.3516 167.918 96.0234 166.121 96.0234C164.434 96.0234 162.965 96.3828 161.715 97.1016C160.473 97.8203 159.52 98.8438 158.855 100.172C158.199 101.5 157.871 103.047 157.871 104.812C157.871 107.633 158.555 109.809 159.922 111.34C161.297 112.871 163.246 113.637 165.77 113.637C167.512 113.637 168.977 113.414 170.164 112.969V111.223C168.633 111.652 167.27 111.867 166.074 111.867C164.129 111.867 162.629 111.258 161.574 110.039C160.527 108.812 160.004 107.078 160.004 104.836C160.004 102.656 160.547 100.941 161.633 99.6914ZM177.184 113.402H179.176V98.0391H184.602V96.2695H171.758V98.0391H177.184V113.402ZM34.8438 135.887L43.0781 157.402H45.3525L53.6533 135.92H53.7861C53.6312 138.023 53.5537 139.971 53.5537 141.764V157.402H56.376V133.131H52.1592L44.4062 153.152H44.2734L36.5869 133.131H32.3369V157.402H34.9434V141.963C34.9434 139.617 34.8659 137.591 34.7109 135.887H34.8438ZM75.2852 149.683L78.3066 157.402H81.2285L71.6826 133.031H69.3086L59.7129 157.402H62.5684L65.5566 149.683H75.2852ZM71.583 139.622L74.4053 147.143H66.5527L69.4082 139.622C69.862 138.349 70.2106 137.182 70.4541 136.119C70.8415 137.503 71.2178 138.67 71.583 139.622ZM100.304 157.402H103.524V133.131H100.885V147.06C100.863 147.757 100.89 148.919 100.968 150.546C101.045 152.162 101.095 153.119 101.117 153.418H100.984L87.7529 133.131H84.5654V157.402H87.1719V143.606C87.1719 141.614 87.0833 139.423 86.9062 137.032H87.0391L100.304 157.402ZM122.434 149.683L125.455 157.402H128.377L118.831 133.031H116.457L106.861 157.402H109.717L112.705 149.683H122.434ZM118.731 139.622L121.554 147.143H113.701L116.557 139.622C117.01 138.349 117.359 137.182 117.603 136.119C117.99 137.503 118.366 138.67 118.731 139.622ZM150.64 144.686H142.389V147.209H147.817V154.68C146.213 155.067 144.569 155.261 142.887 155.261C139.788 155.261 137.436 154.414 135.831 152.721C134.237 151.027 133.44 148.543 133.44 145.267C133.44 142.146 134.271 139.705 135.931 137.945C137.591 136.186 139.898 135.306 142.854 135.306C144.879 135.306 146.987 135.771 149.179 136.7L150.274 134.21C148.039 133.258 145.626 132.782 143.036 132.782C140.479 132.782 138.249 133.286 136.346 134.293C134.442 135.289 132.981 136.739 131.963 138.643C130.956 140.535 130.452 142.743 130.452 145.267C130.452 149.207 131.476 152.272 133.523 154.464C135.571 156.644 138.432 157.734 142.106 157.734C143.855 157.734 145.394 157.629 146.722 157.419C148.05 157.209 149.356 156.899 150.64 156.489V144.686ZM156.483 157.402H170.014V154.879H159.306V145.947H169.366V143.457H159.306V135.638H170.014V133.131H156.483V157.402ZM177.916 135.887L186.15 157.402H188.425L196.726 135.92H196.858C196.703 138.023 196.626 139.971 196.626 141.764V157.402H199.448V133.131H195.231L187.479 153.152H187.346L179.659 133.131H175.409V157.402H178.016V141.963C178.016 139.617 177.938 137.591 177.783 135.887H177.916ZM206.122 157.402H219.652V154.879H208.944V145.947H219.005V143.457H208.944V135.638H219.652V133.131H206.122V157.402ZM240.786 157.402H244.007V133.131H241.367V147.06C241.345 147.757 241.373 148.919 241.45 150.546C241.528 152.162 241.577 153.119 241.6 153.418H241.467L228.235 133.131H225.048V157.402H227.654V143.606C227.654 141.614 227.566 139.423 227.389 137.032H227.521L240.786 157.402ZM255.329 157.402H258.151V135.638H265.838V133.131H247.643V135.638H255.329V157.402ZM274 123.402H24V165.402H274V123.402Z" fill="#90CAF9"/>
<defs>
<linearGradient id="paint0_linear" x1="7.68831" y1="7.97391" x2="247.127" y2="281.126" gradientUnits="userSpaceOnUse">
<stop stop-color="#768EA6"/>
<stop offset="1" stop-color="#5B6D80"/>
</linearGradient>
</defs>
</svg>
