<svg width="296" height="262" viewBox="0 0 296 262" fill="none" xmlns="http://www.w3.org/2000/svg">
<rect width="296" height="262" fill="url(#paint0_linear)"/>
<path fill-rule="evenodd" clip-rule="evenodd" d="M40.4375 105.27C41.625 104.332 42.2188 102.996 42.2188 101.262C42.2188 97.9336 40.0781 96.2695 35.7969 96.2695H31.3555V113.402H33.3477V106.664H35.3633C37.5664 106.664 39.2578 106.199 40.4375 105.27ZM35.1406 104.953H33.3477V97.9922H35.5742C37.1445 97.9922 38.3008 98.2695 39.043 98.8242C39.7852 99.3789 40.1562 100.223 40.1562 101.355C40.1562 102.613 39.7617 103.527 38.9727 104.098C38.1836 104.668 36.9062 104.953 35.1406 104.953ZM47.8086 113.402V106.277H51.3828L55.5312 113.402H57.8867L53.2344 105.703C55.5312 104.906 56.6797 103.375 56.6797 101.109C56.6797 99.4922 56.1758 98.2812 55.168 97.4766C54.168 96.6719 52.6172 96.2695 50.5156 96.2695H45.8164V113.402H47.8086ZM50.5391 104.566H47.8086V98.0156H50.3984C51.875 98.0156 52.9453 98.2656 53.6094 98.7656C54.2812 99.2656 54.6172 100.082 54.6172 101.215C54.6172 102.332 54.2891 103.172 53.6328 103.734C52.9766 104.289 51.9453 104.566 50.5391 104.566ZM73.4375 111.281C74.8281 109.711 75.5234 107.555 75.5234 104.812C75.5234 102.062 74.832 99.9062 73.4492 98.3438C72.0664 96.7812 70.1445 96 67.6836 96C65.1523 96 63.1992 96.7695 61.8242 98.3086C60.4492 99.8398 59.7617 102 59.7617 104.789C59.7617 107.602 60.4453 109.781 61.8125 111.328C63.1875 112.867 65.1367 113.637 67.6602 113.637C70.1289 113.637 72.0547 112.852 73.4375 111.281ZM63.3477 110.098C62.3633 108.895 61.8711 107.133 61.8711 104.812C61.8711 102.523 62.3633 100.781 63.3477 99.5859C64.3398 98.3828 65.7852 97.7812 67.6836 97.7812C69.5742 97.7812 71 98.3789 71.9609 99.5742C72.9297 100.762 73.4141 102.508 73.4141 104.812C73.4141 107.141 72.9297 108.902 71.9609 110.098C70.9922 111.293 69.5586 111.891 67.6602 111.891C65.7773 111.891 64.3398 111.293 63.3477 110.098ZM75.125 117.598C75.5469 117.809 76.125 117.914 76.8594 117.914C78.2656 117.914 79.3438 117.504 80.0938 116.684C80.8438 115.871 81.2188 114.723 81.2188 113.238V96.2695H79.2266V113.402C79.2266 114.285 79.0234 114.961 78.6172 115.43C78.2188 115.898 77.6328 116.133 76.8594 116.133C76.2578 116.133 75.6797 116.055 75.125 115.898V117.598ZM85.7773 113.402H95.3281V111.621H87.7695V105.316H94.8711V103.559H87.7695V98.0391H95.3281V96.2695H85.7773V113.402ZM102.008 99.6914C103.102 98.4336 104.59 97.8047 106.473 97.8047C107.77 97.8047 109.066 98.1094 110.363 98.7188L111.207 97.0078C109.863 96.3516 108.293 96.0234 106.496 96.0234C104.809 96.0234 103.34 96.3828 102.09 97.1016C100.848 97.8203 99.8945 98.8438 99.2305 100.172C98.5742 101.5 98.2461 103.047 98.2461 104.812C98.2461 107.633 98.9297 109.809 100.297 111.34C101.672 112.871 103.621 113.637 106.145 113.637C107.887 113.637 109.352 113.414 110.539 112.969V111.223C109.008 111.652 107.645 111.867 106.449 111.867C104.504 111.867 103.004 111.258 101.949 110.039C100.902 108.812 100.379 107.078 100.379 104.836C100.379 102.656 100.922 100.941 102.008 99.6914ZM117.559 113.402H119.551V98.0391H124.977V96.2695H112.133V98.0391H117.559V113.402ZM34.8438 135.887L43.0781 157.402H45.3525L53.6533 135.92H53.7861C53.6312 138.023 53.5537 139.971 53.5537 141.764V157.402H56.376V133.131H52.1592L44.4062 153.152H44.2734L36.5869 133.131H32.3369V157.402H34.9434V141.963C34.9434 139.617 34.8659 137.591 34.7109 135.887H34.8438ZM75.2852 149.683L78.3066 157.402H81.2285L71.6826 133.031H69.3086L59.7129 157.402H62.5684L65.5566 149.683H75.2852ZM71.583 139.622L74.4053 147.143H66.5527L69.4082 139.622C69.862 138.349 70.2106 137.182 70.4541 136.119C70.8415 137.503 71.2178 138.67 71.583 139.622ZM100.304 157.402H103.524V133.131H100.885V147.06C100.863 147.757 100.89 148.919 100.968 150.546C101.045 152.162 101.095 153.119 101.117 153.418H100.984L87.7529 133.131H84.5654V157.402H87.1719V143.606C87.1719 141.614 87.0833 139.423 86.9062 137.032H87.0391L100.304 157.402ZM122.434 149.683L125.455 157.402H128.377L118.831 133.031H116.457L106.861 157.402H109.717L112.705 149.683H122.434ZM118.731 139.622L121.554 147.143H113.701L116.557 139.622C117.01 138.349 117.359 137.182 117.603 136.119C117.99 137.503 118.366 138.67 118.731 139.622ZM150.64 144.686H142.389V147.209H147.817V154.68C146.213 155.067 144.569 155.261 142.887 155.261C139.788 155.261 137.436 154.414 135.831 152.721C134.237 151.027 133.44 148.543 133.44 145.267C133.44 142.146 134.271 139.705 135.931 137.945C137.591 136.186 139.898 135.306 142.854 135.306C144.879 135.306 146.987 135.771 149.179 136.7L150.274 134.21C148.039 133.258 145.626 132.782 143.036 132.782C140.479 132.782 138.249 133.286 136.346 134.293C134.442 135.289 132.981 136.739 131.963 138.643C130.956 140.535 130.452 142.743 130.452 145.267C130.452 149.207 131.476 152.272 133.523 154.464C135.571 156.644 138.432 157.734 142.106 157.734C143.855 157.734 145.394 157.629 146.722 157.419C148.05 157.209 149.356 156.899 150.64 156.489V144.686ZM156.483 157.402H170.014V154.879H159.306V145.947H169.366V143.457H159.306V135.638H170.014V133.131H156.483V157.402ZM177.916 135.887L186.15 157.402H188.425L196.726 135.92H196.858C196.703 138.023 196.626 139.971 196.626 141.764V157.402H199.448V133.131H195.231L187.479 153.152H187.346L179.659 133.131H175.409V157.402H178.016V141.963C178.016 139.617 177.938 137.591 177.783 135.887H177.916ZM206.122 157.402H219.652V154.879H208.944V145.947H219.005V143.457H208.944V135.638H219.652V133.131H206.122V157.402ZM240.786 157.402H244.007V133.131H241.367V147.06C241.345 147.757 241.373 148.919 241.45 150.546C241.528 152.162 241.577 153.119 241.6 153.418H241.467L228.235 133.131H225.048V157.402H227.654V143.606C227.654 141.614 227.566 139.423 227.389 137.032H227.521L240.786 157.402ZM255.329 157.402H258.151V135.638H265.838V133.131H247.643V135.638H255.329V157.402ZM274 124.402H24V166.402H274V124.402Z" fill="#90CAF9"/>
<defs>
<linearGradient id="paint0_linear" x1="7.68831" y1="7.97391" x2="247.127" y2="281.126" gradientUnits="userSpaceOnUse">
<stop stop-color="#768EA6"/>
<stop offset="1" stop-color="#5B6D80"/>
</linearGradient>
</defs>
</svg>
