<svg width="296" height="262" viewBox="0 0 296 262" fill="none" xmlns="http://www.w3.org/2000/svg">
<rect width="296" height="262" fill="url(#paint0_linear)"/>
<path fill-rule="evenodd" clip-rule="evenodd" d="M225 96H24V138H225V96ZM32.3438 134.943C32.9414 135.242 33.7604 135.392 34.8008 135.392C36.793 135.392 38.3203 134.811 39.3828 133.648C40.4453 132.497 40.9766 130.87 40.9766 128.768V104.729H38.1543V129C38.1543 130.251 37.8665 131.208 37.291 131.872C36.7266 132.536 35.8965 132.868 34.8008 132.868C33.9486 132.868 33.1296 132.757 32.3438 132.536V134.943ZM59.6699 121.28L62.6914 129H65.6133L56.0674 104.629H53.6934L44.0977 129H46.9531L49.9414 121.28H59.6699ZM55.9678 111.22L58.79 118.74H50.9375L53.793 111.22C54.2467 109.947 54.5954 108.779 54.8389 107.717C55.2262 109.1 55.6025 110.268 55.9678 111.22ZM85.8506 104.729H82.8125L77.2676 120.334C76.6257 122.116 76.1055 123.903 75.707 125.696C75.3307 123.992 74.8216 122.238 74.1797 120.434L68.6016 104.729H65.6133L74.3125 129H77.1016L85.8506 104.729ZM101.439 121.28L104.461 129H107.383L97.8369 104.629H95.4629L85.8672 129H88.7227L91.7109 121.28H101.439ZM97.7373 111.22L100.56 118.74H92.707L95.5625 111.22C96.0163 109.947 96.3649 108.779 96.6084 107.717C96.9958 109.1 97.3721 110.268 97.7373 111.22ZM122.092 127.539C123.641 126.344 124.416 124.678 124.416 122.542C124.416 120.882 123.935 119.532 122.972 118.491C122.02 117.451 120.271 116.477 117.726 115.569C116.209 115.027 115.08 114.535 114.339 114.092C113.608 113.638 113.088 113.146 112.778 112.614C112.468 112.072 112.313 111.38 112.313 110.539C112.313 109.399 112.734 108.508 113.575 107.866C114.416 107.224 115.584 106.903 117.078 106.903C118.971 106.903 120.919 107.324 122.922 108.165L123.802 105.708C121.776 104.823 119.557 104.38 117.145 104.38C114.831 104.38 112.972 104.933 111.566 106.04C110.161 107.147 109.458 108.635 109.458 110.506C109.458 112.288 109.939 113.732 110.902 114.839C111.876 115.946 113.492 116.903 115.75 117.711C117.366 118.286 118.567 118.801 119.353 119.255C120.149 119.709 120.714 120.207 121.046 120.749C121.389 121.28 121.561 121.966 121.561 122.808C121.561 124.08 121.085 125.076 120.133 125.796C119.181 126.504 117.764 126.858 115.883 126.858C114.732 126.858 113.57 126.737 112.396 126.493C111.223 126.25 110.139 125.918 109.143 125.497V128.22C110.692 128.961 112.906 129.332 115.783 129.332C118.439 129.332 120.542 128.734 122.092 127.539ZM133.447 109.576C134.997 107.794 137.105 106.903 139.772 106.903C141.61 106.903 143.447 107.335 145.284 108.198L146.479 105.774C144.576 104.845 142.351 104.38 139.806 104.38C137.415 104.38 135.334 104.889 133.563 105.907C131.804 106.925 130.453 108.375 129.513 110.257C128.583 112.138 128.118 114.33 128.118 116.831C128.118 120.826 129.087 123.909 131.023 126.078C132.971 128.247 135.733 129.332 139.308 129.332C141.776 129.332 143.851 129.017 145.533 128.386V125.912C143.364 126.521 141.433 126.825 139.739 126.825C136.983 126.825 134.858 125.962 133.364 124.235C131.881 122.498 131.14 120.041 131.14 116.864C131.14 113.776 131.909 111.347 133.447 109.576ZM153.651 129V118.906H158.715L164.592 129H167.929L161.338 118.093C164.592 116.964 166.219 114.795 166.219 111.585C166.219 109.294 165.505 107.578 164.077 106.438C162.66 105.299 160.464 104.729 157.486 104.729H150.829V129H153.651ZM157.52 116.482H153.651V107.202H157.32C159.412 107.202 160.928 107.556 161.869 108.265C162.821 108.973 163.297 110.13 163.297 111.734C163.297 113.317 162.832 114.507 161.902 115.304C160.973 116.09 159.512 116.482 157.52 116.482ZM174.669 104.729H171.847V129H174.669V104.729ZM194.209 117.479C195.891 116.15 196.732 114.258 196.732 111.801C196.732 107.086 193.7 104.729 187.635 104.729H181.343V129H184.165V119.454H187.021C190.142 119.454 192.538 118.796 194.209 117.479ZM186.705 117.03H184.165V107.169H187.319C189.544 107.169 191.182 107.562 192.233 108.348C193.285 109.133 193.811 110.329 193.811 111.934C193.811 113.715 193.252 115.01 192.134 115.818C191.016 116.626 189.206 117.03 186.705 117.03ZM206.478 129H209.3V107.235H216.986V104.729H198.791V107.235H206.478V129ZM37.3555 166H46.9062V164.219H39.3477V157.914H46.4492V156.156H39.3477V150.637H46.9062V148.867H37.3555V166ZM58.7422 164.969C59.8359 164.125 60.3828 162.949 60.3828 161.441C60.3828 160.27 60.043 159.316 59.3633 158.582C58.6914 157.848 57.457 157.16 55.6602 156.52C54.5898 156.137 53.793 155.789 53.2695 155.477C52.7539 155.156 52.3867 154.809 52.168 154.434C51.9492 154.051 51.8398 153.562 51.8398 152.969C51.8398 152.164 52.1367 151.535 52.7305 151.082C53.3242 150.629 54.1484 150.402 55.2031 150.402C56.5391 150.402 57.9141 150.699 59.3281 151.293L59.9492 149.559C58.5195 148.934 56.9531 148.621 55.25 148.621C53.6172 148.621 52.3047 149.012 51.3125 149.793C50.3203 150.574 49.8242 151.625 49.8242 152.945C49.8242 154.203 50.1641 155.223 50.8438 156.004C51.5312 156.785 52.6719 157.461 54.2656 158.031C55.4062 158.438 56.2539 158.801 56.8086 159.121C57.3711 159.441 57.7695 159.793 58.0039 160.176C58.2461 160.551 58.3672 161.035 58.3672 161.629C58.3672 162.527 58.0312 163.23 57.3594 163.738C56.6875 164.238 55.6875 164.488 54.3594 164.488C53.5469 164.488 52.7266 164.402 51.8984 164.23C51.0703 164.059 50.3047 163.824 49.6016 163.527V165.449C50.6953 165.973 52.2578 166.234 54.2891 166.234C56.1641 166.234 57.6484 165.812 58.7422 164.969ZM71.9141 164.969C73.0078 164.125 73.5547 162.949 73.5547 161.441C73.5547 160.27 73.2148 159.316 72.5352 158.582C71.8633 157.848 70.6289 157.16 68.832 156.52C67.7617 156.137 66.9648 155.789 66.4414 155.477C65.9258 155.156 65.5586 154.809 65.3398 154.434C65.1211 154.051 65.0117 153.562 65.0117 152.969C65.0117 152.164 65.3086 151.535 65.9023 151.082C66.4961 150.629 67.3203 150.402 68.375 150.402C69.7109 150.402 71.0859 150.699 72.5 151.293L73.1211 149.559C71.6914 148.934 70.125 148.621 68.4219 148.621C66.7891 148.621 65.4766 149.012 64.4844 149.793C63.4922 150.574 62.9961 151.625 62.9961 152.945C62.9961 154.203 63.3359 155.223 64.0156 156.004C64.7031 156.785 65.8438 157.461 67.4375 158.031C68.5781 158.438 69.4258 158.801 69.9805 159.121C70.543 159.441 70.9414 159.793 71.1758 160.176C71.418 160.551 71.5391 161.035 71.5391 161.629C71.5391 162.527 71.2031 163.23 70.5312 163.738C69.8594 164.238 68.8594 164.488 67.5312 164.488C66.7188 164.488 65.8984 164.402 65.0703 164.23C64.2422 164.059 63.4766 163.824 62.7734 163.527V165.449C63.8672 165.973 65.4297 166.234 67.4609 166.234C69.3359 166.234 70.8203 165.812 71.9141 164.969ZM77.0586 166H86.6094V164.219H79.0508V157.914H86.1523V156.156H79.0508V150.637H86.6094V148.867H77.0586V166ZM101.527 166H103.801V148.867H101.938V158.699C101.922 159.191 101.941 160.012 101.996 161.16C102.051 162.301 102.086 162.977 102.102 163.188H102.008L92.668 148.867H90.418V166H92.2578V156.262C92.2578 154.855 92.1953 153.309 92.0703 151.621H92.1641L101.527 166ZM111.793 166H113.785V150.637H119.211V148.867H106.367V150.637H111.793V166ZM121.801 148.867V166H123.793V148.867H121.801ZM137.141 160.551L139.273 166H141.336L134.598 148.797H132.922L126.148 166H128.164L130.273 160.551H137.141ZM134.527 153.449L136.52 158.758H130.977L132.992 153.449C133.312 152.551 133.559 151.727 133.73 150.977C134.004 151.953 134.27 152.777 134.527 153.449ZM143.691 148.867V166H153.242V164.195H145.684V148.867H143.691ZM164.188 164.969C165.281 164.125 165.828 162.949 165.828 161.441C165.828 160.27 165.488 159.316 164.809 158.582C164.137 157.848 162.902 157.16 161.105 156.52C160.035 156.137 159.238 155.789 158.715 155.477C158.199 155.156 157.832 154.809 157.613 154.434C157.395 154.051 157.285 153.562 157.285 152.969C157.285 152.164 157.582 151.535 158.176 151.082C158.77 150.629 159.594 150.402 160.648 150.402C161.984 150.402 163.359 150.699 164.773 151.293L165.395 149.559C163.965 148.934 162.398 148.621 160.695 148.621C159.062 148.621 157.75 149.012 156.758 149.793C155.766 150.574 155.27 151.625 155.27 152.945C155.27 154.203 155.609 155.223 156.289 156.004C156.977 156.785 158.117 157.461 159.711 158.031C160.852 158.438 161.699 158.801 162.254 159.121C162.816 159.441 163.215 159.793 163.449 160.176C163.691 160.551 163.812 161.035 163.812 161.629C163.812 162.527 163.477 163.23 162.805 163.738C162.133 164.238 161.133 164.488 159.805 164.488C158.992 164.488 158.172 164.402 157.344 164.23C156.516 164.059 155.75 163.824 155.047 163.527V165.449C156.141 165.973 157.703 166.234 159.734 166.234C161.609 166.234 163.094 165.812 164.188 164.969Z" fill="#E1BEE7"/>
<defs>
<linearGradient id="paint0_linear" x1="7.68831" y1="7.97391" x2="247.127" y2="281.126" gradientUnits="userSpaceOnUse">
<stop stop-color="#768EA6"/>
<stop offset="1" stop-color="#5B6D80"/>
</linearGradient>
</defs>
</svg>
