<svg width="296" height="262" viewBox="0 0 296 262" fill="none" xmlns="http://www.w3.org/2000/svg">
<rect width="296" height="262" fill="url(#paint0_linear)"/>
<path fill-rule="evenodd" clip-rule="evenodd" d="M39.1953 96.2461H34.3555V113.379H40.332C42.1914 113.379 43.6367 112.949 44.668 112.09C45.707 111.23 46.2266 110.035 46.2266 108.504C46.2266 106.215 44.9258 104.848 42.3242 104.402V104.285C43.4102 104.09 44.2344 103.664 44.7969 103.008C45.3672 102.344 45.6523 101.504 45.6523 100.488C45.6523 99.0195 45.1445 97.9453 44.1289 97.2656C43.1133 96.5859 41.4688 96.2461 39.1953 96.2461ZM39.6289 103.582H36.3477V97.9688H39.2773C40.7773 97.9688 41.8711 98.1836 42.5586 98.6133C43.2461 99.0352 43.5898 99.7266 43.5898 100.688C43.5898 101.734 43.2812 102.48 42.6641 102.926C42.0469 103.363 41.0352 103.582 39.6289 103.582ZM36.3477 111.68V105.27H39.7578C41.2188 105.27 42.3047 105.52 43.0156 106.02C43.7344 106.52 44.0938 107.301 44.0938 108.363C44.0938 109.504 43.7422 110.344 43.0391 110.883C42.3438 111.414 41.3047 111.68 39.9219 111.68H36.3477ZM62.8555 107.332V96.2461H60.8633V107.402C60.8633 108.84 60.4727 109.945 59.6914 110.719C58.9102 111.484 57.7969 111.867 56.3516 111.867C54.8359 111.867 53.6875 111.484 52.9062 110.719C52.125 109.953 51.7344 108.855 51.7344 107.426V96.2461H49.7422V107.285C49.7422 109.254 50.3047 110.801 51.4297 111.926C52.5625 113.051 54.1602 113.613 56.2227 113.613C58.2852 113.613 59.9062 113.055 61.0859 111.938C62.2656 110.82 62.8555 109.285 62.8555 107.332ZM75.4297 112.348C76.5234 111.504 77.0703 110.328 77.0703 108.82C77.0703 107.648 76.7305 106.695 76.0508 105.961C75.3789 105.227 74.1445 104.539 72.3477 103.898C71.2773 103.516 70.4805 103.168 69.957 102.855C69.4414 102.535 69.0742 102.188 68.8555 101.812C68.6367 101.43 68.5273 100.941 68.5273 100.348C68.5273 99.543 68.8242 98.9141 69.418 98.4609C70.0117 98.0078 70.8359 97.7812 71.8906 97.7812C73.2266 97.7812 74.6016 98.0781 76.0156 98.6719L76.6367 96.9375C75.207 96.3125 73.6406 96 71.9375 96C70.3047 96 68.9922 96.3906 68 97.1719C67.0078 97.9531 66.5117 99.0039 66.5117 100.324C66.5117 101.582 66.8516 102.602 67.5312 103.383C68.2188 104.164 69.3594 104.84 70.9531 105.41C72.0938 105.816 72.9414 106.18 73.4961 106.5C74.0586 106.82 74.457 107.172 74.6914 107.555C74.9336 107.93 75.0547 108.414 75.0547 109.008C75.0547 109.906 74.7188 110.609 74.0469 111.117C73.375 111.617 72.375 111.867 71.0469 111.867C70.2344 111.867 69.4141 111.781 68.5859 111.609C67.7578 111.438 66.9922 111.203 66.2891 110.906V112.828C67.3828 113.352 68.9453 113.613 70.9766 113.613C72.8516 113.613 74.3359 113.191 75.4297 112.348ZM80.5742 96.2461V113.379H82.5664V96.2461H80.5742ZM98.3867 113.379H100.66V96.2461H98.7969V106.078C98.7812 106.57 98.8008 107.391 98.8555 108.539C98.9102 109.68 98.9453 110.355 98.9609 110.566H98.8672L89.5273 96.2461H87.2773V113.379H89.1172V103.641C89.1172 102.234 89.0547 100.688 88.9297 99H89.0234L98.3867 113.379ZM105.371 113.379H114.922V111.598H107.363V105.293H114.465V103.535H107.363V98.0156H114.922V96.2461H105.371V113.379ZM126.758 112.348C127.852 111.504 128.398 110.328 128.398 108.82C128.398 107.648 128.059 106.695 127.379 105.961C126.707 105.227 125.473 104.539 123.676 103.898C122.605 103.516 121.809 103.168 121.285 102.855C120.77 102.535 120.402 102.188 120.184 101.812C119.965 101.43 119.855 100.941 119.855 100.348C119.855 99.543 120.152 98.9141 120.746 98.4609C121.34 98.0078 122.164 97.7812 123.219 97.7812C124.555 97.7812 125.93 98.0781 127.344 98.6719L127.965 96.9375C126.535 96.3125 124.969 96 123.266 96C121.633 96 120.32 96.3906 119.328 97.1719C118.336 97.9531 117.84 99.0039 117.84 100.324C117.84 101.582 118.18 102.602 118.859 103.383C119.547 104.164 120.688 104.84 122.281 105.41C123.422 105.816 124.27 106.18 124.824 106.5C125.387 106.82 125.785 107.172 126.02 107.555C126.262 107.93 126.383 108.414 126.383 109.008C126.383 109.906 126.047 110.609 125.375 111.117C124.703 111.617 123.703 111.867 122.375 111.867C121.562 111.867 120.742 111.781 119.914 111.609C119.086 111.438 118.32 111.203 117.617 110.906V112.828C118.711 113.352 120.273 113.613 122.305 113.613C124.18 113.613 125.664 113.191 126.758 112.348ZM139.93 112.348C141.023 111.504 141.57 110.328 141.57 108.82C141.57 107.648 141.23 106.695 140.551 105.961C139.879 105.227 138.645 104.539 136.848 103.898C135.777 103.516 134.98 103.168 134.457 102.855C133.941 102.535 133.574 102.188 133.355 101.812C133.137 101.43 133.027 100.941 133.027 100.348C133.027 99.543 133.324 98.9141 133.918 98.4609C134.512 98.0078 135.336 97.7812 136.391 97.7812C137.727 97.7812 139.102 98.0781 140.516 98.6719L141.137 96.9375C139.707 96.3125 138.141 96 136.438 96C134.805 96 133.492 96.3906 132.5 97.1719C131.508 97.9531 131.012 99.0039 131.012 100.324C131.012 101.582 131.352 102.602 132.031 103.383C132.719 104.164 133.859 104.84 135.453 105.41C136.594 105.816 137.441 106.18 137.996 106.5C138.559 106.82 138.957 107.172 139.191 107.555C139.434 107.93 139.555 108.414 139.555 109.008C139.555 109.906 139.219 110.609 138.547 111.117C137.875 111.617 136.875 111.867 135.547 111.867C134.734 111.867 133.914 111.781 133.086 111.609C132.258 111.438 131.492 111.203 130.789 110.906V112.828C131.883 113.352 133.445 113.613 135.477 113.613C137.352 113.613 138.836 113.191 139.93 112.348ZM47.5723 149.659L50.5938 157.379H53.5156L43.9697 133.008H41.5957L32 157.379H34.8555L37.8438 149.659H47.5723ZM43.8701 139.599L46.6924 147.119H38.8398L41.6953 139.599C42.1491 138.326 42.4977 137.158 42.7412 136.096C43.1286 137.479 43.5049 138.647 43.8701 139.599ZM72.5908 157.379H75.8115V133.107H73.1719V147.036C73.1497 147.733 73.1774 148.896 73.2549 150.522C73.3324 152.138 73.3822 153.096 73.4043 153.395H73.2715L60.04 133.107H56.8525V157.379H59.459V143.583C59.459 141.591 59.3704 139.399 59.1934 137.009H59.3262L72.5908 157.379ZM94.7207 149.659L97.7422 157.379H100.664L91.1182 133.008H88.7441L79.1484 157.379H82.0039L84.9922 149.659H94.7207ZM91.0186 139.599L93.8408 147.119H85.9883L88.8438 139.599C89.2975 138.326 89.6462 137.158 89.8896 136.096C90.277 137.479 90.6533 138.647 91.0186 139.599ZM104.001 133.107V157.379H117.531V154.822H106.823V133.107H104.001ZM134.315 133.107L127.841 145.243L121.416 133.107H118.328L126.413 148.099V157.379H129.269V147.966L137.37 133.107H134.315ZM152.096 155.918C153.645 154.723 154.42 153.057 154.42 150.921C154.42 149.261 153.938 147.91 152.976 146.87C152.024 145.83 150.275 144.856 147.729 143.948C146.213 143.406 145.084 142.913 144.343 142.471C143.612 142.017 143.092 141.524 142.782 140.993C142.472 140.451 142.317 139.759 142.317 138.918C142.317 137.778 142.738 136.887 143.579 136.245C144.42 135.603 145.588 135.282 147.082 135.282C148.975 135.282 150.923 135.703 152.926 136.544L153.806 134.087C151.78 133.201 149.561 132.759 147.148 132.759C144.835 132.759 142.976 133.312 141.57 134.419C140.165 135.526 139.462 137.014 139.462 138.885C139.462 140.667 139.943 142.111 140.906 143.218C141.88 144.325 143.496 145.282 145.754 146.09C147.37 146.665 148.571 147.18 149.356 147.634C150.153 148.088 150.718 148.586 151.05 149.128C151.393 149.659 151.564 150.345 151.564 151.187C151.564 152.459 151.089 153.455 150.137 154.175C149.185 154.883 147.768 155.237 145.887 155.237C144.736 155.237 143.574 155.116 142.4 154.872C141.227 154.629 140.143 154.297 139.146 153.876V156.599C140.696 157.34 142.91 157.711 145.787 157.711C148.443 157.711 150.546 157.113 152.096 155.918ZM162.206 133.107H159.384V157.379H162.206V133.107ZM180.252 155.918C181.801 154.723 182.576 153.057 182.576 150.921C182.576 149.261 182.095 147.91 181.132 146.87C180.18 145.83 178.431 144.856 175.886 143.948C174.369 143.406 173.241 142.913 172.499 142.471C171.769 142.017 171.248 141.524 170.938 140.993C170.629 140.451 170.474 139.759 170.474 138.918C170.474 137.778 170.894 136.887 171.735 136.245C172.576 135.603 173.744 135.282 175.238 135.282C177.131 135.282 179.079 135.703 181.082 136.544L181.962 134.087C179.937 133.201 177.717 132.759 175.305 132.759C172.992 132.759 171.132 133.312 169.727 134.419C168.321 135.526 167.618 137.014 167.618 138.885C167.618 140.667 168.1 142.111 169.062 143.218C170.036 144.325 171.652 145.282 173.91 146.09C175.526 146.665 176.727 147.18 177.513 147.634C178.31 148.088 178.874 148.586 179.206 149.128C179.549 149.659 179.721 150.345 179.721 151.187C179.721 152.459 179.245 153.455 178.293 154.175C177.341 154.883 175.924 155.237 174.043 155.237C172.892 155.237 171.73 155.116 170.557 154.872C169.383 154.629 168.299 154.297 167.303 153.876V156.599C168.852 157.34 171.066 157.711 173.943 157.711C176.6 157.711 178.702 157.113 180.252 155.918ZM191 124.379H24V166.379H191V124.379Z" fill="#80DEEA"/>
<defs>
<linearGradient id="paint0_linear" x1="7.68831" y1="7.97391" x2="247.127" y2="281.126" gradientUnits="userSpaceOnUse">
<stop stop-color="#768EA6"/>
<stop offset="1" stop-color="#5B6D80"/>
</linearGradient>
</defs>
</svg>
