<svg width="296" height="262" viewBox="0 0 296 262" fill="none" xmlns="http://www.w3.org/2000/svg">
<rect width="296" height="262" fill="url(#paint0_linear)"/>
<path fill-rule="evenodd" clip-rule="evenodd" d="M116 96H24V138H116V96ZM32.3438 134.943C32.9414 135.242 33.7604 135.392 34.8008 135.392C36.793 135.392 38.3203 134.811 39.3828 133.648C40.4453 132.497 40.9766 130.87 40.9766 128.768V104.729H38.1543V129C38.1543 130.251 37.8665 131.208 37.291 131.872C36.7266 132.536 35.8965 132.868 34.8008 132.868C33.9486 132.868 33.1296 132.757 32.3438 132.536V134.943ZM59.6699 121.28L62.6914 129H65.6133L56.0674 104.629H53.6934L44.0977 129H46.9531L49.9414 121.28H59.6699ZM55.9678 111.22L58.79 118.74H50.9375L53.793 111.22C54.2467 109.947 54.5954 108.779 54.8389 107.717C55.2262 109.1 55.6025 110.268 55.9678 111.22ZM85.8506 104.729H82.8125L77.2676 120.334C76.6257 122.116 76.1055 123.903 75.707 125.696C75.3307 123.992 74.8216 122.238 74.1797 120.434L68.6016 104.729H65.6133L74.3125 129H77.1016L85.8506 104.729ZM101.439 121.28L104.461 129H107.383L97.8369 104.629H95.4629L85.8672 129H88.7227L91.7109 121.28H101.439ZM97.7373 111.22L100.56 118.74H92.707L95.5625 111.22C96.0163 109.947 96.3649 108.779 96.6084 107.717C96.9958 109.1 97.3721 110.268 97.7373 111.22ZM46.4375 157.867C47.625 156.93 48.2188 155.594 48.2188 153.859C48.2188 150.531 46.0781 148.867 41.7969 148.867H37.3555V166H39.3477V159.262H41.3633C43.5664 159.262 45.2578 158.797 46.4375 157.867ZM41.1406 157.551H39.3477V150.59H41.5742C43.1445 150.59 44.3008 150.867 45.043 151.422C45.7852 151.977 46.1562 152.82 46.1562 153.953C46.1562 155.211 45.7617 156.125 44.9727 156.695C44.1836 157.266 42.9062 157.551 41.1406 157.551ZM53.8086 166V158.875H57.3828L61.5312 166H63.8867L59.2344 158.301C61.5312 157.504 62.6797 155.973 62.6797 153.707C62.6797 152.09 62.1758 150.879 61.168 150.074C60.168 149.27 58.6172 148.867 56.5156 148.867H51.8164V166H53.8086ZM56.5391 157.164H53.8086V150.613H56.3984C57.875 150.613 58.9453 150.863 59.6094 151.363C60.2812 151.863 60.6172 152.68 60.6172 153.812C60.6172 154.93 60.2891 155.77 59.6328 156.332C58.9766 156.887 57.9453 157.164 56.5391 157.164ZM75.2891 160.551L77.4219 166H79.4844L72.7461 148.797H71.0703L64.2969 166H66.3125L68.4219 160.551H75.2891ZM72.6758 153.449L74.668 158.758H69.125L71.1406 153.449C71.4609 152.551 71.707 151.727 71.8789 150.977C72.1523 151.953 72.418 152.777 72.6758 153.449ZM84.7109 152.289C85.8047 151.031 87.293 150.402 89.1758 150.402C90.4727 150.402 91.7695 150.707 93.0664 151.316L93.9102 149.605C92.5664 148.949 90.9961 148.621 89.1992 148.621C87.5117 148.621 86.043 148.98 84.793 149.699C83.5508 150.418 82.5977 151.441 81.9336 152.77C81.2773 154.098 80.9492 155.645 80.9492 157.41C80.9492 160.23 81.6328 162.406 83 163.938C84.375 165.469 86.3242 166.234 88.8477 166.234C90.5898 166.234 92.0547 166.012 93.2422 165.566V163.82C91.7109 164.25 90.3477 164.465 89.1523 164.465C87.207 164.465 85.707 163.855 84.6523 162.637C83.6055 161.41 83.082 159.676 83.082 157.434C83.082 155.254 83.625 153.539 84.7109 152.289ZM100.262 166H102.254V150.637H107.68V148.867H94.8359V150.637H100.262V166ZM112.262 148.867H110.27V166H112.262V148.867ZM119.844 152.289C120.938 151.031 122.426 150.402 124.309 150.402C125.605 150.402 126.902 150.707 128.199 151.316L129.043 149.605C127.699 148.949 126.129 148.621 124.332 148.621C122.645 148.621 121.176 148.98 119.926 149.699C118.684 150.418 117.73 151.441 117.066 152.77C116.41 154.098 116.082 155.645 116.082 157.41C116.082 160.23 116.766 162.406 118.133 163.938C119.508 165.469 121.457 166.234 123.98 166.234C125.723 166.234 127.188 166.012 128.375 165.566V163.82C126.844 164.25 125.48 164.465 124.285 164.465C122.34 164.465 120.84 163.855 119.785 162.637C118.738 161.41 118.215 159.676 118.215 157.434C118.215 155.254 118.758 153.539 119.844 152.289ZM132.113 166H141.664V164.219H134.105V157.914H141.207V156.156H134.105V150.637H141.664V148.867H132.113V166ZM153.699 148.867H151.707V166H153.699V148.867Z" fill="#FFAB91"/>
<defs>
<linearGradient id="paint0_linear" x1="7.68831" y1="7.97391" x2="247.127" y2="281.126" gradientUnits="userSpaceOnUse">
<stop stop-color="#768EA6"/>
<stop offset="1" stop-color="#5B6D80"/>
</linearGradient>
</defs>
</svg>
