<svg width="296" height="262" viewBox="0 0 296 262" fill="none" xmlns="http://www.w3.org/2000/svg">
<rect width="296" height="262" fill="url(#paint0_linear)"/>
<path fill-rule="evenodd" clip-rule="evenodd" d="M232 96H24V138H232V96ZM32.3369 104.729V129H45.8672V126.443H35.1592V104.729H32.3369ZM50.001 129H63.5312V126.477H52.8232V117.545H62.8838V115.055H52.8232V107.235H63.5312V104.729H50.001V129ZM81.1621 121.28L84.1836 129H87.1055L77.5596 104.629H75.1855L65.5898 129H68.4453L71.4336 121.28H81.1621ZM77.46 111.22L80.2822 118.74H72.4297L75.2852 111.22C75.7389 109.947 76.0876 108.779 76.3311 107.717C76.7184 109.1 77.0947 110.268 77.46 111.22ZM106.546 125.829C108.726 123.704 109.816 120.638 109.816 116.632C109.816 112.88 108.771 109.958 106.679 107.866C104.587 105.774 101.654 104.729 97.8799 104.729H90.4424V129H97.166C101.25 129 104.377 127.943 106.546 125.829ZM104.438 109.576C106.031 111.181 106.828 113.566 106.828 116.731C106.828 119.974 105.981 122.426 104.288 124.086C102.595 125.735 100.066 126.56 96.7012 126.56H93.2646V107.169H97.3652C100.497 107.169 102.855 107.971 104.438 109.576ZM115.245 129H128.775V126.477H118.067V117.545H128.128V115.055H118.067V107.235H128.775V104.729H115.245V129ZM136.993 129V118.906H142.057L147.934 129H151.271L144.68 118.093C147.934 116.964 149.561 114.795 149.561 111.585C149.561 109.294 148.847 107.578 147.419 106.438C146.002 105.299 143.805 104.729 140.828 104.729H134.171V129H136.993ZM140.861 116.482H136.993V107.202H140.662C142.754 107.202 144.27 107.556 145.211 108.265C146.163 108.973 146.639 110.13 146.639 111.734C146.639 113.317 146.174 114.507 145.244 115.304C144.314 116.09 142.854 116.482 140.861 116.482ZM166.561 127.539C168.11 126.344 168.885 124.678 168.885 122.542C168.885 120.882 168.403 119.532 167.44 118.491C166.489 117.451 164.74 116.477 162.194 115.569C160.678 115.027 159.549 114.535 158.808 114.092C158.077 113.638 157.557 113.146 157.247 112.614C156.937 112.072 156.782 111.38 156.782 110.539C156.782 109.399 157.203 108.508 158.044 107.866C158.885 107.224 160.053 106.903 161.547 106.903C163.439 106.903 165.387 107.324 167.391 108.165L168.271 105.708C166.245 104.823 164.026 104.38 161.613 104.38C159.3 104.38 157.441 104.933 156.035 106.04C154.63 107.147 153.927 108.635 153.927 110.506C153.927 112.288 154.408 113.732 155.371 114.839C156.345 115.946 157.961 116.903 160.219 117.711C161.835 118.286 163.035 118.801 163.821 119.255C164.618 119.709 165.183 120.207 165.515 120.749C165.858 121.28 166.029 121.966 166.029 122.808C166.029 124.08 165.553 125.076 164.602 125.796C163.65 126.504 162.233 126.858 160.352 126.858C159.201 126.858 158.038 126.737 156.865 126.493C155.692 126.25 154.607 125.918 153.611 125.497V128.22C155.161 128.961 157.374 129.332 160.252 129.332C162.908 129.332 165.011 128.734 166.561 127.539ZM189.454 129H192.276V104.729H189.454V115.055H176.671V104.729H173.849V129H176.671V117.578H189.454V129ZM198.95 104.729V129H201.772V104.729H198.95ZM221.312 117.479C222.995 116.15 223.836 114.258 223.836 111.801C223.836 107.086 220.803 104.729 214.738 104.729H208.446V129H211.269V119.454H214.124C217.245 119.454 219.641 118.796 221.312 117.479ZM213.809 117.03H211.269V107.169H214.423C216.647 107.169 218.285 107.562 219.337 108.348C220.388 109.133 220.914 110.329 220.914 111.934C220.914 113.715 220.355 115.01 219.237 115.818C218.119 116.626 216.31 117.03 213.809 117.03ZM34.6367 166H36.6289V150.637H42.0547V148.867H29.2109V150.637H34.6367V166ZM44.6445 166H54.1953V164.219H46.6367V157.914H53.7383V156.156H46.6367V150.637H54.1953V148.867H44.6445V166ZM60.875 152.289C61.9688 151.031 63.457 150.402 65.3398 150.402C66.6367 150.402 67.9336 150.707 69.2305 151.316L70.0742 149.605C68.7305 148.949 67.1602 148.621 65.3633 148.621C63.6758 148.621 62.207 148.98 60.957 149.699C59.7148 150.418 58.7617 151.441 58.0977 152.77C57.4414 154.098 57.1133 155.645 57.1133 157.41C57.1133 160.23 57.7969 162.406 59.1641 163.938C60.5391 165.469 62.4883 166.234 65.0117 166.234C66.7539 166.234 68.2188 166.012 69.4062 165.566V163.82C67.875 164.25 66.5117 164.465 65.3164 164.465C63.3711 164.465 61.8711 163.855 60.8164 162.637C59.7695 161.41 59.2461 159.676 59.2461 157.434C59.2461 155.254 59.7891 153.539 60.875 152.289ZM84.1602 166H86.1523V148.867H84.1602V156.156H75.1367V148.867H73.1445V166H75.1367V157.938H84.1602V166ZM101.973 166H104.246V148.867H102.383V158.699C102.367 159.191 102.387 160.012 102.441 161.16C102.496 162.301 102.531 162.977 102.547 163.188H102.453L93.1133 148.867H90.8633V166H92.7031V156.262C92.7031 154.855 92.6406 153.309 92.5156 151.621H92.6094L101.973 166ZM121.742 163.879C123.133 162.309 123.828 160.152 123.828 157.41C123.828 154.66 123.137 152.504 121.754 150.941C120.371 149.379 118.449 148.598 115.988 148.598C113.457 148.598 111.504 149.367 110.129 150.906C108.754 152.438 108.066 154.598 108.066 157.387C108.066 160.199 108.75 162.379 110.117 163.926C111.492 165.465 113.441 166.234 115.965 166.234C118.434 166.234 120.359 165.449 121.742 163.879ZM111.652 162.695C110.668 161.492 110.176 159.73 110.176 157.41C110.176 155.121 110.668 153.379 111.652 152.184C112.645 150.98 114.09 150.379 115.988 150.379C117.879 150.379 119.305 150.977 120.266 152.172C121.234 153.359 121.719 155.105 121.719 157.41C121.719 159.738 121.234 161.5 120.266 162.695C119.297 163.891 117.863 164.488 115.965 164.488C114.082 164.488 112.645 163.891 111.652 162.695ZM129.652 148.867H127.66V166H137.211V164.195H129.652V148.867ZM152.914 163.879C154.305 162.309 155 160.152 155 157.41C155 154.66 154.309 152.504 152.926 150.941C151.543 149.379 149.621 148.598 147.16 148.598C144.629 148.598 142.676 149.367 141.301 150.906C139.926 152.438 139.238 154.598 139.238 157.387C139.238 160.199 139.922 162.379 141.289 163.926C142.664 165.465 144.613 166.234 147.137 166.234C149.605 166.234 151.531 165.449 152.914 163.879ZM142.824 162.695C141.84 161.492 141.348 159.73 141.348 157.41C141.348 155.121 141.84 153.379 142.824 152.184C143.816 150.98 145.262 150.379 147.16 150.379C149.051 150.379 150.477 150.977 151.438 152.172C152.406 153.359 152.891 155.105 152.891 157.41C152.891 159.738 152.406 161.5 151.438 162.695C150.469 163.891 149.035 164.488 147.137 164.488C145.254 164.488 143.816 163.891 142.824 162.695ZM172.191 157.023H166.367V158.805H170.199V164.078C169.066 164.352 167.906 164.488 166.719 164.488C164.531 164.488 162.871 163.891 161.738 162.695C160.613 161.5 160.051 159.746 160.051 157.434C160.051 155.23 160.637 153.508 161.809 152.266C162.98 151.023 164.609 150.402 166.695 150.402C168.125 150.402 169.613 150.73 171.16 151.387L171.934 149.629C170.355 148.957 168.652 148.621 166.824 148.621C165.02 148.621 163.445 148.977 162.102 149.688C160.758 150.391 159.727 151.414 159.008 152.758C158.297 154.094 157.941 155.652 157.941 157.434C157.941 160.215 158.664 162.379 160.109 163.926C161.555 165.465 163.574 166.234 166.168 166.234C167.402 166.234 168.488 166.16 169.426 166.012C170.363 165.863 171.285 165.645 172.191 165.355V157.023ZM178.309 148.867H176.316V166H178.309V148.867ZM183.02 166H192.57V164.219H185.012V157.914H192.113V156.156H185.012V150.637H192.57V148.867H183.02V166ZM204.406 164.969C205.5 164.125 206.047 162.949 206.047 161.441C206.047 160.27 205.707 159.316 205.027 158.582C204.355 157.848 203.121 157.16 201.324 156.52C200.254 156.137 199.457 155.789 198.934 155.477C198.418 155.156 198.051 154.809 197.832 154.434C197.613 154.051 197.504 153.562 197.504 152.969C197.504 152.164 197.801 151.535 198.395 151.082C198.988 150.629 199.812 150.402 200.867 150.402C202.203 150.402 203.578 150.699 204.992 151.293L205.613 149.559C204.184 148.934 202.617 148.621 200.914 148.621C199.281 148.621 197.969 149.012 196.977 149.793C195.984 150.574 195.488 151.625 195.488 152.945C195.488 154.203 195.828 155.223 196.508 156.004C197.195 156.785 198.336 157.461 199.93 158.031C201.07 158.438 201.918 158.801 202.473 159.121C203.035 159.441 203.434 159.793 203.668 160.176C203.91 160.551 204.031 161.035 204.031 161.629C204.031 162.527 203.695 163.23 203.023 163.738C202.352 164.238 201.352 164.488 200.023 164.488C199.211 164.488 198.391 164.402 197.562 164.23C196.734 164.059 195.969 163.824 195.266 163.527V165.449C196.359 165.973 197.922 166.234 199.953 166.234C201.828 166.234 203.312 165.812 204.406 164.969Z" fill="#F2F2F2"/>
<path fill-rule="evenodd" clip-rule="evenodd" d="M232 96H24V138H232V96ZM32.3369 104.729V129H45.8672V126.443H35.1592V104.729H32.3369ZM50.001 129H63.5312V126.477H52.8232V117.545H62.8838V115.055H52.8232V107.235H63.5312V104.729H50.001V129ZM81.1621 121.28L84.1836 129H87.1055L77.5596 104.629H75.1855L65.5898 129H68.4453L71.4336 121.28H81.1621ZM77.46 111.22L80.2822 118.74H72.4297L75.2852 111.22C75.7389 109.947 76.0876 108.779 76.3311 107.717C76.7184 109.1 77.0947 110.268 77.46 111.22ZM106.546 125.829C108.726 123.704 109.816 120.638 109.816 116.632C109.816 112.88 108.771 109.958 106.679 107.866C104.587 105.774 101.654 104.729 97.8799 104.729H90.4424V129H97.166C101.25 129 104.377 127.943 106.546 125.829ZM104.438 109.576C106.031 111.181 106.828 113.566 106.828 116.731C106.828 119.974 105.981 122.426 104.288 124.086C102.595 125.735 100.066 126.56 96.7012 126.56H93.2646V107.169H97.3652C100.497 107.169 102.855 107.971 104.438 109.576ZM115.245 129H128.775V126.477H118.067V117.545H128.128V115.055H118.067V107.235H128.775V104.729H115.245V129ZM136.993 129V118.906H142.057L147.934 129H151.271L144.68 118.093C147.934 116.964 149.561 114.795 149.561 111.585C149.561 109.294 148.847 107.578 147.419 106.438C146.002 105.299 143.805 104.729 140.828 104.729H134.171V129H136.993ZM140.861 116.482H136.993V107.202H140.662C142.754 107.202 144.27 107.556 145.211 108.265C146.163 108.973 146.639 110.13 146.639 111.734C146.639 113.317 146.174 114.507 145.244 115.304C144.314 116.09 142.854 116.482 140.861 116.482ZM166.561 127.539C168.11 126.344 168.885 124.678 168.885 122.542C168.885 120.882 168.403 119.532 167.44 118.491C166.489 117.451 164.74 116.477 162.194 115.569C160.678 115.027 159.549 114.535 158.808 114.092C158.077 113.638 157.557 113.146 157.247 112.614C156.937 112.072 156.782 111.38 156.782 110.539C156.782 109.399 157.203 108.508 158.044 107.866C158.885 107.224 160.053 106.903 161.547 106.903C163.439 106.903 165.387 107.324 167.391 108.165L168.271 105.708C166.245 104.823 164.026 104.38 161.613 104.38C159.3 104.38 157.441 104.933 156.035 106.04C154.63 107.147 153.927 108.635 153.927 110.506C153.927 112.288 154.408 113.732 155.371 114.839C156.345 115.946 157.961 116.903 160.219 117.711C161.835 118.286 163.035 118.801 163.821 119.255C164.618 119.709 165.183 120.207 165.515 120.749C165.858 121.28 166.029 121.966 166.029 122.808C166.029 124.08 165.553 125.076 164.602 125.796C163.65 126.504 162.233 126.858 160.352 126.858C159.201 126.858 158.038 126.737 156.865 126.493C155.692 126.25 154.607 125.918 153.611 125.497V128.22C155.161 128.961 157.374 129.332 160.252 129.332C162.908 129.332 165.011 128.734 166.561 127.539ZM189.454 129H192.276V104.729H189.454V115.055H176.671V104.729H173.849V129H176.671V117.578H189.454V129ZM198.95 104.729V129H201.772V104.729H198.95ZM221.312 117.479C222.995 116.15 223.836 114.258 223.836 111.801C223.836 107.086 220.803 104.729 214.738 104.729H208.446V129H211.269V119.454H214.124C217.245 119.454 219.641 118.796 221.312 117.479ZM213.809 117.03H211.269V107.169H214.423C216.647 107.169 218.285 107.562 219.337 108.348C220.388 109.133 220.914 110.329 220.914 111.934C220.914 113.715 220.355 115.01 219.237 115.818C218.119 116.626 216.31 117.03 213.809 117.03ZM34.6367 166H36.6289V150.637H42.0547V148.867H29.2109V150.637H34.6367V166ZM44.6445 166H54.1953V164.219H46.6367V157.914H53.7383V156.156H46.6367V150.637H54.1953V148.867H44.6445V166ZM60.875 152.289C61.9688 151.031 63.457 150.402 65.3398 150.402C66.6367 150.402 67.9336 150.707 69.2305 151.316L70.0742 149.605C68.7305 148.949 67.1602 148.621 65.3633 148.621C63.6758 148.621 62.207 148.98 60.957 149.699C59.7148 150.418 58.7617 151.441 58.0977 152.77C57.4414 154.098 57.1133 155.645 57.1133 157.41C57.1133 160.23 57.7969 162.406 59.1641 163.938C60.5391 165.469 62.4883 166.234 65.0117 166.234C66.7539 166.234 68.2188 166.012 69.4062 165.566V163.82C67.875 164.25 66.5117 164.465 65.3164 164.465C63.3711 164.465 61.8711 163.855 60.8164 162.637C59.7695 161.41 59.2461 159.676 59.2461 157.434C59.2461 155.254 59.7891 153.539 60.875 152.289ZM84.1602 166H86.1523V148.867H84.1602V156.156H75.1367V148.867H73.1445V166H75.1367V157.938H84.1602V166ZM101.973 166H104.246V148.867H102.383V158.699C102.367 159.191 102.387 160.012 102.441 161.16C102.496 162.301 102.531 162.977 102.547 163.188H102.453L93.1133 148.867H90.8633V166H92.7031V156.262C92.7031 154.855 92.6406 153.309 92.5156 151.621H92.6094L101.973 166ZM121.742 163.879C123.133 162.309 123.828 160.152 123.828 157.41C123.828 154.66 123.137 152.504 121.754 150.941C120.371 149.379 118.449 148.598 115.988 148.598C113.457 148.598 111.504 149.367 110.129 150.906C108.754 152.438 108.066 154.598 108.066 157.387C108.066 160.199 108.75 162.379 110.117 163.926C111.492 165.465 113.441 166.234 115.965 166.234C118.434 166.234 120.359 165.449 121.742 163.879ZM111.652 162.695C110.668 161.492 110.176 159.73 110.176 157.41C110.176 155.121 110.668 153.379 111.652 152.184C112.645 150.98 114.09 150.379 115.988 150.379C117.879 150.379 119.305 150.977 120.266 152.172C121.234 153.359 121.719 155.105 121.719 157.41C121.719 159.738 121.234 161.5 120.266 162.695C119.297 163.891 117.863 164.488 115.965 164.488C114.082 164.488 112.645 163.891 111.652 162.695ZM129.652 148.867H127.66V166H137.211V164.195H129.652V148.867ZM152.914 163.879C154.305 162.309 155 160.152 155 157.41C155 154.66 154.309 152.504 152.926 150.941C151.543 149.379 149.621 148.598 147.16 148.598C144.629 148.598 142.676 149.367 141.301 150.906C139.926 152.438 139.238 154.598 139.238 157.387C139.238 160.199 139.922 162.379 141.289 163.926C142.664 165.465 144.613 166.234 147.137 166.234C149.605 166.234 151.531 165.449 152.914 163.879ZM142.824 162.695C141.84 161.492 141.348 159.73 141.348 157.41C141.348 155.121 141.84 153.379 142.824 152.184C143.816 150.98 145.262 150.379 147.16 150.379C149.051 150.379 150.477 150.977 151.438 152.172C152.406 153.359 152.891 155.105 152.891 157.41C152.891 159.738 152.406 161.5 151.438 162.695C150.469 163.891 149.035 164.488 147.137 164.488C145.254 164.488 143.816 163.891 142.824 162.695ZM172.191 157.023H166.367V158.805H170.199V164.078C169.066 164.352 167.906 164.488 166.719 164.488C164.531 164.488 162.871 163.891 161.738 162.695C160.613 161.5 160.051 159.746 160.051 157.434C160.051 155.23 160.637 153.508 161.809 152.266C162.98 151.023 164.609 150.402 166.695 150.402C168.125 150.402 169.613 150.73 171.16 151.387L171.934 149.629C170.355 148.957 168.652 148.621 166.824 148.621C165.02 148.621 163.445 148.977 162.102 149.688C160.758 150.391 159.727 151.414 159.008 152.758C158.297 154.094 157.941 155.652 157.941 157.434C157.941 160.215 158.664 162.379 160.109 163.926C161.555 165.465 163.574 166.234 166.168 166.234C167.402 166.234 168.488 166.16 169.426 166.012C170.363 165.863 171.285 165.645 172.191 165.355V157.023ZM178.309 148.867H176.316V166H178.309V148.867ZM183.02 166H192.57V164.219H185.012V157.914H192.113V156.156H185.012V150.637H192.57V148.867H183.02V166ZM204.406 164.969C205.5 164.125 206.047 162.949 206.047 161.441C206.047 160.27 205.707 159.316 205.027 158.582C204.355 157.848 203.121 157.16 201.324 156.52C200.254 156.137 199.457 155.789 198.934 155.477C198.418 155.156 198.051 154.809 197.832 154.434C197.613 154.051 197.504 153.562 197.504 152.969C197.504 152.164 197.801 151.535 198.395 151.082C198.988 150.629 199.812 150.402 200.867 150.402C202.203 150.402 203.578 150.699 204.992 151.293L205.613 149.559C204.184 148.934 202.617 148.621 200.914 148.621C199.281 148.621 197.969 149.012 196.977 149.793C195.984 150.574 195.488 151.625 195.488 152.945C195.488 154.203 195.828 155.223 196.508 156.004C197.195 156.785 198.336 157.461 199.93 158.031C201.07 158.438 201.918 158.801 202.473 159.121C203.035 159.441 203.434 159.793 203.668 160.176C203.91 160.551 204.031 161.035 204.031 161.629C204.031 162.527 203.695 163.23 203.023 163.738C202.352 164.238 201.352 164.488 200.023 164.488C199.211 164.488 198.391 164.402 197.562 164.23C196.734 164.059 195.969 163.824 195.266 163.527V165.449C196.359 165.973 197.922 166.234 199.953 166.234C201.828 166.234 203.312 165.812 204.406 164.969Z" fill="#AED581"/>
<defs>
<linearGradient id="paint0_linear" x1="7.68831" y1="7.97391" x2="247.127" y2="281.126" gradientUnits="userSpaceOnUse">
<stop stop-color="#768EA6"/>
<stop offset="1" stop-color="#5B6D80"/>
</linearGradient>
</defs>
</svg>
