<svg width="296" height="262" viewBox="0 0 296 262" fill="none" xmlns="http://www.w3.org/2000/svg">
<rect width="296" height="262" fill="url(#paint0_linear)"/>
<path fill-rule="evenodd" clip-rule="evenodd" d="M192 96H24V138H192V96ZM47.5723 121.28L50.5938 129H53.5156L43.9697 104.629H41.5957L32 129H34.8555L37.8438 121.28H47.5723ZM43.8701 111.22L46.6924 118.74H38.8398L41.6953 111.22C42.1491 109.947 42.4977 108.779 42.7412 107.717C43.1286 109.1 43.5049 110.268 43.8701 111.22ZM72.5908 129H75.8115V104.729H73.1719V118.657C73.1497 119.354 73.1774 120.517 73.2549 122.144C73.3324 123.759 73.3822 124.717 73.4043 125.016H73.2715L60.04 104.729H56.8525V129H59.459V115.204C59.459 113.212 59.3704 111.021 59.1934 108.63H59.3262L72.5908 129ZM98.5889 125.829C100.769 123.704 101.859 120.638 101.859 116.632C101.859 112.88 100.813 109.958 98.7217 107.866C96.6299 105.774 93.6969 104.729 89.9229 104.729H82.4854V129H89.209C93.293 129 96.4196 127.943 98.5889 125.829ZM96.4805 109.576C98.0742 111.181 98.8711 113.566 98.8711 116.731C98.8711 119.974 98.0244 122.426 96.3311 124.086C94.6377 125.735 92.1087 126.56 88.7441 126.56H85.3076V107.169H89.4082C92.5404 107.169 94.8978 107.971 96.4805 109.576ZM110.11 129V118.906H115.174L121.051 129H124.388L117.797 118.093C121.051 116.964 122.678 114.795 122.678 111.585C122.678 109.294 121.964 107.578 120.536 106.438C119.119 105.299 116.923 104.729 113.945 104.729H107.288V129H110.11ZM113.979 116.482H110.11V107.202H113.779C115.871 107.202 117.387 107.556 118.328 108.265C119.28 108.973 119.756 110.13 119.756 111.734C119.756 113.317 119.291 114.507 118.361 115.304C117.432 116.09 115.971 116.482 113.979 116.482ZM146.418 125.995C148.388 123.771 149.373 120.716 149.373 116.831C149.373 112.935 148.394 109.881 146.435 107.667C144.476 105.453 141.753 104.347 138.267 104.347C134.681 104.347 131.914 105.437 129.966 107.617C128.018 109.786 127.044 112.847 127.044 116.798C127.044 120.782 128.012 123.87 129.949 126.062C131.897 128.242 134.659 129.332 138.233 129.332C141.731 129.332 144.459 128.22 146.418 125.995ZM132.124 124.318C130.729 122.614 130.032 120.118 130.032 116.831C130.032 113.588 130.729 111.12 132.124 109.427C133.53 107.722 135.577 106.87 138.267 106.87C140.945 106.87 142.965 107.717 144.326 109.41C145.699 111.092 146.385 113.566 146.385 116.831C146.385 120.129 145.699 122.625 144.326 124.318C142.954 126.012 140.923 126.858 138.233 126.858C135.566 126.858 133.53 126.012 132.124 124.318ZM154.802 104.729V129H157.624V104.729H154.802ZM180.401 125.829C182.582 123.704 183.672 120.638 183.672 116.632C183.672 112.88 182.626 109.958 180.534 107.866C178.442 105.774 175.509 104.729 171.735 104.729H164.298V129H171.021C175.105 129 178.232 127.943 180.401 125.829ZM178.293 109.576C179.887 111.181 180.684 113.566 180.684 116.731C180.684 119.974 179.837 122.426 178.144 124.086C176.45 125.735 173.921 126.56 170.557 126.56H167.12V107.169H171.221C174.353 107.169 176.71 107.971 178.293 109.576ZM45.7227 163.762C47.2617 162.262 48.0312 160.098 48.0312 157.27C48.0312 154.621 47.293 152.559 45.8164 151.082C44.3398 149.605 42.2695 148.867 39.6055 148.867H34.3555V166H39.1016C41.9844 166 44.1914 165.254 45.7227 163.762ZM44.2344 152.289C45.3594 153.422 45.9219 155.105 45.9219 157.34C45.9219 159.629 45.3242 161.359 44.1289 162.531C42.9336 163.695 41.1484 164.277 38.7734 164.277H36.3477V150.59H39.2422C41.4531 150.59 43.1172 151.156 44.2344 152.289ZM51.8633 166H61.4141V164.219H53.8555V157.914H60.957V156.156H53.8555V150.637H61.4141V148.867H51.8633V166ZM77.1523 148.867H75.0078L71.0938 159.883C70.6406 161.141 70.2734 162.402 69.9922 163.668C69.7266 162.465 69.3672 161.227 68.9141 159.953L64.9766 148.867H62.8672L69.0078 166H70.9766L77.1523 148.867ZM79.5195 166H89.0703V164.219H81.5117V157.914H88.6133V156.156H81.5117V150.637H89.0703V148.867H79.5195V166ZM92.8789 148.867V166H102.43V164.195H94.8711V148.867H92.8789ZM118.133 163.879C119.523 162.309 120.219 160.152 120.219 157.41C120.219 154.66 119.527 152.504 118.145 150.941C116.762 149.379 114.84 148.598 112.379 148.598C109.848 148.598 107.895 149.367 106.52 150.906C105.145 152.438 104.457 154.598 104.457 157.387C104.457 160.199 105.141 162.379 106.508 163.926C107.883 165.465 109.832 166.234 112.355 166.234C114.824 166.234 116.75 165.449 118.133 163.879ZM108.043 162.695C107.059 161.492 106.566 159.73 106.566 157.41C106.566 155.121 107.059 153.379 108.043 152.184C109.035 150.98 110.48 150.379 112.379 150.379C114.27 150.379 115.695 150.977 116.656 152.172C117.625 153.359 118.109 155.105 118.109 157.41C118.109 159.738 117.625 161.5 116.656 162.695C115.688 163.891 114.254 164.488 112.355 164.488C110.473 164.488 109.035 163.891 108.043 162.695ZM133.133 157.867C134.32 156.93 134.914 155.594 134.914 153.859C134.914 150.531 132.773 148.867 128.492 148.867H124.051V166H126.043V159.262H128.059C130.262 159.262 131.953 158.797 133.133 157.867ZM127.836 157.551H126.043V150.59H128.27C129.84 150.59 130.996 150.867 131.738 151.422C132.48 151.977 132.852 152.82 132.852 153.953C132.852 155.211 132.457 156.125 131.668 156.695C130.879 157.266 129.602 157.551 127.836 157.551ZM140.281 150.812L146.094 166H147.699L153.559 150.836H153.652C153.543 152.32 153.488 153.695 153.488 154.961V166H155.48V148.867H152.504L147.031 163H146.938L141.512 148.867H138.512V166H140.352V155.102C140.352 153.445 140.297 152.016 140.188 150.812H140.281ZM160.191 166H169.742V164.219H162.184V157.914H169.285V156.156H162.184V150.637H169.742V148.867H160.191V166ZM184.66 166H186.934V148.867H185.07V158.699C185.055 159.191 185.074 160.012 185.129 161.16C185.184 162.301 185.219 162.977 185.234 163.188H185.141L175.801 148.867H173.551V166H175.391V156.262C175.391 154.855 175.328 153.309 175.203 151.621H175.297L184.66 166ZM194.926 166H196.918V150.637H202.344V148.867H189.5V150.637H194.926V166Z" fill="#FFAB91"/>
<defs>
<linearGradient id="paint0_linear" x1="7.68831" y1="7.97391" x2="247.127" y2="281.126" gradientUnits="userSpaceOnUse">
<stop stop-color="#768EA6"/>
<stop offset="1" stop-color="#5B6D80"/>
</linearGradient>
</defs>
</svg>
