<svg width="296" height="262" viewBox="0 0 296 262" fill="none" xmlns="http://www.w3.org/2000/svg">
<rect width="296" height="262" fill="url(#paint0_linear)"/>
<path fill-rule="evenodd" clip-rule="evenodd" d="M205 96H24V138H205V96ZM47.9424 129H50.7646V104.729H47.9424V115.055H35.1592V104.729H32.3369V129H35.1592V117.578H47.9424V129ZM62.0869 129H64.9092V107.235H72.5957V104.729H54.4004V107.235H62.0869V129ZM78.7715 107.484L87.0059 129H89.2803L97.5811 107.518H97.7139C97.5589 109.62 97.4814 111.568 97.4814 113.361V129H100.304V104.729H96.0869L88.334 124.75H88.2012L80.5146 104.729H76.2646V129H78.8711V113.561C78.8711 111.214 78.7936 109.189 78.6387 107.484H78.7715ZM106.978 104.729V129H120.508V126.443H109.8V104.729H106.978ZM127.364 125.431L127.115 125.049H124.094C123.95 126.067 123.695 127.423 123.33 129.116C122.976 130.81 122.649 132.232 122.351 133.383H124.426C125.012 132.121 125.577 130.754 126.119 129.282C126.661 127.821 127.076 126.537 127.364 125.431ZM145.875 109.576C147.424 107.794 149.533 106.903 152.2 106.903C154.037 106.903 155.875 107.335 157.712 108.198L158.907 105.774C157.004 104.845 154.779 104.38 152.233 104.38C149.843 104.38 147.762 104.889 145.991 105.907C144.231 106.925 142.881 108.375 141.94 110.257C141.011 112.138 140.546 114.33 140.546 116.831C140.546 120.826 141.514 123.909 143.451 126.078C145.399 128.247 148.16 129.332 151.735 129.332C154.203 129.332 156.279 129.017 157.961 128.386V125.912C155.792 126.521 153.86 126.825 152.167 126.825C149.411 126.825 147.286 125.962 145.792 124.235C144.309 122.498 143.567 120.041 143.567 116.864C143.567 113.776 144.337 111.347 145.875 109.576ZM174.629 127.539C176.178 126.344 176.953 124.678 176.953 122.542C176.953 120.882 176.472 119.532 175.509 118.491C174.557 117.451 172.808 116.477 170.263 115.569C168.746 115.027 167.618 114.535 166.876 114.092C166.146 113.638 165.625 113.146 165.315 112.614C165.006 112.072 164.851 111.38 164.851 110.539C164.851 109.399 165.271 108.508 166.112 107.866C166.953 107.224 168.121 106.903 169.615 106.903C171.508 106.903 173.456 107.324 175.459 108.165L176.339 105.708C174.313 104.823 172.094 104.38 169.682 104.38C167.368 104.38 165.509 104.933 164.104 106.04C162.698 107.147 161.995 108.635 161.995 110.506C161.995 112.288 162.477 113.732 163.439 114.839C164.413 115.946 166.029 116.903 168.287 117.711C169.903 118.286 171.104 118.801 171.89 119.255C172.687 119.709 173.251 120.207 173.583 120.749C173.926 121.28 174.098 121.966 174.098 122.808C174.098 124.08 173.622 125.076 172.67 125.796C171.718 126.504 170.301 126.858 168.42 126.858C167.269 126.858 166.107 126.737 164.934 126.493C163.76 126.25 162.676 125.918 161.68 125.497V128.22C163.229 128.961 165.443 129.332 168.32 129.332C170.977 129.332 173.079 128.734 174.629 127.539ZM193.289 127.539C194.839 126.344 195.613 124.678 195.613 122.542C195.613 120.882 195.132 119.532 194.169 118.491C193.217 117.451 191.468 116.477 188.923 115.569C187.407 115.027 186.278 114.535 185.536 114.092C184.806 113.638 184.285 113.146 183.976 112.614C183.666 112.072 183.511 111.38 183.511 110.539C183.511 109.399 183.931 108.508 184.772 107.866C185.614 107.224 186.781 106.903 188.275 106.903C190.168 106.903 192.116 107.324 194.119 108.165L194.999 105.708C192.974 104.823 190.755 104.38 188.342 104.38C186.029 104.38 184.169 104.933 182.764 106.04C181.358 107.147 180.655 108.635 180.655 110.506C180.655 112.288 181.137 113.732 182.1 114.839C183.074 115.946 184.689 116.903 186.947 117.711C188.563 118.286 189.764 118.801 190.55 119.255C191.347 119.709 191.911 120.207 192.243 120.749C192.586 121.28 192.758 121.966 192.758 122.808C192.758 124.08 192.282 125.076 191.33 125.796C190.378 126.504 188.962 126.858 187.08 126.858C185.929 126.858 184.767 126.737 183.594 126.493C182.421 126.25 181.336 125.918 180.34 125.497V128.22C181.889 128.961 184.103 129.332 186.98 129.332C189.637 129.332 191.74 128.734 193.289 127.539ZM31.3555 166H40.9062V164.219H33.3477V157.914H40.4492V156.156H33.3477V150.637H40.9062V148.867H31.3555V166ZM52.7422 164.969C53.8359 164.125 54.3828 162.949 54.3828 161.441C54.3828 160.27 54.043 159.316 53.3633 158.582C52.6914 157.848 51.457 157.16 49.6602 156.52C48.5898 156.137 47.793 155.789 47.2695 155.477C46.7539 155.156 46.3867 154.809 46.168 154.434C45.9492 154.051 45.8398 153.562 45.8398 152.969C45.8398 152.164 46.1367 151.535 46.7305 151.082C47.3242 150.629 48.1484 150.402 49.2031 150.402C50.5391 150.402 51.9141 150.699 53.3281 151.293L53.9492 149.559C52.5195 148.934 50.9531 148.621 49.25 148.621C47.6172 148.621 46.3047 149.012 45.3125 149.793C44.3203 150.574 43.8242 151.625 43.8242 152.945C43.8242 154.203 44.1641 155.223 44.8438 156.004C45.5312 156.785 46.6719 157.461 48.2656 158.031C49.4062 158.438 50.2539 158.801 50.8086 159.121C51.3711 159.441 51.7695 159.793 52.0039 160.176C52.2461 160.551 52.3672 161.035 52.3672 161.629C52.3672 162.527 52.0312 163.23 51.3594 163.738C50.6875 164.238 49.6875 164.488 48.3594 164.488C47.5469 164.488 46.7266 164.402 45.8984 164.23C45.0703 164.059 44.3047 163.824 43.6016 163.527V165.449C44.6953 165.973 46.2578 166.234 48.2891 166.234C50.1641 166.234 51.6484 165.812 52.7422 164.969ZM65.9141 164.969C67.0078 164.125 67.5547 162.949 67.5547 161.441C67.5547 160.27 67.2148 159.316 66.5352 158.582C65.8633 157.848 64.6289 157.16 62.832 156.52C61.7617 156.137 60.9648 155.789 60.4414 155.477C59.9258 155.156 59.5586 154.809 59.3398 154.434C59.1211 154.051 59.0117 153.562 59.0117 152.969C59.0117 152.164 59.3086 151.535 59.9023 151.082C60.4961 150.629 61.3203 150.402 62.375 150.402C63.7109 150.402 65.0859 150.699 66.5 151.293L67.1211 149.559C65.6914 148.934 64.125 148.621 62.4219 148.621C60.7891 148.621 59.4766 149.012 58.4844 149.793C57.4922 150.574 56.9961 151.625 56.9961 152.945C56.9961 154.203 57.3359 155.223 58.0156 156.004C58.7031 156.785 59.8438 157.461 61.4375 158.031C62.5781 158.438 63.4258 158.801 63.9805 159.121C64.543 159.441 64.9414 159.793 65.1758 160.176C65.418 160.551 65.5391 161.035 65.5391 161.629C65.5391 162.527 65.2031 163.23 64.5312 163.738C63.8594 164.238 62.8594 164.488 61.5312 164.488C60.7188 164.488 59.8984 164.402 59.0703 164.23C58.2422 164.059 57.4766 163.824 56.7734 163.527V165.449C57.8672 165.973 59.4297 166.234 61.4609 166.234C63.3359 166.234 64.8203 165.812 65.9141 164.969ZM71.0586 166H80.6094V164.219H73.0508V157.914H80.1523V156.156H73.0508V150.637H80.6094V148.867H71.0586V166ZM95.5273 166H97.8008V148.867H95.9375V158.699C95.9219 159.191 95.9414 160.012 95.9961 161.16C96.0508 162.301 96.0859 162.977 96.1016 163.188H96.0078L86.668 148.867H84.418V166H86.2578V156.262C86.2578 154.855 86.1953 153.309 86.0703 151.621H86.1641L95.5273 166ZM105.793 166H107.785V150.637H113.211V148.867H100.367V150.637H105.793V166ZM115.801 148.867V166H117.793V148.867H115.801ZM131.141 160.551L133.273 166H135.336L128.598 148.797H126.922L120.148 166H122.164L124.273 160.551H131.141ZM128.527 153.449L130.52 158.758H124.977L126.992 153.449C127.312 152.551 127.559 151.727 127.73 150.977C128.004 151.953 128.27 152.777 128.527 153.449ZM137.691 148.867V166H147.242V164.195H139.684V148.867H137.691ZM158.188 164.969C159.281 164.125 159.828 162.949 159.828 161.441C159.828 160.27 159.488 159.316 158.809 158.582C158.137 157.848 156.902 157.16 155.105 156.52C154.035 156.137 153.238 155.789 152.715 155.477C152.199 155.156 151.832 154.809 151.613 154.434C151.395 154.051 151.285 153.562 151.285 152.969C151.285 152.164 151.582 151.535 152.176 151.082C152.77 150.629 153.594 150.402 154.648 150.402C155.984 150.402 157.359 150.699 158.773 151.293L159.395 149.559C157.965 148.934 156.398 148.621 154.695 148.621C153.062 148.621 151.75 149.012 150.758 149.793C149.766 150.574 149.27 151.625 149.27 152.945C149.27 154.203 149.609 155.223 150.289 156.004C150.977 156.785 152.117 157.461 153.711 158.031C154.852 158.438 155.699 158.801 156.254 159.121C156.816 159.441 157.215 159.793 157.449 160.176C157.691 160.551 157.812 161.035 157.812 161.629C157.812 162.527 157.477 163.23 156.805 163.738C156.133 164.238 155.133 164.488 153.805 164.488C152.992 164.488 152.172 164.402 151.344 164.23C150.516 164.059 149.75 163.824 149.047 163.527V165.449C150.141 165.973 151.703 166.234 153.734 166.234C155.609 166.234 157.094 165.812 158.188 164.969Z" fill="#E1BEE7"/>
<defs>
<linearGradient id="paint0_linear" x1="7.68831" y1="7.97391" x2="247.127" y2="281.126" gradientUnits="userSpaceOnUse">
<stop stop-color="#768EA6"/>
<stop offset="1" stop-color="#5B6D80"/>
</linearGradient>
</defs>
</svg>
