<svg width="296" height="262" viewBox="0 0 296 262" fill="none" xmlns="http://www.w3.org/2000/svg">
<rect width="296" height="262" fill="url(#paint0_linear)"/>
<path fill-rule="evenodd" clip-rule="evenodd" d="M110 96H24V138H110V96ZM33.0215 125.563C32.6895 125.94 32.5234 126.499 32.5234 127.24C32.5234 128.037 32.7061 128.613 33.0713 128.967C33.4476 129.31 33.918 129.481 34.4824 129.481C35.1133 129.481 35.6113 129.288 35.9766 128.9C36.3418 128.513 36.5244 127.96 36.5244 127.24C36.5244 126.499 36.3418 125.94 35.9766 125.563C35.6224 125.176 35.1243 124.982 34.4824 124.982C33.8516 124.982 33.3646 125.176 33.0215 125.563ZM58.1396 129H61.3604V104.729H58.7207V118.657C58.6986 119.354 58.7262 120.517 58.8037 122.144C58.8812 123.759 58.931 124.717 58.9531 125.016H58.8203L45.5889 104.729H42.4014V129H45.0078V115.204C45.0078 113.212 44.9193 111.021 44.7422 108.63H44.875L58.1396 129ZM68.0342 129H81.5645V126.477H70.8564V117.545H80.917V115.055H70.8564V107.235H81.5645V104.729H68.0342V129ZM91.6084 129H94.4307V107.235H102.117V104.729H83.9219V107.235H91.6084V129ZM43.7227 163.762C45.2617 162.262 46.0312 160.098 46.0312 157.27C46.0312 154.621 45.293 152.559 43.8164 151.082C42.3398 149.605 40.2695 148.867 37.6055 148.867H32.3555V166H37.1016C39.9844 166 42.1914 165.254 43.7227 163.762ZM42.2344 152.289C43.3594 153.422 43.9219 155.105 43.9219 157.34C43.9219 159.629 43.3242 161.359 42.1289 162.531C40.9336 163.695 39.1484 164.277 36.7734 164.277H34.3477V150.59H37.2422C39.4531 150.59 41.1172 151.156 42.2344 152.289ZM49.8633 166H59.4141V164.219H51.8555V157.914H58.957V156.156H51.8555V150.637H59.4141V148.867H49.8633V166ZM75.1523 148.867H73.0078L69.0938 159.883C68.6406 161.141 68.2734 162.402 67.9922 163.668C67.7266 162.465 67.3672 161.227 66.9141 159.953L62.9766 148.867H60.8672L67.0078 166H68.9766L75.1523 148.867ZM77.5195 166H87.0703V164.219H79.5117V157.914H86.6133V156.156H79.5117V150.637H87.0703V148.867H77.5195V166ZM90.8789 148.867V166H100.43V164.195H92.8711V148.867H90.8789ZM116.133 163.879C117.523 162.309 118.219 160.152 118.219 157.41C118.219 154.66 117.527 152.504 116.145 150.941C114.762 149.379 112.84 148.598 110.379 148.598C107.848 148.598 105.895 149.367 104.52 150.906C103.145 152.438 102.457 154.598 102.457 157.387C102.457 160.199 103.141 162.379 104.508 163.926C105.883 165.465 107.832 166.234 110.355 166.234C112.824 166.234 114.75 165.449 116.133 163.879ZM106.043 162.695C105.059 161.492 104.566 159.73 104.566 157.41C104.566 155.121 105.059 153.379 106.043 152.184C107.035 150.98 108.48 150.379 110.379 150.379C112.27 150.379 113.695 150.977 114.656 152.172C115.625 153.359 116.109 155.105 116.109 157.41C116.109 159.738 115.625 161.5 114.656 162.695C113.688 163.891 112.254 164.488 110.355 164.488C108.473 164.488 107.035 163.891 106.043 162.695ZM131.133 157.867C132.32 156.93 132.914 155.594 132.914 153.859C132.914 150.531 130.773 148.867 126.492 148.867H122.051V166H124.043V159.262H126.059C128.262 159.262 129.953 158.797 131.133 157.867ZM125.836 157.551H124.043V150.59H126.27C127.84 150.59 128.996 150.867 129.738 151.422C130.48 151.977 130.852 152.82 130.852 153.953C130.852 155.211 130.457 156.125 129.668 156.695C128.879 157.266 127.602 157.551 125.836 157.551ZM138.281 150.812L144.094 166H145.699L151.559 150.836H151.652C151.543 152.32 151.488 153.695 151.488 154.961V166H153.48V148.867H150.504L145.031 163H144.938L139.512 148.867H136.512V166H138.352V155.102C138.352 153.445 138.297 152.016 138.188 150.812H138.281ZM158.191 166H167.742V164.219H160.184V157.914H167.285V156.156H160.184V150.637H167.742V148.867H158.191V166ZM182.66 166H184.934V148.867H183.07V158.699C183.055 159.191 183.074 160.012 183.129 161.16C183.184 162.301 183.219 162.977 183.234 163.188H183.141L173.801 148.867H171.551V166H173.391V156.262C173.391 154.855 173.328 153.309 173.203 151.621H173.297L182.66 166ZM192.926 166H194.918V150.637H200.344V148.867H187.5V150.637H192.926V166Z" fill="#FFAB91"/>
<defs>
<linearGradient id="paint0_linear" x1="7.68831" y1="7.97391" x2="247.127" y2="281.126" gradientUnits="userSpaceOnUse">
<stop stop-color="#768EA6"/>
<stop offset="1" stop-color="#5B6D80"/>
</linearGradient>
</defs>
</svg>
