<svg width="296" height="262" viewBox="0 0 296 262" fill="none" xmlns="http://www.w3.org/2000/svg">
<rect width="296" height="262" fill="url(#paint0_linear)"/>
<path fill-rule="evenodd" clip-rule="evenodd" d="M116 96H24V138H116V96ZM32.3438 134.943C32.9414 135.242 33.7604 135.392 34.8008 135.392C36.793 135.392 38.3203 134.811 39.3828 133.648C40.4453 132.497 40.9766 130.87 40.9766 128.768V104.729H38.1543V129C38.1543 130.251 37.8665 131.208 37.291 131.872C36.7266 132.536 35.8965 132.868 34.8008 132.868C33.9486 132.868 33.1296 132.757 32.3438 132.536V134.943ZM59.6699 121.28L62.6914 129H65.6133L56.0674 104.629H53.6934L44.0977 129H46.9531L49.9414 121.28H59.6699ZM55.9678 111.22L58.79 118.74H50.9375L53.793 111.22C54.2467 109.947 54.5954 108.779 54.8389 107.717C55.2262 109.1 55.6025 110.268 55.9678 111.22ZM85.8506 104.729H82.8125L77.2676 120.334C76.6257 122.116 76.1055 123.903 75.707 125.696C75.3307 123.992 74.8216 122.238 74.1797 120.434L68.6016 104.729H65.6133L74.3125 129H77.1016L85.8506 104.729ZM101.439 121.28L104.461 129H107.383L97.8369 104.629H95.4629L85.8672 129H88.7227L91.7109 121.28H101.439ZM97.7373 111.22L100.56 118.74H92.707L95.5625 111.22C96.0163 109.947 96.3649 108.779 96.6084 107.717C96.9958 109.1 97.3721 110.268 97.7373 111.22ZM42.1953 148.867H37.3555V166H43.332C45.1914 166 46.6367 165.57 47.668 164.711C48.707 163.852 49.2266 162.656 49.2266 161.125C49.2266 158.836 47.9258 157.469 45.3242 157.023V156.906C46.4102 156.711 47.2344 156.285 47.7969 155.629C48.3672 154.965 48.6523 154.125 48.6523 153.109C48.6523 151.641 48.1445 150.566 47.1289 149.887C46.1133 149.207 44.4688 148.867 42.1953 148.867ZM42.6289 156.203H39.3477V150.59H42.2773C43.7773 150.59 44.8711 150.805 45.5586 151.234C46.2461 151.656 46.5898 152.348 46.5898 153.309C46.5898 154.355 46.2812 155.102 45.6641 155.547C45.0469 155.984 44.0352 156.203 42.6289 156.203ZM39.3477 164.301V157.891H42.7578C44.2188 157.891 45.3047 158.141 46.0156 158.641C46.7344 159.141 47.0938 159.922 47.0938 160.984C47.0938 162.125 46.7422 162.965 46.0391 163.504C45.3438 164.035 44.3047 164.301 42.9219 164.301H39.3477ZM52.918 166H62.4688V164.219H54.9102V157.914H62.0117V156.156H54.9102V150.637H62.4688V148.867H52.918V166ZM79.6367 157.023H73.8125V158.805H77.6445V164.078C76.5117 164.352 75.3516 164.488 74.1641 164.488C71.9766 164.488 70.3164 163.891 69.1836 162.695C68.0586 161.5 67.4961 159.746 67.4961 157.434C67.4961 155.23 68.082 153.508 69.2539 152.266C70.4258 151.023 72.0547 150.402 74.1406 150.402C75.5703 150.402 77.0586 150.73 78.6055 151.387L79.3789 149.629C77.8008 148.957 76.0977 148.621 74.2695 148.621C72.4648 148.621 70.8906 148.977 69.5469 149.688C68.2031 150.391 67.1719 151.414 66.4531 152.758C65.7422 154.094 65.3867 155.652 65.3867 157.434C65.3867 160.215 66.1094 162.379 67.5547 163.926C69 165.465 71.0195 166.234 73.6133 166.234C74.8477 166.234 75.9336 166.16 76.8711 166.012C77.8086 165.863 78.7305 165.645 79.6367 165.355V157.023ZM85.7539 148.867H83.7617V166H85.7539V148.867ZM101.574 166H103.848V148.867H101.984V158.699C101.969 159.191 101.988 160.012 102.043 161.16C102.098 162.301 102.133 162.977 102.148 163.188H102.055L92.7148 148.867H90.4648V166H92.3047V156.262C92.3047 154.855 92.2422 153.309 92.1172 151.621H92.2109L101.574 166ZM119.668 166H121.941V148.867H120.078V158.699C120.062 159.191 120.082 160.012 120.137 161.16C120.191 162.301 120.227 162.977 120.242 163.188H120.148L110.809 148.867H108.559V166H110.398V156.262C110.398 154.855 110.336 153.309 110.211 151.621H110.305L119.668 166ZM126.652 166H136.203V164.219H128.645V157.914H135.746V156.156H128.645V150.637H136.203V148.867H126.652V166ZM142.004 166V158.875H145.578L149.727 166H152.082L147.43 158.301C149.727 157.504 150.875 155.973 150.875 153.707C150.875 152.09 150.371 150.879 149.363 150.074C148.363 149.27 146.812 148.867 144.711 148.867H140.012V166H142.004ZM144.734 157.164H142.004V150.613H144.594C146.07 150.613 147.141 150.863 147.805 151.363C148.477 151.863 148.812 152.68 148.812 153.812C148.812 154.93 148.484 155.77 147.828 156.332C147.172 156.887 146.141 157.164 144.734 157.164Z" fill="#FFAB91"/>
<defs>
<linearGradient id="paint0_linear" x1="7.68831" y1="7.97391" x2="247.127" y2="281.126" gradientUnits="userSpaceOnUse">
<stop stop-color="#768EA6"/>
<stop offset="1" stop-color="#5B6D80"/>
</linearGradient>
</defs>
</svg>
