<?xml version="1.0" standalone="no"?>
<!DOCTYPE svg PUBLIC "-//W3C//DTD SVG 20010904//EN"
 "http://www.w3.org/TR/2001/REC-SVG-20010904/DTD/svg10.dtd">
<svg version="1.0" xmlns="http://www.w3.org/2000/svg"
 width="188.000000pt" height="58.000000pt" viewBox="0 0 188.000000 58.000000"
 preserveAspectRatio="xMidYMid meet">
<metadata>
Created by potrace 1.15, written by Peter Selinger 2001-2017
</metadata>
<g transform="translate(0.000000,58.000000) scale(0.100000,-0.100000)"
fill="#000000" stroke="none">
<path d="M8 345 l-3 -225 228 0 227 0 0 225 0 225 -225 0 -224 0 -3 -225z
m350 3 l-3 -123 -122 -3 -123 -3 0 126 0 125 125 0 126 0 -3 -122z"/>
<path d="M666 385 c-33 -18 -39 -19 -31 -5 4 6 -12 10 -40 10 l-45 0 2 -192 3
-193 40 0 40 0 0 66 c0 64 1 66 20 53 11 -8 41 -14 68 -14 44 0 54 4 87 38 47
47 59 100 34 160 -29 74 -115 111 -178 77z m86 -82 c18 -16 24 -68 10 -89 -10
-15 -47 -34 -67 -34 -25 0 -65 46 -65 75 0 55 79 87 122 48z"/>
<path d="M1006 379 c-21 -17 -26 -18 -26 -5 0 12 -10 16 -40 16 l-40 0 0 -140
0 -140 40 0 40 0 0 76 c0 102 17 134 73 134 25 0 27 3 27 40 0 35 -3 40 -24
40 -13 0 -35 -9 -50 -21z"/>
<path d="M1182 384 c-122 -62 -99 -244 35 -274 126 -29 228 87 179 204 -30 71
-140 108 -214 70z m102 -65 c36 -17 54 -65 35 -98 -44 -79 -164 -26 -130 57
11 26 40 49 63 51 4 1 18 -4 32 -10z"/>
<path d="M1562 384 c-12 -8 -22 -10 -22 -5 0 6 -20 11 -45 11 l-45 0 0 -141 0
-140 43 3 42 3 3 80 c1 44 4 90 7 101 6 27 30 37 55 24 17 -9 20 -24 22 -108
l3 -97 40 0 40 0 3 80 c3 103 7 121 31 128 40 10 50 -12 53 -113 l3 -95 44 -3
43 -3 -4 116 -3 117 -34 30 c-30 26 -39 30 -78 25 -24 -2 -52 -12 -61 -20 -15
-14 -19 -14 -41 4 -28 23 -69 25 -99 3z"/>
</g>
</svg>
