<svg width="137" height="28" viewBox="0 0 137 28" fill="none" xmlns="http://www.w3.org/2000/svg">
<path d="M2.80599 25.3265C2.92642 25.4469 2.99868 25.5914 3.21546 25.8804C3.45632 26.1935 3.60083 26.2899 3.88986 26.314V26.4585H3.43223C3.16728 26.4585 2.92642 26.4344 2.70965 26.1454C2.51696 25.9045 2.37245 25.6637 2.2761 25.4951C2.13159 25.2783 1.98707 25.2301 1.67395 25.2301V25.9527C1.67395 26.2417 1.69804 26.2899 2.13159 26.3381V26.4826H0.638252V26.314C1.0718 26.2899 1.09589 26.2176 1.09589 25.9286V24.4834C1.09589 24.1703 1.0718 24.1462 0.638252 24.1221V23.9776H2.08341V24.1221C1.69804 24.1462 1.64987 24.1944 1.64987 24.4834V25.0615C1.86664 25.0615 2.01116 25.0374 2.17976 24.8929C2.34836 24.7725 2.54105 24.5075 2.68556 24.3148C2.80599 24.1462 3.04685 23.9054 3.35997 23.9054C3.57675 23.9054 3.67309 24.0017 3.67309 24.0981C3.67309 24.1944 3.60083 24.2667 3.40814 24.2667H3.28771C3.02277 24.2667 2.87825 24.4353 2.68556 24.652C2.56513 24.7966 2.39653 24.9652 2.25202 25.0374V25.0615C2.4447 25.0856 2.66148 25.1819 2.80599 25.3265ZM5.76857 26.5308C4.78105 26.5308 4.1789 25.9045 4.1789 25.2783C4.1789 24.3389 5.09417 23.9054 5.76857 23.9054C6.65976 23.9054 7.33417 24.4594 7.33417 25.1819C7.33417 26.0731 6.46707 26.5308 5.76857 26.5308ZM5.69632 24.074C5.23868 24.074 4.85331 24.4353 4.85331 25.0615C4.85331 25.7841 5.23868 26.314 5.84083 26.314C6.29847 26.314 6.65976 26.049 6.65976 25.2783C6.65976 24.628 6.32255 24.074 5.69632 24.074ZM11.212 26.314V26.4585H9.74277V26.314C10.1281 26.2899 10.1763 26.2417 10.1763 25.8804V25.2301H8.77933V25.8804C8.77933 26.2417 8.8275 26.2899 9.18879 26.314V26.4585H7.71954V26.314C8.17718 26.2899 8.20126 26.2417 8.20126 25.8804V24.5075C8.20126 24.1944 8.17718 24.1462 7.71954 24.1221V23.9776H9.18879V24.1221C8.8275 24.1462 8.77933 24.1944 8.77933 24.5075V25.0374H10.1763V24.5075C10.1763 24.1944 10.1522 24.1462 9.74277 24.1221V23.9776H11.1879V24.1221C10.7785 24.1462 10.7303 24.1944 10.7303 24.5075V25.8804C10.7544 26.2417 10.8026 26.2658 11.212 26.314ZM14.0301 24.4594C13.9819 24.4594 13.9578 24.4353 13.8856 24.3871C13.6688 24.2185 13.4279 24.1462 13.163 24.1462C12.6813 24.1462 12.2718 24.4594 12.2718 25.0615C12.2718 25.8563 12.9462 26.1213 13.3557 26.1213C13.6688 26.1213 13.9096 26.049 14.2469 25.8082L14.3673 25.9286C14.0542 26.2658 13.5724 26.5067 13.1389 26.5067C12.2236 26.5067 11.6937 25.9286 11.6937 25.3265C11.6937 24.8929 11.9346 24.5075 12.4163 24.2185C12.8017 24.0017 13.2352 23.9054 13.5002 23.9054C13.7892 23.9054 14.0301 23.9776 14.1505 24.0499C14.2469 24.1221 14.2709 24.1703 14.2709 24.2185C14.2709 24.3389 14.1264 24.4594 14.0301 24.4594ZM17.089 26.5308C16.9927 26.5308 16.8241 26.4826 16.7518 26.4344C16.6555 26.3621 16.6073 26.2658 16.5832 26.1695C16.2942 26.314 15.957 26.5308 15.7402 26.5308C15.2344 26.5308 14.8731 26.1935 14.8731 25.8323C14.8731 25.5432 15.0658 25.3746 15.4512 25.2783C15.8847 25.1578 16.4146 25.0133 16.5591 24.917V24.8206C16.5591 24.4112 16.3182 24.1703 15.957 24.1703C15.8124 24.1703 15.7161 24.2185 15.6438 24.2908C15.5475 24.363 15.4752 24.4834 15.4271 24.6761C15.403 24.7725 15.3307 24.7966 15.2103 24.7966C15.0899 24.7966 14.8972 24.6761 14.8972 24.5557C14.8972 24.4594 14.9935 24.4112 15.138 24.3389C15.3307 24.2185 15.8124 24.0017 16.2219 23.9295C16.4387 23.9295 16.6555 23.9776 16.8241 24.074C17.0649 24.2426 17.1372 24.4834 17.1372 24.7725V25.8323C17.1372 26.0972 17.2576 26.1695 17.378 26.1695C17.4744 26.1695 17.5707 26.1454 17.643 26.0972L17.7152 26.2417L17.089 26.5308ZM16.5591 25.0856C16.4146 25.1578 16.0533 25.2783 15.9088 25.3265C15.6198 25.4228 15.4752 25.5432 15.4752 25.7359C15.4752 26.0249 15.7643 26.1695 15.981 26.1695C16.1737 26.1695 16.4146 26.0731 16.5591 25.9527V25.0856ZM21.2559 26.314V26.4585H19.7144V26.314C20.172 26.2899 20.1961 26.2417 20.1961 25.8804V24.4112C20.1961 24.1944 20.172 24.1703 19.9552 24.1703H19.5699C19.329 24.1703 19.3049 24.2185 19.3049 24.4112C19.2808 25.5432 18.8955 26.1213 18.6787 26.3621C18.5582 26.4826 18.4378 26.5548 18.3656 26.5548C18.221 26.5548 18.1247 26.5308 18.0524 26.5067V26.4103C18.2933 26.2417 18.5342 25.9768 18.6546 25.7118C18.8232 25.3987 18.9677 24.9652 18.9677 24.4594C18.9677 24.2185 18.9436 24.1462 18.4137 24.1221V23.9776H21.2559V24.1221C20.7742 24.1703 20.7501 24.1944 20.7501 24.5316V25.9045C20.7501 26.2176 20.7742 26.2658 21.2559 26.314ZM24.4834 24.6761L24.2907 24.7002C24.2425 24.5316 24.2185 24.3871 24.1462 24.2908C24.0739 24.1944 23.9294 24.1462 23.6886 24.1462H23.3755V25.9045C23.3755 26.2176 23.4236 26.2658 23.9053 26.314V26.4585H22.2916V26.314C22.7733 26.2899 22.8215 26.2417 22.8215 25.9045V24.1462H22.4602C22.2434 24.1462 22.123 24.1703 22.0266 24.2908C21.9544 24.3871 21.9303 24.5075 21.858 24.7002L21.6653 24.6761C21.7135 24.4353 21.7135 24.1703 21.7135 23.9776H24.4834C24.4593 24.1703 24.4834 24.4353 24.4834 24.6761ZM27.9277 24.4353V25.9045C27.9277 26.2176 27.9518 26.2658 28.4094 26.2899V26.4344H26.9402V26.314C27.3256 26.2899 27.3737 26.2417 27.3737 25.9286V25.1097C27.3737 24.9652 27.3737 24.7484 27.3978 24.3148H27.3737L26.0731 26.2176C26.0249 26.2899 26.0008 26.3381 26.0008 26.3862V26.4344H24.8929V26.314C25.3505 26.2899 25.3746 26.2176 25.3746 25.8804V24.5075C25.3746 24.1703 25.3505 24.1462 24.8929 24.0981V23.9535H26.3862V24.0981C25.9527 24.1221 25.9286 24.1703 25.9286 24.5075V25.1578C25.9286 25.3505 25.9286 25.6396 25.9045 26.0731H25.9286L27.2533 24.1462C27.2774 24.0981 27.3015 24.0499 27.3015 24.0258V23.9776H28.4094V24.1221C27.9759 24.1221 27.9277 24.1703 27.9277 24.4353ZM32.4077 26.314V26.4585H30.9385V26.314C31.3238 26.2899 31.372 26.2417 31.372 25.8804V25.2301H29.975V25.8804C29.975 26.2417 30.0232 26.2899 30.3845 26.314V26.4585H28.9152V26.314C29.3729 26.2899 29.397 26.2417 29.397 25.8804V24.5075C29.397 24.1944 29.3729 24.1462 28.9152 24.1221V23.9776H30.3845V24.1221C30.0232 24.1462 29.975 24.1944 29.975 24.5075V25.0374H31.372V24.5075C31.372 24.1944 31.3479 24.1462 30.9385 24.1221V23.9776H32.3836V24.1221C31.9742 24.1462 31.926 24.1944 31.926 24.5075V25.8804C31.926 26.2417 31.9742 26.2658 32.4077 26.314ZM35.1294 24.7243C35.0572 24.5075 35.009 24.363 34.9367 24.2908C34.8404 24.1703 34.6959 24.1462 34.4791 24.1462H34.1419C33.9492 24.1462 33.9251 24.1703 33.9251 24.3389V25.8804C33.9251 26.2176 33.9733 26.2658 34.4791 26.314V26.4585H32.8894V26.314C33.323 26.2899 33.3712 26.2417 33.3712 25.8804V24.4834C33.3712 24.1703 33.3471 24.1462 32.8653 24.0981V23.9535H35.2739C35.2739 24.0499 35.298 24.4834 35.3221 24.7002L35.1294 24.7243ZM35.2739 27.1088L35.2017 26.9402C35.5389 26.8198 35.7557 26.6753 35.7557 26.4585C35.7557 26.2417 35.563 26.1213 35.298 26.0731C35.2739 26.0731 35.2017 26.0249 35.2017 25.9286C35.2017 25.7841 35.3703 25.6877 35.5389 25.6877C35.8038 25.6877 36.2133 25.9045 36.2133 26.314C36.2374 26.7716 35.7316 27.0125 35.2739 27.1088ZM41.1509 24.6761L40.9582 24.7002C40.9101 24.5316 40.886 24.3871 40.8137 24.2908C40.7415 24.1944 40.597 24.1462 40.3561 24.1462H40.043V25.9045C40.043 26.2176 40.0911 26.2658 40.5729 26.314V26.4585H38.9591V26.314C39.4408 26.2899 39.489 26.2417 39.489 25.9045V24.1462H39.1518C38.935 24.1462 38.8146 24.1703 38.7182 24.2908C38.646 24.3871 38.6219 24.5075 38.5496 24.7002L38.357 24.6761C38.381 24.4353 38.4051 24.1703 38.4051 23.9776H41.175C41.1509 24.1703 41.1509 24.4353 41.1509 24.6761ZM43.1742 26.5308C42.9574 26.5308 42.7647 26.4585 42.6684 26.4344V27.1811C42.6684 27.6146 42.7165 27.6387 43.2705 27.6869V27.8314H41.5604V27.6869C42.018 27.6628 42.0903 27.6146 42.0903 27.2533V24.6761C42.0903 24.3148 42.0662 24.2908 41.6086 24.2426V24.0981C41.9217 24.0499 42.3071 23.9535 42.6443 23.8572V24.3148L43.3187 24.0017C43.4391 23.9535 43.5836 23.9054 43.68 23.9054C44.4748 23.9054 44.9565 24.4112 44.9565 24.9892C44.9806 25.8323 44.1135 26.3862 43.1742 26.5308ZM43.3909 24.2426C43.1501 24.2426 42.861 24.363 42.6684 24.4834V26.0249C42.837 26.1454 43.1019 26.2417 43.3428 26.2417C43.9449 26.2417 44.3544 25.8323 44.3544 25.1819C44.3544 24.5798 43.9208 24.2426 43.3909 24.2426ZM48.0395 24.9411C47.9191 24.9652 47.0038 25.0133 46.1608 25.0374C46.1608 25.8082 46.7389 26.1213 47.2447 26.1213C47.5337 26.1213 47.7987 26.0249 48.0636 25.8323L48.1841 25.9527C47.7264 26.4103 47.2206 26.5067 47.0038 26.5067C46.1127 26.5067 45.6068 25.9286 45.6068 25.3024C45.6068 24.917 45.7755 24.5557 46.0886 24.3148C46.3776 24.0499 46.763 23.9054 47.1483 23.9054C47.7505 23.9054 48.2322 24.3389 48.2322 24.7725C48.2081 24.8688 48.16 24.917 48.0395 24.9411ZM46.9557 24.0981C46.6185 24.0981 46.3053 24.3389 46.209 24.7966C46.6185 24.7966 47.0038 24.7966 47.4374 24.7725C47.5578 24.7725 47.606 24.7484 47.606 24.652C47.5819 24.3871 47.341 24.0981 46.9557 24.0981ZM52.1101 26.314V26.4585H50.6408V26.314C51.0262 26.2899 51.0744 26.2417 51.0744 25.8804V25.2301H49.6774V25.8804C49.6774 26.2417 49.7256 26.2899 50.0868 26.314V26.4585H48.6176V26.314C49.0752 26.2899 49.0993 26.2417 49.0993 25.8804V24.5075C49.0993 24.1944 49.0752 24.1462 48.6176 24.1221V23.9776H50.0868V24.1221C49.7256 24.1462 49.6774 24.1944 49.6774 24.5075V25.0374H51.0744V24.5075C51.0744 24.1944 51.0503 24.1462 50.6408 24.1221V23.9776H52.086V24.1221C51.6765 24.1462 51.6284 24.1944 51.6284 24.5075V25.8804C51.6524 26.2417 51.6765 26.2658 52.1101 26.314ZM55.6266 24.4353V25.9045C55.6266 26.2176 55.6507 26.2658 56.1083 26.2899V26.4344H54.6391V26.314C55.0245 26.2899 55.0727 26.2417 55.0727 25.9286V25.1097C55.0727 24.9652 55.0727 24.7484 55.0967 24.3148H55.0727L53.772 26.2176C53.7238 26.2899 53.6997 26.3381 53.6997 26.3862V26.4344H52.5918V26.314C53.0494 26.2899 53.0735 26.2176 53.0735 25.8804V24.5075C53.0735 24.1703 53.0494 24.1462 52.5918 24.0981V23.9535H54.0851V24.0981C53.6516 24.1221 53.6275 24.1703 53.6275 24.5075V25.1578C53.6275 25.3505 53.6275 25.6396 53.6034 26.0731H53.6275L54.9522 24.1462C55.0004 24.0981 55.0004 24.0499 55.0004 24.0258V23.9776H56.1083V24.1221C55.6748 24.1221 55.6266 24.1703 55.6266 24.4353ZM60.1066 26.314V26.4585H58.6374V26.314C59.0228 26.2899 59.0709 26.2417 59.0709 25.8804V25.2301H57.6739V25.8804C57.6739 26.2417 57.698 26.2899 58.0834 26.314V26.4585H56.6142V26.314C57.0718 26.2899 57.0959 26.2417 57.0959 25.8804V24.5075C57.0959 24.1944 57.0718 24.1462 56.6142 24.1221V23.9776H58.0834V24.1221C57.7221 24.1462 57.6739 24.1944 57.6739 24.5075V25.0374H59.0709V24.5075C59.0709 24.1944 59.0468 24.1462 58.6374 24.1221V23.9776H60.0825V24.1221C59.6731 24.1462 59.6249 24.1944 59.6249 24.5075V25.8804C59.6249 26.2417 59.6731 26.2658 60.1066 26.314ZM62.8284 24.7243C62.7561 24.5075 62.7079 24.363 62.6357 24.2908C62.5393 24.1703 62.3948 24.1462 62.178 24.1462H61.8408C61.6481 24.1462 61.6241 24.1703 61.6241 24.3389V25.8804C61.6241 26.2176 61.6722 26.2658 62.178 26.314V26.4585H60.5883V26.314C61.0219 26.2899 61.0701 26.2417 61.0701 25.8804V24.4834C61.0701 24.1703 61.046 24.1462 60.5643 24.0981V23.9535H62.9729C62.9729 24.0499 62.9969 24.4834 63.021 24.7002L62.8284 24.7243ZM66.4172 24.4353V25.9045C66.4172 26.2176 66.4413 26.2658 66.8989 26.2899V26.4344H65.4296V26.314C65.815 26.2899 65.8632 26.2417 65.8632 25.9286V25.1097C65.8632 24.9652 65.8632 24.7484 65.8873 24.3148H65.8632L64.5625 26.2176C64.5144 26.2899 64.4903 26.3381 64.4903 26.3862V26.4344H63.4064V26.314C63.864 26.2899 63.8881 26.2176 63.8881 25.8804V24.5075C63.8881 24.1703 63.864 24.1462 63.4064 24.0981V23.9535H64.8997V24.0981C64.4662 24.1221 64.4421 24.1703 64.4421 24.5075V25.1578C64.4421 25.3505 64.4421 25.6396 64.418 26.0731H64.4421L65.7668 24.1462C65.815 24.0981 65.815 24.0499 65.815 24.0258V23.9776H66.923V24.1221C66.4653 24.1221 66.4172 24.1703 66.4172 24.4353ZM72.0774 24.4353V25.9045C72.0774 26.2176 72.1015 26.2658 72.5591 26.2899V26.4344H71.0899V26.314C71.4752 26.2899 71.5234 26.2417 71.5234 25.9286V25.1097C71.5234 24.9652 71.5234 24.7484 71.5475 24.3148H71.5234L70.2228 26.2176C70.1746 26.2899 70.1505 26.3381 70.1505 26.3862V26.4344H69.0425V26.314C69.5002 26.2899 69.5243 26.2176 69.5243 25.8804V24.5075C69.5243 24.1703 69.5002 24.1462 69.0425 24.0981V23.9535H70.5359V24.0981C70.1023 24.1221 70.0782 24.1703 70.0782 24.5075V25.1578C70.0782 25.3505 70.0782 25.6396 70.0542 26.0731H70.0782L71.403 24.1462C71.4511 24.0981 71.4511 24.0499 71.4511 24.0258V23.9776H72.5591V24.1221C72.1015 24.1221 72.0774 24.1703 72.0774 24.4353ZM76.172 26.5308C75.9552 26.5308 75.7625 26.4585 75.6662 26.4344V27.1811C75.6662 27.6146 75.7144 27.6387 76.2683 27.6869V27.8314H74.5582V27.6869C75.0159 27.6628 75.0881 27.6146 75.0881 27.2533V24.6761C75.0881 24.3148 75.064 24.2908 74.6064 24.2426V24.0981C74.9195 24.0499 75.3049 23.9535 75.6421 23.8572V24.3148L76.3165 24.0017C76.437 23.9535 76.5815 23.9054 76.6778 23.9054C77.4726 23.9054 77.9544 24.4112 77.9544 24.9892C77.9544 25.8323 77.1114 26.3862 76.172 26.5308ZM76.3888 24.2426C76.1479 24.2426 75.8589 24.363 75.6662 24.4834V26.0249C75.8348 26.1454 76.0997 26.2417 76.3406 26.2417C76.9428 26.2417 77.3522 25.8323 77.3522 25.1819C77.3522 24.5798 76.9187 24.2426 76.3888 24.2426ZM80.7724 26.5308C80.6761 26.5308 80.5075 26.4826 80.4352 26.4344C80.3389 26.3621 80.2907 26.2658 80.2666 26.1695C79.9776 26.314 79.6404 26.5308 79.4236 26.5308C78.9178 26.5308 78.5565 26.1935 78.5565 25.8323C78.5565 25.5432 78.7492 25.3746 79.1346 25.2783C79.5681 25.1578 80.098 25.0133 80.2425 24.917V24.8206C80.2425 24.4112 80.0017 24.1703 79.6404 24.1703C79.4959 24.1703 79.3995 24.2185 79.3273 24.2908C79.2309 24.363 79.1587 24.4834 79.1105 24.6761C79.0864 24.7725 79.0141 24.7966 78.8937 24.7966C78.7733 24.7966 78.5806 24.6761 78.5806 24.5557C78.5806 24.4594 78.6769 24.4112 78.8215 24.3389C79.0142 24.2185 79.4959 24.0017 79.9053 23.9295C80.1221 23.9295 80.3389 23.9776 80.5075 24.074C80.7483 24.2426 80.8206 24.4834 80.8206 24.7725V25.8323C80.8206 26.0972 80.941 26.1695 81.0615 26.1695C81.1578 26.1695 81.2542 26.1454 81.3264 26.0972L81.3987 26.2417L80.7724 26.5308ZM80.2425 25.0856C80.098 25.1578 79.7367 25.2783 79.5922 25.3265C79.3032 25.4228 79.1587 25.5432 79.1587 25.7359C79.1587 26.0249 79.4477 26.1695 79.6645 26.1695C79.8572 26.1695 80.098 26.0731 80.2425 25.9527V25.0856ZM84.2167 25.7359C84.2167 26.2417 83.5423 26.5308 82.8679 26.5308C82.4103 26.5308 82.049 26.4103 81.8804 26.2417C81.784 26.1454 81.7359 26.049 81.7359 25.9768C81.7359 25.8804 81.8322 25.8082 81.9286 25.8082C82.0249 25.8082 82.0972 25.8563 82.1694 25.9768C82.3139 26.2176 82.5789 26.3862 82.8679 26.3862C83.2774 26.3862 83.5182 26.1695 83.5182 25.7841C83.5182 25.5191 83.3496 25.2542 82.9883 25.2542C82.8438 25.2542 82.7234 25.2783 82.5548 25.2783C82.4103 25.2783 82.3139 25.206 82.3139 25.1338C82.3139 25.0615 82.4103 24.9892 82.5548 24.9892C82.7234 24.9892 82.8438 25.0133 82.9883 25.0133C83.2292 25.0133 83.3978 24.8688 83.3978 24.6039C83.3978 24.2426 83.1569 24.074 82.8197 24.074C82.4103 24.074 82.1935 24.363 82.0731 24.7002L81.8804 24.652L81.9767 24.1221C82.2176 24.0017 82.603 23.9054 82.9402 23.9054C83.6146 23.9054 84.0481 24.1462 84.0481 24.5557C84.0481 24.7243 83.9518 24.8206 83.8554 24.8929C83.7591 24.9652 83.6146 25.0133 83.3496 25.0856C83.8073 25.1338 84.2167 25.3264 84.2167 25.7359ZM87.7092 25.7118C87.7092 26.2899 86.8662 26.4585 86.1195 26.4585H84.6984V26.314C85.1802 26.2899 85.2043 26.2417 85.2043 25.8804V24.5075C85.2043 24.1703 85.1802 24.1221 84.7225 24.074V23.9535H86.4326C87.0589 23.9535 87.4924 24.1221 87.4924 24.5075C87.4924 24.8688 87.083 25.0133 86.7939 25.0856C87.3238 25.1578 87.7092 25.3265 87.7092 25.7118ZM86.8903 24.5798C86.8903 24.2667 86.5772 24.1462 86.1677 24.1462C85.7823 24.1462 85.7582 24.1703 85.7582 24.3148V25.0374H86.1195C86.5772 25.0133 86.8903 24.8929 86.8903 24.5798ZM86.1677 25.206H85.7823V25.8804C85.7823 26.2176 85.9268 26.2658 86.24 26.2658C86.6735 26.2658 87.0589 26.0972 87.0589 25.7359C87.0589 25.3505 86.6976 25.206 86.1677 25.206ZM91.2498 24.4353V25.9045C91.2498 26.2176 91.2739 26.2658 91.7316 26.2899V26.4344H90.2623V26.314C90.6477 26.2899 90.6959 26.2417 90.6959 25.9286V25.1097C90.6959 24.9652 90.6959 24.7484 90.72 24.3148H90.6959L89.3952 26.2176C89.3471 26.2899 89.323 26.3381 89.323 26.3862V26.4344H88.215V26.314C88.6726 26.2899 88.6967 26.2176 88.6967 25.8804V24.5075C88.6967 24.1703 88.6726 24.1462 88.215 24.0981V23.9535H89.7083V24.0981C89.2748 24.1221 89.2507 24.1703 89.2507 24.5075V25.1578C89.2507 25.3505 89.2507 25.6396 89.2266 26.0731H89.2507L90.5754 24.1462C90.6236 24.0981 90.6236 24.0499 90.6236 24.0258V23.9776H91.7316V24.1221C91.2739 24.1221 91.2498 24.1703 91.2498 24.4353ZM95.0073 24.6761L94.8146 24.7002C94.7664 24.5316 94.7423 24.3871 94.6701 24.2908C94.5978 24.1944 94.4533 24.1462 94.2124 24.1462H93.8993V25.9045C93.8993 26.2176 93.9475 26.2658 94.4292 26.314V26.4585H92.7914V26.314C93.2731 26.2899 93.3213 26.2417 93.3213 25.9045V24.1462H92.984C92.7673 24.1462 92.6468 24.1703 92.5505 24.2908C92.4782 24.3871 92.4541 24.5075 92.3819 24.7002L92.1892 24.6761C92.2374 24.4353 92.2374 24.1703 92.2374 23.9776H95.0073C95.0073 24.1703 95.0073 24.4353 95.0073 24.6761ZM98.4516 24.4353V25.9045C98.4516 26.2176 98.4757 26.2658 98.9333 26.2899V26.4344H97.464V26.314C97.8494 26.2899 97.8976 26.2417 97.8976 25.9286V25.1097C97.8976 24.9652 97.8976 24.7484 97.9217 24.3148H97.8976L96.5969 26.2176C96.5488 26.2899 96.5247 26.3381 96.5247 26.3862V26.4344H95.4408V26.314C95.8984 26.2899 95.9225 26.2176 95.9225 25.8804V24.5075C95.9225 24.1703 95.8984 24.1462 95.4408 24.0981V23.9535H96.9342V24.0981C96.5006 24.1221 96.4765 24.1703 96.4765 24.5075V25.1578C96.4765 25.3505 96.4765 25.6396 96.4524 26.0731H96.4765L97.8012 24.1462C97.8494 24.0981 97.8494 24.0499 97.8494 24.0258V23.9776H98.9574V24.1221C98.4997 24.1221 98.4516 24.1703 98.4516 24.4353ZM101.872 24.9411C101.751 24.9652 100.836 25.0133 99.9931 25.0374C99.9931 25.8082 100.571 26.1213 101.077 26.1213C101.366 26.1213 101.631 26.0249 101.896 25.8323L102.016 25.9527C101.559 26.4103 101.053 26.5067 100.836 26.5067C99.9449 26.5067 99.4391 25.9286 99.4391 25.3024C99.4391 24.917 99.6077 24.5557 99.9208 24.3148C100.21 24.0499 100.595 23.9054 100.981 23.9054C101.583 23.9054 102.064 24.3389 102.064 24.7725C102.04 24.8688 102.016 24.917 101.872 24.9411ZM100.788 24.0981C100.451 24.0981 100.138 24.3389 100.041 24.7966C100.451 24.7966 100.836 24.7966 101.27 24.7725C101.39 24.7725 101.438 24.7484 101.438 24.652C101.438 24.3871 101.173 24.0981 100.788 24.0981ZM107.098 25.7118C107.098 26.2899 106.255 26.4585 105.509 26.4585H104.088V26.314C104.569 26.2899 104.593 26.2417 104.593 25.8804V24.5075C104.593 24.1703 104.545 24.1221 104.112 24.074V23.9535H105.822C106.448 23.9535 106.882 24.1221 106.882 24.5075C106.882 24.8688 106.472 25.0133 106.183 25.0856C106.713 25.1578 107.098 25.3265 107.098 25.7118ZM106.28 24.5798C106.28 24.2667 105.966 24.1462 105.557 24.1462C105.172 24.1462 105.147 24.1703 105.147 24.3148V25.0374H105.509C105.966 25.0133 106.28 24.8929 106.28 24.5798ZM105.533 25.206H105.147V25.8804C105.147 26.2176 105.292 26.2658 105.605 26.2658C106.039 26.2658 106.424 26.0972 106.424 25.7359C106.448 25.3505 106.063 25.206 105.533 25.206ZM111.193 26.2899V26.4585H109.29V26.2899C109.892 26.2658 109.941 26.2176 109.941 25.7359V23.4477C109.941 22.966 109.892 22.9178 109.29 22.8938V22.7252H111.193V22.8938C110.591 22.9178 110.543 22.966 110.543 23.4477V25.7359C110.543 26.2417 110.591 26.2658 111.193 26.2899ZM115.529 23.6404C115.456 23.3755 115.384 23.231 115.288 23.1346C115.167 22.9901 115.047 22.966 114.517 22.966H114.011V25.76C114.011 26.2176 114.059 26.2658 114.758 26.2899V26.4585H112.686V26.2899C113.337 26.2658 113.409 26.1935 113.409 25.76V22.9419H112.951C112.349 22.9419 112.205 22.9901 112.108 23.1105C112.012 23.2069 111.964 23.3755 111.867 23.6163H111.651C111.675 23.2791 111.723 22.8938 111.747 22.5806H111.892C111.988 22.7011 112.084 22.7252 112.277 22.7252H115.119C115.312 22.7252 115.36 22.7011 115.48 22.5806H115.625C115.625 22.8456 115.673 23.2551 115.697 23.5923L115.529 23.6404Z" fill="#829299"/>
<path d="M41.3196 7.91225L42.548 8.63483C44.3304 9.67053 45.5588 10.6099 46.2091 11.4047C46.8594 12.2236 47.1966 13.2112 47.1966 14.3914C47.1966 16.0774 46.5704 17.4021 45.342 18.4138C44.1136 19.4254 42.4517 19.9071 40.3803 19.9071C38.911 19.9071 37.225 19.6903 35.2981 19.2327V15.403H37.1046L37.1287 15.692C37.1768 16.7759 37.3936 17.4744 37.7549 17.7634C38.5016 18.3897 39.3687 18.6787 40.3803 18.6787C41.3437 18.6787 42.1145 18.3656 42.7166 17.7634C43.3188 17.1613 43.6078 16.3664 43.6078 15.403C43.6078 14.6322 43.4392 14.006 43.0779 13.5484C42.7166 13.0907 42.0422 12.5608 41.0547 12.0069L39.8504 11.3325C36.8396 9.64644 35.3222 7.79182 35.3222 5.79268C35.3222 4.22708 35.8762 2.97461 36.9601 2.03526C38.0439 1.0959 39.4891 0.614182 41.2956 0.614182C42.7166 0.614182 44.3304 0.879128 46.1609 1.43311V5.14235H44.3545L44.3304 4.92558C44.2581 3.76945 44.0895 3.04687 43.8246 2.75784C43.2224 2.15569 42.4517 1.84257 41.5605 1.84257C40.7898 1.84257 40.1394 2.1316 39.5855 2.68558C39.0556 3.26364 38.7906 3.93805 38.7906 4.78106C38.7906 5.4073 38.9592 5.93719 39.3205 6.37074C39.6577 6.82838 40.3321 7.33418 41.3196 7.91225ZM58.7098 19.9312L54.4465 13.3557H53.8925V16.3424C53.8925 17.4503 53.9648 18.1247 54.1093 18.3656C54.2538 18.6064 54.6633 18.751 55.3377 18.7991L55.5545 18.8232V19.9793H48.3528V18.8232L48.5936 18.7991C49.4125 18.751 49.9184 18.6064 50.0629 18.3656C50.2315 18.1488 50.3037 17.4744 50.3037 16.3664V3.93805C50.3037 2.8301 50.2315 2.15569 50.0629 1.93891C49.8943 1.69805 49.4125 1.57762 48.5936 1.52945L48.3528 1.50536V0.349236H53.9166V12.5849H54.5188L57.2405 9.76687C58.3485 8.73117 58.8784 8.05676 58.8784 7.74364C58.8784 7.55096 58.5171 7.45461 57.8186 7.45461H57.5777V6.29848H62.8285V7.45461L62.6117 7.4787C61.8891 7.52687 61.3592 7.6473 61.0461 7.83999C60.733 8.03268 59.9381 8.70709 58.6616 9.91139L57.0719 11.5974L60.6607 16.3664C61.5519 17.4744 62.1781 18.1488 62.4672 18.3897C62.7803 18.6305 63.2379 18.751 63.8642 18.7991L64.105 18.8232V19.9793H58.7098V19.9312ZM64.6831 19.9312V18.775L64.9239 18.751C65.7429 18.7028 66.2487 18.5583 66.3932 18.3174C66.5618 18.1006 66.6341 17.4262 66.6341 16.3183V9.91139C66.6341 8.80343 66.5618 8.12902 66.3932 7.91225C66.2246 7.69547 65.7429 7.55096 64.9239 7.4787L64.6831 7.45461V6.29848H70.247V16.3183C70.247 17.4262 70.3192 18.1006 70.4878 18.3174C70.6564 18.5342 71.1381 18.6787 71.9571 18.751L72.1979 18.775V19.9312H64.6831ZM66.6341 0.32515H70.247V4.01031H66.6341V0.32515ZM72.8001 19.9312V18.775L73.0409 18.751C73.8599 18.7028 74.3657 18.5583 74.5102 18.3174C74.6788 18.1006 74.751 17.4262 74.751 16.3183V3.93805C74.751 2.8301 74.6788 2.15569 74.5102 1.93891C74.3416 1.69805 73.8599 1.57762 73.0409 1.52945L72.8001 1.50536V0.349236H78.3639V16.3424C78.3639 17.4503 78.4362 18.1247 78.6048 18.3415C78.7734 18.5583 79.2551 18.7028 80.0741 18.775L80.3149 18.7991V19.9553H72.8001V19.9312ZM80.9171 19.9312V18.775L81.1579 18.751C81.9768 18.7028 82.4827 18.5583 82.6272 18.3174C82.7958 18.1006 82.868 17.4262 82.868 16.3183V3.93805C82.868 2.8301 82.7958 2.15569 82.6272 1.93891C82.4586 1.69805 81.9768 1.57762 81.1579 1.52945L80.9171 1.50536V0.349236H86.4809V16.3424C86.4809 17.4503 86.5532 18.1247 86.7218 18.3415C86.8904 18.5583 87.3721 18.7028 88.191 18.775L88.4319 18.7991V19.9553H80.9171V19.9312ZM93.9717 10.2245C94.3089 10.5135 94.9833 10.8748 95.9949 11.2602L97.1029 11.6938C99.6078 12.6813 100.836 13.9819 100.836 15.6198C100.836 16.8722 100.306 17.9079 99.2465 18.7028C98.1867 19.5217 96.8379 19.9312 95.2242 19.9312C93.2009 19.9312 91.4667 19.6181 90.0216 18.9918V15.4993H91.6594L91.6835 15.7161C91.7317 16.7518 91.8762 17.4021 92.1411 17.6912C92.7915 18.4138 93.7549 18.775 95.0556 18.775C95.6818 18.775 96.2117 18.5824 96.6211 18.1729C97.0547 17.7634 97.2715 17.2576 97.2715 16.6796C97.2715 15.7643 96.5007 14.9935 94.9833 14.3914L93.8753 13.9338C91.3222 12.8981 90.0216 11.5011 90.0216 9.74278C90.0216 8.49031 90.5033 7.50278 91.4908 6.7802C92.4784 6.05762 93.8031 5.67225 95.4891 5.67225C96.8138 5.67225 98.2108 5.88902 99.656 6.32257V9.59827H97.994L97.97 9.35741L97.9459 8.75526C97.9459 7.4787 97.2233 6.82837 95.754 6.82837C95.1037 6.82837 94.5738 7.04515 94.1162 7.45461C93.6586 7.88816 93.4418 8.39397 93.4418 8.99612C93.4659 9.52601 93.6345 9.93547 93.9717 10.2245ZM119.696 2.27612C118.877 2.34838 118.395 2.49289 118.226 2.70967C118.082 2.92644 117.985 3.60085 117.985 4.70881V12.2477C117.985 14.8972 117.431 16.8241 116.348 18.0765C115.264 19.329 113.554 19.9553 111.241 19.9553C106.376 19.9553 103.943 17.4744 103.943 12.5127V4.80515C103.943 3.69719 103.871 3.02278 103.702 2.78192C103.534 2.54106 103.052 2.42063 102.233 2.34838L101.992 2.32429V1.0959H109.676V2.25203L109.459 2.27612C108.616 2.34838 108.134 2.49289 107.966 2.70967C107.797 2.92644 107.725 3.60085 107.725 4.70881V12.6572C107.725 14.8731 108.038 16.4387 108.64 17.354C109.242 18.2692 110.278 18.751 111.747 18.751C113.313 18.751 114.445 18.2692 115.143 17.2817C115.842 16.2942 116.203 14.7286 116.203 12.5608V4.68472C116.203 3.57676 116.131 2.92644 115.962 2.68558C115.794 2.46881 115.312 2.32429 114.469 2.25203L114.252 2.22795V1.07182H119.936V2.22795L119.696 2.27612ZM134.219 17.7634C133.208 19.1122 131.859 19.7867 130.149 19.7867C129.426 19.7867 128.728 19.6421 128.102 19.3531C127.451 19.0641 126.873 18.6546 126.295 18.0765V20.7742C126.295 21.8821 126.367 22.5325 126.536 22.7733C126.705 23.0142 127.186 23.1587 128.005 23.2069L128.246 23.231V24.3871H120.731V23.231L120.972 23.2069C121.791 23.1587 122.297 23.0142 122.441 22.7733C122.61 22.5565 122.682 21.8821 122.682 20.7742V9.45375C122.682 8.34579 122.61 7.67139 122.441 7.45461C122.273 7.23784 121.791 7.09332 120.972 7.02106L120.731 6.99698V5.84085H126.295V8.41805C126.801 7.45461 127.427 6.73203 128.174 6.25031C128.921 5.76859 129.788 5.52773 130.751 5.52773C132.268 5.52773 133.473 6.12988 134.364 7.35827C135.255 8.58665 135.713 10.2245 135.713 12.32C135.737 14.5841 135.231 16.3905 134.219 17.7634ZM131.233 9.09246C130.799 8.29762 130.149 7.88816 129.258 7.88816C128.752 7.88816 128.246 8.03268 127.74 8.3458C127.234 8.63483 126.753 9.09246 126.295 9.69461V16.7277C126.777 17.1613 127.234 17.4985 127.668 17.7153C128.102 17.932 128.535 18.0525 128.921 18.0525C129.908 18.0525 130.655 17.6189 131.136 16.7277C131.618 15.8365 131.883 14.5118 131.883 12.7295C131.883 11.0916 131.666 9.91139 131.233 9.09246Z" fill="#455A64"/>
<path d="M0.614189 20.0998V11.5733H8.5144V20.0998H0.614189ZM10.6821 20.148V5.76861H19.6421V20.1239H10.6821V20.148ZM21.8099 20.0998V0.325165H32.4318V20.0998H21.8099Z" fill="#70BF04"/>
</svg>
